<svg id="Warstwa_1" data-name="Warstwa 1" xmlns="http://www.w3.org/2000/svg" xmlns:xlink="http://www.w3.org/1999/xlink" viewBox="0 0 213 110"><defs><style>.cls-1{fill:none;}.cls-2{clip-path:url(#clip-path);}.cls-3{clip-path:url(#clip-path-2);}.cls-4{fill:#272525;}</style><clipPath id="clip-path"><rect class="cls-1" width="213" height="109.75"/></clipPath><clipPath id="clip-path-2"><rect class="cls-1" width="213" height="109.75"/></clipPath></defs><g id="żyletka"><g class="cls-2"><g class="cls-3"><path class="cls-4" d="M154.85,81.41c1.3-2.25-.92-2.61-2.17-.46l-1.39,2.44c1.71.62,2.71-.49,3.56-2"/><path class="cls-4" d="M134.68,81l-3,5.27c-1,1.71,1.3,2,3.75-1.85l1.68-3c1.07-2-1.25-2.48-2.41-.46"/><path class="cls-4" d="M88.55,96.51l0,0,0,0s-.33,1.9-.33,1.92c-.09.55-.16.89-.23,1.31,0,0-.11.63-.11.63a.13.13,0,0,0,.13.16c1.46,0,1.24,0,1.24,0s-.59-3.9-.62-4"/><path class="cls-4" d="M138.52,18.61l1.07-1c3-2.83-.29-4.41-1.07,1"/><path class="cls-4" d="M164.4,96.23a1,1,0,0,0-.56.39c-.16.24-.1,5-.1,5.29a1,1,0,0,0,1.93,0c0-.29.07-5-.09-5.29a1.11,1.11,0,0,0-1.18-.39"/><path class="cls-4" d="M112.83,81.87c-2.62-2.08-6.47.92-5,4.65a47.45,47.45,0,0,0,5-4.65"/><path class="cls-4" d="M87.11,23.94c0-4.45-7.08,3.32-3.2,6.18.6-1,3.2-5.1,3.2-6.18"/><path class="cls-4" d="M48,96.3c-.23,0-.14,6-.14,6.2s.94.12,1.15.12c.53,0,.72-.35.72-.88s.1-4.79-.16-5.19S48.44,96.3,48,96.3"/><path class="cls-4" d="M97.71,25.48c1.57-2.73-1.12-3.17-2.64-.56l-1.7,3c2.08.75,3.29-.59,4.34-2.41"/><path class="cls-4" d="M116.79,79.91,114.67,82a3.76,3.76,0,0,1-.84,4.68l-.89-.91a2.51,2.51,0,0,0,.73-2.82c-1.3,1.27-3.74,3.88-5.19,4.67,2.59,3.06,8.31,1.62,8.31-6.13Z"/><path class="cls-4" d="M157.12,31.26a1.59,1.59,0,0,1,1.42-2.46l1.92-3.29c1.6-2.74-.93-4-2.78-.84-1.44,2.43-1,1.7-3.27,5.63-1.59,2.77,1.53,3.19,2.71,1"/><path class="cls-4" d="M83.15,31.41a3.86,3.86,0,0,1-1.67-2.74c-.42.72-1.39,2.18-1.39,3,0,1.33,2,1.42,3.06-.26"/><path class="cls-4" d="M57.26,96.51l0,0,0,0s-.56,3.22-.56,3.23c-.05.27-.22.79,0,.79,1.46,0,1.23,0,1.23,0s-.59-3.9-.62-4"/><path class="cls-4" d="M119,75.76l.88-.85c2.44-2.33-.23-3.63-.88.85"/><path class="cls-4" d="M47.38,23.38c-1,1.64-4.63,8.25-5.75,9.55,8.6,4.87,14.46-8.63,5.75-9.55"/><path class="cls-4" d="M61.34,29.08l2-3.6c1.3-2.38-1.52-3-2.93-.55l-3.68,6.41c-1.21,2.07,1.58,2.43,4.56-2.26"/><path class="cls-4" d="M202.32,24.35h-4.39c-2.08,0-3.9-1.49-3.9-4.31a3.89,3.89,0,0,1,4.15-3.9V10.58A10.58,10.58,0,0,0,187.6,0H25.4A10.58,10.58,0,0,0,14.82,10.58c0,.42-.17,5.56.25,5.56,2.08,0,3.9,1.49,3.9,4.32,0,4.39-4,3.89-8.29,3.89A10.68,10.68,0,0,0,0,35V74.19A10.68,10.68,0,0,0,10.68,84.87h4.39c2.08,0,3.9,1.48,3.9,4.31a3.89,3.89,0,0,1-4.15,3.9c0,21.22.37,16.14,93.16,16.14,92.1,0,90.2,4.18,90.2-16.14a3.89,3.89,0,0,1-4.15-3.9c0-2.83,1.82-4.31,3.9-4.31h4.39A10.68,10.68,0,0,0,213,74.19V35a10.68,10.68,0,0,0-10.68-10.68M158,7.07l24.5.77L158,8.61Zm-6.91,17.6-3.8,6.67c-.61,1-.27,1.44.31,1.44,1.5,0,4-2.91,5-4,1.38-2.36.84-1.43,2.41-4.18,3.63-6.29,10.36-3.05,7.48,1.93L160,30.78c4.36-.09,6-5.44,8.26-9.3h2.64l-.53.91c2.69-2.41,6.67-1,4.21,3.17l-2.92,5c-.33.56-.65,1.29-1.09,2a13.07,13.07,0,0,0,5-3.9,1.57,1.57,0,0,1,1,.91c-5.81,6.77-10.94,5.33-11.53,2.74l1.5-.72c1.34,2.77,4.32-4.18,5.88-6.89.68-1.19-1.17-2.66-4.11,1.35l-7.88,13.71h-2.66l4.79-8.32a7,7,0,0,1-3.38.69c-2.86,3.62-7.47,2.9-7.43-.49-1.65,1.59-3.37,2.79-4.92,2.79-4.86,0-.79-5.51,1.63-9.7,1.14-2-.66-2.61-4.72,2.48l-4,7h-2.67L147.58,15.9h2.64L146,23.22c3.63-3.77,6.85-1.63,5.09,1.45M146,9.48c.8,0,.81.21.81,1,0,.46.48.62.94.62s1-.21,1-.65c0-1.73.21-1.91-1.3-2.74s-1.29-1.15-1.29-2.26a1.65,1.65,0,0,1,3.29,0v.76c-.75,0-.82-.31-.82-1s-1.68-.74-1.68-.06c0,1.38-.21,1.36,1.3,2.24s1.3,1.35,1.3,2.91c0,1.06-.72,1.56-1.75,1.56S146,11.34,146,10.26ZM140.42,4a1.43,1.43,0,0,1,.65,0c.14.06.09.8.07.94,0,.4-.57.76-.57.76-.21,0,0-.17-.09-.14.16-.12.47-.44.47-.65s-.07-.21-.23-.21a.7.7,0,0,1-.31,0,.13.13,0,0,1-.07-.12c0-.64.08-.54.08-.54m-9.3,7.3a3.63,3.63,0,0,1,.27-.25c0-.07,0-6.3,0-6.38-.33-.1-.36-.37-.36-.7.39,0,1.19-.11,1.28.22a2.72,2.72,0,0,0,.13.37c.33.93.33.9.72,2,.33.94.44,1.23.78,2.16.25.72.23.6.23.6s0-4.51,0-4.54c0-.23-.2-.28-.1-.22a.48.48,0,0,1-.28-.46V4h1.59a.63.63,0,0,1-.1.43,3.06,3.06,0,0,1-.26.26c0,.07,0,6.82,0,6.91s0,.17-.18.17c-.52,0-.5,0-.5,0s-.22-.34-.27-.47-.4-1.09-.54-1.47c-.29-.79-.42-1.12-.7-1.88s-.31-.87-.59-1.62c0-.09,0,4.53,0,4.63s0,.16.1.21a.56.56,0,0,1,.27.49v.13H131a.62.62,0,0,1,.1-.44m-8.61,0,.3-.21c.06-.11,0-6.2,0-6.32s-.45-.23-.45-.64V4a35.45,35.45,0,0,1,3.59.08,4.41,4.41,0,0,1,.07,1.22h-.12a.52.52,0,0,1-.52-.52c0-.2-1.39-.12-1.62-.12s-.17,2.72,0,2.72c1.78,0,1.57.05,1.57.05s.05.38.05.48-1.38.15-1.62.15-.14,2.69-.14,2.93,1.34.14,1.6.14.14-.33.14-.14a.5.5,0,0,1,.52-.52h.13c0,.44.14,1.3-.25,1.3H122.4c0-.16,0-.37.11-.46M119,31.82a4.81,4.81,0,0,0,3.72.68c-2.51-6.69,5.22-11.73,9.44-7.66l3.72-3.65c.33-5.09,1.49-8.16,4.79-8.16,2.51,0,3.27,2.67.64,5.2l-3.05,3c-.37,6.15.19,15.58-8.56,15.58A7.25,7.25,0,0,1,123.54,34a5.6,5.6,0,0,1-5.3-1.14ZM111.67,11.3a2.35,2.35,0,0,1,.26-.25c0-.07,0-6.36,0-6.44-.29-.06-.35-.34-.35-.64h1c.24,0,.31.35.23.17.13.31.4.89.55,1.22.27.57.55,1.18.72,1.55,0,0,.38.79.39.83s.07,0,.1,0l.27-.58.58-1.23c1-2.21,1-1.93,1-1.93a10.4,10.4,0,0,1,1.12,0c0,.43-.16.6-.35.64v6.31c0,.23.2.27.1.22a.52.52,0,0,1,.28.48v.12H116a.59.59,0,0,1,.1-.43,1.73,1.73,0,0,1,.26-.25c0-.05,0-.17,0-.24,0-5.28,0-4.86,0-4.86s-.7,1.38-.73,1.43c-.23.5-.27.57-.48,1l-.25.54a.36.36,0,0,1-.32.14.37.37,0,0,1-.31-.14s-.21-.44-.26-.53l-.5-1A14.16,14.16,0,0,0,112.79,6s0,4.93,0,5,0,.16.1.21a.57.57,0,0,1,.28.49v.13h-1.58a.57.57,0,0,1,.1-.44m-8.51,0,.3-.21c.06-.11,0-6.2,0-6.32s-.44-.23-.44-.64V4a35.78,35.78,0,0,1,3.6.08,4.85,4.85,0,0,1,.06,1.22h-.12a.52.52,0,0,1-.52-.52c0-.2-1.4-.12-1.62-.12s-.18,2.72,0,2.72c1.77,0,1.57.05,1.57.05s0,.38,0,.48S104.7,8,104.46,8s-.15,2.69-.15,2.93,1.35.14,1.6.14.15-.33.15-.14a.5.5,0,0,1,.52-.52h.13c0,.44.14,1.3-.26,1.3h-3.4c0-.16,0-.37.11-.46m-8.32-.17c.09,0,.25-.1.25-.2V4.8c0-.23-.23-.29-.12-.22a.56.56,0,0,1-.28-.49V4h1.59a.58.58,0,0,1-.1.43,2,2,0,0,1-.26.26.22.22,0,0,0,0,.14c0,.19-.08,6.26.11,6.26,1.71,0,1.48,0,1.48,0,.21-.42-.09-.66.7-.66v1.15c0,.13-.05.22-.2.22H94.62c0-.24,0-.52.22-.63M86,4a35.58,35.58,0,0,1,3.59.08c.15.11.1,1.07.1,1.26a.92.92,0,0,1-.37,0c-.32-.11-.4-.61-.44-.61-.92,0-.81,0-.81,0s0,6.41,0,6.35c.26.41.36,0,.36.69H86.85c0-.28,0-.44.27-.6s.11-6.16.11-6.39-1.15,0-.89-.11c-.06,0-.06.21-.09.28-.13.36-.36.38-.67.38,0-.68-.16-1.33.43-1.33M76.36,11.3a2.51,2.51,0,0,1,.26-.25c0-.07,0-6.3,0-6.38-.34-.1-.37-.37-.37-.7.4,0,1.2-.11,1.29.22,0,.08,1.85,5.15,1.85,5.15s0-4.51,0-4.54c0-.23-.2-.28-.11-.22a.5.5,0,0,1-.28-.46V4h1.59a.63.63,0,0,1-.09.43,2.81,2.81,0,0,1-.27.26c0,.07,0,6.82,0,6.91s0,.17-.18.17c-.52,0-.5,0-.5,0s-.22-.34-.27-.47-.41-1.09-.54-1.47c-.29-.79-.42-1.12-.7-1.88l-.59-1.62c0-.09,0,4.53,0,4.63s0,.16.1.21a.56.56,0,0,1,.27.49v.13H76.26a.62.62,0,0,1,.1-.44m-8.61,0,.3-.21c0-.11,0-6.2,0-6.32s-.44-.33-.44-.78a35.52,35.52,0,0,1,3.59.08,4.41,4.41,0,0,1,.07,1.22c-.45,0-.64-.22-.64-.52s-1.4-.12-1.62-.12-.18,2.72,0,2.72c1.77,0,1.56.05,1.56.05s.06.38.06.48S69.29,8,69.05,8,68.9,10.72,68.9,11s1.35.14,1.6.14.15-.33.15-.14a.5.5,0,0,1,.52-.52h.13c0,.44.14,1.3-.26,1.3h-3.4c0-.16,0-.37.11-.46m-8.5-6.55A1.44,1.44,0,0,1,60.19,4a2,2,0,0,1,2.41.78,3.51,3.51,0,0,1,.14,1.39A.87.87,0,0,1,62.15,6c-.48-.31,0-.63-.32-1.08a1.2,1.2,0,0,0-1.22-.35,1,1,0,0,0-.58.36c-.17.23-.1,5.12-.1,5.42,0,.49.52.75,1,.75s1-.22,1-.71c0-2.17,0-1.9,0-1.9-.26-.23-.34.15-.34-.75.41,0,1.2-.12,1.2.24s.12,3.78-.2,3.78c-.1,0-.16-.3-.13-.24-.06-.13-.16,0-.3,0a2.63,2.63,0,0,1-2.47-.15,1.44,1.44,0,0,1-.52-1.18,45.67,45.67,0,0,1,.13-5.5m6.22,19.15H67l-4.26,7.46c-1.06,1.8.59,2.86,5.22-2.51l.17-.19a0,0,0,0,0,0,0c1.73-2,3.3-4.27,4.46-5.91-1.09-1.46-1.25-2.83.46-4.36l1.36,1.49c-1.06,1,.29,2,1.32,3.3a2.7,2.7,0,0,1,.39,3.58l-2.65,4.61c-1.05,1.8.6,2.86,5.23-2.51.12-.14,7.42-12.77,7.51-12.93h2.68l-3.34,5.81a3,3,0,0,1,1.72-.59c2.06,0,3.38,1.88,1.4,5.38l-2.49,4.28c6.3-.13,5-9.55,11.62-9.55,2.15,0,3.52,1.82,2.1,4.25-2.22,3.87-5.08,4.6-7.25,3.7-2.53,4.58,2.39,5.23,7.47-.55h0c1.72-2,3.29-4.27,4.45-5.91-1.09-1.46-1.24-2.83.46-4.36l1.37,1.49a1,1,0,0,0-.15,1.53c1.71,2.06,3.13,3.11,1.85,5.35-.9,1.56-4.1,6.05-2.33,6.05,1.53,0,4.09-3,5.09-4.15a2.23,2.23,0,0,1,1,.91c-2.18,2.53-4.69,4.86-6.87,4.86-4.65,0-1.23-4.73,1-8.59.45-.78,0-1.29-.51-1.93-2.1,2.86-3.09,4.18-4.35,5.65h0c-6.15,7.15-12,5.33-11.7,1.48a7.16,7.16,0,0,1-4.07,1.05c-2.9,3.74-7.53,2.88-7.53-.39-1.62,1.55-3.3,2.72-4.83,2.72-4.64,0-1.23-4.73,1-8.59.44-.78,0-1.29-.52-1.93-2.09,2.86-3.08,4.18-4.34,5.64,0,0,0,0,0,0-5.62,6.53-8.88,5.3-9.15,3.14A6.45,6.45,0,0,1,56.3,34.4c-5,0-.59-5.84,1.9-10.13s7.57-3.63,7.27-.39m-13.53-.83c5.07,3.37,1.43,12.83-6.46,12.83-9.22,0-10.85-10.17-5.32-13.69l1.06,1.34A5.62,5.62,0,0,0,40,31.44c3.1-3.74,7.91-16.86,12.47-16.86,5.24,0,4.84,6.67-.49,8.47M55,7.07V8.61l-24.5-.77ZM34.88,96.54a5.35,5.35,0,0,0-.64,1.23,12.58,12.58,0,0,0-.63,3c-.19,1.92-.07,1.8-.07,1.8s.13.09.23.24a.79.79,0,0,1,.07.46H32.35v-.17a.5.5,0,0,1,.23-.45c.18-.13.11-.42.11-.27,0,0,0-.23,0-.29A21.53,21.53,0,0,1,33.13,99a7.2,7.2,0,0,1,1-2.52c0-.06,0-.08-.06-.08a7,7,0,0,0-1.53.07c-.11.09-.07.45-.07.61h-.24a.6.6,0,0,1-.45-.14.32.32,0,0,1-.09-.23v-.15c0-.5-.11-.89.34-.89a26,26,0,0,1,2.8.07.21.21,0,0,1,.07.18c0,.75,0,.67,0,.67m5.35-14.93a2.12,2.12,0,0,1,4.23,0,2.12,2.12,0,0,1-4.23,0m6.44,21.63s.34-.36.34-6.72a.19.19,0,0,0-.14-.2c-.22-.1-.2-.43-.2-.68H49c1,0,1.47.61,1.47,1.66,0,6.93-.07,5.94-3.8,5.94m12.71,0H57.89c0-.52.35-.53.35-.81C58,101,58,101.22,58,101.22s-1.36,0-1.44,0c-.26,0-.29.94-.33,1.23s.31.23.31.64v.17H55.08a.69.69,0,0,1,.07-.43l.27-.26c0-.15.53-2.94.56-3.1,1-5.43.26-1.93.26-3.68v-.13c1.16,0,1.51-.19,1.68.81s.88,4.76,1.1,6c.09.37.36.21.36.68Zm7.52-7.18a.75.75,0,0,1-.27.23s-1.3,3.86-1.31,3.88v2.3a.22.22,0,0,0,.1.18.53.53,0,0,1,.28.48v.11H64.15a.6.6,0,0,1,.09-.42,2.29,2.29,0,0,1,.25-.24c.06-.09,0-2.29,0-2.4s-1.38-3.8-1.38-3.83c-.16-.55-.36,0-.36-.71h1.53c0,1.4-.95-1,.57,3.45h0c1.6-4.59.54-1.91.54-3.45H67a.63.63,0,0,1-.1.42m7,7.17a2.26,2.26,0,0,1-1.92-.28c-.58-.45-.48-1.18-.48-1.91,1.7,0,.18.37.88,1.27a1.13,1.13,0,0,0,1.12.27c.85-.18.64-1,.64-1.92s-1.16-1.21-1.88-1.75a2.26,2.26,0,0,1-.23-3,2.08,2.08,0,0,1,2.37,0c.52.46.42,1.22.42,1.91h-.2c-1,0-.26-1.14-.84-1.48a1.28,1.28,0,0,0-1.16,0c-.37.21-.25.94-.25,1.4s1.41,1.22,1.9,1.62a1.65,1.65,0,0,1,.66,1.26c0,1.24.16,2.25-1,2.6M73.92,87l1.36-.7a1.2,1.2,0,0,0,1,.79c2.06,0,1.6-4,2.46-6.3-.78,1-1.86,2.55-3.09,4a3.06,3.06,0,0,1-.81-.74,1.87,1.87,0,0,1,.81.74c-4.8,5.6-7.64,4.35-7.51,2.19-3.46,3.06-5.71,1.76-5.35-.27-3.42,3.3-5.29,2.15-4.93.22-4.67,3.76-10.55,1.92-6.7-4.8a4.78,4.78,0,0,1-.5-8.36L51.39,75a3.4,3.4,0,0,0,.54,5.82L55.31,75c2.26-3.95,6.46-3,6.46.69,0,3.09-3.26,7.08-7.53,7.08a8.17,8.17,0,0,1-1.23-.1c-3.47,6.1,2,6.19,6.26,1.34h0l3.4-5.88h2.16c-3.65,6.36-7.44,12.46-1.16,6.73l3.85-6.73h2.17l-4.63,8.11c-.5.85-.23,1.18.25,1.18,1.25,0,3.37-2.47,4.19-3.41h0l3.4-5.88h-2l.62-1h2l2-3.55h2.16l-2,3.55h1.79l-.62,1H75.06l-4.64,8.11c-.86,1.47.48,2.36,4.29-2.07l.15-.16c2-2.3,3.91-5.13,4.81-6.36l1.63.87c-1.34,2.78-1.19,5.94-1.88,8A13.77,13.77,0,0,0,82.17,84a1.36,1.36,0,0,1,.82.74c-2.58,3-8.2,6.09-9.07,2.25m16.74,16.25H89.18c0-.52.34-.53.34-.81-.22-1.4-.24-1.21-.24-1.21s-1.36,0-1.44,0c-.26,0-.29.94-.32,1.23s.3.23.3.64v.17H86.37a.69.69,0,0,1,.07-.43l.26-.26c0-.15.54-2.94.56-3.1.93-5,.27-2.23.27-3.81,1.14,0,1.5-.19,1.67.81.25,1.37.83,4.49,1.1,6,.1.38.36.21.36.68ZM97.18,80.1H95.06c1.62-2.68-.53-3.8-2.36-.56-.73,1.24,0,1.93.83,1.93l-.58,1c-2.1,0-2.61,1.16-3.63,2.9C88,87.62,90.51,88,91.54,86.2l.41-.73,2.14,0c-.92,1.86-2.46,3.34-4.48,3.4l-1,1.69H87l1.15-2c-2.62-1.48-.12-6.43,2.66-6.94-1.08-1.45.43-5.26,4-5.36l1-1.69h1.62l-1.12,2a2.59,2.59,0,0,1,.81,3.59M109.06,96a1.09,1.09,0,0,1-.25.25c-.09.1-.37,3.29-.38,3.42-.11,1.1-.13,1.24-.23,2.27,0,.42-.11,1.05-.11,1.05a.29.29,0,0,1-.28.24c-.18,0-.9,0-1-.08s-1.14-6-1.17-6.18l-1.12,6a.28.28,0,0,1-.32.23c-.18,0-.8,0-.92-.07s-.11-.29-.13-.47-.14-1.39-.18-1.81c-.08-.74-.37-3.69-.45-4.5a.35.35,0,0,0-.15-.21.5.5,0,0,1-.23-.45v-.1h1.52c0,6-1-6,.22,6.89.59-3.07.45-2.39.84-4.46.11-.61.28-1.48.35-1.84s0-.44.23-.52a1,1,0,0,1,.65,0c.22.07.22.36.26.6.15.76.22,1.17.34,1.84.08.39.16.79.23,1.19.17,1,.38,2,.6,3.21,1.21-12.93.22-.85.22-6.89h1.52a.7.7,0,0,1-.07.38m-2.33-7.65a4.58,4.58,0,0,1-4.36-.94l.65-.81a3.93,3.93,0,0,0,3.06.56c-2.11-5.59,4.31-9.64,7.75-6.29l3.07-3c.67-10.32,9.1-6.9,4.46-2.44l-2.5,2.46c-.06,1-.09,2.23-.09,3.61,0,5-2.39,9.21-7,9.21a6,6,0,0,1-5.08-2.36m10.75,8.54a.57.57,0,0,1-.49-.15c-.22-.24-.06-.48-.32-.48-1.75,0-1.5,0-1.5,0s0,2.38,0,2.48,1.34.14,1.57.14a.14.14,0,0,1,.15.15c0,.24.06.51-.15.51s-1.57-.09-1.57.15a14.62,14.62,0,0,0,.11,2.86c1.81,0,1.55,0,1.55,0s0-.3.18-.46.3-.15.51-.15v1c0,.36-.49.26-.88.26h-2.72v-.14c0-.23.07-.3.32-.43a.24.24,0,0,0,.12-.21c0-6.83,0-6.19,0-6.19-.32-.37-.41,0-.41-.63h3.34a.23.23,0,0,1,.26.22Zm8.44,0a.56.56,0,0,1-.48-.15c-.22-.24-.06-.48-.32-.48-1.75,0-1.51,0-1.51,0s0,2.38,0,2.48,1.34.14,1.58.14a.14.14,0,0,1,.15.15c0,.24.06.51-.15.51s-1.58-.09-1.58.15a13.85,13.85,0,0,0,.12,2.86c1.81,0,1.55,0,1.55,0s0-.3.18-.46.3-.15.5-.15v1c0,.36-.48.26-.87.26h-2.72v-.14c0-.23.07-.3.32-.43a.24.24,0,0,0,.12-.21c0-6.83,0-6.19,0-6.19-.32-.36-.4,0-.4-.63h3.34a.23.23,0,0,1,.25.22Zm8.47,6.33c-.9,0-.83,0-.83,0a30.82,30.82,0,0,1-1.89-3.35v2.58a.2.2,0,0,0,.12.21.54.54,0,0,1,.26.48v.12h-1.5a.64.64,0,0,1,.09-.43,1.89,1.89,0,0,1,.25-.24c.05-.07,0-6.06,0-6.14a.18.18,0,0,0-.11-.19.56.56,0,0,1-.26-.48v-.12h1.5a.64.64,0,0,1-.09.43c-.09.1-.26.25-.25.24s0,2.13,0,2.22l1.51-2.5a1,1,0,0,1,.32-.33,1.73,1.73,0,0,1,.69-.06V96c0,.24,0,.34-.26.44-.06,0-.11,0-.21.23s-.34.55-.38.6c-.73,1.22,0,0-.64,1.07l-.45.76a.27.27,0,0,0,0,.23s.25.49.26.51c.14.26.37.67.57,1a10.93,10.93,0,0,0,.92,1.62c.38.34.4-.07.4.76m15-6.32a.55.55,0,0,1-.49-.15.9.9,0,0,1-.17-.44,11.19,11.19,0,0,0-1.54,0c-.24,0-.15,2.25-.15,2.5s0,.15.15.15,1.58-.1,1.58.15.06.51-.13.51-1.6-.1-1.6.16a16.49,16.49,0,0,0,0,2.82c.27.33.34.15.34.66h-1.55v-.12a.55.55,0,0,1,.27-.48.2.2,0,0,0,.11-.18c0-6.82,0-6.2,0-6.2l-.25-.19c-.07-.08,0-.32,0-.43h3.22a.26.26,0,0,1,.26.26Zm8.72,6.32c-.34,0-.78.07-1-.19a8.57,8.57,0,0,1-.13-2.29.79.79,0,0,0-.75-.84c-.22,0-1-.09-1,.13v2.39c0,.22.2.27.11.21a.54.54,0,0,1,.27.48v.11h-1.51a.6.6,0,0,1,.09-.42,3.29,3.29,0,0,1,.26-.24c0-.06,0-6.11,0-6,0-.58-.37-.2-.37-.9a13.38,13.38,0,0,1,2.77.12,1.26,1.26,0,0,1,.78.88,7.29,7.29,0,0,1,.1,1.76,1.41,1.41,0,0,1-.53,1.13,1.22,1.22,0,0,1,.38.51,8.57,8.57,0,0,1,.15,2.4c0,.11,0,.1.13.18s.19.18.19.39ZM155.88,87l1.35-.7a1.2,1.2,0,0,0,1,.79c2.07,0,1.61-4,2.46-6.3-.77,1-1.86,2.55-3.08,4a3.11,3.11,0,0,1-.82-.74,1.81,1.81,0,0,1,.81.74c-5.07,5.91-9.88,4.38-9.61,1.22-1.27.6-2.41.26-2.83-.57l-1.12,1.69c-1.53,2.3-4.53,2.19-4-.53-3.43,3.26-5.6,2.34-5.8.78-3,2.44-5,1.34-4.87-.4-4,3.53-6.43,1.29-5-1.26l2.82-4.91c.93-1.6-.55-2.14-3.88,2l-3.29,5.73h-2.19l8.65-15h2.16l-3.46,6c3-3.1,5.64-1.34,4.19,1.19l-3.12,5.49c-.5.85-.23,1.18.25,1.18,1.25,0,3.36-2.47,4.19-3.41h0l2.08-3.59c2.05-3.54,6.23-3,6-.31H140l-3.5,6.13c-.87,1.48.49,2.35,4.3-2.07L141,84l2.37-5.89h2.18c-4.68,11.71-5.19,11.68,2.59,0h2l-3.52,5.25c-1.15,2.33.89,2.06,2.06.79.21-.23,2.08-3.48,2.23-3.75,2.41-4.17,8-2.71,5.79,1-1.82,3.18-4.17,3.79-6,3l-.2.38c-1.62,2.82,1.7,4.39,6.35-.83,2-2.3,3.92-5.13,4.82-6.36l1.62.87c-1.33,2.78-1.19,5.94-1.87,8A14,14,0,0,0,164.13,84a1.34,1.34,0,0,1,.81.74c-2.57,3-8.2,6.09-9.06,2.25m9.53,16.25a1.92,1.92,0,0,1-2.33-.77c-.27-.55-.48-5.86.37-6.54a2.23,2.23,0,0,1,2.51,0,1.42,1.42,0,0,1,.51,1.15c0,1.73.48,5.72-1.06,6.16m5.24-23.74a2.12,2.12,0,0,1,0,4.23,2.12,2.12,0,0,1,0-4.23m6.44,23.74h-1.56a.56.56,0,0,1,.1-.42,2,2,0,0,1,.26-.24s0-.17,0-.23c0-5.18,0-4.77,0-4.77s-.69,1.35-.72,1.4c-.21.46-.28.59-.47,1,0,0-.24.51-.24.53a.37.37,0,0,1-.32.14c-.1,0-.25,0-.29-.13s-.25-.5-.26-.53l-.5-1a10.35,10.35,0,0,0-.71-1.41s0,4.82,0,4.85,0,.16.1.21a.54.54,0,0,1,.28.48v.12h-1.56a.59.59,0,0,1,.1-.43,1.93,1.93,0,0,1,.26-.24c0-.07,0-6.23,0-6.31-.29-.06-.35-.33-.35-.62h1c.22,0,.29.34.22.16.12.3.39.88.54,1.19s.5,1.1.71,1.52c0,0,.36.78.38.81s.06.06.09,0l.27-.56c.16-.36.39-.85.56-1.21,1-2.16.93-1.88.93-1.88a8.19,8.19,0,0,1,1.11,0c0,.41-.16.58-.35.62v6.18c0,.23.19.27.1.21a.53.53,0,0,1,.28.48Zm20.78-48.1c0,9.08,1.44,14.85-3.85,14.85-3.29,0-2.79-3.28-2.79-6.51,0-5-6.84-5-10.7-1.19C169,73.78,170.79,72.92,158.85,61c-1.59-1.6-4.87-2.4-5.49-.23l-1.92,6.71a3.56,3.56,0,0,1-6.9-.38c-.81-4-1.23-7.58-5.89-7.58H120.82c-4.66,13.62-24,13.65-28.64,0-14.57,0-21.83-1.86-23.06,4.29-.65,3.23-.8,6.2-4.2,6.2-3.75,0-4.22-5.53-5.28-9.24-.62-2.17-3.89-1.37-5.49.23-12.61,12.61-11,12-21.68,1.31-3.85-3.85-10.7-3.86-10.7,1.19,0,3.23.49,6.51-2.79,6.51-4.21,0-3.85-3.56-3.85-7.49V43.08c0-4.54,6.64-5.26,6.64-1.06,0,4-.37,7.69,4,7.69,5.4,0,9.07-5.13,13.16-9.23,4.91-4.9,10.18,2.7,15.24,7.75,1.6,1.6,4.87,2.41,5.49.23,1.06-3.71,1.53-9.23,5.28-9.23,3.4,0,3.55,3,4.2,6.19,1.23,6.16,8.48,4.29,23.06,4.29,4.66-13.61,24-13.64,28.64,0h17.83c4.66,0,5.08-3.52,5.89-7.57a3.56,3.56,0,0,1,6.9-.39l1.92,6.71a1.82,1.82,0,0,0,1.75,1.32,5.26,5.26,0,0,0,3.74-1.55l7.75-7.75c4.71-4.7,9.21,1.73,13.93,6.45,3.85,3.85,10.7,3.86,10.7-1.2,0-3.23-.5-6.5,2.79-6.5a3.85,3.85,0,0,1,3.85,3.85Z"/><path class="cls-4" d="M50.4,18.18l-2.13,3.65c2.69,0,4.18-.63,5.2-2.53,1.31-2.48-1.14-4.44-3.07-1.12"/><path class="cls-4" d="M125.67,33.06c3.14,3.72,10.11,2,10.11-7.45V23.66l-2.58,2.56a4.59,4.59,0,0,1-1,5.7l-1.09-1.11a3,3,0,0,0,.88-3.43c-1.56,1.54-4.55,4.72-6.31,5.68"/><path class="cls-4" d="M155.29,96.42a15.55,15.55,0,0,0,0,2.82,6.07,6.07,0,0,0,1,0,.74.74,0,0,0,.75-.79c0-.54.11-1.57-.21-1.95s-1.54-.35-1.54-.12"/><path class="cls-4" d="M131,26c-3.16-2.5-7.89,1.09-6.14,5.65,1.53-.93,4.77-4.31,6.14-5.65"/><path class="cls-4" d="M58.89,74.33c-1.63,0-4.26,5.57-5.08,7,5.44,0,7.89-7,5.08-7"/><polygon class="cls-4" points="108.4 52.19 106.5 46.34 104.6 52.19 98.45 52.19 103.43 55.8 101.53 61.64 106.5 58.03 111.47 61.64 109.57 55.8 114.55 52.19 108.4 52.19"/></g></g></g></svg>