<svg xmlns="http://www.w3.org/2000/svg" viewBox="0 0 225.72 254.43"><defs><style>.cls-1{fill:#fff;}</style></defs><g id="Layer_2" data-name="Layer 2"><g id="Layer_2-2" data-name="Layer 2"><g id="Set_of_vintage_barbershop_emblems_labels_badges_logos_scissors_blade_brush_pole._Isolated_on_white_background._Vector_illustration" data-name="Set of vintage barbershop emblems labels badges logos scissors blade brush pole. Isolated on white background. Vector illustration"><path class="cls-1" d="M196.55,228.58a.14.14,0,0,1-.24-.1,8.53,8.53,0,0,0-.3-3.62,10.68,10.68,0,0,0-1.79-3.34,23.86,23.86,0,0,0-5.15-4.83,39.07,39.07,0,0,0-6.07-3.45c-2-1-4.26-1.64-6.22-2.74a.05.05,0,0,1,0-.1,28.12,28.12,0,0,1,7.34,2.37,32.82,32.82,0,0,1,6.86,3.92,19.24,19.24,0,0,1,5.22,5.57c1.06,1.83,1.82,4.5.32,6.32ZM193.46,224c-.91-.33-1.5-1.44-2.12-2.15-.77-.88-1.59-1.75-2.31-2.67a.09.09,0,0,1,.1-.14,10.66,10.66,0,0,1,2.93,2.09c.68.68,1.73,1.58,1.76,2.6a.28.28,0,0,1-.36.27Zm-2.38-.78a.29.29,0,0,1-.34.19c-.41-.07-.65-.56-.9-.86s-.58-.71-.89-1a.25.25,0,0,1,.3-.4,4.69,4.69,0,0,1,1.21.91c.3.32.73.72.62,1.2Zm-2.54-.19,0,0,0,0,0,0-.09,0h-.05a1,1,0,0,1-.25,0,.94.94,0,0,1-.3-.15,2.71,2.71,0,0,1-.46-.36,2.09,2.09,0,0,1-.53-1.12.29.29,0,0,1,.55-.15,1.89,1.89,0,0,0,.51.8,1.31,1.31,0,0,0,.35.27,1,1,0,0,1,.22.14l.07.11h0a.21.21,0,0,1,.07.16.13.13,0,0,1,0,.06ZM190,214.4c-5.15-3.48-12.36-6.36-20.91-8.37l.16.2c.22.27.44.54.67.8l.27.32c.3.35.6.7.91,1,.49.55,1,1.08,1.49,1.6l.4.41a57.54,57.54,0,0,0,6.12,5.4h0a25.34,25.34,0,0,1,2.12,1.55h0a17.38,17.38,0,0,1,2,1.91,9.85,9.85,0,0,1,2.4,4.52,7.54,7.54,0,0,1,.16,1.57,8.56,8.56,0,0,1-1.57,4.82c-.21,1.55.42,3.43,4.4,3.84a13.57,13.57,0,0,0,6.63-.71,16.6,16.6,0,0,1-2.58,3,26.9,26.9,0,0,1-8.43,4.82c-3.12,1.21-6.34,2.17-9.56,3.08-1.57.45-3.15.84-4.73,1.25-.71.18-1.59.32-2.42.55a2.3,2.3,0,0,0-.4-2c-1.09-1.64-3.56-2.28-6-2.49a101.62,101.62,0,0,1-17.68,1.92,4.28,4.28,0,0,0,1.66,5.95c-1,.05-2,.08-3.06.11l-1.05,0h-.36a127,127,0,0,1-17.33-1c-1.26-.17-2.51-.37-3.76-.59.87-.8,1-2.16-2.34-4.35s-6.12-3.93-8.28-5.24l-.19-.07c-.71-.28-1.38-.57-2-.86a13.37,13.37,0,0,1,3.54,4.3c.85,1.81-1.76,2.68-5.36,2.6l-1.12-.38-2.57-.87-.53-.23a53.45,53.45,0,0,1-7-3.75c-1.16-.73-2.28-1.51-3.36-2.33s-2.15-1.89-3.34-2.65c-.07,0-.18.05-.12.12,1.49,2,3.93,3.68,6,5.16a49.32,49.32,0,0,0,7.54,4.46,47.65,47.65,0,0,0,7.81,2.91,40.51,40.51,0,0,0,5.21,1.13q3.52.9,7.13,1.53a102.43,102.43,0,0,0,17.4,1.47,118.25,118.25,0,0,0,31.25-3.54q4.22-1.08,8.32-2.54a79,79,0,0,0,8.5-3,25.91,25.91,0,0,0,8.21-5.14c1.88-1.85,3.68-4.24,3.78-6.94l.12-.38a9.15,9.15,0,0,0,.28-1.36,8.94,8.94,0,0,0,.11-1.37c0-4.32-2.91-8.58-8.42-12.3Z"/><path class="cls-1" d="M183.26,227.6c-1.58,3.31-11.11,11.29-26.57,12.52-14.39,1.14-17.13-22.75-17.22-40.06l-1.34-.7h0l-.31-.16h0a.33.33,0,0,1-.13-.07,3.36,3.36,0,0,1-1.24-1.68,4.24,4.24,0,0,1-.25-1.47c0-2,1.28-3.58,2.85-3.58h.18l.27,0,.08,0c.14-7.8.36-16.49.54-23.58-.65.38-1.33.75-2.05,1.12L136,175.2c-1.61,23-2.58,60.61,7.75,66,0,0-14,0-21.29-1.14s-16-4.24-18.68-6.24A25.47,25.47,0,0,1,99.67,230l-1.34.41c2.07,2.56,5.72,4.93,10.77,6.92,8.38,3.3,19.54,5.12,31.42,5.12s23-1.82,31.42-5.12c8.22-3.24,12.75-7.48,12.75-11.95a7.31,7.31,0,0,0-1.13-3.81v.08a9,9,0,0,1-.3,6Z"/><path class="cls-1" d="M149.67,186.1a.72.72,0,0,1-.23-.35,73.45,73.45,0,0,1-1.72-10.24q-.34-2.62-.57-5.28a16.3,16.3,0,0,1,0-4.88c0-.17.25-.13.31,0a21,21,0,0,1,1,5.18c.24,1.68.49,3.35.76,5,.47,3.05,1.22,6.08,1.67,9.13,1.15-1.4,2.4-2.89,3.72-4.4-.65-2.07-1.18-4-1.62-5.79a92.15,92.15,0,0,1-2.45-14.8l-.57.18a23.18,23.18,0,0,1-4.66,5.37,205.52,205.52,0,0,0,3.51,22l.93-1.16Z"/><path class="cls-1" d="M176.3,226.82a1.09,1.09,0,0,1-.77-.16,1.78,1.78,0,0,1-.31-.23c0-.05-.05-.11-.1-.14s0-.12,0-.1a1.24,1.24,0,0,0,.18,0l.28,0a3.62,3.62,0,0,1,.67-.07c.48,0,.47.7,0,.74Zm-1.51-.78c-.26.17-.54,0-.77-.14a2.78,2.78,0,0,1-.34-.26,4.12,4.12,0,0,0-.28-.31c-.13-.09,0-.28.14-.24s.26,0,.4,0a1.93,1.93,0,0,1,.41.12c.28.1.55.22.58.55a.29.29,0,0,1-.14.24Zm-1.23-4.44c.51.33,1,.65,1.53,1a10.6,10.6,0,0,1,1.42.88c.14.11,0,.3-.12.31a3.37,3.37,0,0,1-1.78-.56,4.16,4.16,0,0,1-1.32-1.32.2.2,0,0,1,.27-.27Zm-.77-2.59a4,4,0,0,1-1.74-1.16,5.87,5.87,0,0,1-1.26-1.75.21.21,0,0,1,.33-.25c.51.46,1.06.89,1.59,1.34a8.8,8.8,0,0,1,1.52,1.25c.21.31-.15.62-.44.57Zm-.33,2.46c-1.27-.09-2.52-1.59-3.4-2.41a36.39,36.39,0,0,1-3.43-3.7,46.32,46.32,0,0,1-2.86-3.82,13.81,13.81,0,0,1-2.16-4.15c0-.08.08-.15.14-.09a31.68,31.68,0,0,1,2.57,3.7,38,38,0,0,0,3.08,3.86,48.43,48.43,0,0,0,3.47,3.4c.9.8,2.5,1.63,2.91,2.79a.34.34,0,0,1-.32.42Zm0,3.23a15.25,15.25,0,0,1-5.45-3.68c-1.34-1.25-3.44-3.07-3.61-5,0-.2.22-.3.38-.22a9.73,9.73,0,0,1,2.15,2.1c.71.78,1.47,1.53,2.26,2.24,1.54,1.39,3.3,2.57,4.47,4.31a.18.18,0,0,1-.2.26Zm11.05-3.07,0-.13a13.56,13.56,0,0,0-3-3.29c-.51-.36-1-.73-1.55-1.12l-.18-.14-.32-.24a.21.21,0,0,1-.08-.06,60.27,60.27,0,0,1-8.15-7.54c-1-1.16-2-2.37-3-3.61A77.35,77.35,0,0,1,156.51,186c-1.61,1.86-3.08,3.64-4.37,5.22a8.74,8.74,0,0,1,1,2c.44,1.05.85,2.12,1.27,3.19.85,2.13,1.72,4.25,2.69,6.34s1.91,4,3,5.93c.55,1,1.12,2,1.68,3a5.57,5.57,0,0,1,1,2.55.25.25,0,0,1-.38.21,5.51,5.51,0,0,1-1.91-2.25c-.58-1-1.13-2-1.68-3-1.09-2-2.11-4-3-6.14s-1.82-4.16-2.59-6.3c-.38-1.07-.75-2.15-1.05-3.25a11.94,11.94,0,0,1-.38-1.72l-1.38,1.73q.65,2.34,1.38,4.59a3.43,3.43,0,0,1,.92,1.07,4.63,4.63,0,0,1,.56,2.22,4,4,0,0,1-.06.7,47.58,47.58,0,0,0,4,8.15C168,227.4,173.55,230,177.88,228.48c3.55-1.21,5.79-4.56,5.68-6.85Z"/><path class="cls-1" d="M140.72,166.35a13.4,13.4,0,0,0-2.56,1.09,8,8,0,0,0-1.82,1.89,9.08,9.08,0,0,0-1.15,2.51c-.26.74-.66,1.39-1,2.11,0,.09-.19,0-.16-.07.51-1.93.35-3.88,1.74-5.51a6.13,6.13,0,0,1,2.32-1.38,18.74,18.74,0,0,1,2.51-1c.23-.08.33.28.1.36Zm2.62-5.85q-.43.45-.93.87a9,9,0,0,1-3.92,2,19.63,19.63,0,0,1-2.88.38c-2,.15-3.84.29-5.69,2a4.26,4.26,0,0,0-.7.93c-.18.28-.36.62-.56,1a12.75,12.75,0,0,0,1.08,7.63c1.49,2.69,3.93.76,5.35-.77l2-5.11a.55.55,0,0,1,.26-.28,36.46,36.46,0,0,0,5.23-3.16,7.22,7.22,0,0,0,1.41-3c.36-1.76-.17-2.33-.68-2.5Z"/><path class="cls-1" d="M208.64,116.29c.57-1.43-1.46-2.36-2.46-1.44a.17.17,0,0,1-.27-.21,2,2,0,0,1,2.71-.76,2.12,2.12,0,0,1,1,2.81,2.31,2.31,0,0,1-2.93,1.37,2.16,2.16,0,0,1-1.21-1.13,2.29,2.29,0,0,1-.05-1.59s0,0,0,0c-.08,1.65,2.5,2.71,3.19.94Zm-1.9,8a1.55,1.55,0,0,0-.83-2,2.36,2.36,0,0,0-2.15.28.25.25,0,0,1-.33-.33c.6-1.21,2.34-1.15,3.36-.61a2.46,2.46,0,0,1,.9,3.4,2.59,2.59,0,0,1-3.46,1.24,2.44,2.44,0,0,1-1-3.25s0,0,0,0c-.29,2,2.63,3.48,3.5,1.3Zm5.21-5a19.91,19.91,0,0,1-3.51,10.31,18.46,18.46,0,0,1-7.49,5.81,56.68,56.68,0,0,1-7.38,3.42c-4.18,1.65-8.41,3.21-12.68,4.62-2.13.71-4.27,1.4-6.43,2-2.32.68-4.67,1.1-7,1.69,0,0,0,0,0,0,2.15-.68,4.22-1.58,6.36-2.32,2-.68,4-1.34,6-2.05,4-1.43,8-2.93,12-4.57,4.75-2,9.79-4,13.64-7.32a15.35,15.35,0,0,0,1.25-1.3,17.32,17.32,0,0,0,3.65-8.49c.49-3,.56-6.66-.76-9.52s-4.72-4.44-7.46-2.62c0,0-.11,0-.07-.07,1.79-2.41,5.37-1.74,7.3.16,2.61,2.58,2.88,6.81,2.63,10.25Zm-46.17,29.34-.23.08c-.56.2-1.43.51-2.52.87l-.25.08-.3.1-.3.09c-.62.2-1.28.4-2,.6l-.31.09-1,.27-.49.13-.49.13-.34.08-1,.25-.5.11-.4.09h0l-.56.12-.56.11-.5.09-.44.07h-.07l-.33.06-.24,0-.23,0-.48.07-.32,0-1,.09-.5,0h-.72c-.26,0-.52,0-.76,0l-.27,0h-.06l-.31,0-.19,0-.42-.07-.25-.05a3.58,3.58,0,0,1-.35-.09l-.33-.11-.16-.06c-2.49-1-1.28-3.36.42-4.56l.22-.15.19-.12.19-.11.32-.17A14.26,14.26,0,0,1,150,146l.13,0,.23-.08.1,0,.1,0,.09,0,.27-.08.08,0a2,2,0,0,0-.1.28.93.93,0,0,1,0,.13.29.29,0,0,0,0,.09,5.56,5.56,0,0,0-.16.76c0,.06,0,.12,0,.18s0,.11,0,.17,0,0,0,.07v.38c0,.06,0,.11,0,.16s0,.11,0,.17a.2.2,0,0,0,0,.07.13.13,0,0,0,0,.06s0,.09,0,.13a2.29,2.29,0,0,0,.08.28l.07.22.06.12.06.11a.75.75,0,0,0,.07.12.43.43,0,0,0,0,.07l.12.17.07.08.11.11.17.15.14.11,0,0,.15.09.11.06.11.06.17.07a2,2,0,0,0,.37.13l.4.1.22,0,.19,0,.14,0h1.35l.69-.07,1-.12.57-.08,1.86-.27.37-.06.71-.11.32-.06.63-.1.22,0h0l.55-.1h.08l.2,0,.58-.11.28-.05.57-.12.33-.07.16,0,.29-.06.4-.09.25-.06.22,0,.29-.07.3-.07.06,0,.07,0h.05l.27-.07h0l-.38.15ZM154.58,147s.14,0,.15,0a1.88,1.88,0,0,0,.65,1.35,1.06,1.06,0,0,0,1.51-.18c.39-.48.19-.89-.17-1.28a.86.86,0,0,0-1.06-.15c-.27.1-.52-.32-.29-.5a1.82,1.82,0,0,1,2.2.09,1.71,1.71,0,0,1,.08,2.4,1.83,1.83,0,0,1-2.49.34,1.7,1.7,0,0,1-.58-2.09Zm6.08-1.14c.6.6,1.69,1.79,2.53.8s-.91-1.53-1.61-1.6a.12.12,0,0,1,0-.24,2.41,2.41,0,0,1,2.17.17,1.45,1.45,0,0,1,.23,2,2,2,0,0,1-3.5-1.08.13.13,0,0,1,.21-.09Zm4.72-3.32c3.41-1.53,7-2.75,10.37-4.24,3.17-1.37,6.31-2.84,9.34-4.47a49.44,49.44,0,0,0,8.19-5.38c.57-.48,1.11-1,1.68-1.47s1.27-.79,1.81-1.32a30.73,30.73,0,0,0,3-4.14.17.17,0,0,1,.29.17,18.89,18.89,0,0,1-2.79,4c-.49.59-.79,1.27-1.26,1.86a13.35,13.35,0,0,1-1.89,1.79,46,46,0,0,1-8,5.27,96,96,0,0,1-9.46,4.32,63.75,63.75,0,0,1-11.33,3.67s0,0,0,0Zm42.75-36.88c-5.65-1.55-8.86,2.54-9.92,4.24a41.4,41.4,0,0,1,.93,7.43c.28,6.8-9.12,12.93-17,16.87A119.89,119.89,0,0,1,157.54,143c-8.23,1.73-12.59,3.76-13.36,6.22-.05.19-.09.36-.12.53a2.41,2.41,0,0,0,.46,2,1.81,1.81,0,0,0,.24.24.73.73,0,0,0,.09.08l.18.14.43.25c1.28.64,3.32.81,6,.51,3.87-.42,18.27-4.45,31.74-9.21a188.84,188.84,0,0,0,20.15-8.23c3.83-2.46,7.26-5.5,8.73-8.89,1.7-3.93,3.06-19.14-4-21.09Z"/><path d="M128.05,165.27l0,0h0l0,0Zm0,0,0,0h0l0,0Zm0,0,0,0h0l0,0Zm0,0,0,0h0l0,0Zm0,0,0,0h0l0,0Zm0,0,0,0h0l0,0Zm0,0,0,0h0l0,0Zm0,0,0,0h0l0,0Zm0,0,0,0h0l0,0Zm0,0,0,0h0l0,0Zm0,0h0l0,0,0,0ZM173.59,110c-1.46.86-2.59,1.56-3.29,2l.09-6.24a60.37,60.37,0,0,1,35.48-20.72c-18.29,5.37-29.57,20.87-32.28,25Zm7.59,6.88c2,.47,4,.83,6,1.17.7.11,1.41.22,2.12.35a.11.11,0,0,1,.13,0,3.58,3.58,0,0,0,3.54-.66c1.19-1.17.79-2.46.9-3.9,0,0,0-.07,0-.11s0-.22,0-.34a18.49,18.49,0,0,0-2.72-8.58c-.08-.13.11-.28.21-.16a16,16,0,0,1,3.93,11.28c-.09,1.63-.41,3.62-2.06,4.41-.71.34-2.11.42-2.6-.25-3.35-.94-6.76-1.59-10.14-2.44-2-.49-3.95-1-5.9-1.65-1-.32-2-.67-3-1a6.34,6.34,0,0,1-2.09-1,0,0,0,0,1,0,0,8.28,8.28,0,0,1,2.65.6c1,.28,2,.57,3.06.84,2,.53,3.95,1,5.94,1.51Zm4.73,7.2A21.18,21.18,0,0,1,182.2,126c-1.15.51-2.28,1.06-3.44,1.55a62.49,62.49,0,0,1-7.31,2.53c-9.23,2.65-18.91,3-28.07,5.86-4.22,1.33-9,2.43-11.65,6.3-2.48,3.59-3.87,8.64-2.42,12.87,0,0,0,0,0,0-2.13-4.22-1.13-9.65,1.38-13.5s6.57-5.15,10.7-6.41A100.55,100.55,0,0,1,156.52,132a111.54,111.54,0,0,0,15-3.08c2.39-.7,4.73-1.51,7.09-2.29s4.69-2.06,7.12-2.75a.16.16,0,0,1,.13.29Zm-53.62,35a2.87,2.87,0,0,1-1.39-1,4.43,4.43,0,0,1-.61-.69,2.83,2.83,0,0,1-.23-.75s0,0,0,0a5.67,5.67,0,0,1,.66.42c.2.19.38.42.57.62.37.36.93.7,1.16,1.16a.17.17,0,0,1-.19.24Zm7.51-52.33,16.66,5-.12,7-16.69-5.25.15-6.71Zm29.5-.35-.08,6.27-3.41,1.7a2.11,2.11,0,0,1-1.12-1.64c-.44-1.78,1.76-4.33,3.05-5.63l1.56-.7Zm-17.21-4.6,16.11,3.92-3.1,1.38L157,110.78,141,106l11.13-4.18Zm-6.75,51.8.44.16a13.39,13.39,0,0,1-4.06,6.75c-2.15,1.81-4.11,2-6.2,2.13s-4.2.32-6.32,2.25c-3.58,3.25-14.68,39.07-18,50a4.11,4.11,0,0,1-2.47,2.61l-7.36,2.79-.63-.34,7.78-2.94h0a3.66,3.66,0,0,0,1.62-1.2l0,0,.08-.12.13-.2.13-.23a1.3,1.3,0,0,1,.08-.17v0l.09-.22,0-.13h0s0,0,0-.08,0-.05,0-.08,0,0,0-.06-.83-7.63,3.65-23.2A77.51,77.51,0,0,1,128.24,165h0v0h0s0,0,.05-.05a2.29,2.29,0,0,1,.29-.36l0,0,.05-.06h0a7.32,7.32,0,0,1,4.42-1.84c.41-.05.8-.08,1.23-.11s1-.08,1.59-.15a9.41,9.41,0,0,0,5.24-2.22,14.14,14.14,0,0,0,4.18-6.49Zm-1.28-3.85c0-.17.07-.34.12-.53.77-2.46,5.13-4.49,13.36-6.22a119.89,119.89,0,0,0,24.55-8.89c7.93-3.94,17.33-10.07,17-16.87a41.4,41.4,0,0,0-.93-7.43c1.06-1.7,4.27-5.79,9.92-4.24,7.06,2,5.7,17.16,4,21.09-1.47,3.39-4.9,6.43-8.73,8.89a188.84,188.84,0,0,1-20.15,8.23c-13.47,4.76-27.87,8.79-31.74,9.21-2.73.3-4.77.13-6-.51l-.43-.25-.18-.14a.73.73,0,0,1-.09-.08,1.81,1.81,0,0,1-.24-.24,2.41,2.41,0,0,1-.46-2Zm23.21,55.71c1,1.24,2,2.45,3,3.61a60.27,60.27,0,0,0,8.15,7.54.21.21,0,0,0,.08.06l.32.24.18.14c.52.39,1,.76,1.55,1.12a13.56,13.56,0,0,1,3,3.29l0,.13v-.08a7.31,7.31,0,0,1,1.13,3.81c0,4.47-4.53,8.71-12.75,11.95-8.39,3.3-19.54,5.12-31.42,5.12s-23-1.82-31.42-5.12c-5-2-8.7-4.36-10.77-6.92l1.34-.41a25.47,25.47,0,0,0,4.08,3.83c2.64,2,11.39,5.1,18.68,6.24s21.29,1.14,21.29,1.14c-10.33-5.38-9.36-43-7.75-66L138,170c.72-.36,1.4-.73,2.05-1.11-.18,7.09-.4,15.78-.54,23.58l-.07,0a1.45,1.45,0,0,0-.28,0H139c-1.57,0-2.85,1.61-2.85,3.58a4.24,4.24,0,0,0,.25,1.47,3.36,3.36,0,0,0,1.24,1.68.33.33,0,0,0,.13.07l.31.17h0l1.34.7c.09,17.31,2.83,41.2,17.22,40.06,15.46-1.23,25-9.21,26.57-12.52a9,9,0,0,0,.3-6c.11,2.29-2.13,5.64-5.68,6.85-4.33,1.49-9.91-1.08-20.79-18.23a47.58,47.58,0,0,1-4-8.15,4,4,0,0,0,.06-.7,4.63,4.63,0,0,0-.56-2.22,3.43,3.43,0,0,0-.92-1.07q-.74-2.25-1.38-4.59l1.38-1.73a11.94,11.94,0,0,0,.38,1.72c.3,1.1.67,2.18,1.05,3.25.77,2.14,1.66,4.24,2.59,6.3s2,4.13,3,6.14c.55,1,1.1,2,1.68,3a5.51,5.51,0,0,0,1.91,2.25.25.25,0,0,0,.38-.21,5.57,5.57,0,0,0-1-2.55c-.56-1-1.13-2-1.68-3-1.05-1.94-2-3.93-3-5.93s-1.84-4.21-2.69-6.34c-.42-1.07-.83-2.14-1.27-3.19a8.74,8.74,0,0,0-1-2c1.29-1.58,2.76-3.36,4.37-5.22a77.35,77.35,0,0,0,10.76,19.52Zm22.7,8.9c5.51,3.72,8.42,8,8.42,12.3a8.94,8.94,0,0,1-.11,1.37,9.15,9.15,0,0,1-.28,1.36l-.12.38c-.1,2.7-1.9,5.09-3.78,6.94a25.91,25.91,0,0,1-8.21,5.14,79,79,0,0,1-8.5,3q-4.11,1.46-8.32,2.54a118.25,118.25,0,0,1-31.25,3.54,102.43,102.43,0,0,1-17.4-1.47q-3.6-.63-7.13-1.53a40.51,40.51,0,0,1-5.21-1.13,47.65,47.65,0,0,1-7.81-2.91,49.32,49.32,0,0,1-7.54-4.46c-2-1.48-4.47-3.12-6-5.16-.06-.07,0-.17.12-.12,1.19.76,2.22,1.8,3.34,2.65s2.2,1.6,3.36,2.33a53.45,53.45,0,0,0,7,3.75l.53.23,2.57.87,1.12.38c3.6.08,6.21-.79,5.36-2.6a13.37,13.37,0,0,0-3.54-4.3c.65.29,1.32.58,2,.86l.19.07c2.16,1.31,5.1,3.13,8.28,5.24s3.21,3.55,2.34,4.35c1.25.22,2.5.42,3.76.59a127,127,0,0,0,17.33,1H141l1.05,0c1,0,2-.06,3.06-.11a4.28,4.28,0,0,1-1.66-5.95,101.62,101.62,0,0,0,17.68-1.92c2.44.21,4.91.85,6,2.49a2.3,2.3,0,0,1,.4,2c.83-.23,1.71-.37,2.42-.55,1.58-.41,3.16-.8,4.73-1.25,3.22-.91,6.44-1.87,9.56-3.08a26.9,26.9,0,0,0,8.43-4.82,16.6,16.6,0,0,0,2.58-3,13.57,13.57,0,0,1-6.63.71c-4-.41-4.61-2.29-4.4-3.84a8.56,8.56,0,0,0,1.57-4.82,7.54,7.54,0,0,0-.16-1.57,9.85,9.85,0,0,0-2.4-4.52,16.51,16.51,0,0,0-2-1.9h0a25.34,25.34,0,0,0-2.12-1.55h0a57.54,57.54,0,0,1-6.12-5.4l-.4-.41c-.5-.52-1-1.05-1.49-1.6-.31-.34-.61-.69-.91-1l-.27-.32c-.23-.26-.45-.53-.67-.8l-.16-.2c8.55,2,15.76,4.89,20.91,8.37ZM86.56,232.86l-11,3.36a6.19,6.19,0,0,1-3.49,0l-6.13-1.77-.45-.16a3.54,3.54,0,0,1-2.18-3.28,3.46,3.46,0,0,1,.18-1.09,3.89,3.89,0,0,1,2.66-2.56,3.78,3.78,0,0,1,1.8-.1l.25,0h0l3.85,1,.44.09.16,0,.29,0,.18,0,.26,0h.92l.29,0,.18,0,.31,0,.15,0,.46-.1,9.5-2.54a3.67,3.67,0,0,1,2.68,3.2,4.06,4.06,0,0,1-1.29,3.9Zm-24.12.37-14.3-5.14L49.25,226l2.18-4c-2.16-1.2-4.21-2.68-6.3-4-2.26-1.4-4.52-2.8-6.76-4.23a139.54,139.54,0,0,1-13.16-9.06s0-.06,0-.05c4.74,2.56,9.25,5.54,13.82,8.38,2.32,1.45,4.64,2.89,7,4.28s4.71,2.52,6.9,4h0l12.77,5a5.18,5.18,0,0,0-.65.26,4.05,4.05,0,0,0-3.17,2.74,4.56,4.56,0,0,0,.52,3.84ZM19.57,205.85A11.13,11.13,0,0,1,14,205.1L1.32,196.5l3.95-4.84L22,202.18c.33,1.16.44,3.19-2.41,3.67Zm77.58,15.6-21.76,5.81a6.2,6.2,0,0,1-2.84.09l.66-.12.22,0c2.33,0,18.89-4.66,26-6.67l.07,0,.42.22-2.73.73Zm1,7.46a.16.16,0,0,1-.22.22c-1.31-.66-1.83-2.56-1.72-3.93.09-1.15.75-3,2-3.31,0,0,0,0,0,0a7.61,7.61,0,0,1-.78,1.19,4.5,4.5,0,0,0-.7,2c-.17,1.61.65,2.54,1.36,3.85Zm-.88,1.82-.27.07.27-.08Zm-3.62,0c-1.69.44-3.34,1.06-5.06,1.43,0,0,0,0,0,0a19,19,0,0,1,4.72-1.89,14.26,14.26,0,0,1,5-1c.16,0,.29.27.09.36a30.89,30.89,0,0,1-4.74,1.13Zm36.56-45.79a9.67,9.67,0,0,0-3.87-4.32c2,4.11,1.21,10.8.51,14.71L116.7,220.8a4.13,4.13,0,0,1-2.27,2.28l-12.61,5.13h0a3,3,0,0,1-2.67-.47l0,0a2.25,2.25,0,0,1-.36-.53,3.38,3.38,0,0,1-.29-1.05,2.43,2.43,0,0,1,0-.38c-.1-2.54,2.24-3.92,2.95-4.28l.12-.06,7.63-2.89a5.22,5.22,0,0,0,2.49-2,4.59,4.59,0,0,0,.63-1.32c.45-1.48.91-3,1.37-4.46,4-12.81,8.22-25.87,11.51-34.63.72-.46,1.78-.44,3.19,1.42s1.87,5,1.89,7.4Zm3.86-6.6a55,55,0,0,1-2.1,7.1c-.39,1.18-.86,2.32-1.27,3.49a23.71,23.71,0,0,1-1.15,3.08c-.08.16-.28,0-.26-.11a27.71,27.71,0,0,1,1.1-3.53c.39-1.18.71-2.37,1.12-3.54a54,54,0,0,1,2.51-6.51,0,0,0,0,1,0,0ZM144,163a7.22,7.22,0,0,1-1.41,3,36.46,36.46,0,0,1-5.23,3.16.55.55,0,0,0-.26.28l-2,5.11c-1.42,1.53-3.86,3.46-5.35.77a12.75,12.75,0,0,1-1.08-7.63c.2-.38.38-.72.56-1a4.26,4.26,0,0,1,.7-.93c1.85-1.68,3.71-1.82,5.69-2a19.63,19.63,0,0,0,2.88-.38,9,9,0,0,0,3.92-2q.5-.42.93-.87c.51.17,1,.74.68,2.5Zm3.23,39.88-8.61-4.46h0l-.37-.19a1.94,1.94,0,0,1-.56-.61l9.37,4.43s0,.06,0,.1v0l.06.32a.24.24,0,0,1,0,.08c0,.09.05.18.08.27v0Zm1.56-5-.18.11h0a1.3,1.3,0,0,0-.23.18l-.06.05-.16.15-.06.06c-.06.07-.13.14-.19.22l0,0-.16.23-.05.07-.12.21a.21.21,0,0,1,0,.06,2.55,2.55,0,0,0-.13.29s0,0,0,0l-9.84-5a1.76,1.76,0,0,1,1.47-1.13h.18l.77.35,0,0,8.81,4.06Zm1.27.73a1.47,1.47,0,0,1,.46.07l.3.14a2.36,2.36,0,0,1,.81.87,3.52,3.52,0,0,1,.41,1.69c0,1.53-.89,2.78-2,2.78a1.52,1.52,0,0,1-.88-.29,3,3,0,0,1-1.11-2.49c0-1.53.89-2.77,2-2.77Zm-.19-38.75.57-.18a92.15,92.15,0,0,0,2.45,14.8c.44,1.77,1,3.72,1.62,5.79-1.32,1.51-2.57,3-3.72,4.41-.45-3.06-1.2-6.09-1.67-9.14-.27-1.68-.52-3.35-.76-5a21.06,21.06,0,0,0-1-5.18c-.06-.13-.27-.17-.31,0a16.3,16.3,0,0,0,0,4.88c.15,1.77.34,3.53.58,5.29a72.08,72.08,0,0,0,1.71,10.23.66.66,0,0,0,.23.35l-.93,1.16a205.77,205.77,0,0,1-3.51-22,23.21,23.21,0,0,0,4.66-5.38Zm20-10a23.44,23.44,0,0,1-5.31,2.11q-2.72.84-5.47,1.47c-1.85.42-3.71.75-5.58,1a22,22,0,0,1-5.72.36s-.06-.08,0-.09a47.09,47.09,0,0,1,5.57-.86c1.86-.29,3.71-.66,5.56-1.07s3.67-.9,5.47-1.45,3.58-1.3,5.41-1.67a.11.11,0,0,1,.08.19Zm25.77,6.83h0a7.8,7.8,0,0,1,2.7,1c-.71,1-3.8.9-7.08.76-3.48-.14-7.43-.3-10.57.71-6.37,2.05-12.12,6.89-16.42,10.87-3.13,2.91-6.19,6.14-9,9.29-.55-1.81-1-3.51-1.4-5.08a91.42,91.42,0,0,1-2.45-14.92,201.58,201.58,0,0,0,19.39-8.1l1.61-.76,23.15,6.25ZM18,196.64l.08,0h.05l-.06,0h0l.08.05a16.87,16.87,0,0,0,4.77.53,11.39,11.39,0,0,1,1.34,0h.05c2.17,0,24.07-6.51,29.9-8.25,2.32,1,10.59,4.72,16,9.3l1.52.85,1.69.93,1.35.75c2.53,1.4,5,2.78,7.45,4.1l.73.39,3.52,1.92.68.37.68.37.67.36.66.36.65.35.42.23.65.35.64.34c.42.23.84.45,1.24.68l.15.08.59.31.46.25.12.07.84.45.55.29.47.25.06,0,.47.25,2,1.06.43.23,1.14.61.26.14,0,0,.67.36.31.16.15.08,0,0,.18.1,1,.51.17.09.82.44.08,0,.34.18-1.88-.84c-1.94-.87-3.85-1.76-5.73-2.65l-1.69-.81L94.1,212l-.68-.33L92.09,211l-1.32-.65-1.3-.66-1-.53-.72-.39-.1,0-.35-.2-.83-.45-1-.56-1-.54-2.24-1.22-1-.57-3.34-1.83-1.12-.62-4-2.21-.57-.32-.58-.32-.57-.32-.57-.31-3.09-1.73-.35-.19-2.23-1.26,0,0-1.09-.61-3.87-2.21-.54-.3-1.06-.62c-.36-.2-.71-.4-1.05-.61-.18-.09-.35-.2-.52-.3-.35-.19-.69-.39-1-.59l-.36-.21-.62-.36,0,0,.07,0,.22.15.16.11.15.1.12.08.13.09.29.2,1,.63.18.13.2.12.22.15,1.15.75.36.23.07.05.77.49.45.29.34.21.77.49.47.3.91.57.65.4,1.18.73L65,197l.43.26.61.37.63.39.57.34.65.39,1.78,1,1,.6.62.36.09.05.73.42.06,0,.65.38,1.06.61a8.75,8.75,0,0,1,.85,1.59l2.41,1.32,1.4.76,2.51,1.38,1,.57.71.38,1.1.6,2.9,1.57.9.49,1.62.87.78.42.76.41.38.2.72.39.71.38,1,.54.42.23.58.31.86.46.27.14.33.18.59.31c.22.12.43.24.64.34l.54.3.05,0,.27.15.5.26.24.13c.15.08.29.16.43.22l.38.21.27.14a2,2,0,0,0,.25.13l.17.1.09,0-.73-.32c-.25-.1-.49-.22-.74-.33-1.48-.66-3-1.34-4.4-2l-.67-.32,0,0q-2.89-1.37-5.66-2.75c-.49-.24-1-.48-1.46-.73-.3-.14-.58-.29-.87-.44l-1-.52-.73-.4-.09,0-1.89-1-.86-.47-1.16-.63-1-.53-4-2.21-.93-.51-.57-.31c-2.63-1.45-5.33-2.94-8-4.43l-1.09-.61-.06,0-1.14-.64-1.81-1-.91-.51-1.33-.76-.77-.43-.78-.44h0l-1-.56-2.78-1.6-.52-.3-.52-.3-.52-.3-.36-.21-.65-.38-.22-.13-.22-.12.09.06.15.1.06,0,.11.08.27.18.32.21.28.19.3.2.23.15.24.16.25.16.46.31,1.64,1.06.33.22,2.45,1.55.41.25.39.25.4.25.31.19.45.28.47.29.47.29h0l.48.29,1,.61,1,.62,2.3,1.37,1,.59.7.41,1.08.63c1.28.74,2.62,1.51,4,2.29l.11.06.32.18,2,1.1a8.62,8.62,0,0,1,0,1.13l2.19,1.2,1.35.73,6.83,3.69.74.4.44.24.68.37,1.23.65.39.21.18.1.58.31.18.1.55.29.27.15.26.14.63.33,1.84,1,.27.14,1.93,1a1.51,1.51,0,0,0,.18.09l0,0,.38.2.07,0,.1,0,0,0,.08.05-1.88-.84-1.42-.65L92,216.57l-.93-.43-.92-.43-1.82-.87c-1.59-.76-3.16-1.53-4.69-2.3l-.76-.39-.76-.38-1-.53-.73-.39-.09,0-.67-.37-2.08-1.12-.53-.29-1.11-.6-1-.56-1.09-.6-1.66-.91-1.12-.61-.56-.31-1.13-.62-.56-.31h0L64.23,202l-1.72-1-1.15-.64h0l-1.14-.64-.58-.32L58,198.46h0l-1.12-.63-1.12-.64-1.65-.94h0l-1-.56-3.82-2.2-1-.6-.51-.29c-.09-.05-.17-.11-.26-.15l-.19-.12s0,0,0,0l.05,0,.4.27.13.09h0l.29.2,1.72,1.14.46.3.71.46.32.2.51.33.53.34.62.4c.73.47,1.53,1,2.38,1.49.23.15.46.3.7.44l2.55,1.57.44.26.46.27.2.13.94.56.2.12,1.27.75.34.2.53.32,1.35.78.16.1,1.16.67c.53.3,1.06.61,1.61.91q1.25.72,2.55,1.44c1.68.94,3.44,1.89,5.25,2.86a9.33,9.33,0,0,1-.3,1.1l2.26,1.23,1,.53,1.75.95.85.45.64.35.19.1.81.44.93.5,1,.53.11.06.26.14.71.38.35.19.34.18.38.2.6.32.31.17.31.16.59.32.77.41.25.14.31.16.4.22.84.44.36.2.09,0,.25.13.15.08.28.15.11.06.1.05,0,0,.11.06.47.25-1.86-.82c-1.58-.72-3.15-1.44-4.69-2.17l-1.82-.86-.91-.44-1.79-.88-1.77-.87-1.74-.88-1-.53-.73-.39-.09,0-1.89-1-.86-.47-2.13-1.16-1.08-.59-.55-.3L67.59,207l-2.82-1.54-1.14-.63-.59-.33-1.12-.62-1.15-.64-1.15-.63-.63-.36-1-.57-.89-.49-.64-.36-2.64-1.48-1-.57L50,197.24l-1-.55L47.84,196l-1-.55-3.7-2.15.47.32.24.16.37.25.14.09.14.09.38.26.46.3.28.19.23.15.24.16c1.16.75,2.64,1.7,4.4,2.81q.28.16.57.36L54,200.2l.57.35q.49.28,1,.6l1,.61.61.37.16.09h0l.87.52c1.46.86,3,1.76,4.63,2.68l.81.46.84.48.75.42.13.08,1.41.77.88.49,1.34.73,1,.55c.26.15.53.29.8.43l1.11.59,1.34.72.86.44c-.1.17-.21.34-.32.5l1.66.9,1.12.6.08,0,.4.21.39.21.5.28.5.26.14.08.73.39.2.11.52.28.35.19.35.19.34.18.34.18,1,.52.31.17.31.17.3.16,1.15.61,1.29.69h0l.34.18.32.18,0,0,.32.17.31.17.25.13h0l.23.13.17.09.32.17.16.09.31.16.19.1.45.24.1,0,0,0h0l-.46-.2-.46-.2h0l-2.82-1.27-1-.44-1.84-.86-.1,0L81,216.6l-1.83-.88-1.76-.87-1.32-.66-1.3-.65-.49-.27-.49-.26-1.5-.81-.51-.28-1.42-.77-.66-.36-1.06-.58-4-2.18-.95-.52-.62-.34-.83-.47-.48-.25-2-1.1-.06,0-1-.54-3-1.69-1.14-.64-1.81-1-1-.59-.58-.33-1-.58-1.22-.69-1-.57-1.84-1.05-.45-.26-1.07-.61h0l-1-.6h0l-1-.61-.52-.3-.89-.51-.64-.38-.47-.27.17.12.09.06.06,0,.18.12.64.43.1.07.73.49.26.17.4.26.23.15,1.88,1.22.35.22,1.14.72.42.27,1.25.78.75.47h0l.52.33.33.2.68.42.35.21.79.48.41.25c.11.07.23.13.34.21l1.9,1.13a1.18,1.18,0,0,0,.19.11l.72.43.55.33.56.32a0,0,0,0,0,0,0l1.14.67.79.45.59.34.9.52.46.26.46.26,1.54.87.15.08,1.43.8.14.07.79.44.81.44.81.45,2.51,1.34c.55.3,1.11.59,1.67.88l2.67,1.39a13.05,13.05,0,0,1-1,.94l3.82,2.06.51.27.33.18,1.72.92.4.22.39.2.29.16,1.11.6.27.14.26.14.36.19.34.19,0,0,.47.24.22.12.88.47.33.18.09,0,.17.09.16.09.41.22.21.11.2.11h0l.09,0,.09.05.16.08.1.06.19.1.14.07.21.11,0,0h0l-1.07-.48c-1.43-.63-2.84-1.28-4.24-1.93l-1-.49-2.06-1-1.31-.63-.2-.1-.38-.18-.08,0-.92-.45-1-.5-2.32-1.17-1-.52-.73-.39-.09-.06-1.19-.64-1-.56L64,211l-1-.56-1.73-.94-1.12-.62-.28-.15-1.27-.7-1.28-.7-1.09-.6c-2.89-1.6-5.81-3.23-8.68-4.84l-1.71-1c-.35-.21-.7-.4-1.06-.6l-1.11-.63L42.42,199,41,198.16l-.55-.31c-1.27-.73-2.52-1.45-3.72-2.16l-.45-.26.13.09.07,0,.66.45.17.11,0,0,.1.07c.77.52,1.9,1.26,3.34,2.18l.34.22.49.31.15.1.23.14c.15.1.3.2.46.29l.23.15.62.4.62.38,0,0,.49.31h0l.51.32h0l.34.21.19.12.86.52.28.18.9.55.62.37.63.38.27.16,1,.62.26.15,1.78,1.06,1.43.83,1.48.85.75.43.77.44c1,.57,2,1.14,3.09,1.73l.53.29.53.3,1.54.83.66.36.67.36,1.34.72.88.46,1.16.61,1,.55,1.27.65,1,.51a11.19,11.19,0,0,1-1.2.6l.65.36,1.1.59.63.34,3.09,1.66.36.19,2.3,1.23.24.13,2.09,1.12.46.24.16.09.16.08.2.11.22.11.63.34.2.11.09,0,.13.07.09,0,.09.05.13.07c-4.86-2.15-9.55-4.38-14-6.61h0l-2-1.07-1-.56h0l-1-.56L62,212.93h0l-1.09-.59h0l-1-.57-.07,0-1-.53-2.42-1.33-1.15-.63L54,208.59l-.14-.08-1-.56L50,206.33l-1-.52L47.61,205,47,204.7l-.76-.43-1-.55-.58-.32-1.16-.65-1.05-.6-.67-.38-1-.58-.76-.44-1.48-.84-.2-.12-1.55-.88-.55-.32L35.16,198l-.62-.35-1-.56-.51-.3-.47-.27.09,0,.08.06.09.07h0l.15.11.2.13.15.1h0l.27.19.17.11.07,0,.12.08.1.07.7.46.23.15.31.21.42.27.93.6.26.18.76.48L38,200l.07,0,.44.29.41.25.24.15,1,.65.25.16.26.16.26.17L45,204.35l1,.6,1.15.69a.31.31,0,0,0,.1.05c.49.29,1,.59,1.49.88l1.68,1,2.24,1.28c.44.26.9.51,1.36.77L56.44,211l1.68.92,1.66.9,1.82,1,1.8.94,1.82.95,1.89,1c-.42.11-.85.21-1.29.29l1.13.61.61.33L70,219.14l.3.16.74.4.29.16.43.23.14.07.48.26.14.08.46.24.26.14.4.22.35.18,1.55.83.3.16.23.12.58.31.48.25.33.18.25.13.4.22h0a.2.2,0,0,1,.08,0l.16.08h0l.14.07.09.05h0l.08,0-.87-.38L76,222.57l-.68-.31-1-.44-.83-.39-2-1-1.76-.84-1.75-.86-2.57-1.27-.85-.43h0l-1-.53-1-.54-1-.56-1-.56-1.06-.57-.53-.3-.54-.29-1.09-.59-1.1-.6L55,211.93l-.56-.31L53.34,211l-.57-.31-1.14-.63-.57-.32-.58-.31-.58-.32-.9-.5-.25-.14L47,207.53l0,0-1.16-.65-.58-.32-1.16-.65L43,205.25l-3.46-1.95-1.7-1h0l-1-.58-.09-.06L35,200.75l-.55-.31-1.08-.62-1.08-.62,0,0L30.19,198l-.51-.29-.48-.29s0,0,.07,0l.06.05.06,0,.07.05.14.09.12.08.1.06a.71.71,0,0,0,.14.1l.49.33.11.08c.28.18.6.4,1,.63l.15.1,1.59,1,.34.22.21.13.2.13.21.14.43.27.06,0,.22.14L37.86,203l.53.33,1.14.7,1.2.73.3.18.95.57,1.31.78c.18.12.38.23.57.34l1.35.8,1.18.69,3.15,1.81,2.06,1.16q2,1.11,4.11,2.25l.45.24.2.11.77.41,1.07.57,1.15.61h0l.59.3.59.31c.47.25,1,.5,1.44.74l1,.52-1.25,0,1.13.61.74.4.36.19.71.38.35.19,3.56,1.91.48.27.39.2.28.15,1.31.71.19.1.19.1.23.12.35.18.32.18.33.17.08,0,.32.17,1.73.92.12.06.14.07.12.07.41.22,0,0h0l0,0h0Q72.83,223.35,70,222l-2.75-1.3h0l-1.81-.87q-2.23-1.1-4.4-2.19l-1-.53-.73-.39-.09-.05c-3.73-2-7.87-4.28-12.12-6.62L46,209.45,42,207.19l-1-.57-.89-.49-.65-.36-2.63-1.48-1-.57L34.5,203l-1-.55-.55-.31-.95-.55-1.22-.7c-.32-.18-.64-.36-.95-.55-1.1-.63-2.17-1.24-3.21-1.85l-.47-.28.24.16.11.08.14.1.05,0,.25.17,0,0a.57.57,0,0,0,.13.08,2.49,2.49,0,0,0,.24.17l.64.42.37.25,1,.67.76.49.8.52.32.2.2.13.2.13,1.49.94.47.3,1,.61,3.24,2,.59.35,2.46,1.47,1.29.76,1.35.78.61.36,0,0,.22.12,1.23.71,1.58.89.73.41.79.45.18.09h0l.46.25.48.27.15.08c1.1.61,2.24,1.23,3.4,1.85l.57.31.59.31.24.13,1.74.92-1-.28c.14.09.29.16.44.24l.43.24,5.8,3.13.32.17,1.52.82.5.26.36.2.61.32.48.26.3.16.13.07.58.31.28.15.27.15.27.14.51.27.47.25,1.49.8.25.13.11.06.12.06,1,.55.1.05,0,0-1.13-.5-.07,0-.11-.05-1.85-.84-1.53-.7q-2.56-1.19-5-2.39l-1.23-.6-.15-.08-.85-.42-.51-.25-.92-.46-1.19-.6-3.5-1.9-.85-.46-1.25-.68-2.15-1.17L41.16,209l-3.44-1.92-.64-.35-1-.57-3.48-1.95-1.68-1L27.08,201l-.81-.47-.78-.44-1.75-1-.82-.48-.47-.27.17.12.13.09.11.07.23.16.5.34.17.1.36.24a1.37,1.37,0,0,0,.2.13l.28.19.17.12.25.16.08,0,.45.29.28.19.72.46.32.21.34.22c.28.18.59.37.9.58l.37.23,3.32,2.08.46.28.77.47.49.3,2.6,1.57.69.4,2,1.2.52.31,1.61.93,1,.58,1.92,1.08.66.37.24.14,1.09.6.67.37-1.3-.47,1.09.62,1,.59.44.25,4.61,2.6.95.54.67.37.72.4,3.21,1.8.28.16.26.14,0,0,.53.3.61.33.36.2.72.41c.2.1.39.21.58.32l0,0,.56.31.93.51.42.24.35.19.36.2.52.29.27.15.28.15.16.09.15.08.16.1.21.11.39.22-1.75-.82-1.11-.52L62,222.25q-2.67-1.29-5.25-2.6l-.27-.14-1-.5c-.39-.19-.77-.39-1.15-.59-.88-.45-1.75-.9-2.6-1.36l-2-1.09-.82-.47-.29-.16-.29-.16,0,0-2.67-1.52-1.07-.6-1.24-.7-1.49-.85h0l-1.66-.95h0l-1.11-.64h0l-.57-.32-1.13-.65-.41-.24-.87-.5-1.55-.89L34,207l-1.13-.66-.58-.33-1.13-.65c-2.68-1.56-5.34-3.12-7.89-4.63l-.88-.52-.63-.38-1.06-.63-3.06-1.85-.45-.27,0,0,.1.08.06,0,.86.6.14.1a.91.91,0,0,1,.16.11l.52.36.33.22.2.14,1,.67.51.35.48.31.5.34.75.49c.87.58,1.82,1.2,2.86,1.87l1,.66c1.19.76,2.49,1.58,3.88,2.44.24.14.48.3.72.45l.86.52,1.2.73,1.5.91-2.59-1.07L10.4,193.62l7.57,3ZM71.08,111.7a43.68,43.68,0,0,0-4,2.19,9.11,9.11,0,0,0-2.8,3.44A15.7,15.7,0,0,0,62.91,122c-.12.87-.31,1.72-.37,2.6a2.1,2.1,0,0,1-.45,1.45.14.14,0,0,1-.2,0,2.64,2.64,0,0,1-.35-1.9,30,30,0,0,1,.12-3.14,12.42,12.42,0,0,1,1.45-4.84c0-.08.09-.15.13-.22l.13-.2.18-.26.14-.18.12-.16.22-.26.14-.16.2-.22.15-.15.07-.06.16-.16.14-.12.38-.32.33-.25.38-.26.31-.19a7.43,7.43,0,0,1,.73-.4l.19-.09.18-.08.38-.16.39-.14.18-.06.17-.06.36-.1.23-.05.41-.09.13,0,.13,0,.18,0,.36,0h0l.25,0h.47s.06.05,0,.07ZM63.3,131.5c-.69-.32-1-1.36-1.21-2.06a4.42,4.42,0,0,1,0-2.62c0-.06.1,0,.11,0a12.67,12.67,0,0,0,.53,2.59,9.89,9.89,0,0,1,.82,1.94c0,.12-.14.17-.23.13Zm61.69-31c-5.38-2.27-6.55-8.22-5.52-13.48.66-3.37,1.69-6.69,2.47-10s1.17-6.83,2.26-10.06c0-.05.11,0,.1,0a87,87,0,0,1-1.63,9c-.54,3-1,6-1.44,9s-1,6.24-.14,9.16a12.3,12.3,0,0,0,4.15,5.91c.19.16,0,.53-.25.43ZM118.5,65.94a38.94,38.94,0,0,0-4.37,1.26A70.19,70.19,0,0,0,105.57,71a58.56,58.56,0,0,0-7.14,4.48h0l0,0-.53.49s0,0,0,0l-.57.55-.29.29q-.28.27-.57.57l-1.1,1.14-.53.58-.26.28-.77.87-.23.27-.72.83-.45.55c-.3.36-.59.71-.86,1l-.34.43-.21.27L90.7,84l-.39.51c-.06.08-.12.15-.17.23l-.68.89-.21.29-.88,1.23c-1.28.76-2.27,1.38-2.92,1.8l.16-4.69.27-.33.35-.4.33-.39.35-.39.35-.38.35-.39.36-.37.36-.38.35-.36c.13-.12.25-.24.37-.37l.37-.35.36-.36.38-.35.37-.35.38-.34.38-.34.39-.34.38-.32.4-.34.38-.31.4-.33.39-.3.41-.32.4-.3.41-.3.4-.3.42-.3c.14-.09.28-.18.41-.28l.43-.29.41-.27.44-.29.41-.26.45-.28.41-.25.45-.27.42-.25c.16-.08.31-.17.46-.26s.28-.16.43-.23l.46-.25.43-.24.47-.23.44-.23.47-.23.45-.21.49-.23.43-.2.5-.22.44-.2.51-.21.44-.18.52-.21.45-.17.52-.2.45-.16.53-.19.39-.13a0,0,0,0,1,0,0A41.73,41.73,0,0,1,114,66.59c1.59-.42,3.18-.84,4.79-1.16,1.25-.26,2.92-.83,4.18-.55a0,0,0,0,1,0,.09,6.68,6.68,0,0,1-2,.47c-.81.15-1.61.31-2.41.5Zm-40,14.12c-2.35-.38-3.13-1.48-3.4-2.17A67.64,67.64,0,0,1,94.66,66.81c6.4-.31-.2,6.09-3.74,8.69-3.87,2.85-7.62,5.33-12.43,4.56Zm5.86,9.56-.55.27L83.94,86a.29.29,0,0,0-.4-.27c-.49.23-1.53.73-3.64,1.81-2.74,1.4-3.51,4.79-3.71,6.21l-.9.45L75.48,89l9-4.14-.16,4.74ZM74.92,88.1,62.84,84.51l8.45-3.27,9.81,2.38,2.35.57-6.64,3-1.89.87Zm-.71,6.31-12.73-4,.21-5.12,5.42,1.6,7.3,2.17-.2,5.35Zm79.15-78.66a13.54,13.54,0,0,1-2.6-2.64c-.3-.37-.59-.75-.86-1.14-.76-1.1-2-3.47-1.47-5a3.41,3.41,0,0,1,.37-1.73l.07-.11a6,6,0,0,1,6.5-3.37c.08,0,.33.39.27.41-2,.72-3.59,2.17-3.62,4.39a7.9,7.9,0,0,0,2.36,5.19,13.72,13.72,0,0,1,1.38,1.57,29.54,29.54,0,0,0,4.59,3.59A30.71,30.71,0,0,0,169,20h0a44,44,0,0,0,4.87,0c.26,0,.32.42.06.46a35.51,35.51,0,0,1-4.95.38.47.47,0,0,1-.24,0l-.13,0a24.55,24.55,0,0,1-12.76-3.33,21.38,21.38,0,0,1-2.47-1.77Zm25,5.37a22.7,22.7,0,0,0,7.13-3.21,18.65,18.65,0,0,0,3.58-5,8.13,8.13,0,0,0-.56-8.56h0c-.58-.42-1.27-.64-1.83-1.07a0,0,0,0,1,0,0,5.85,5.85,0,0,1,4.19,2.51A6.58,6.58,0,0,1,191.64,8c.05.28.09.55.11.81a10.33,10.33,0,0,1-.79,5c-2.53,6.12-10.19,8.72-16.22,9.48a31.15,31.15,0,0,1-10.46-.41,28.44,28.44,0,0,1-5-1.59,23.43,23.43,0,0,1-4.44-2.64s0-.08,0-.06c7.21,3.4,15.78,4.63,23.51,2.5Zm45.2,62.52a16.16,16.16,0,0,0-2.53-.89l-1.21,0-9.15-1.39a58.46,58.46,0,0,0-15.69.1c-6.23.73-17.82,5.11-20,6,2.92-1.05,10-1.35,8.72,1.27s-13.55,11.47-20.34,12.61a13.35,13.35,0,0,1-2.48.19h-.18l-.21,0h-.1l-.53-.06a6.35,6.35,0,0,1-1.88-.54l-.11,0a4.94,4.94,0,0,1-1.09-.74l-.11-.11a4.05,4.05,0,0,1-.89-1.27c-.93.66-1.86,1.32-2.85,1.89,3.4.65,6.73,1.91,10,2.85,0,0,0,.08,0,.07a35.81,35.81,0,0,1-10.43-2.65h-.05a13.67,13.67,0,0,1-1.82.83c-1.43.52-2.9.92-4.35,1.37a42.94,42.94,0,0,1-4.91,1.43s0,0,0,0c2.65-1.41,5.7-2.25,8.48-3.37a22.48,22.48,0,0,0,3.63-1.75l.57-.47.62-.49.9-.69.57-.43.42-.3c.5-.37,1-.75,1.63-1.15l.26-.18.33-.22.34-.23.35-.23.72-.47.75-.47.39-.24,1-.61.64-.38a101.12,101.12,0,0,1,33.16-12.07A38.91,38.91,0,0,1,209,80.54l4.78.73c2.41-15.47,4.73-30.66,5.9-39.28a18.06,18.06,0,0,0-1.22-9.78c-3.38-7.58-13.71-10.59-18.78-11.63a17.81,17.81,0,0,0-3.85-.36c-2.82,0-8.75,0-9.66.33,0,0,0,0,0,0a13.53,13.53,0,0,1,4.17-.86,14.9,14.9,0,0,1,2.46-.22,15.26,15.26,0,0,1,2.79,0c1.62-2.17,2.8-5,2.66-7.31a6.57,6.57,0,0,0-3.08-5.62l-.05,0L188.34,3.1a18.39,18.39,0,0,0-3.81-1h0c-.37-.09-.77-.18-1.23-.27l-.67-.13-.5-.09H182l-.12,0h-.1l-.09,0-.13,0h0l-.05,0-.15,0L181,1.38h0l-1.1-.17h0L178.26,1,177.1.86l-.13,0-.24,0-1-.11h-.13l-.77-.08-.42,0-.82-.07c-7.51-.64-15.05-.68-19.19-.1-1.58.22-4.95,1.4-6.46,4.28-1.15,2.22-1,4.9.61,8a15.23,15.23,0,0,0,5,5.44c.35.25.73.49,1.11.72l-.61-.33a8,8,0,0,0-3.79-1h-.54a17.41,17.41,0,0,0-16.71,10.11c-1.23,2.84-5.44,20.76-8.81,36.09l-8.34-1.25a29.78,29.78,0,0,0-10,.17A72.2,72.2,0,0,0,79.8,73.07a51.68,51.68,0,0,0-8.86,7.15L61,84.08h0a.2.2,0,0,0-.08,0h0l-.08.07h0l-.05.08s0,0,0,0a.69.69,0,0,0,0,.1h0a.3.3,0,0,0,0,.1h0l-.25,6.23a.53.53,0,0,0,.37.53l13.79,4.34h0l.15,0,.15,0h0l.06,0,10.15-5.18,0,0h0A101.2,101.2,0,0,1,108.83,79a.27.27,0,0,1,.07.08,39,39,0,0,1,4.55-1.84,36.8,36.8,0,0,1,4-1.06,8.12,8.12,0,0,1,3.16-.34.19.19,0,0,1,0,.35,11.51,11.51,0,0,1-3.39,1c-1.2.29-2.39.6-3.58.94l-1.88.51c.19.31.41.69.63,1.13,0,.09.09.19.13.28s.19.39.28.61.13.3.19.46l0,.06c0,.07.05.14.07.21s.17.45.25.7h0a2.25,2.25,0,0,0,.08.24c0,.16.11.33.16.51s0,.17.08.26l.15.58.06.19.06.25c0,.14.07.29.1.43.07.32.14.65.21,1,0,.08,0,.17,0,.25.06.34.12.7.18,1.06a2.36,2.36,0,0,0,0,.28c0,.21.06.43.08.65s0,.24,0,.36,0,.11,0,.17a1.18,1.18,0,0,1,0,.27.22.22,0,0,1,0,.09c0,.17,0,.35,0,.54l0,.29c0,.47.07.95.09,1.46,0,.07,0,.14,0,.22s0,.34,0,.52,0,.35,0,.53c.07,3.37-2.65,6.65-6.35,9.54a59,59,0,0,1,7.12-.91,45,45,0,0,1,7.79,0,31,31,0,0,1,3.18.29,54.42,54.42,0,0,1,9,2.17,22,22,0,0,1,4.4,1.27,0,0,0,0,1,0,.06,23.6,23.6,0,0,1-6-1.08q-1.11-.28-2.19-.63a30.94,30.94,0,0,1-3.32-.66c-1.51-.26-3-.37-4.52-.49l-1.4-.1c-2.36,0-4.73.2-7.07.4A69.44,69.44,0,0,0,105,104a32.23,32.23,0,0,1-7.9,1.38c-12,2.21-21.8,2.08-31,6.59-5.42,2.66-6.56,9.42-6.72,14.28-.19,6.13,3.08,7.94,9.46,11.25.36.19.86.42,1.48.69h0l.77.34c.67.29,1.45.62,2.32,1l.93.38.07,0,.87.25.93.29.71.22.76.24,1.33.43h0l2.14.73.07,0,.74.26.73.26,1.24.44,1.28.46.55.2.65.24h0l2.11.76.62.22.51.19,1.87.67,1.59.57,2.86,1h0l1.44.52h0l.93.34,2.51.92h0l1.23.44,1.19.44,6,2.21,8.09,3c4.59,1.67,9.25,3.83,14.09,4.63,4,.66,8.64,0,11.33-3.3.09-.11.27,0,.19.15-2.26,3.73-6.74,4.95-10.88,4.41-.23,0-.46-.06-.69-.1,0,.28-.06.57-.1.85a7.76,7.76,0,0,0-1,.31c.05-.49.1-.93.13-1.32l-1-.23c-.06.58-.13,1.3-.23,2.13a8,8,0,0,0-1,.73L92.12,149.4a127.52,127.52,0,0,1-15.49-5.74s0,0,0,0c2.85.88,5.7,1.74,8.54,2.64l.49-.22c.56-.24,1.14-.5,1.65-.74h0c-3.37-1.26-6.77-2.47-10.1-3.84A9.29,9.29,0,0,0,75,142.73l-1.06-.41a6.42,6.42,0,0,1,2.89-1l-1.72-.73a7,7,0,0,0-2.6,1.48h0a.22.22,0,0,0-.07.09c-.22.27-.47.59-.72.94a.38.38,0,0,0-.09.13,84.47,84.47,0,0,0-8.34,14.81c-4.53,10.08-6.8,27-7,28.17A2.14,2.14,0,0,1,55,187.58c-11.58,3.48-29.32,8.61-30.73,8.55a13.07,13.07,0,0,0-1.44,0,16,16,0,0,1-4.51-.51l-13-5.17-.1,0H5l0,0,0,0,0,0,0,0,0,0,0,0L.12,196.28a.5.5,0,0,0-.11.41.55.55,0,0,0,.22.37l46.85,31.76h0l.12,0,17.88,6.44.49.18h0l6.14,1.78a7.32,7.32,0,0,0,2,.28,7.43,7.43,0,0,0,2.13-.32L83,235.07c2.42,4.61,7.9,8.82,16,12.2,11.09,4.62,25.83,7.16,41.5,7.16s30.4-2.54,41.5-7.16,17.43-11,17.43-17.69V226.7c0-9.29-12-17.72-31.45-22a76.68,76.68,0,0,1-10.7-19.62c8.84-10.15,21.22-22.43,29.34-22.45h1.82c9.91,0,15.37,0,16.47-4,.69-2.48-1.74-3.57-4.75-4.65-6.54-2.35-17-4.95-22.12-6.18,2.69-1.32,5.12-2.52,7.32-3.63,13.27-4.76,25.86-10.35,28.46-14.61,2.95-4.85,3.61-14.67,3.61-22.48,0-4.68-.24-8.65-.36-10.39-1,0-2.06.14-3.09.24a81.42,81.42,0,0,0-12.76,2.27c-2.7.71-5.34,1.55-7.93,2.5a.42.42,0,0,0,.11.15s4.17,3.88,4.65,15.44c.26,6.23-8.81,12.07-16.46,15.87a118.56,118.56,0,0,1-24.29,8.8c-8.76,1.84-13.26,4-14.16,7a6.29,6.29,0,0,0-.16.66,3.81,3.81,0,0,0,0,1.47l-.23-.14a2.5,2.5,0,0,1-.72-2.9c.76-2.46,5.13-4.49,13.33-6.22a119.77,119.77,0,0,0,24.52-8.89c7.92-3.94,17.31-10.07,17-16.86-.31-7.7-3.17-11.74-5.3-13.71a85.94,85.94,0,0,0-14.14,7.13c-.1.06-.19-.09-.1-.16a71.7,71.7,0,0,1,10.25-6,79,79,0,0,1,19.49-6.53,72.33,72.33,0,0,1,10.27-1.23,36.58,36.58,0,0,1,5.44.12l1.33.16a3.28,3.28,0,0,0,.56-.42,3,3,0,0,0,1-2.18V87.87c-.12-1.81-.42-3.34-2.16-4.23Zm-95.51,81.63,0,0h0l0,0Zm0,0,0,0h0l0,0Zm0,0,0,0h0l0,0Zm0,0,0,0h0l0,0Zm0,0,0,0h0l0,0Zm0,0,0,0h0l0,0Zm0,0,0,0h0l0,0Zm0,0,0,0h0l0,0ZM114,90.51a2.53,2.53,0,0,0,0-.28c0-.09,0-.18,0-.27s0-.2,0-.3l0-.35c0-.19,0-.37,0-.56l0-.34a.5.5,0,0,0,0-.12.57.57,0,0,0,0-.13.69.69,0,0,0,0-.13l-.06-.5c0-.17,0-.33-.08-.5l-.06-.32c0-.12,0-.22-.06-.33s0-.25-.08-.37-.06-.28-.09-.42-.06-.28-.1-.41-.14-.53-.21-.78-.09-.28-.13-.41-.18-.53-.28-.79-.09-.25-.14-.37-.21-.51-.32-.75l-.1-.21a1.3,1.3,0,0,1-.08-.17c0-.09-.09-.18-.14-.26-.15-.31-.32-.6-.48-.88-.06-.09-.12-.18-.17-.27l-.14-.22c-.13-.19-.25-.37-.38-.54l-.35-.46h0c-.38.1-.76.22-1.14.34,1.68,1.94,3.62,5.5,3.74,11.69.08,4.52-4.85,8.88-10.41,12.34a34.77,34.77,0,0,1,3.51-1.08c4.52-3.28,8-7.17,8-11.28,0-.19,0-.39,0-.57Zm14.07,74.76,0,0h0l0,0Zm0,0,0,0h0l0,0Zm0,0,0,0h0l0,0Z"/><path class="cls-1" d="M152.52,100.84h0l0,0Z"/><path class="cls-1" d="M155.94,116.91a.75.75,0,0,1-1,.72l-14.3-4.38a1,1,0,0,1-.68-.93v-2s1.87,1.64,6.48,3,4.21-1.8,3.44-3l5.33,1.61a.94.94,0,0,1,.7.92v4ZM139.8,106.79l-.15,6.71,16.69,5.25.12-7-16.66-5Z"/><path class="cls-1" d="M166.5,106l-9.21,4a1.3,1.3,0,0,1-.87,0l-11.78-3.38h.06l.18,0,.11,0,.13,0,.15,0,.84.14.15,0,.27,0,.17,0,.21,0,.25,0,.31,0,.32,0,1.38.19.44.06h0l.46.05.47.06.26,0,.56.06.41,0c.44,0,.89.09,1.33.12l.47,0,.31,0,.41,0,.62,0H155l.49,0,1,0c.53,0,1.05,0,1.53,0l.41,0c4.75-.33,4.15-2.94,4.15-2.94l4,.82a.14.14,0,0,1,0,.26Zm-14.41-4.15L141,106l16,4.76,8.14-3.64,3.1-1.38-16.11-3.92Z"/><path class="cls-1" d="M169.22,112.71l.08-6.27-1.56.7c-1.29,1.3-3.49,3.85-3.05,5.64a2.11,2.11,0,0,0,1.12,1.63l3.41-1.7Z"/><path class="cls-1" d="M205.87,85.09a60.37,60.37,0,0,0-35.48,20.72l-.09,6.24c.7-.45,1.83-1.15,3.29-2,2.71-4.08,14-19.58,32.28-25Z"/><path d="M151,145.66a14.24,14.24,0,0,0-3.86,1.69c-1.7,1.2-2.91,3.52-.42,4.56,5.12,2.12,19.54-3.41,19.54-3.41a79.82,79.82,0,0,1-10.62,1.91c-6.93.86-4.64-4.75-4.64-4.75Z"/><path class="cls-1" d="M176.35,148.45l-2.54,1.15,22.12,6.1c.91.2,3,.73,3.47,1.62a.89.89,0,0,1,0,.81c-.89,1.72-4.08,1.59-8.12,1.42-3.4-.14-7.24-.3-10.2.66-6.17,2-11.8,6.73-16,10.64-9.46,8.78-18.19,20.49-20.63,23.85l1.58.73c4.64-6.15,26.93-34.73,39.61-34.77,10.66,0,16.73.19,17.78-3.56,0-.11.05-.21.07-.3a11.33,11.33,0,0,0-3.64-1.78c-8.38-3-21.69-6.16-23.47-6.57Z"/><path class="cls-1" d="M137.69,197.61a2.06,2.06,0,0,0,.56.61l.37.19h0l8.61,4.46a.06.06,0,0,0,0,0c0-.09-.05-.18-.08-.27a.24.24,0,0,0,0-.08l-.06-.32v0s0-.07,0-.1l-9.37-4.43Z"/><path class="cls-1" d="M140,193.84l0,0-.77-.35H139a1.76,1.76,0,0,0-1.47,1.13l9.83,5,0,0a2.55,2.55,0,0,1,.13-.29l0-.06.12-.21.05-.07.16-.23,0,0a2.09,2.09,0,0,1,.2-.22l0-.06.16-.15.06-.05a2,2,0,0,1,.23-.18h0l.18-.11L140,193.84Z"/><path class="cls-1" d="M150.08,203.74a1.63,1.63,0,0,1-1-.31,2.47,2.47,0,0,1-1-2,2.16,2.16,0,0,1,1.91-2.33,1.7,1.7,0,0,1,.54.09l0,0,.19.09.05,0a2.12,2.12,0,0,1,.75.79,2.69,2.69,0,0,1,.33,1.32,2.16,2.16,0,0,1-1.9,2.34Zm1.57-4a2.36,2.36,0,0,0-.81-.87l-.3-.14a1.47,1.47,0,0,0-.46-.07c-1.1,0-2,1.24-2,2.77a3,3,0,0,0,1.11,2.49,1.52,1.52,0,0,0,.88.29c1.09,0,2-1.25,2-2.78a3.52,3.52,0,0,0-.41-1.69Z"/><path class="cls-1" d="M149.24,201.4a1.42,1.42,0,0,0,.5,1.15.56.56,0,0,0,.34.12c.45,0,.83-.58.83-1.27v0l-1.38-.92a1.67,1.67,0,0,0-.29,1Z"/><path d="M150.08,202.67a.56.56,0,0,1-.34-.12,1.42,1.42,0,0,1-.5-1.15,1.62,1.62,0,0,1,.29-.94l1.38.91v0c0,.69-.38,1.27-.83,1.27Zm1.57-2.59a2.12,2.12,0,0,0-.75-.79l-.05,0-.19-.09,0,0a1.7,1.7,0,0,0-.54-.09,2.16,2.16,0,0,0-1.91,2.33,2.47,2.47,0,0,0,1,2,1.63,1.63,0,0,0,1,.31,2.16,2.16,0,0,0,1.9-2.34,2.69,2.69,0,0,0-.33-1.32Z"/><path class="cls-1" d="M129.28,155.12s0,0,0,0c-1.45-4.23-.06-9.28,2.42-12.87,2.67-3.87,7.43-5,11.65-6.3,9.16-2.89,18.84-3.21,28.07-5.86a62.49,62.49,0,0,0,7.31-2.53c1.16-.49,2.29-1,3.44-1.55a21.18,21.18,0,0,0,3.71-1.88c.13-.1.06-.34-.13-.28-2.43.68-4.71,2-7.12,2.74s-4.7,1.59-7.09,2.29a111.54,111.54,0,0,1-15,3.08,100.55,100.55,0,0,0-15.16,3.26c-4.13,1.26-8.22,2.61-10.7,6.41s-3.51,9.28-1.38,13.5Z"/><path class="cls-1" d="M169.81,149.73a55.24,55.24,0,0,0-5.41,1.66c-1.8.55-3.63,1-5.47,1.45s-3.7.78-5.56,1.07a47.09,47.09,0,0,0-5.57.86c-.05,0,0,.08,0,.09a22.48,22.48,0,0,0,5.72-.36c1.87-.26,3.73-.58,5.58-1s3.66-.91,5.47-1.47a23.44,23.44,0,0,0,5.31-2.11.1.1,0,0,0-.08-.18Z"/><path d="M155.16,149a1.83,1.83,0,0,0,2.49-.34,1.71,1.71,0,0,0-.08-2.4,1.82,1.82,0,0,0-2.2-.09c-.23.18,0,.6.29.5a.86.86,0,0,1,1.06.15c.36.39.55.8.17,1.27a1.05,1.05,0,0,1-1.51.19,1.88,1.88,0,0,1-.65-1.35c0-.07-.12-.07-.15,0a1.7,1.7,0,0,0,.58,2.09Z"/><path d="M164,147a1.45,1.45,0,0,0-.23-2,2.41,2.41,0,0,0-2.17-.17c-.14,0-.09.22,0,.24.7.07,2.46.6,1.61,1.6s-1.93-.2-2.53-.8a.12.12,0,0,0-.21.09A2,2,0,0,0,164,147Z"/><path d="M203.22,123a2.44,2.44,0,0,0,1,3.25,2.59,2.59,0,0,0,3.46-1.24,2.46,2.46,0,0,0-.9-3.4c-1-.54-2.76-.6-3.36.61a.24.24,0,0,0,.33.33,2.36,2.36,0,0,1,2.15-.28,1.55,1.55,0,0,1,.83,2c-.86,2.18-3.79.68-3.5-1.3,0,0,0,0,0,0Z"/><path d="M205.41,115.34a2.29,2.29,0,0,0,.05,1.59,2.16,2.16,0,0,0,1.21,1.13,2.31,2.31,0,0,0,2.93-1.37,2.12,2.12,0,0,0-1-2.81,2,2,0,0,0-2.71.76c-.1.17.13.33.27.21,1-.92,3,0,2.47,1.44-.7,1.77-3.28.72-3.2-.94,0,0,0,0,0,0Z"/><path d="M168.24,220.13c-.79-.71-1.54-1.46-2.26-2.24a9.56,9.56,0,0,0-2.16-2.1.25.25,0,0,0-.37.22c.17,1.94,2.27,3.76,3.61,5a15.25,15.25,0,0,0,5.45,3.68.18.18,0,0,0,.2-.26c-1.17-1.74-2.93-2.93-4.47-4.31Z"/><path d="M174.35,225.25a1.93,1.93,0,0,0-.41-.12c-.14,0-.26,0-.4,0s-.27.15-.14.24a4.12,4.12,0,0,1,.28.31,2.78,2.78,0,0,0,.34.26c.23.14.51.31.77.14a.26.26,0,0,0,.13-.24c0-.33-.29-.45-.57-.55Z"/><path d="M175.63,226.15h-.28a.62.62,0,0,1-.18,0,.05.05,0,0,0,0,.1s.05.09.09.14a1.78,1.78,0,0,0,.31.23,1.15,1.15,0,0,0,.77.17c.47-.05.49-.77,0-.75a3.62,3.62,0,0,0-.67.07Z"/><path d="M165.63,215.36a36.39,36.39,0,0,0,3.43,3.7c.88.82,2.13,2.32,3.4,2.41a.34.34,0,0,0,.32-.42c-.42-1.16-2-2-2.91-2.79a48.43,48.43,0,0,1-3.47-3.4,38,38,0,0,1-3.08-3.86,31.68,31.68,0,0,0-2.57-3.7c-.06-.06-.16,0-.14.09a13.81,13.81,0,0,0,2.16,4.15c.88,1.32,1.85,2.59,2.86,3.82Z"/><path d="M173.29,221.86a4.09,4.09,0,0,0,1.32,1.33,3.37,3.37,0,0,0,1.78.56c.14,0,.26-.2.13-.31a11.4,11.4,0,0,0-1.43-.88c-.52-.31-1-.63-1.53-1a.2.2,0,0,0-.27.26Z"/><path d="M171.05,217.85a4,4,0,0,0,1.74,1.16c.29.05.65-.26.43-.57a8.37,8.37,0,0,0-1.51-1.25c-.53-.45-1.08-.88-1.59-1.34a.21.21,0,0,0-.33.25,5.87,5.87,0,0,0,1.26,1.75Z"/><path d="M191,216.69a32.82,32.82,0,0,0-6.86-3.92,28.12,28.12,0,0,0-7.34-2.37.05.05,0,0,0,0,.1c2,1.1,4.18,1.78,6.22,2.74a39.07,39.07,0,0,1,6.07,3.45,23.86,23.86,0,0,1,5.15,4.83,10.62,10.62,0,0,1,1.79,3.35,8.47,8.47,0,0,1,.3,3.61.14.14,0,0,0,.24.1c1.5-1.82.74-4.49-.32-6.32a19.24,19.24,0,0,0-5.22-5.57Z"/><path d="M192.06,221.12a10.45,10.45,0,0,0-2.93-2.09.09.09,0,0,0-.1.14c.72.92,1.54,1.79,2.31,2.67.62.72,1.21,1.83,2.12,2.15a.28.28,0,0,0,.36-.27c0-1-1.08-1.92-1.76-2.6Z"/><path d="M189.25,221.1a.25.25,0,0,0-.3.4c.31.33.59.7.89,1s.49.79.9.86a.28.28,0,0,0,.34-.19c.11-.48-.32-.88-.62-1.2a4.69,4.69,0,0,0-1.21-.91Z"/><path d="M188.4,222.66a1,1,0,0,0-.22-.14,1.31,1.31,0,0,1-.35-.27,2.13,2.13,0,0,1-.52-.8.28.28,0,0,0-.54.15,2,2,0,0,0,.53,1.11,2.33,2.33,0,0,0,.46.37.94.94,0,0,0,.3.15,1,1,0,0,0,.25,0,.24.24,0,0,0,.17-.41l-.08-.13Z"/><path d="M138.16,167.44a13.4,13.4,0,0,1,2.56-1.09c.23-.08.13-.44-.1-.36a18.74,18.74,0,0,0-2.51,1,6.13,6.13,0,0,0-2.32,1.38c-1.39,1.63-1.23,3.58-1.74,5.51,0,.09.12.16.16.07.32-.72.72-1.37,1-2.11a9.28,9.28,0,0,1,1.15-2.52,8.14,8.14,0,0,1,1.82-1.88Z"/><path d="M196.77,125.61c-.54.53-1.23.84-1.81,1.32s-1.11,1-1.68,1.47a49.44,49.44,0,0,1-8.19,5.38c-3,1.64-6.17,3.1-9.33,4.47-3.43,1.49-7,2.71-10.37,4.24,0,0,0,0,0,0a64,64,0,0,0,11.33-3.67,97.09,97.09,0,0,0,9.46-4.32,46,46,0,0,0,8-5.27,12.26,12.26,0,0,0,1.88-1.79c.48-.59.78-1.27,1.27-1.86a18.89,18.89,0,0,0,2.79-4,.17.17,0,0,0-.29-.17,30.73,30.73,0,0,1-3,4.14Z"/><path d="M202.09,109c2.74-1.82,6.19-.12,7.46,2.62s1.25,6.47.76,9.52a17.32,17.32,0,0,1-3.65,8.49,15.35,15.35,0,0,1-1.25,1.3c-3.85,3.32-8.89,5.36-13.64,7.32-4,1.64-8,3.13-12,4.57-2,.71-4,1.37-6,2.05-2.14.74-4.21,1.64-6.36,2.32,0,0,0,0,0,0,2.34-.59,4.69-1,7-1.69,2.16-.63,4.3-1.32,6.43-2,4.27-1.41,8.5-3,12.68-4.62a57.41,57.41,0,0,0,7.39-3.42,18.49,18.49,0,0,0,7.48-5.81A19.91,19.91,0,0,0,212,119.33c.25-3.44,0-7.68-2.63-10.25-1.93-1.9-5.51-2.57-7.3-.16,0,0,0,.1.07.07Z"/><path d="M155.24,111.94l-5.33-1.61c.77,1.23,1.17,4.42-3.44,3s-6.48-3-6.48-3v2a1,1,0,0,0,.68.93l14.3,4.38a.75.75,0,0,0,1-.72v-4.06a1,1,0,0,0-.7-.91Z"/><path d="M157.29,110l9.21-4a.14.14,0,0,0,0-.26l-4-.82s.6,2.61-4.15,2.94c-5.25.36-13.73-1.23-13.73-1.23l11.8,3.38a1.3,1.3,0,0,0,.87,0Z"/><path d="M175,87.4l-.3.11a2.09,2.09,0,0,1,.3-.11Z"/><path class="cls-1" d="M159.27,21.32a28.33,28.33,0,0,0,5,1.59,31.15,31.15,0,0,0,10.46.41c6-.77,13.69-3.36,16.22-9.47a10.38,10.38,0,0,0,.79-5c0-.26-.06-.53-.11-.81a6.58,6.58,0,0,0-.77-2.24,5.85,5.85,0,0,0-4.18-2.51s0,0,0,0c.56.43,1.25.65,1.83,1.07h0a8.13,8.13,0,0,1,.56,8.56,18.65,18.65,0,0,1-3.58,5,22.7,22.7,0,0,1-7.13,3.21c-7.73,2.13-16.3.9-23.51-2.5,0,0-.07,0,0,.06a23.2,23.2,0,0,0,4.45,2.64Z"/><path class="cls-1" d="M173.85,20A44,44,0,0,1,169,20h0a30.59,30.59,0,0,1-8.61-3.1,29.54,29.54,0,0,1-4.59-3.59,13.72,13.72,0,0,0-1.38-1.57A7.9,7.9,0,0,1,152,6.55c0-2.22,1.66-3.67,3.63-4.39,0,0,.07-.34-.28-.41a6.09,6.09,0,0,0-6.5,3.37l-.07.11A3.4,3.4,0,0,0,148.43,7c-.54,1.55.71,3.92,1.47,5,.27.39.56.77.86,1.14a13.26,13.26,0,0,0,2.6,2.64,20.16,20.16,0,0,0,2.47,1.76,24.46,24.46,0,0,0,12.76,3.34l.13,0a.47.47,0,0,0,.24,0,35.89,35.89,0,0,0,5-.38c.25,0,.19-.47-.07-.46Z"/><path class="cls-1" d="M172.18,114.57a8.28,8.28,0,0,0-2.65-.6,0,0,0,0,0,0,0,6.25,6.25,0,0,0,2.09,1c1,.37,2,.72,3,1,1.95.62,3.92,1.16,5.9,1.66,3.38.84,6.79,1.49,10.14,2.43.49.67,1.89.59,2.6.25,1.65-.79,2-2.78,2.06-4.41a16,16,0,0,0-3.93-11.28c-.1-.12-.29,0-.21.16a18.52,18.52,0,0,1,2.72,8.58c0,.11,0,.23,0,.34a.52.52,0,0,0,0,.11c-.11,1.44.29,2.73-.9,3.9a3.58,3.58,0,0,1-3.54.66.11.11,0,0,0-.13,0c-.71-.13-1.42-.24-2.12-.35-2-.34-4-.7-6-1.17s-4-1-5.94-1.51c-1-.27-2-.56-3.06-.84Z"/><path class="cls-1" d="M129.74,139a21.58,21.58,0,0,1,5.28-3c.51-.24.15-1.07-.37-.9a15.73,15.73,0,0,1-7.92.21,4.89,4.89,0,0,0-.73-.46,20.23,20.23,0,0,0-5.31-1.47,59.58,59.58,0,0,1-6.16-1.53c-.11,0-.15.13,0,.17,2.91,1.21,5.7,2.68,8.54,4.06,1.1,1.25,2.33,2.24,2.67,4.05a.22.22,0,0,1,0,.08q0,.36.09.69a30.16,30.16,0,0,1-.36,4.84c-.31,3.56.12,7.8,2.53,10.58.11.13.32,0,.28-.17a42.54,42.54,0,0,1-1.53-6.3,23.31,23.31,0,0,1,.3-5.15c0-.1,0-.21.08-.31a23.82,23.82,0,0,1,1.2-3.38c.13-.28.29-.56.45-.84a6,6,0,0,1,1-1.15Z"/><path class="cls-1" d="M145.83,132.61a17,17,0,0,0-4.86.62,16,16,0,0,0-4.6,1.62.27.27,0,0,0,.21.5c1.56-.32,3.06-.94,4.62-1.31s3.16-.53,4.69-.94a.25.25,0,0,0-.06-.49Z"/><path class="cls-1" d="M150.83,131.92a.12.12,0,0,0-.06-.22,8,8,0,0,0-2.11.2,10.4,10.4,0,0,0-2.32.59.2.2,0,0,0,0,.39,11,11,0,0,0,2.28-.31,8.31,8.31,0,0,0,2.16-.65Z"/><path class="cls-1" d="M201.76,58.25Q200.92,63,200,67.76c-.31,1.51-.56,3-.84,4.55a13.32,13.32,0,0,0-.54,4.24c0,.14.22.14.29,0a13.06,13.06,0,0,0,1.06-4.3c.26-1.47.55-3,.75-4.43.42-3.2.85-6.39,1.23-9.6a.07.07,0,0,0-.14,0Z"/><path class="cls-1" d="M186.64,7.73a12.56,12.56,0,0,1,.39,2.43,8.65,8.65,0,0,0,.12,1.91.13.13,0,0,0,.18.07A3.5,3.5,0,0,0,188.62,10a5.06,5.06,0,0,0-.21-3.1c-.57-1.51-2.08-3-3.84-2.85-.06,0-.08.06,0,.11a10.65,10.65,0,0,1,2.11,3.57Z"/><path class="cls-1" d="M153.68,8.29a.13.13,0,0,0-.24.1,4.52,4.52,0,0,0,.7,1.8c.27.43.62,1,1.16,1,.14,0,.2-.13.19-.24-.08-.48-.56-.86-.84-1.24a15.76,15.76,0,0,1-1-1.44Z"/><path class="cls-1" d="M156.6,12.47l.62.32a4.35,4.35,0,0,0,1.14.52.14.14,0,0,0,.14-.24,4.91,4.91,0,0,0-1.12-.73c-.2-.11-.4-.24-.6-.34s-.41-.06-.64-.14c-.08,0-.11.08,0,.12.3.24.23.33.51.49Z"/><path class="cls-1" d="M193.12,14.24a2.11,2.11,0,0,0,.31-1.29,4.06,4.06,0,0,0-.16-1.66.09.09,0,0,0-.17,0,7.76,7.76,0,0,0-.17,1.44,3.24,3.24,0,0,0,0,1.45.14.14,0,0,0,.23.06Z"/><path class="cls-1" d="M190.58,18a.36.36,0,0,0,.45.35c.58-.15.93-.89,1.21-1.38a4,4,0,0,0,.37-.81,3.71,3.71,0,0,0,0-1,0,0,0,0,0-.08,0c-.2.23-.46.39-.65.63s-.33.5-.49.74c-.29.48-.83.93-.86,1.5Z"/><path class="cls-1" d="M193.32,18.05a3.59,3.59,0,0,0,1.27-1.88,6.2,6.2,0,0,0,.37-2.59c0-.1-.16-.13-.18,0a11.26,11.26,0,0,1-.87,2.33,12,12,0,0,0-1,1.87.28.28,0,0,0,.4.3Z"/><path class="cls-1" d="M132.16,45.84c.72-2.69,1.39-5.38,2.29-8,.25-.73.47-1.47.68-2.22a47.48,47.48,0,0,1,6.35-9.34,18.41,18.41,0,0,1,5.24-3.71,10.4,10.4,0,0,1,3.22-1c.9-.14,2.1-.1,2.78-.77a.15.15,0,0,0,0-.24c-.82-.61-2.17-.36-3.13-.28-1.21.09-2.46.16-3.66.34h0l-.06,0c-2-.07-4.05,1.24-5.51,2.48a16.08,16.08,0,0,0-4.15,5.86,35.65,35.65,0,0,0-2.29,7.58c-.61,3.11-1.27,6.18-2,9.27a.15.15,0,0,0,.29.08Z"/><path class="cls-1" d="M204.86,62.21c.48-2.92.81-5.86,1.2-8.8,0-.16-.25-.19-.28,0-.68,3-1.39,6-2,9-.27,1.43-.55,2.87-.81,4.31a11.72,11.72,0,0,0-.5,4.1c0,.3.47.31.61.08.71-1.16.75-2.79,1-4.11.28-1.52.53-3.05.77-4.57Z"/><path class="cls-1" d="M202.33,73.25a2.62,2.62,0,0,0-.76,1.4c-.09.46-.16,1.13.25,1.45a.26.26,0,0,0,.38,0c.34-.33.29-.88.31-1.32a6.74,6.74,0,0,0,0-1.49c0-.07-.09-.07-.13,0Z"/><path class="cls-1" d="M220.64,83.89a20.69,20.69,0,0,0-5.83-.15,51.38,51.38,0,0,0-5.79.82s0,0,0,0c2-.07,4-.06,6-.14a31.6,31.6,0,0,0,5.59-.41.08.08,0,0,0,0-.15Z"/><path class="cls-1" d="M161.55,117.1c-1.3.62-2.57,1.24-3.91,1.76-.18.07-.12.35.08.29a40.64,40.64,0,0,0,3.91-1.29,7.34,7.34,0,0,0,3-1.66c.08-.08,0-.26-.1-.25a9.29,9.29,0,0,0-2.94,1.15Z"/><path class="cls-1" d="M204.12,36.63c-.12,1.5-.25,3-.4,4.5s-.13,3.16-.32,4.72-.49,3.36-.79,5c-.23,1.26-.91,2.93-.57,4.18a.21.21,0,0,0,.35.09c.87-1.1.89-3.12,1.14-4.48.32-1.78.55-3.59.91-5.36s.69-3.2.9-4.86.4-3.55.51-5.33c.33-5.48-.77-12.27-7-13.75a.07.07,0,0,0-.06.12c5.37,2.84,5.71,9.88,5.3,15.14Z"/><path class="cls-1" d="M207.37,29.21c.24,1.09,0,2.19.22,3.25,0,.2.29.19.39.06.72-1,.47-2.57.13-3.69a6.2,6.2,0,0,0-2.28-3.23c-.06-.05-.13,0-.08.09a9.35,9.35,0,0,1,1.62,3.52Z"/><path class="cls-1" d="M210.07,31.18a.31.31,0,0,0,.37-.05c.51-.46.2-1.37.06-2a4.52,4.52,0,0,0-1-2.07.19.19,0,0,0-.33.13,16.65,16.65,0,0,0,.35,2.21c.1.62,0,1.36.53,1.75Z"/><path class="cls-1" d="M212.07,29.82c.17.15.51.12.55-.14a1.61,1.61,0,0,0-.23-.93,5.57,5.57,0,0,0-.52-.92c-.1-.14-.37-.11-.36.1a5.43,5.43,0,0,0,.17,1,1.71,1.71,0,0,0,.39.91Z"/><path class="cls-1" d="M180.22,124.79c1-.35,2.38-.61,3.08-1.42a.12.12,0,0,0-.08-.19c-1.05-.12-2.21.59-3.19.94-1.18.42-2.36.82-3.55,1.21-2.45.79-4.9,1.56-7.39,2.2-4.94,1.27-9.93,1.9-14.93,2.82a.14.14,0,0,0,0,.27,80.66,80.66,0,0,0,15-2.59c2.5-.6,5-1.25,7.45-2,1.19-.38,2.37-.79,3.55-1.21Z"/><path class="cls-1" d="M186.18,121.74a5.16,5.16,0,0,0-.8.51c-.13.1-.06.32.11.27a5.55,5.55,0,0,0,.89-.32,1.43,1.43,0,0,0,.7-.48.15.15,0,0,0-.13-.23,1.44,1.44,0,0,0-.77.25Z"/><path class="cls-1" d="M134.73,155.29c-.37-.31-.74-.66-1.09-1a.14.14,0,0,0-.22.13,2.27,2.27,0,0,0,.83,1.43,1.67,1.67,0,0,0,1.42.53.15.15,0,0,0,.09-.22,4.33,4.33,0,0,0-1-.88Z"/><path class="cls-1" d="M133,213h0c-.08,3.49,0,7,.3,10.43.11,1.52.27,3,.51,4.52s.41,3.37,1.32,4.71a.16.16,0,0,0,.29-.08,20.9,20.9,0,0,0-.66-4.43c-.29-1.79-.5-3.58-.68-5.38-.33-3.27-.58-6.52-1.07-9.77Z"/><path class="cls-1" d="M136.76,235.28a10,10,0,0,1-.5-1.39c-.08-.29-.56-.24-.53.07a8.15,8.15,0,0,0,.32,1.62,2.05,2.05,0,0,0,.73,1.23.28.28,0,0,0,.42-.24,2.92,2.92,0,0,0-.44-1.29Z"/><path class="cls-1" d="M138.55,239.27c.1,0,.26-.06.17-.18-.21-.32-.44-.62-.66-.93a5.6,5.6,0,0,1-.66-1.07.14.14,0,0,0-.27.08,2.74,2.74,0,0,0,1.42,2.1Z"/><path class="cls-1" d="M175.64,20.23c.36,0,.86,0,1.09-.31a.2.2,0,0,0,0-.32c-.31-.21-.78-.05-1.13,0a1.71,1.71,0,0,0-1,.46s0,0,0,0a1.57,1.57,0,0,0,1.11.12Z"/><path class="cls-1" d="M177.69,19.51a1.93,1.93,0,0,0,.42,0,.23.23,0,0,0,0-.43,1.18,1.18,0,0,0-.42,0c-.33,0-.33.53,0,.51Z"/><path class="cls-1" d="M211.45,79.69a5.14,5.14,0,0,0-2.92-2.06,15.88,15.88,0,0,0-3.79-1.07c.47-2.35,1-4.7,1.44-7a.06.06,0,1,0-.12,0,72.35,72.35,0,0,0-2.32,7.18h-.05a.57.57,0,0,0-.25.94c1,.92,2.53,1,3.81,1.17a14.27,14.27,0,0,1,4.06,1c.08,0,.2,0,.14-.13Z"/><path class="cls-1" d="M215.5,101.76a4.45,4.45,0,0,0-1.15-2.67,3.51,3.51,0,0,0-2.66-.3,13.86,13.86,0,0,0-3.86,1,0,0,0,0,0,0,.07,13,13,0,0,0,3.18.44c.45,0,.9-.06,1.36-.06.7,0,.87,0,1.15.67a19.88,19.88,0,0,1,.72,3c.26,1.07.47,2.14.64,3.23a35.94,35.94,0,0,1,.37,6.64c0,1-.09,2-.1,3.08s-.35,2.31-.37,3.48a.13.13,0,0,0,.25,0,29,29,0,0,0,.91-3.84,18.49,18.49,0,0,0,.31-3.41,56.5,56.5,0,0,0-.21-7.91,27.35,27.35,0,0,0-.54-3.48Z"/><path class="cls-1" d="M189.85,95.34a13.89,13.89,0,0,0-1.42,1.11c-.53.42-1.11.71-1.61,1.15-1,.9-2,1.88-3,2.86a29.9,29.9,0,0,0-5,6c0,.07.05.2.14.13a66.36,66.36,0,0,0,5.49-5.26c.93-.9,1.87-1.8,2.82-2.68a10.27,10.27,0,0,0,1.09-1.2c.53-.65,1.24-1.12,1.77-1.76.16-.19,0-.51-.28-.37Z"/><path class="cls-1" d="M192.83,93.07c-.26.17-.53.33-.77.51s-.24.17-.33.26-.2.27-.31.39a.21.21,0,0,0,.21.35,3.86,3.86,0,0,0,.83-.28,8.15,8.15,0,0,0,.8-.49c.48-.29,0-1-.43-.74Z"/><path class="cls-1" d="M207.47,71.83c-.25.57-.53,1.07-.74,1.67a2.61,2.61,0,0,0-.27,1.72.44.44,0,0,0,.72.19,2.3,2.3,0,0,0,.5-1.54c.08-.67,0-1.29.07-2,0-.14-.22-.22-.28-.08Z"/><path class="cls-1" d="M208.91,75.93a.29.29,0,0,0,.34,0c.41-.49.1-1.16.21-1.73.06-.31-.39-.56-.55-.23a2.85,2.85,0,0,0-.37,1.06.89.89,0,0,0,.37.94Z"/><path class="cls-1" d="M155.6,238s0,.1,0,.1a31,31,0,0,0,5.19-.14,44.6,44.6,0,0,0,5.62-1.21,50.9,50.9,0,0,0,5.07-1.8c1.5-.63,3.45-1.29,4.54-2.55a.23.23,0,0,0-.21-.38c-1.67.24-3.33,1.35-4.88,2a47.28,47.28,0,0,1-5,1.74c-1.63.47-3.28.89-5,1.2s-3.58.81-5.38,1Z"/><path class="cls-1" d="M161.41,235.34a34.09,34.09,0,0,0,4.71-1,17.56,17.56,0,0,0,4.19-1.55.32.32,0,0,0-.25-.59,35.94,35.94,0,0,0-4.33,1.53c-1.46.5-2.9,1-4.35,1.52a.07.07,0,0,0,0,.13Z"/><path class="cls-1" d="M164.14,232.55a3.42,3.42,0,0,0,1.7-.22c.46-.17,1-.31,1.07-.86a.33.33,0,0,0-.17-.29c-.44-.26-.89.12-1.31.28s-1,.39-1.42.62c-.26.12-.1.45.13.47Z"/><path class="cls-1" d="M163.43,229.76a.47.47,0,0,0,.25.9,5.8,5.8,0,0,0,.59-.19c.2-.1.42-.28.35-.53-.13-.49-.86-.24-1.19-.18Z"/><path class="cls-1" d="M136.32,140.93a20.61,20.61,0,0,1,4.89-2.12.24.24,0,0,0-.13-.47,12.08,12.08,0,0,0-5.33,2.41c-1.09.3-2.1,1.89-2.63,2.66-.15.22-.3.43-.44.65a10.81,10.81,0,0,0-1.48,2.44,8.52,8.52,0,0,0-.46,1.46c-.11.33-.21.66-.3,1a10.2,10.2,0,0,0-.23,3.85c0,.1,0,.2,0,.31a6.51,6.51,0,0,0,.45,1.9,6.64,6.64,0,0,0,1.43,2.25,2.56,2.56,0,0,0,.9.74c1.73,1.14,4.53,1.55,5.9-.33.11-.15-.07-.32-.22-.29a6.43,6.43,0,0,1-4.88-.48l-.73-.61s0,0,0,0a11.14,11.14,0,0,1-1.1-2.18,9.42,9.42,0,0,1-.31-5.23,15.12,15.12,0,0,1,2-4.73,11.24,11.24,0,0,1,1.5-2c.41-.41.95-.69,1.2-1.21Z"/><path class="cls-1" d="M144,137.32c-.38.16-.72.31-1.09.5,0,0,0,.06,0,.06a2.7,2.7,0,0,0,2.36-.71.18.18,0,0,0-.15-.27,4.16,4.16,0,0,0-1.13.42Z"/><path class="cls-1" d="M147.27,136.66l-.39.21s0,0,0,0l.4-.2s0,0,0,0Z"/><path class="cls-1" d="M199.36,33.93a13.53,13.53,0,0,0-2.64-7.69c-1.33-1.64-3.88-3.36-6.11-2.92a.2.2,0,0,0,0,.38,8.56,8.56,0,0,1,3.57,1.57,9,9,0,0,1,2.22,2.78c1.25,2.5,1.38,5.42,1.35,8.16s-.27,5.72-.51,8.57c-.12,1.51-.36,3-.44,4.52s0,3-.18,4.56c0,.11.18.14.19,0,.29-1.75.83-3.39,1.13-5.12s.55-3.43.83-5.15a41.42,41.42,0,0,0,.59-9.69Z"/><path class="cls-1" d="M194,68.78a18.58,18.58,0,0,0,.93-4.62c0-.28-.4-.32-.48-.07a17.85,17.85,0,0,0-1,4.54c0,.27.44.43.56.15Z"/><path class="cls-1" d="M159.73,29.22A50.89,50.89,0,0,0,154,42c-1.4,4.54-2.75,9.52-2.78,14.28a.11.11,0,0,0,.21,0A53.26,53.26,0,0,0,153,49.17c.43-2.29.93-4.57,1.58-6.81a88,88,0,0,1,5.27-13.07.07.07,0,0,0-.12-.07Z"/><path class="cls-1" d="M150.2,60.91c-.17.8-.33,1.59-.49,2.38,0,0,0,.05,0,0l.48-2.38s0,0,0,0Z"/><path class="cls-1" d="M147.38,76c0,.19.32.31.41.1a17.33,17.33,0,0,0,.93-4,31,31,0,0,0,.49-4.07.08.08,0,0,0-.15,0A30.71,30.71,0,0,0,148,72.11a16.85,16.85,0,0,0-.59,3.86Z"/><path class="cls-1" d="M165.38,30.17c-1.82,3.36-2.91,7.23-4.08,10.86s-2.29,7.52-3.24,11.34S156.33,60,155.67,63.9c-.31,1.82-.59,3.63-.83,5.45-.14,1-.26,2.06-.38,3.09a6.08,6.08,0,0,0,0,2.75.35.35,0,0,0,.63.08c.86-1.46.73-3.65,1-5.3.26-1.91.55-3.82.85-5.72.63-3.89,1.4-7.74,2.25-11.58s1.77-7.51,2.84-11.22,2.59-7.44,3.46-11.25c0,0,0-.07-.07,0Z"/><path class="cls-1" d="M154.54,77.4a18.74,18.74,0,0,0-.92,4.45,19.76,19.76,0,0,0-.15,4.54.38.38,0,0,0,.73,0c.24-1.41.1-2.89.27-4.32s.34-3.07.44-4.62c0-.23-.31-.25-.37,0Z"/><path class="cls-1" d="M172.2,29.48c-1.38,1.24-2.76,4-2.31,5.86a.19.19,0,0,0,.34,0,19.37,19.37,0,0,0,.84-2.61,31.16,31.16,0,0,1,1.49-3,.23.23,0,0,0-.36-.28Z"/><path class="cls-1" d="M169.66,37.26a2.82,2.82,0,0,0-1,2.79c.06.17.35.23.4,0,.09-.44,0-.89.14-1.33a4.37,4.37,0,0,1,.6-1.34.1.1,0,0,0-.16-.12Z"/><path class="cls-1" d="M168.28,42a42.46,42.46,0,0,0-2,8.28c-.52,2.87-1.11,5.73-1.63,8.6s-.94,5.6-1.33,8.41a49.26,49.26,0,0,0-.73,8.39.31.31,0,0,0,.6.09,71.27,71.27,0,0,0,1.28-8.09q.59-4.5,1.26-9c.42-2.81.83-5.63,1.42-8.41A52.69,52.69,0,0,0,168.65,42c0-.23-.3-.24-.37,0Z"/><path class="cls-1" d="M162.06,82.75a14.47,14.47,0,0,0-.57,3.26.12.12,0,0,0,.23,0,14.45,14.45,0,0,0,.42-3.28c0-.05-.07-.06-.08,0Z"/><path class="cls-1" d="M176.1,37.9a104.82,104.82,0,0,0-3.45,12.93q-.66,3.22-1.15,6.48c-.29,1.92-.85,4.12-.44,6,0,.15.29.19.35,0,.79-1.8.76-4,1-6q.44-3.32,1-6.61c.77-4.33,1.7-8.62,2.73-12.9,0-.06-.07-.08-.09,0Z"/><path class="cls-1" d="M170.37,67.71a29.29,29.29,0,0,0-.23,3c0,.15.25.2.28,0a27.38,27.38,0,0,0,.35-3c0-.25-.38-.25-.4,0Z"/><path class="cls-1" d="M169.57,73.19a8.53,8.53,0,0,0-.56,2,2.67,2.67,0,0,0,.11,1.81.38.38,0,0,0,.66,0,5.43,5.43,0,0,0,.22-1.67,8.13,8.13,0,0,1,.53-1.93c.25-.59-.71-.84-1-.26Z"/><path class="cls-1" d="M177.52,63.13c.72-1.33.68-3.12.94-4.59s.71-3.13,1.12-4.69c.84-3.19,1.43-6.45,2.22-9.65a.26.26,0,0,0-.5-.14,84.85,84.85,0,0,0-2.67,9.76c-.31,1.67-.59,3.33-1,5-.32,1.35-.91,2.86-.71,4.25,0,.28.45.3.57.08Z"/><path class="cls-1" d="M175.9,72.53a.37.37,0,0,0,.72,0c.43-2.12.16-4.42.51-6.58a.13.13,0,0,0-.24-.07c-.8,2-1.63,4.48-1,6.65Z"/><path class="cls-1" d="M183.47,61.28a50.22,50.22,0,0,0,.94-6.24c0-.19-.31-.24-.35,0a50.65,50.65,0,0,0-1,6.22.21.21,0,0,0,.41.06Z"/><path class="cls-1" d="M150.11,60c-.78,1.16-1.63,2.84-1.21,4.27,0,.13.26.19.32,0a11.66,11.66,0,0,0,.47-1.85,11.32,11.32,0,0,1,.81-2.24.22.22,0,0,0-.39-.22Z"/><path class="cls-1" d="M148.16,43.47a6.07,6.07,0,0,0-2.1,3.34c-.52,1.82-.92,3.69-1.33,5.54s-.82,3.85-1.18,5.78a37.7,37.7,0,0,0-.91,5.46.34.34,0,0,0,.67.09,53.33,53.33,0,0,0,1-5.33q.53-2.67,1.11-5.33c.39-1.77.79-3.54,1.22-5.31a11.28,11.28,0,0,1,1.55-4.19s0-.08-.06-.05Z"/></g></g></g></svg>