<svg xmlns="http://www.w3.org/2000/svg" width="38.863" height="38.836" viewBox="0 0 38.863 38.836"><g transform="translate(19.432 19.418)"><path d="M31.779,38.836h-.055c-6.632-.211-14.4-6.633-19.745-11.982S.212,13.739,0,7.131C-.075,4.779,5.628.645,5.686.6A2.9,2.9,0,0,1,9.578.89c.443.614,4.742,7.133,5.215,7.878a3.176,3.176,0,0,1-.187,3.137c-.327.624-1.4,2.516-1.931,3.442A46.417,46.417,0,0,0,17.732,21.1a46.235,46.235,0,0,0,5.75,5.061c.926-.529,2.818-1.606,3.445-1.934a3.238,3.238,0,0,1,3.119-.2c.8.487,7.287,4.8,7.88,5.219a2.784,2.784,0,0,1,.3,3.9C38.183,33.2,34.1,38.836,31.779,38.836ZM7.6,1.9a1.418,1.418,0,0,0-.806.284C5.03,3.419,2.02,6.237,1.93,7.062c.191,5.984,6.313,13.321,11.415,18.425S25.784,36.714,31.761,36.9l.007,0c.824-.093,3.641-3.1,4.873-4.865.45-.643.266-1.136.177-1.212-.493-.346-7-4.675-7.777-5.151a.479.479,0,0,0-.221-.038,2.271,2.271,0,0,0-.992.293c-.794.416-3.871,2.178-3.9,2.2l-.486.278-.484-.284a39.039,39.039,0,0,1-6.588-5.661,38.768,38.768,0,0,1-5.659-6.59l-.283-.483.277-.486c.018-.031,1.78-3.109,2.194-3.9a1.661,1.661,0,0,0,.267-1.2c-.449-.708-4.738-7.21-5.151-7.783A.635.635,0,0,0,7.6,1.9Z" transform="translate(-19.432 -19.418)" fill-rule="evenodd"/></g></svg>