<svg xmlns="http://www.w3.org/2000/svg" width="38.864" height="25.202" viewBox="0 0 38.864 25.202"><g transform="translate(19.432 12.601)"><g transform="translate(-19.432 -12.601)"><path d="M38.856,88.942A1.144,1.144,0,0,0,37.714,87.8H1.142A1.144,1.144,0,0,0,0,88.942V111.8a.41.41,0,0,0,.023.093,1.1,1.1,0,0,0,.241.692,1.126,1.126,0,0,0,.886.42,1.163,1.163,0,0,0,.365-.062H37.348a1.163,1.163,0,0,0,.365.062,1.126,1.126,0,0,0,.886-.42,1.15,1.15,0,0,0,.241-.692c0-.031.023-.062.023-.093V88.942ZM19.428,103.5,3.956,90.085H34.893Zm-6.582-2.681L2.285,109.45V91.662Zm1.593,1.647c.054-.047.085-.109.132-.155l4.111,3.567a1.143,1.143,0,0,0,.746.28,1.128,1.128,0,0,0,.746-.28l4.111-3.567a.87.87,0,0,0,.132.155l10.017,8.2H4.422Zm11.571-1.647,10.561-9.154V109.45Z" transform="translate(0 -87.8)"/></g></g></svg>