<svg xmlns="http://www.w3.org/2000/svg" width="38.863" height="38.855" viewBox="0 0 38.863 38.855"><g transform="translate(19.432 19.428)"><path d="M35.211,0H3.645A3.645,3.645,0,0,0,0,3.645V35.211a3.645,3.645,0,0,0,3.645,3.645H20.8v-15.1H15.713V17.99H20.8V13.623c0-5.02,3.023-7.779,7.5-7.779a44.193,44.193,0,0,1,4.562.218v5.323H29.678c-2.432,0-2.891,1.158-2.891,2.852v3.746h5.828l-.754,5.766H26.795V38.856h8.424a3.645,3.645,0,0,0,3.645-3.645V3.645A3.657,3.657,0,0,0,35.211,0Z" transform="translate(-19.432 -19.428)" fill="#231f20"/></g></svg>