<svg id="Layer_1" data-name="Layer 1" xmlns="http://www.w3.org/2000/svg" xmlns:xlink="http://www.w3.org/1999/xlink" viewBox="0 0 425 425.04"><defs><style>.cls-1,.cls-2{fill:none;}.cls-2,.cls-5{clip-path:url(#clip-path-4);}.cls-3{clip-path:url(#clip-path-10);}.cls-4{fill:#696;}.cls-6{fill-rule:evenodd;}.cls-7{fill:#fff;}</style><clipPath id="clip-path"><path class="cls-1" d="M2184.68,1079.74c0,9.84-125.42,17.82-280.15,17.82s-280.15-8-280.15-17.82,125.42-17.82,280.15-17.82,280.15,8,280.15,17.82Z"/></clipPath><clipPath id="clip-path-2"><path class="cls-1" d="M1587.19,494.91c0,9.85-125.43,17.83-280.15,17.83s-280.15-8-280.15-17.83,125.42-17.82,280.15-17.82,280.15,8,280.15,17.82Z"/></clipPath><clipPath id="clip-path-3"><path class="cls-1" d="M480.82,1079.74c0,9.84-125.42,17.82-280.14,17.82s-280.15-8-280.15-17.82S46,1061.92,200.68,1061.92s280.14,8,280.14,17.82Z"/></clipPath><clipPath id="clip-path-4"><rect class="cls-1" x="-1314.26" y="-86.48" width="3587.9" height="1195.97"/></clipPath><clipPath id="clip-path-5"><path class="cls-1" d="M480.82,494.91c0,9.85-125.42,17.83-280.14,17.83s-280.15-8-280.15-17.83S46,477.09,200.68,477.09s280.14,8,280.14,17.82Z"/></clipPath><clipPath id="clip-path-6"><path class="cls-1" d="M1027.68,1079.74c0,9.84-125.43,17.82-280.15,17.82s-280.15-8-280.15-17.82,125.42-17.82,280.15-17.82,280.15,8,280.15,17.82Z"/></clipPath><clipPath id="clip-path-7"><path class="cls-1" d="M1027.68,494.91c0,9.85-125.43,17.83-280.15,17.83s-280.15-8-280.15-17.83,125.42-17.82,280.15-17.82,280.15,8,280.15,17.82Z"/></clipPath><clipPath id="clip-path-8"><path class="cls-1" d="M2184.68,494.91c0,9.85-125.42,17.83-280.15,17.83s-280.15-8-280.15-17.83,125.42-17.82,280.15-17.82,280.15,8,280.15,17.82Z"/></clipPath><clipPath id="clip-path-9"><path class="cls-1" d="M1587.19,1079.74c0,9.84-125.43,17.82-280.15,17.82s-280.15-8-280.15-17.82,125.42-17.82,280.15-17.82,280.15,8,280.15,17.82Z"/></clipPath><clipPath id="clip-path-10"><rect class="cls-2" x="-1314.26" y="-86.48" width="3587.93" height="1196"/></clipPath></defs><g id="Grunge_banners_set._Black_paint._Vector_background_for_text._Brush_ink_stroke._Isolated_square_white_frame._Element_for_design_poster_cover_invitation_gift_card_flyer_social_media_promotion." data-name="Grunge banners set. Black paint. Vector background for text. Brush ink stroke. Isolated square white frame. Element for design poster, cover, invitation, gift card, flyer, social media, promotion."><g class="cls-3"><polygon class="cls-4" points="365.77 92.72 353.27 92.72 353.27 351.61 338.4 351.61 338.31 364.11 365.77 364.11 365.77 92.72 365.77 92.72"/><polygon class="cls-4" points="353.27 70.9 353.27 92.72 365.77 92.72 365.77 58.4 248.77 58.4 248.77 70.9 353.27 70.9 353.27 70.9"/><polygon class="cls-4" points="72.56 351.61 72.56 134.76 60.05 139.19 60.05 364.11 86.42 364.11 86.42 351.61 72.56 351.61 72.56 351.61"/></g><polygon class="cls-4" points="73.17 72.24 269.54 72.24 269.54 59.59 60.52 59.59 60.52 225.31 73.17 220.83 73.17 72.24 73.17 72.24"/><g class="cls-5"><path class="cls-6" d="M147.44,50.67c1.17-.52,1.51-1,.42-2l-.42,2ZM159.14,34c1,0,2.39.07,2.78.67.62.93,1.52,0,2,.75.32.5,1,.79,1.41,1.23,1.09,1.06,2.41,2.16,2.48,3.69a3.74,3.74,0,0,0,1.2,2.49c-1.23,1.1-.12,2.19-.15,3.24-.44.3-1.43.29-.71,1.28a.54.54,0,0,1,0,.46c-.82,1-1.66,1.95-2.52,2.94.57.89,1.19,1.69,2.48,1.15a.66.66,0,0,1,.48,0c1.08.68,2.45.67,3.5,1.47.17.13.57,0,.86-.06.39,2.47.76,2.9,2.68,3.21-.49.19-1.27.28-1.41.62-.21.5-.09,1.15-.39,1.71-.49.92.15,1.47.79,1.89a5.05,5.05,0,0,1-1.37.87c-.7.16.45,1.26-.69,1.18-.35,0-.74.62-1.09,1-.07.07,0,.25,0,.37a3.13,3.13,0,0,1-1.56,1.73,12.46,12.46,0,0,1-2.28,1.49c-.63.23-.85,1.6-1.14,2.21l-1.82-1.4A11.5,11.5,0,0,0,163,69.66a8.08,8.08,0,0,0-.78,1.76,11.79,11.79,0,0,0-.87-.92c-.18-.16-.6-.21-.62-.35-.12-1.09-.83-1-1.59-.82,0-.21,0-.4,0-.59,0-1.26-.28-1.49-1.41-1l-.64.28a6.58,6.58,0,0,0,.64-1.73c.08-.93-.8-1-1.48-1.13.1-.48.18-.85.26-1.22l-.72-.38c.77-1.86,1.52-3.67.88-5.72l-1.87-.21a2.74,2.74,0,0,1,0-.28l2.42-.71c0-.88.15-1.85-1-1.88a10,10,0,0,0-2.39.49c0-.49.06-1.18-.17-1.32-.65-.39-.88.17-1,.72a4.44,4.44,0,0,1-.22.61l-.24-.07c.09-.7.19-1.39.33-2.43l-1.67.85c0-.48,0-.94,0-1.42l-1.1.08c-.07-.6.44-1.34-.53-1.73a7.52,7.52,0,0,1-5.81,1.74c-1-1.44-2.07-2.87-.91-4.5s2.78-1.28,4.54-.46c.13-1.11.24-2,.36-3l-2.28.23c1.11-.67,2.52-.9,2.93-2.44-.3-.19-.61-.39-.79-.49L149.62,39c-.41-.34-.74-.62-1.23-1,1.27-.1,2.74.89,2.92-1.17,0-.13.41-.2.6-.32.57-.38,1.1-.8,1.69-1.13.31-.17.75-.14,1.06-.33a2.92,2.92,0,0,0,.65-.77l.59.43a16.36,16.36,0,0,1,3.24-.7Z"/><path class="cls-6" d="M169.61,87.54a4.32,4.32,0,0,0-.75.48c.26.21.5.55.79.59.93.14,1.11-.13,1-1.25a5.54,5.54,0,0,0-1.08.18Zm-3,22.83a15.1,15.1,0,0,0,.44-2.39c0-2-.45-4,1.16-5.6a1.46,1.46,0,0,0,.28-.69l-2.45-2,.5,0c-.1-.38-.18-1.09-.31-1.1-1.35-.09-.37-1.7-1.34-2,.37-.6.13-1-.4-1.36,1-.63.38-1.71.68-2.44.43-1,.23-2.28,1.12-3.09,1.16-1.07,1-2.59,1.35-3.93.08-.34-.31-.93-.63-1.22a18.18,18.18,0,0,0-2.22-1.52c-1.07-.68-1-1.83-1.63-2.63-.87-1.1,0-2,.23-3a3.54,3.54,0,0,1,.23-.74c1.64-3,5-4.3,7.71-2.54a13.23,13.23,0,0,0,2.95,1.61c.71.24,1.45.43,2.23.66-.61.58-.46,1,0,1.54a5,5,0,0,1,.35,5.64c-.41.78-.27,1.21.41,2-2-.6-1.74,1.07-2.5,1.53-.52.09-1,.33-1.51.42s-1.08,0-1.61,0c-.08,0-.12.32-.24.67l2,.7a4.17,4.17,0,0,1,1.28.4,9.31,9.31,0,0,1,3.4,4.54,6,6,0,0,1-.62,5.12c-.41.63-.84,1.25-1.27,1.89l-.79-.43c.22,1,.45,1.66,1.2,1.88.18,0,.47-.28.72-.44.17.34.24.79.5,1,.79.57-.48.64-.2,1a2,2,0,0,0,.63.69,4.18,4.18,0,0,0,1.21.13,1.68,1.68,0,0,0-.46,2.39c.76,1.52,0,3.06.24,4.57,0,.18,0,.52-.1.55-1.51.48-1.28,2.94-3.29,2.88-.25,0-.52.49-.81.77l-.8-.83-3.47,1.12c1.4-1,.07-1.2,0-1.74l-1.62.46-1.25-3.26-.55.09c0-.39.06-.76.09-1.12l-.83-.19Z"/><path class="cls-6" d="M230.64,341.4a7.12,7.12,0,0,1-1.22-1.33,5.19,5.19,0,0,0-4.37-3.18,2.75,2.75,0,0,1-2.28-4c.3-.82.49-1.59-.25-2.1a2.56,2.56,0,0,0-1.77-.37,1.24,1.24,0,0,0-.88,1.54c0,.35.14.69.27,1.3-.76-.59-1.06-1.75-2.15-1-.08.06-.83-.67-1.16-1.12a2.25,2.25,0,0,1-.26-.84,14.47,14.47,0,0,1-1.47.56c-.62.17-1.27.27-2.18.46-.74-1-1.94-.92-3.25-.31a3.2,3.2,0,0,0-2,2.95c0,.48-.2,1.24-.5,1.36-.75.29-.52.86-.51,1.27a11.42,11.42,0,0,0,1.46,5c.22.41.35,1.29.41,1.27,1-.18,1.07,1,1.74,1.32a3.38,3.38,0,0,0,2.6.34c1.29-.63,2.13.11,3,.56a4.74,4.74,0,0,0,3.41.48c1.23-.3,1.67-.1,2.1,1.11a3.86,3.86,0,0,0,3,2.68,6.37,6.37,0,0,0,5.07-1.34c1.43-1.06,1.31-1.21,1.46-3.21a7.69,7.69,0,0,1,.28-1.2,1.24,1.24,0,0,0,0-.57c-.18-.63-.42-1.24-.58-1.71Z"/><path class="cls-6" d="M170.37,214.6l1.61.48c0-.45-.29-.54-.73-.62a17.28,17.28,0,0,1-1.95-.52c.23-.66.43-1.12.56-1.6s.74-.6,1.06-1A4.55,4.55,0,0,0,172.2,209a1.33,1.33,0,0,0-1.2-1.61c-.27-.06-.53-.15-.9-.26a5.86,5.86,0,0,0,1.68-3.38c-.05,0,0,0,.09-.05,1.23-.18,1.69-.52,1.66-1.34a1.93,1.93,0,0,0-1.69-1.91,4.14,4.14,0,0,0-1.1.13c0-.52-.46-.57-.77-.76-1.81-1.07-3.92-.93-5.63,1.31-.23.3-.18.82-.24,1.25s-.08.84-.11,1.15a6.94,6.94,0,0,0-1.43-.54c-.12,0-.42.54-.46.85-.07.63.25,1,1,1l1-.76c.6.37.45,1.24,1.21,1.48.23.08-.1,1.22-.39,1.45a2,2,0,0,0-.59.57,23.63,23.63,0,0,0-1.27,2.87,2.47,2.47,0,0,0,.28,2.73,1.37,1.37,0,0,1,.31.84c0,.4,0,.7.5.79.11,0,.3.13.3.18-.08,1,1,1.42,1.23,2.29.22.71,1.2.69,1.89.69,1.58,0,2.76-.94,2.86-3.38Z"/><path class="cls-6" d="M165.39,157.76l.75-.58,2.44,1.59c-.55,1.21-.55,1.21-1.72,1.11,0,.29,0,.59,0,.88-1.16,0-1.19,1.18-1.87,1.7s-.66,2.36-.52,3.33a5.16,5.16,0,0,0,1.52,3.47c1.53,1.28,3.12,2.37,5.31,1.46.42-.18,1,.1,1.72.19a5.31,5.31,0,0,0,1-1.13c.4-.78,1.12-1.37.9-2.51-.17-.82-.34-2.09,1.11-2.55l-.83-1.09.87-.91-2-1.21a3.64,3.64,0,0,1,2.7-4.24,12.27,12.27,0,0,1,.89-3.21,3.62,3.62,0,0,0,.12-3.32,8.32,8.32,0,0,0-8.22-5.68,3.67,3.67,0,0,0-2.31.53c-.62.65-1.54,1-1.94,1.86-.56,1.18-1.09,2.38-1.67,3.64.31.21.94.46.92.67a7,7,0,0,1-.52,1.72c.3.21,1,.44,1,.76.17,1.16.69,2.3.35,3.52Z"/><path class="cls-6" d="M195.91,92.78c-1.73-.27-2.31,0-2.49.89s.28,1.49,1.87,2c.17-.15.36-.31.54-.5a5,5,0,0,0,.34-.46l2.94,2.42c.4,1.15-.59,1.38-1.34,1.57a12,12,0,0,1-.83,3,2.1,2.1,0,0,0,.2,2.51c-1.2,1-2.62,2-2.12,3.72.41,1.42,1.75,1.77,3.2,1.76l1.7-1.62c.37.73,1.93-.18,1.75,1.55l3.29-1,.62.75c.18-.57.35-1.08.55-1.72l1,.3a6.83,6.83,0,0,1,.65-1.21c.1-.12.7.15.38-.4-.63-1.06,0-1.71.67-2.32a27.74,27.74,0,0,0-.69-3.24,29.74,29.74,0,0,0-1.5-3.12,6.16,6.16,0,0,0-.69-5.82,3.41,3.41,0,0,0-4.46-1.42,1.37,1.37,0,0,1-1.22,0c-2.45-.94-3.46-.38-4.36,2.33Z"/><path class="cls-6" d="M84.68,73.49c-.13.46-.21.77-.3,1.13a4.54,4.54,0,0,1,1-.41c.71-.11,1.48.52,2.14-.17.48-.51,1.58.63,1.73-.68.67.24,1.22-.18,1.81-.27,1-.14,1.39-.81,2-1.36l2-1.87c0-.2-.17-.73-.3-1.31a3.55,3.55,0,0,1,.61-.18,2.55,2.55,0,0,1,.77.14c.85.33,1.74.44,2.31-.38a2.58,2.58,0,0,0-.09-2.6c-.52-1.2-1.86-1.38-2.59-2.26s-.7-2.13-1.92-2.58a1.33,1.33,0,0,1-.62-.45c-1.31-1.94-3.37-1.69-5.2-1.51a4.8,4.8,0,0,0-4.17,2.44c-.18.37-.92.42-1.17.78A10.2,10.2,0,0,0,81,64.89c-.25,1,.26,2.09-.25,3.13A1.07,1.07,0,0,0,81,69.38a5.39,5.39,0,0,1,1.07,2.23c.5,1.6.63,1.75,2.58,1.88Z"/><path class="cls-6" d="M163.28,127.46c1.37.28-.36,2,1.19,2.29l-1.22.84a1.85,1.85,0,0,1,2.11,1.3c.35.75,1.91.73,1.55,1.89l3.43,1.39.46-.28c1.54.41,1,1.84,1.64,3l1.2-1.92c.28.84.46,1.4.65,2,3.33.76,6.07-2.23,4.17-6.18,1.58.47,1.65-1,2.39-1.66-1.92-2.3-1.92-2.3-1.8-4-.88-.54-2.18-.74-2-2.23a24.84,24.84,0,0,0-3.47-2c-1.52-.59-3-.22-4.66.19-2.2.55-3.16,2.28-4.62,3.53a5.82,5.82,0,0,0-1,1.84Z"/><path class="cls-6" d="M186.89,290.26c1.31,0,.91,1.51,1.79,2.44l4.76.32c-.66,1.82-1.35,3.73-2,5.59,0,.11,0,.22.06.22,1.35.21,1.44,1.19,1.4,2l2.25,1.65c1-1.17,1.42-1.15,2.22.47a2.41,2.41,0,0,1,.85-1.8,6.81,6.81,0,0,0,2.87-5.87,2.82,2.82,0,0,0-.69-1.91c-1.07-1.17-2.15-2.26-4-1.89.15-1.2.15-1.2,1-1.6a20.62,20.62,0,0,0,.36-2.5c.1-3.44-2.14-6.08-5.7-5.87-2.59.16-3.82,1.69-4.95,3.6-.33.55-.64,1.11-1,1.63l.72,3.56Z"/><path class="cls-6" d="M144.34,263.38c1.27-.11.49,1.76,1.87,1.55a18.13,18.13,0,0,0-2.59,2.86,17.13,17.13,0,0,0-1,3.49,6.49,6.49,0,0,0-1.37.79c-1,.85-1.34,3.32-.52,4.29a3.69,3.69,0,0,0,2.18.81,4.13,4.13,0,0,0,1.53-.36c.38-1,.74-1.95,1.14-3l1.74.51c-.72,1.41-.81,2.6.87,3.22l1.37-.74a2.45,2.45,0,0,0-.71-2.7c2.55-1.12,3-3.37,3-5.63l-2.75-3.18c1.92-.65,2.62-2.13,3.07-3.77a4.32,4.32,0,0,0-3.1-5.33c-2-.62-4.68.88-5.18,3.8.7.6-.94,1-.11,1.74.39.35.41,1.12.59,1.67Z"/><path class="cls-6" d="M243.69,334.8c.69,1.32,1.24,2.56,2,3.68a6.4,6.4,0,0,0,1.81,1.89c1.9,1.24,5.52,1.12,7.09-.4a13,13,0,0,0,1.86-3.16c.66-1.23,1.28-2.48,2-3.81-.11-.16-.44-.41-.44-.67a2.89,2.89,0,0,0-1.53-2.86c-.47-.27-.36-1.53-.49-2.27-.4.7-1.13.81-2.09.33a3.09,3.09,0,0,0-2.09-.46c-.91.38-1.3-.19-1.74-.45a4.45,4.45,0,0,1-.72,1,18.17,18.17,0,0,1-2.1,1.39,1.17,1.17,0,0,0-.67,1c-.15.71-.64,1.43-1.89,1,1.24,1.5-.4,2.59-.22,3.9Z"/><path class="cls-6" d="M100.65,230.17l.61-1.19c.21,0,.39-.06.47,0a5.05,5.05,0,0,0,4.83,1.16A6.28,6.28,0,0,0,108.2,229a7.6,7.6,0,0,0,3.25-7.74,4.71,4.71,0,0,0-2.26-3.34,3.61,3.61,0,0,1-1-.59c-1-1.1-2.16-.28-3.23-.45-1.64-.25-2.66,1-3.63,1.8a4.45,4.45,0,0,0-2,3.36,17,17,0,0,1-.92,3.77,4.28,4.28,0,0,1,2.28,4.41Z"/><path class="cls-6" d="M198.64,113.29l1.3,1.1a3.8,3.8,0,0,0,3-2.63,3.57,3.57,0,0,0-.17-2.24,2.24,2.24,0,0,0-2.5-1.49,10.49,10.49,0,0,0-2.72,1.28c-2.71-2.56-4.87-1.51-6.48,0-1.19,1.08-1.2,2.72-1.28,4.17a3.24,3.24,0,0,0,1,2.32c1,.88,2,1.83,3.82,1.6,1.56-.19,2.34-1.4,3.6-1.68l.45-2.4Z"/><path class="cls-6" d="M262.87,326.12c0-1.18,0-2,0-3a3.08,3.08,0,0,0-1.2,3.14,2.71,2.71,0,0,1-.92,2.41c-1.4,1.28-1.49,3.1-1.63,4.77-.18,2,1.47,3.4,3.54,3.45.75,0,1.5.11,2.26.15.16,0,.39.07.48,0,.88-.81,2-1.5,2.53-2.52.82-1.65,1.56-3.44.84-5.44a3.41,3.41,0,0,0-2.17-2.39c-.45-.15-.66-.42-1.29-.25a6.51,6.51,0,0,1-2.41-.26Z"/><path class="cls-6" d="M323.69,265.56l-.69-.07c0-.91,0-1.8.05-2.6a8.29,8.29,0,0,0,1.61-1.64,4.76,4.76,0,0,0,.18-1.85c-2,.17-2.18.35-2.65,2.11a2.14,2.14,0,0,1-1.56-2.62,7.09,7.09,0,0,0-.36-2.07c-1.21-.46-1.21-.46-4.3,0-.16.85-.34,1.77-.53,2.8a2.4,2.4,0,0,0-1.61,2.9c.39,1.43,1,1.76,2.54,1.34a7.27,7.27,0,0,0-.06,1.47c.06.51.41,1,.42,1.49,0,1.5,1.09,2,2.23,2.36a3.65,3.65,0,0,0,3.37-1.3c.48-.75.92-1.54,1.36-2.28Z"/><path class="cls-6" d="M199.59,273.34c.92.48,2.23-.14,2.82,1.14a9.45,9.45,0,0,0,2.85-.33c1.19-.53,2.63-.95,3.06-2.49a1.69,1.69,0,0,0,1.25-1.83,12.12,12.12,0,0,0-1-4.33c-.84-1.59-4-1.85-6-.77a3.23,3.23,0,0,0-1.95,2c-.15.53-.68.94-1,1.43a2.42,2.42,0,0,0-.3,3,5.8,5.8,0,0,1,.31,2.16Z"/><path class="cls-6" d="M144.74,26.61c-2.13,1.9-2.63,5.47-1,7.27a5.09,5.09,0,0,0,7.31.69,5.69,5.69,0,0,0,.35-7.86c-1.43-1.68-4.84-1.74-6.67-.1Z"/><path class="cls-6" d="M240.9,294.55l-1.15-3.33c-.17,1-.28,1.64-.39,2.24a7.17,7.17,0,0,0-1.89.74,2.9,2.9,0,0,0,.53,4.9c.84.41.89,1,1,1.7a4.44,4.44,0,0,0,1.12,2.4c2.13,2.1,4.78,1.19,5.78-1.18.18-.42.41-.81.6-1.22a2.58,2.58,0,0,0-.14-2.92c-.35-.45-.5-1.05-.81-1.54a3.8,3.8,0,0,0-1.07-1.39c-1.07-.59-2.22-1.22-3.62-.4Z"/><path class="cls-6" d="M176.75,251.49c.45-.45-.07-.91.66-1.41,1.91-1.32,2.72-3.41,1.6-6.12a1.72,1.72,0,0,0-.58-.65c-.41-.32-.86-.6-1.3-.88a2.16,2.16,0,0,1-1.22-2.33c-.4,0-.75.18-1,.07-1.63-.81-1.82-.74-2.3,1a2.22,2.22,0,0,1-.15.32l-1.07-.26c0,.82-.37,1.75-.07,2.36a2.37,2.37,0,0,1-.14,2.85c-.71.95-.53,1.49.5,2.13a3.74,3.74,0,0,1,1.57,2.91c0,.63,0,1.28,0,2.18,1-.73.35-1.81,1.2-2.44,1-.75,1.64-.14,2.31.27Z"/><path class="cls-6" d="M224.61,268.77,225,267l1,.4a5,5,0,0,0-.44-6.21,4.75,4.75,0,0,1-1.21-2.55,2.7,2.7,0,0,0-2.52-2.33,3.46,3.46,0,0,0-3.48,1.62c-.37.75-.92,1.51-.46,2.5a5.56,5.56,0,0,1,.18,1.83c.67.41,1.53,1,2.53,1.59-.82,1.39.69,2.09,1.11,3.19.53,1.41,2,1.17,2.92,1.69Z"/><path class="cls-6" d="M137.59,214c.43.17,1,.23,1,.44a9.61,9.61,0,0,1,.85,2.85c1.4.56,3,2.15,5,.68a6.65,6.65,0,0,0,.69,2.1c.22.28,1.06.08,1.53.1,1.11-1.4.06-2.63-.07-3.86a4.78,4.78,0,0,1-.09-2.23c.83-2.48-1.36-4.83-3.3-5.29a3.83,3.83,0,0,0-3.9,2.05c-.38.83-.76,1.65-1.17,2.46a4.64,4.64,0,0,1-.56.7Z"/><path class="cls-6" d="M137.5,289.52c-1.68.92-1.77,2.66-1.62,4.08a3.7,3.7,0,0,0,2,3c3.26,1.62,5.79-.15,7.24-2.52a3.15,3.15,0,0,0-.35-3.56c-1.81-2.13-3.54-2.78-5.58-2a11.72,11.72,0,0,0-1.68,1Z"/><path class="cls-6" d="M279.53,287.42c-.15.69-.28,1.35-.46,2-.6,2.08.75,5.08,2.65,5.84a4,4,0,0,0,5.11-3.46c0-.19-.13-.4-.09-.58.44-1.92-.81-3.23-1.68-4.69-.63-1.08-1.57-1.07-2.59-1s-2,.3-2.26,1.56c0,.14-.42.21-.68.32Z"/><path class="cls-6" d="M161.44,139.35c-.11-1.13-.16-2.36-.35-3.57a4,4,0,0,0-2.93-3.41,4.92,4.92,0,0,0-2.61,0,2.69,2.69,0,0,0-1.67,1.48,5.32,5.32,0,0,0,1.91,7.2,3.77,3.77,0,0,0,4.25-.47l1.4-1.25Z"/><path class="cls-6" d="M185,260.58c.26-1.4,1.35-2.55,1-4.18-.22-.92-1.29-2.8-2.18-3.16a3.69,3.69,0,0,0-5.19,3.95c.29,1.51-.47,2.8-.7,4.09.59,1.59,1.9,1.88,3.26,1.94.35-.53.77-1.65,1.12-1.63,1.15.08,1.55-1.64,2.79-1Z"/><path class="cls-6" d="M71.41,199c.08.61.15,1.24.26,2.16.25-.7.38-1.21.6-1.67s.53-1.22,1.4-1.11a.8.8,0,0,0,.64-.21c1-1.41,2.12-2.83,3.09-4.3a2,2,0,0,0-.48-2.64,2,2,0,0,0-2.68-.28,2.16,2.16,0,0,1-1.9.29A3.58,3.58,0,0,0,69,192.62c-1.57,1.95-1.5,4.41.46,5.66a11.48,11.48,0,0,0,2,.74Z"/><path class="cls-6" d="M154.65,244.29c-.61-1-1.11-1.8-1.63-2.6a3.65,3.65,0,0,0-4.28-1.16c-3,1.32-3.48,4.92-1.52,7.45,1.08,1.39,2.34,1.33,3.61,1.52a2.27,2.27,0,0,0,2-1.13c.64-1.06,1.49-2.06,1.29-3.46,0-.19.39-.44.56-.62Z"/><path class="cls-6" d="M148.66,288.49a24.81,24.81,0,0,0,1.5-2.2,4.5,4.5,0,0,0-.27-4.37,4,4,0,0,0-4.59-1.63,3.25,3.25,0,0,0-1.93,1.79c-.38.66-1.42,1-.86,2.15.15.3-.2.85-.3,1.28-.39,1.75.32,2.82,2.09,3,1.14.09,2.3.47,3.44-.11.24-.12.63.08.92.12Z"/><path class="cls-6" d="M129.38,110.18c.71,1.48,2,1.27,2.87,1.32a3.66,3.66,0,0,0,3.95-4.25c-.18-1.67-.68-3.23-2.43-4.11-1.37-.68-3.43-.67-4.39.58a7.13,7.13,0,0,0-1.44,3.31c-.1.82.64,1.75,1,2.61a2.07,2.07,0,0,0,.4.54Z"/><path class="cls-6" d="M197.71,300.93c0,.44,0,.6-.06.85L196,301.7c-.6.58-1.08,1.09-1.61,1.55-1.6,1.41-1.25,6,.7,7.13a3.7,3.7,0,0,0,5.76-2.8c.26-1.89.19-3.77-1.77-5-.51-.31-.79-1-1.33-1.68Z"/><path class="cls-6" d="M263.38,232.59c0,2.07-.48,2.68-2.06,2.72.07,1.16.09,2.33.22,3.48a10.91,10.91,0,0,0,.55,2.07c.68,1.93,2.38,2.64,4.27.8.87-.86,2.13-1.57,2.1-3.12,0-.25.39-.5.6-.75-1.19-1.07-1.3-1.83-.36-4-1,1-1.94.49-2.74.25a13.16,13.16,0,0,1-2.58-1.46Z"/><path class="cls-6" d="M168.85,227.15l1.05-1.9-.38-.29a15.33,15.33,0,0,0-4.16,4.47c-.83,1.34-.42,2.76-.5,4.11-.08,1.18,2.45,2.41,3.76,1.93a9.1,9.1,0,0,0,2.38-1.32,11.15,11.15,0,0,0,3.22-4.38l-3.25.11a2.26,2.26,0,0,1,0,.26l-1.5-.72c-.21-.76-.41-1.49-.63-2.27Z"/><path class="cls-6" d="M268.14,303.66c.31,1.1.33,2.53,1.45,3.45a23.15,23.15,0,0,0,2.83,2,1.63,1.63,0,0,0,2.29-.33c.69-.87,2-1.44,1.08-3.08-.31-.52.42-1.64.66-2.47l-1.38.78c-.5-1.34-.95-2.58-1.31-3.57l-3.52.19c-.62.89-1.32,1.9-2.1,3.05Z"/><path class="cls-6" d="M237.61,287.85c.36.89.64,1.6,1,2.42l1.66.6c1.61-1.34,1.58-2.87.61-4.48-.65-1.09-1.12-1.19-2.76-.82a7.2,7.2,0,0,0-1.06-1.34,6.8,6.8,0,0,0-1.48-.69,10.68,10.68,0,0,0,.51-2.1,1.62,1.62,0,0,0-1.84-1.77,1.8,1.8,0,0,0-1.62,2.05,1.93,1.93,0,0,0,.22.73,3,3,0,0,1,.25,2.94,2.46,2.46,0,0,0,0,1.71c.16.49.55,1.15,1,1.26a7.71,7.71,0,0,0,2.4,0,5.11,5.11,0,0,0,1.16-.53Z"/><path class="cls-6" d="M260.61,284.42c.15-.49.29-1,.52-1.7a8.88,8.88,0,0,0-2.68-1.13c-.68-.06-1.4.68-1.61,1.55-.06.26-.09.52-.14.77a2.68,2.68,0,0,0,.82,2.86c1,.81,1.82.17,2.77-.53.12.67.22,1.15.27,1.64a3,3,0,0,0,2.05,2.49,2.6,2.6,0,0,0,2.69-1.8,3.72,3.72,0,0,0-.79-4.09,1.75,1.75,0,0,0-2.05-.53c-.44.24-.9.46-1.35.69l-.5-.22Z"/><path class="cls-6" d="M269.89,275.12c.08-.71.09-1.33.22-1.94.44-2-1.48-4.47-3.49-4.37a2.46,2.46,0,0,0-.86.37,4.19,4.19,0,0,0-2.18,3.23,4.73,4.73,0,0,0,1.44,4.07,2.45,2.45,0,0,0,3.33.18,18.6,18.6,0,0,0,1.54-1.54Z"/><path class="cls-6" d="M317.51,322.89c-.24.26-.44.66-.75.79-.81.36-1.58.92-1.63,1.74a7.31,7.31,0,0,0,.5,3.18c.31.74.49,1.16,0,1.91a1.45,1.45,0,0,0,.67,2.12c.8.32,1.54-.06,1.9-1.09a5.36,5.36,0,0,1,1.67-2.43c1.63-1.37,1.88-4.08,0-5.36a9.7,9.7,0,0,0-2.43-.86Z"/><path class="cls-6" d="M320.71,306.63c-.57.73-1,1.23-1.38,1.74l-2.07-1c.05.51.09.86.13,1.24-.95.35-1.78.82-1.95,1.95a5.13,5.13,0,0,0,.72,4.09,2.75,2.75,0,0,0,4.61-.7c.2-.5.28-1,.75-1.27-.51-.61-.27-.92.31-1.37.2-.15-.17-1.06-.3-1.61-.25-1-.51-1.94-.82-3.09Z"/><path class="cls-6" d="M281.61,303.93a2.88,2.88,0,0,0-1.78,3.78,1.92,1.92,0,0,0,2.29,1,2.49,2.49,0,0,0,1.51-2.78,16.14,16.14,0,0,0-1-2c.39-.33.84-.68,1.24-1.06a3.25,3.25,0,0,0,.66-3.48,2.29,2.29,0,0,0-3.45-1,3.18,3.18,0,0,0,.5,5.53Z"/><path class="cls-6" d="M140.63,122.59c1.34,0,1.76-.47,2.29-2.4-.54-.87-.95-2-2.3-1.66-1.16.31-1.4,1.27-1.63,2.38-.17.82-1,1.49-1.59,2.33-1-.3-1.79-1.45-3-.79a3,3,0,0,0-1.22,1.12c-.77,1.53-.38,2.68,1,3.36s2.48,0,3.55-2.25l1.64.45c.91-.73.91-.73,1.2-2.54Z"/><path class="cls-6" d="M315.26,183.05c-.6,1.06-1.18,2-1.72,3.06a5.36,5.36,0,0,0,0,5.07c.77,1.6,2.52,1.62,3.6.19a7,7,0,0,0,1-6.34c-.26-.95-.9-1.88-2.27-1.43-.11.05-.39-.38-.55-.55Z"/><path class="cls-6" d="M274.23,294.12c1.88-2,1.1-4.26,1.17-6.33-.39-.14-.91-.16-1.13-.43a1.94,1.94,0,0,0-2.66-.34,2.73,2.73,0,0,0-1.7,2.61,17.41,17.41,0,0,0,.28,2.49c.41,2,2.11,2.74,4,2Z"/><path class="cls-6" d="M131.51,54.62a20.57,20.57,0,0,0-1.43,2.85c-.3.8,1,2.26,2,2.48a4.89,4.89,0,0,0,4.38-1.71c1.2-1.65,1.16-2.58-.17-3.91-1.13-1.13-2.81-1.18-4.74.29Z"/><path class="cls-6" d="M252.85,70.27c-.18-.36-.31-.62-.48-.94-.15.22-.28.32-.27.41.11,1.21.6,2.33.25,3.64-.28,1.08,2.13,4.41,3.24,4.89.88.38,1.38-.09,1.68-.83a6.64,6.64,0,0,0-.49-5.84c-.39-.75-.85-1.46-1.26-2.18l-2.67.85Z"/><path class="cls-6" d="M316.53,215.35l-1,1.11-.73-.62c-.15.21-.31.4-.62.81l-.52-1.7c-.64,1.8-1.18,3.33-1.73,4.85-.49,1.36.26,2.44,1,3.36,1.05,1.31,3.17.55,3.85-1.26s1.1-3.53.05-5.33a5.77,5.77,0,0,1-.32-1.22Z"/><path class="cls-6" d="M235.4,234.91c-.42,0-.81-.79-1.3,0,0,.06-.66-.37-1-.35s-.81.51-.87.44c-.71-.69-1.16-.11-1.34.37a8.73,8.73,0,0,0-.84,4.57,2.57,2.57,0,0,0,1.81,2.31c1,.31,1.58-.1,2.53-1.29a5.16,5.16,0,0,0,1.05-3.47c0-.85,0-1.69,0-2.53Z"/><path class="cls-6" d="M228.23,192.09c-1.58-.18-1.78-1.41-1.78-2.83-.66,1.05-.92,2.41-2.63,2.21-.26,1-.46,2.11-.82,3.13a2.89,2.89,0,0,0,.48,2.73,2.18,2.18,0,0,0,4-.12,6.5,6.5,0,0,0,.76-5.12Z"/><path class="cls-6" d="M198.09,244.05a13.08,13.08,0,0,0,2.15-.32c1.48-.46,1.72-1.85,1.68-3a4.47,4.47,0,0,0-2.09-3.73,2.67,2.67,0,0,0-3.38,1.14,4,4,0,0,0,.49,4.61c.35.39.68.79,1.15,1.34Z"/><path class="cls-6" d="M234.41,214.24a4.59,4.59,0,0,1,.18,1.88c-.46,1.36.21,2.28,1,3.17a2.08,2.08,0,0,0,3.78-.73c.24-.71.39-1.47.57-2.19l-1.31-4.65c-.25.37-.41.6-.57.82-1.82-.5-1.86-.48-2.81,1.2a1.76,1.76,0,0,1-.49.49c-.09.06-.25,0-.31,0Z"/><path class="cls-6" d="M234.23,310.53c-1,2.84-1,2.84.25,5.3-.38.59-.79,1.21-1.2,1.83l.24.18,1.5-1.59c3,.21,3.39,0,4.72-3.47-2.07-3.8-2.14-3.83-5.51-2.25Z"/><path class="cls-6" d="M238,73.29c-.7.82-1.68-.82-2.37.87-.1-1-.16-1.48-.21-2-.13.11-.26.18-.28.27a11.66,11.66,0,0,1-.91,2.49,5.79,5.79,0,0,0,.25,5.61,1.65,1.65,0,0,0,2.81,0c1.36-1.65,1.44-3.58,1.18-5.57a12.7,12.7,0,0,0-.47-1.68Z"/><path class="cls-6" d="M160.43,111.83l.91-.55c-.12-1.37-4.39-2-5.72-.84-.39.32-.72.71-1.23,1.23a27.94,27.94,0,0,0,.8,2.7,2.85,2.85,0,0,0,2.67,1.78c.94-.05,2.67-1.2,2.8-2a9.87,9.87,0,0,0-.23-2.28Z"/><path class="cls-6" d="M278.12,181.58a25.16,25.16,0,0,0-1.8,2.45c-.59,1,.55,4.29,1.61,4.94a1.79,1.79,0,0,0,2-.06c1.81-1.09,2.2-5,.53-6.33a9.8,9.8,0,0,0-2.36-1Z"/><path class="cls-6" d="M65.13,257.63c.6-.41,1.2-.82,1.81-1.22,1.42-.92,1.69-3.37.67-4.85s-2.64-1.49-4-.41-1.45,3.85-.3,5c.58.55,1.24,1,1.82,1.52Z"/><path class="cls-6" d="M276.06,213.4c-.81,1.53-1.74,3-2.4,4.61a5.51,5.51,0,0,0-.3,2.82,1.78,1.78,0,0,0,3.11,1,3.16,3.16,0,0,0,1-1.6c.2-1.74,1.22-3.44.37-5.29-.14-.29.05-.73.09-1.2l-1.74,1.48-.34-.12c.13-.53.26-1.07.4-1.6l-.24-.06Z"/><path class="cls-6" d="M293.77,265.74c-.56-1.34-.83-2.68-2.56-2.24-1.26-.9-2.09.53-3.15.53a4.42,4.42,0,0,0-.56,3,2.87,2.87,0,0,0,1.92,2.22,2,2,0,0,0,2.4-.79c.69-.87,1.29-1.78,1.95-2.7Z"/><path class="cls-6" d="M243,147.14a3.22,3.22,0,0,0-.47.14c-2.09,1.09-2.55,2-1.95,4.31.34,1.37.83,2.74,2.39,3.29.81.28,1.59.06,1.81-.64a20.34,20.34,0,0,0,.52-3.41c0-.1-.11-.22-.18-.33L243,147.14Z"/><path class="cls-6" d="M253.61,133.62c-.17.16-.36.32-.58.54-1.05-1-.06-2.24-.55-3.78-1.32,3.21-3.35,5.73-2.49,9.11.41,1.6,1.27,1.93,2.47.8C254,138.86,254.07,137,254,135a8,8,0,0,0-.34-1.42Z"/><path class="cls-6" d="M291.42,212.77l-1.73,0c-1.79,1.46-1.81,3.21-.88,5.16a2.62,2.62,0,0,0,2.42,1.59c1-.12,1.27-.66,1.72-2,.66-2-.52-3.3-1.53-4.68Z"/><path class="cls-6" d="M109.94,278.74c1.21,1.54,2.78,1.87,4,.83a3,3,0,0,0,.12-4.34c-1.16-1.43-2.44-1.63-3.69-.6a3.08,3.08,0,0,0-.44,4.11Z"/><path class="cls-6" d="M288.5,85.05c-1.32.69-1.34-.33-1.5-1l-5.14,5.34a2.07,2.07,0,0,0,.16.5c1,1.93,1.82,2.14,3.58.79a6.64,6.64,0,0,0,2.9-5.62Z"/><path class="cls-6" d="M217.25,274c1.09,1.35,2.24,1.62,3.29.81a2.52,2.52,0,0,0,.79-1.21,7.5,7.5,0,0,0,0-1.35,3.14,3.14,0,0,0-1.67-3.22,1.94,1.94,0,0,0-2.91,1.26,4.62,4.62,0,0,0,.46,3.71Z"/><path class="cls-6" d="M341.51,185.44c-.55-.05-1.1-.07-1.64-.14s-1.05-.18-1.51-.26c-.36,1.23-.74,2.45-1.06,3.68a4.2,4.2,0,0,0,1.3,3.1,1.32,1.32,0,0,0,1.62,0,3.52,3.52,0,0,0,1.59-2.95,21.94,21.94,0,0,0-.3-3.42Z"/><path class="cls-6" d="M278.93,249.66l-3.43,1.09c-.24.77-.48,1.43-.66,2.1a2.73,2.73,0,0,0,1.94,3.31,1.8,1.8,0,0,0,2.22-1.09c.45-1.45,1.42-3-.08-4.41-.13-.12,0-.49,0-1Z"/><path class="cls-6" d="M122.8,100.9A2.68,2.68,0,1,0,127,97.5a2.94,2.94,0,0,0-3.81-.57c-1,.66-1.18,2.84-.34,4Z"/><path class="cls-6" d="M89.42,28.78a2.71,2.71,0,0,0,3.61.63,2.84,2.84,0,0,0,.45-3.81A2.55,2.55,0,0,0,90,25.12a2.74,2.74,0,0,0-.59,3.66Z"/><path class="cls-6" d="M52,104.31a2.26,2.26,0,0,0-3.26-.39,3.22,3.22,0,0,0-.57,4,2.36,2.36,0,0,0,3.41.36,3,3,0,0,0,.42-4Z"/><path class="cls-6" d="M240.87,138.13c-.36,1.27-1.41,1-2.34,1.17,0,1-.07,2-.08,2.95a3.18,3.18,0,0,0,.11,1c.39,1.28,1.48,2.15,2.37,1.91a2.55,2.55,0,0,0,1.38-2.74,18.26,18.26,0,0,0-.88-2.51c-.17-.48-.31-1-.56-1.75Z"/><path class="cls-6" d="M108,48.63c2-2,1.83-2.36,1-4.13-.54-1.12-1.28-1.3-2.62-.91a2.11,2.11,0,0,0-1.66,2.48c.14,1.84,1.42,2.51,3.29,2.56Z"/><path class="cls-6" d="M352,250c-1.07,1.8-1.24,3.47.05,5.12a1.39,1.39,0,0,0,1.67.66,3,3,0,0,0,1.54-1.26c.91-2.23-.67-4.39-3.26-4.52Z"/><path class="cls-6" d="M61.74,41c.56,2.42,1.25,3.31,2.53,3.25a2.3,2.3,0,0,0,2.33-1.92,2.27,2.27,0,0,0-1.28-2.87,3.5,3.5,0,0,0-2.24,0c-.57.24-.92,1-1.34,1.52Z"/><path class="cls-6" d="M274.21,241.39c-.45.5-.93,1-1.32,1.5a3,3,0,0,0,.14,3.92,1.92,1.92,0,0,0,3.1-.51c.67-1.21.18-2.49,0-3.73,0-.18-.61-.26-.92-.44a11,11,0,0,1-1-.74Z"/><path class="cls-6" d="M383.25,340.86c1,1.09,2,1.3,2.85.59,1.09-.9,1.43-2.89.6-3.83a3.9,3.9,0,0,0-1.37-1.07,2.07,2.07,0,0,0-1.49,0c-1.14.54-1.47,3.37-.59,4.33Z"/><path class="cls-6" d="M215,224.78c.79,1,1.85,1.33,2.63.78a2.67,2.67,0,0,0,.48-4c-.91-1.21-1.72-1.39-2.78-.63-1.27.92-1.4,2.48-.33,3.88Z"/><path class="cls-6" d="M119,79.22c2.31-1,2.83-1.67,2.57-3.33A2.49,2.49,0,0,0,119.38,74a2.21,2.21,0,0,0-2.32,1.66c-.52,1.5-.19,2.13,1.93,3.56Z"/><path class="cls-6" d="M333.7,277.94a2.25,2.25,0,0,0-3,.46c-.6.72-1.31,1.59-.94,2.63.22.62.7,1.45,1.21,1.58a2.67,2.67,0,0,0,2.08-.58,3,3,0,0,0,.65-4.09Z"/><path class="cls-6" d="M361.63,223.13a1.93,1.93,0,0,0-2.65.3,3.39,3.39,0,0,0-1.26,3.13,1.72,1.72,0,0,0,2.8,1.18c1.51-1,1.87-2.48,1.11-4.61Z"/><path class="cls-6" d="M223.66,217.71a3.16,3.16,0,0,0-.38,3.56,2.81,2.81,0,0,0,3.21.2,2.55,2.55,0,0,0,.36-3.48,2.62,2.62,0,0,0-3.19-.28Z"/><path class="cls-6" d="M241.76,226.91c-1,.5-.88-1-2-.63-2,.57-3,3.16-1.66,4.68.34.36,1.13.74,1.48.58a3.34,3.34,0,0,0,1.62-1.5,14.84,14.84,0,0,0,.56-3.13Z"/><path class="cls-6" d="M184.21,302.13l2.26.13a6,6,0,0,1,.59-1.43,2.57,2.57,0,0,0,0-2.75c-.61-1.37-1.75-1.43-2.82-.34-1.27,1.3-1.33,2.34-.23,3.92a1.72,1.72,0,0,1,.23.47Z"/><path class="cls-6" d="M362.3,203.34c-.33.52-.89,1-.94,1.55a6.89,6.89,0,0,0,.39,2.65c.47,1.39,1.86,1.18,2.65.29,1-1.08.76-3.86-.31-4.88-.82-.78-1.24-.14-1.79.39Z"/><path class="cls-6" d="M134.52,214.39a10.83,10.83,0,0,0,1.82-.65c1.52-.84,1.48-1.77.83-3.45a1.56,1.56,0,0,0-1.93-.93,2.21,2.21,0,0,0-1.84,1.75,3.08,3.08,0,0,0,1.12,3.28Z"/><path class="cls-6" d="M154.51,181.17a2,2,0,0,0,2.79.48,2.45,2.45,0,0,0,.62-3.42,2.18,2.18,0,0,0-3.08-.55,2.43,2.43,0,0,0-.33,3.49Z"/><path class="cls-6" d="M269.73,182.44c-.69.8-1.11,1.26-1.51,1.74a5.22,5.22,0,0,0-1.24,4.18c.1.65.35,1.41,1.12,1.39a2.27,2.27,0,0,0,1.39-.83c.9-1.06.86-2.41.94-3.71,0-.12,0-.36-.05-.37-1.46-.25-.63-1.37-.65-2.4Z"/><path class="cls-6" d="M298.46,327.51a1.7,1.7,0,0,0,2.53.36,2.66,2.66,0,0,0,.37-3.48,2,2,0,0,0-2.83-.64c-1.09.85-1.11,2.45-.07,3.76Z"/><path class="cls-6" d="M195.36,176.48c1.72-.22,1.79-1.58,2.28-2.61-1-2.09-1.84-2.68-3.09-2.19s-1.44,1.63-.94,3.75a4,4,0,0,1,.7.29c.39.25.74.53,1.05.76Z"/><path class="cls-6" d="M94.31,42l3.09-1.5c-.24-.8-.4-1.41-.61-2a1.78,1.78,0,0,0-1.74-1.31,1.89,1.89,0,0,0-1.87,1.13c-.74,1.44-.42,2.44,1.23,3.71l-.1,0Z"/><path class="cls-6" d="M75.54,69a10.81,10.81,0,0,0,1.75-.81,2.5,2.5,0,0,0,.26-3.58A2.12,2.12,0,0,0,75,64.29a2.36,2.36,0,0,0-.84,2.91A14.48,14.48,0,0,0,75.54,69Z"/><path class="cls-6" d="M324.71,225c.06.43.14.92.2,1.43a3.91,3.91,0,0,0,.06.91,2.22,2.22,0,0,0,2.44,1.46,2.56,2.56,0,0,0,1.3-2.77,9.55,9.55,0,0,0-.59-1.38c-1.23-1-2.36-.47-3.41.35Z"/><path class="cls-6" d="M133.07,255.22c-.86-1.14-1-3.11-3.08-2.68a2,2,0,0,0-1.53,2,2.61,2.61,0,0,0,1.73,2.4c1.45.32,2.12-.84,2.88-1.73Z"/><path class="cls-6" d="M102.85,275.68a10.71,10.71,0,0,0,.1-2.27c-.24-1.43-1.12-2.05-2.27-1.81a2.32,2.32,0,0,0-1.54,2.75c.43,1.48,1.14,1.91,2.56,1.55.37-.09.75-.15,1.15-.22Z"/><path class="cls-6" d="M180.28,195.42a2.52,2.52,0,0,0-.53,3.27,2,2,0,0,0,2.83.31c1.24-1,1.51-2.42.68-3.37a2.17,2.17,0,0,0-3-.21Z"/><path class="cls-6" d="M210.17,195.56l-3.06.89c.28,1,.6,2,.95,3.18,2,.66,2.47.56,3.24-.78.67-1.14.47-1.71-1.13-3.29Z"/><path class="cls-6" d="M315.09,341.79a3.11,3.11,0,0,0,.58-3.89,2.25,2.25,0,0,0-2.25-.31,2.16,2.16,0,0,0-1.21,2,2.2,2.2,0,0,0,1.29,2.21,3.3,3.3,0,0,0,1.59,0Z"/><path class="cls-6" d="M265.9,211.29a26.93,26.93,0,0,0-.1,3.31,1.79,1.79,0,0,0,1.53,1.58,1.63,1.63,0,0,0,1.33-.44,3.38,3.38,0,0,0-1.05-4.42,5.26,5.26,0,0,0-1.71,0Z"/><path class="cls-6" d="M136.15,76.43c.92,1.18,1.79,1.27,3,.29a2.11,2.11,0,0,0,.21-2.81,2,2,0,0,0-2.9-.56,2.08,2.08,0,0,0-.29,3.08Z"/><path class="cls-6" d="M94.41,42a7.6,7.6,0,0,0-1.76,1.37,1.85,1.85,0,0,0,.49,2.73c.84.7,1.56.63,2.57-.26l.83-.75A3.29,3.29,0,0,0,94.31,42Z"/><path class="cls-6" d="M106.35,183.06c-.36-.24-.7-.5-1.07-.72-1-.58-1.84-.53-2.34.12a1.94,1.94,0,0,0,.25,2.75,3.44,3.44,0,0,0,1.14.7c.82.27,1.74.41,2.28-.45a2,2,0,0,0-.26-2.4Z"/><path class="cls-6" d="M180.93,209.46c1.29-1.53,1-2.89-.3-4.2a3.84,3.84,0,0,0,.5-.79c.16-.54.1-1.13-.57-1.21s-.91.44-.71,1,0,.86-.51,1.08c-1,.43-1.17,1.23-1,2.23a1.88,1.88,0,0,0,1.94,1.74,5.31,5.31,0,0,1,.64.12Z"/><path class="cls-6" d="M152.74,148c-.26-1.28-.06-2.69-1.33-3.22s-1.9.78-2.95,1.3c.21.93.41,1.8.59,2.61,1.47.64,2.55,0,3.69-.69Z"/><path class="cls-6" d="M53.27,191.84a2.12,2.12,0,0,0,.32-3,2.29,2.29,0,0,0-2.81-.3,2,2,0,0,0-.57,2.88,2.05,2.05,0,0,0,3.06.37Z"/><path class="cls-6" d="M335,238.47c-.32.63-.71,1.23-1,1.88a1.79,1.79,0,0,0-.13,1.21c.35.83.78,1.7,1.9,1.69a2.19,2.19,0,0,0,1.79-1.79,2.36,2.36,0,0,0-1.17-2.6,11.28,11.28,0,0,0-1.42-.39Z"/><path class="cls-6" d="M112.68,253.68a4,4,0,0,0,.7-1.13,5.77,5.77,0,0,0,.13-2.22,1.69,1.69,0,0,0-1.69-1.37c-1,0-1.3.75-1.51,1.52-.44,1.54.44,2.71,2.37,3.2Z"/><path class="cls-6" d="M106.54,131c0-.51.07-.95.12-1.4a2,2,0,0,0-1.67-2.33c-.92,0-1.63.79-1.69,1.94s-.06,1.21,1.34,2.42l1.9-.63Z"/><path class="cls-6" d="M203.89,303.44c.68-.21,1.49-.23,1.86-.65a2.35,2.35,0,0,0,.45-2.55,1.67,1.67,0,1,0-3.19,1,17,17,0,0,0,.88,2.23Z"/><path class="cls-6" d="M138.6,152.63c1.1-1.83,1.24-2.76.36-3.55a2.35,2.35,0,0,0-1.67-.57c-.4.07-.87.71-1,1.19-.51,1.5.43,2.64,2.34,2.93Z"/><path class="cls-6" d="M106.08,94a2.33,2.33,0,0,0-.38,3c.51.8,1.33.9,2.34.27a2.26,2.26,0,0,0,.43-2.75,1.72,1.72,0,0,0-2.39-.5Z"/><path class="cls-6" d="M248.8,287.86a3,3,0,0,0-1.4-.39c-.83.12-1,.93-1,1.68a2.26,2.26,0,0,0,1.26,2.23,2,2,0,0,0,1.64-.58c.69-.72.5-1.66-.52-2.94Z"/><path class="cls-6" d="M119.83,123.65c1.42-1,1.78-1.73,1.39-2.78-.28-.75-1.33-1.51-2-1.21a3,3,0,0,0-1.44,1.4c-.37.92.54,1.94,2,2.59Z"/><path class="cls-6" d="M207.87,293.42a2.08,2.08,0,0,0-2.78-.43,2.29,2.29,0,0,0-.2,2.54,2.55,2.55,0,0,0,2.84.45,1.67,1.67,0,0,0,.14-2.56Z"/><path class="cls-6" d="M146.37,93.67c1,.51,1.85,1.19,2.84.17a2.05,2.05,0,0,0,.34-2.46,2,2,0,0,0-2-.83c-1.46.56-1.26,1.78-1.16,3.12Z"/><path class="cls-6" d="M32.14,52.65a1.93,1.93,0,0,0-.55,2.71,2.29,2.29,0,0,0,2.5.45A2.21,2.21,0,0,0,34.58,53a1.82,1.82,0,0,0-2.44-.33Z"/><path class="cls-6" d="M328.42,140.78a6.07,6.07,0,0,0-1,4.21c.11.6.28,1.18,1,1.23s1-.47,1.24-1a4.06,4.06,0,0,0-1.24-4.4Z"/><path class="cls-6" d="M148.23,203.87c.31-1.33-.67-2.17-1.32-3.06a1.17,1.17,0,0,0-1.86.07,2,2,0,0,0,.08,2.81,2.59,2.59,0,0,0,3.1.18Z"/><path class="cls-6" d="M71.37,64.88c.65.83,1.45,1,2.13.4A2,2,0,0,0,74,62.4a1.65,1.65,0,0,0-2.38-.28,1.93,1.93,0,0,0-.21,2.76Z"/><path class="cls-6" d="M249.61,72.35a9.2,9.2,0,0,0-1.24,1.82,7.16,7.16,0,0,0-.5,2.61,1.56,1.56,0,0,0,1,1.16,1.63,1.63,0,0,0,1.27-.93,6.35,6.35,0,0,0,.15-2.46,12.29,12.29,0,0,0-.66-2.2Z"/><path class="cls-6" d="M324.37,295.81a2.12,2.12,0,0,0-2.28,1.7,2.35,2.35,0,0,0,.42,1.92c.62.62,1.47.26,2.11-.29,1.07-.92,1-1.87-.25-3.33Z"/><path class="cls-6" d="M340.12,152.92l-1.63.13a28.24,28.24,0,0,0-.37,3.47,1.78,1.78,0,0,0,.87,1.33c.78.3,1.1-.5,1.36-1.07.6-1.27.23-2.52-.23-3.86Z"/><path class="cls-6" d="M164.68,120.1a15.18,15.18,0,0,0,.15-2,1.67,1.67,0,0,0-1.65-1.6,1.46,1.46,0,0,0-1.53,1.24,1.83,1.83,0,0,0,.85,2.17,1.26,1.26,0,0,0,.54.22c.45,0,.91,0,1.64,0Z"/><path class="cls-6" d="M147,160.8c.77-.82,1.88-1.26,1.51-2.68a1.57,1.57,0,0,0-1.25-1.28,1.65,1.65,0,0,0-2,.77,1.33,1.33,0,0,0,.09,1.76A15.13,15.13,0,0,0,147,160.8Z"/><path class="cls-6" d="M316.05,85.92c.35-1.08.63-2,.93-2.92l.94-.18-2.12-2.46c-1.72,2.41-1.77,4.22.25,5.56Z"/><path class="cls-6" d="M104.48,70.7c1.2-1.54,1.29-2.09.57-3a1.39,1.39,0,0,0-2-.39,3,3,0,0,0-.79,2c0,.9.85,1.35,2.27,1.41Z"/><path class="cls-6" d="M69.87,66.79a5.32,5.32,0,0,0-.4,1.85c.09.64.39,1.44,1.32,1.41,1.36,0,1.88-.4,2.08-1.4a1.86,1.86,0,0,0-1.11-2.16,2,2,0,0,0-1.91.36l0-.06Z"/><path class="cls-6" d="M173.89,288.84a1.83,1.83,0,0,0-.34,2.58,1.62,1.62,0,0,0,2.23.26,2.21,2.21,0,0,0,.39-2.75,1.65,1.65,0,0,0-2.28-.09Z"/><path class="cls-6" d="M159.52,296.27c.51-1.2,1.08-2.42-.27-3.3a2,2,0,0,0-1.76-.13,1.66,1.66,0,0,0-.64,2c.34,1.11,1,1.44,2.67,1.39Z"/><path class="cls-6" d="M206,309.65c.22.79.41,1.6.69,2.38a1,1,0,0,0,1.43.63,1.86,1.86,0,0,0,.94-1.05,2.81,2.81,0,0,0-1.35-3.28l-1.29,1.26-.42.06Z"/><path class="cls-6" d="M220.79,205.07a8.28,8.28,0,0,0-1.24,1.88,6.07,6.07,0,0,0-.26,2.63c.19,1,1.22,1.17,1.89.34a1.55,1.55,0,0,0,.31-.5,5.23,5.23,0,0,0-.7-4.35Z"/><path class="cls-6" d="M104,106.62l1.93.36c1.1-1.4,1.21-2.28.42-3.16a1.37,1.37,0,0,0-1.76-.36c-1,.51-1.16,1.1-.59,3.16Z"/><path class="cls-6" d="M183,174.37a1.62,1.62,0,0,0,.33-2.38,1.78,1.78,0,0,0-2.26-.49,2.06,2.06,0,0,0-.39,2.6,1.45,1.45,0,0,0,2.32.27Z"/><path class="cls-6" d="M324.75,220.37a1.34,1.34,0,0,0-1.95-.44,2.25,2.25,0,0,0-.47,2.93,1.16,1.16,0,0,0,1.79.44,2.45,2.45,0,0,0,.63-2.93Z"/><path class="cls-6" d="M274.14,140.63a23.13,23.13,0,0,0-1.27,2.31,2.37,2.37,0,0,0,.48,2.72,1.23,1.23,0,0,0,1,.09c.94-.57.8-1.57.71-2.47a8,8,0,0,0-.47-1.69,9.17,9.17,0,0,0-.5-1Z"/><path class="cls-6" d="M206.75,162a16.89,16.89,0,0,0-.92,2.28,9.47,9.47,0,0,0-.26,2.64c0,.37.61.69.94,1,.38-.38,1-.71,1.1-1.16a4.08,4.08,0,0,0-.05-1.93c-.16-.87-.47-1.71-.81-2.87Z"/><path class="cls-6" d="M335.27,202.83l-.71-.23-.5-.18c-.21.27-.4.4-.43.55a9.38,9.38,0,0,0-.31,2.26,1.58,1.58,0,0,0,1.56,1.44,1.85,1.85,0,0,0,1.1-2,15.19,15.19,0,0,0-.71-1.82Z"/><path class="cls-6" d="M60,247.05a2,2,0,0,0-.28,2.66,1.9,1.9,0,0,0,2.15.28,2.5,2.5,0,0,0,.25-2.73,1.62,1.62,0,0,0-2.12-.21Z"/><path class="cls-6" d="M251.61,19.48A4.69,4.69,0,0,0,250,23.56c.06.43.51.81.77,1.21.39-.29,1-.5,1.13-.89a6,6,0,0,0,.28-2.27,11.22,11.22,0,0,0-.53-2.13Z"/><path class="cls-6" d="M152.73,167.34c-.13-.61-.22-1.26-.39-1.88a1.36,1.36,0,0,0-1.6-1.1,2.35,2.35,0,0,0-1.23,1.25,1.34,1.34,0,0,0,.76,1.79c.72.33,1.55.82,2.46-.06Z"/><path class="cls-6" d="M243.76,248.15c-.43-.7-.92-.73-1.5-.17-.81.77-1,2.52-.36,3.16a1.11,1.11,0,0,0,1.71-.1,2.17,2.17,0,0,0,.15-2.89Z"/><path class="cls-6" d="M195.89,214.88a1.38,1.38,0,0,0-2-.43,2.09,2.09,0,0,0-.14,2.68,1.73,1.73,0,0,0,2.09.44,2.44,2.44,0,0,0,.07-2.69Z"/><path class="cls-6" d="M79.71,82.44c1.42-1,1.76-1.5,1.33-2.38-.31-.62-.65-1.26-1.6-1.14A1.6,1.6,0,0,0,78,80.27c-.25.87.2,1.43,1.71,2.17Z"/><path class="cls-6" d="M131.4,137.47a1.9,1.9,0,0,0-.19-2.59,1.27,1.27,0,0,0-1.9,0,2,2,0,0,0-.11,2.67,1.39,1.39,0,0,0,2.2-.08Z"/><path class="cls-6" d="M246.36,282.11a2.33,2.33,0,0,0-.1-2.86,1.26,1.26,0,0,0-1.84-.15,2.4,2.4,0,0,0-.14,2.67,1.53,1.53,0,0,0,2.08.34Z"/><path class="cls-6" d="M215.92,231.08a1.92,1.92,0,0,0,.06,2.62,1.23,1.23,0,0,0,1.88.16,1.69,1.69,0,0,0,.12-2.43,1.43,1.43,0,0,0-2.06-.35Z"/><path class="cls-6" d="M263.87,168.28a3.51,3.51,0,0,0-2,3.59,1.45,1.45,0,0,0,.65,1.06c.26.1.84-.24,1.07-.54,1-1.27.68-2.63.26-4.11Z"/><path class="cls-6" d="M70.32,77.74a2,2,0,0,0-.5,2.4c.45.58,1,1.09,1.78.61a1.78,1.78,0,0,0,.58-2.65,1.32,1.32,0,0,0-1.86-.36Z"/><path class="cls-6" d="M345.13,143.24c-1.57.8-2.16,1.67-1.82,2.88a1.63,1.63,0,0,0,.94,1,1.56,1.56,0,0,0,1.18-.72c.54-.86.39-1.92-.3-3.21Z"/><path class="cls-6" d="M126.92,133.55c2,0,2.65-.51,2.46-1.87a1.56,1.56,0,0,0-1.67-1.27c-1.1.16-1.31,1-.79,3.14Z"/><path class="cls-6" d="M67.49,51.5a1.58,1.58,0,0,0-.26,2.37,1.6,1.6,0,0,0,2,.31,1.78,1.78,0,0,0,.32-2.43,1.5,1.5,0,0,0-2.07-.25Z"/><path class="cls-6" d="M140.32,173.22a10.79,10.79,0,0,0,.88-1.16,1.8,1.8,0,0,0-.63-2.4,1.12,1.12,0,0,0-1.68.38,1.58,1.58,0,0,0,.27,2.38,12.94,12.94,0,0,0,1.16.8Z"/><path class="cls-6" d="M137.66,288.89a8.89,8.89,0,0,0,.68-1.82,1.29,1.29,0,0,0-1.25-1.61,1.79,1.79,0,0,0-1.57,1.67c0,.93.48,1.37,2.14,1.76Z"/><path class="cls-6" d="M132.37,297.81c1.58-.83,1.92-1.33,1.61-2.36-.21-.68-.61-1.28-1.34-1a2.24,2.24,0,0,0-1.28,1.17c-.38,1,.21,1.69,1,2.23Z"/><path class="cls-6" d="M221.84,213.49a2.05,2.05,0,0,0-.43,2.31,1.58,1.58,0,0,0,2.11.28,1.73,1.73,0,0,0,.24-2.29,1.46,1.46,0,0,0-1.92-.3Z"/><path class="cls-6" d="M148.65,131.65a2.32,2.32,0,0,0-.23,2.5,1.66,1.66,0,0,0,2.06.17,1.82,1.82,0,0,0,.05-2.46,1.33,1.33,0,0,0-1.88-.21Z"/><path class="cls-6" d="M128.15,157.14c1.09-.56,1.63-1.29,1.24-2.43a1.23,1.23,0,0,0-1.5-.93,1.81,1.81,0,0,0-1.1.94c-.35.89.18,1.74,1.36,2.42Z"/><path class="cls-6" d="M324.28,329a1.44,1.44,0,0,0,1.92.09,2,2,0,0,0,.21-2.33,1.4,1.4,0,0,0-2.05-.05,2,2,0,0,0-.08,2.29Z"/><path class="cls-6" d="M96.29,53.05a1.79,1.79,0,0,0-.46,2.24,1.51,1.51,0,0,0,2.07.37,1.78,1.78,0,0,0,.29-2.28,1.43,1.43,0,0,0-1.9-.33Z"/><path class="cls-6" d="M307.82,334.59c-1.22.24-1.87.91-1.77,2a1.62,1.62,0,0,0,.9,1.06,1.2,1.2,0,0,0,1.59-.73,1.62,1.62,0,0,0-.72-2.35Z"/><path class="cls-6" d="M180,135.7a1.43,1.43,0,0,0-.29,2.05,1.58,1.58,0,0,0,2.18.5,1.8,1.8,0,0,0,.13-2.14,1.46,1.46,0,0,0-2-.41Z"/><path class="cls-6" d="M181.51,212.31c-1.08,0-1.72.39-1.82,1.42s.33,1.55,1.75,2.07c1.05-1.51,1.06-1.59.07-3.49Z"/><path class="cls-6" d="M239.54,95.33c2-.37,2.63-1.21,2.63-3.69-2.38,1.08-3,2-2.63,3.69Z"/><path class="cls-6" d="M189.34,209.31l1.9-1.08a7.53,7.53,0,0,0-.53-1.75c-.22-.36-.91-.81-1.13-.7-.43.22-1,.8-1,1.22a8.58,8.58,0,0,0,.72,2.31Z"/><path class="cls-6" d="M80.7,88.76c1-.21,1.89.06,2.09-1.08a1.58,1.58,0,0,0-.71-1.86,1.16,1.16,0,0,0-1.56.33c-.92.95,0,1.64.18,2.61Z"/><path class="cls-6" d="M277.46,146.75a16.31,16.31,0,0,0-1,2.65c-.19,1,.43,1.82,1.07,1.74.9-.12,1.14-.84,1.06-1.58-.11-.93-.37-1.83-.57-2.75l-.57-.06Z"/><path class="cls-6" d="M111.85,143.41a1.9,1.9,0,0,0-.49,2.37,1.29,1.29,0,0,0,1.85.23,1.38,1.38,0,0,0,.25-2.19,1.2,1.2,0,0,0-1.61-.41Z"/><path class="cls-6" d="M221.61,291.81c-.53-.1-1.05-.35-1.43-.22s-.45.69-.59,1.09a2.91,2.91,0,0,0,0,.78,1.3,1.3,0,0,0,1.36,1.36c.86.06,1.05-.65,1-1.36a13.27,13.27,0,0,0-.33-1.65Z"/><path class="cls-6" d="M107.77,166.33c.29-.56.57-1,.75-1.44a1.21,1.21,0,0,0-.79-1.71,1.51,1.51,0,0,0-1.29.41,1.41,1.41,0,0,0-.08,1.94,5.57,5.57,0,0,0,1.41.8Z"/><path class="cls-6" d="M106.27,157c.65-.73,1.41-1.46.7-2.5a1.43,1.43,0,0,0-1.25-.52,1.84,1.84,0,0,0-1,1.17c-.15,1.05.45,1.68,1.57,1.85Z"/><path class="cls-6" d="M288.5,297.34c.41.61.94.91,1.63.49a2.11,2.11,0,0,0,.43-2.28,1.49,1.49,0,0,0-1.91-.3,1.6,1.6,0,0,0-.15,2.09Z"/><path class="cls-6" d="M159.84,223c1.25-1.51,1.34-2.31.45-3a1.18,1.18,0,0,0-1.79.39c-.58.92-.1,1.91,1.34,2.63Z"/><path class="cls-6" d="M85.38,49.57c-.52.42-.7,1.79-.14,2a3,3,0,0,0,2,.09c.57-.18.59-1.54.15-2.08a1.61,1.61,0,0,0-2-.06Z"/><path class="cls-6" d="M262.75,60.13c-1.55,3.18-1.54,3.79.07,4.83,1.13-1.61.58-3.13-.07-4.83Z"/><path class="cls-6" d="M153,233a1.34,1.34,0,0,0,1.82-1.16,1.29,1.29,0,0,0-.75-1.59,1.54,1.54,0,0,0-1.23.19c-.63.46-.53,1.34.16,2.56Z"/><path class="cls-6" d="M212.74,297a13.37,13.37,0,0,0-.37,1.66c-.06.7.17,1.39,1,1.41a1.64,1.64,0,0,0,1.21-.65,1.35,1.35,0,0,0-.28-1.91,6,6,0,0,0-1.53-.51Z"/><path class="cls-6" d="M196.67,341.72c-1.69.24-2.26.85-2,2a1.21,1.21,0,0,0,1.66.9c1-.35,1.06-1.13.31-2.94Z"/><path class="cls-6" d="M103.17,81a1.81,1.81,0,0,0-.38,2.29,1.34,1.34,0,0,0,1.78.17c.61-.3.71-1.38.27-2.07a1.18,1.18,0,0,0-1.67-.39Z"/><path class="cls-6" d="M178.37,288.33a1.5,1.5,0,0,0-.22,2.22,1.15,1.15,0,0,0,1.65.48c.57-.35.6-1.77.07-2.46a1,1,0,0,0-1.5-.24Z"/><path class="cls-6" d="M264.09,279.83a2.5,2.5,0,0,0,.65-2.86,1,1,0,0,0-.81-.27,2.06,2.06,0,0,0-1,2.56c.24.35.85.43,1.16.57Z"/><path class="cls-6" d="M358.14,149.52c-.73,1.28-1.42,2.38-.43,3.74,1,.05,1.29-.61,1.32-1.32s.55-1.85-.89-2.42Z"/><path class="cls-6" d="M158.69,71.51A2.27,2.27,0,0,0,157,74c0,.39.82.57,1.88.53.6-1.36.6-1.36-.15-3Z"/><path class="cls-6" d="M264.2,298.23a3,3,0,0,0-3.28.26,1.1,1.1,0,0,0-.4,1,1.17,1.17,0,0,0,.87.59c1.26.12,2-.64,2.81-1.81Z"/><path class="cls-6" d="M142.89,58.79c.1,1.15.6,1.81,1.6,1.74a1.41,1.41,0,0,0,1-.94,1.93,1.93,0,0,0-.62-1.48c-.83-.65-1.38.1-2,.68Z"/><path class="cls-6" d="M289.94,337.3c1.81,1.39,2.89-.41,4.51-.92-3.7-.51-3.7-.51-4.51.92Z"/><path class="cls-6" d="M68,88.64a3.65,3.65,0,0,0,1.38-.07,1.33,1.33,0,0,0,.4-2,1,1,0,0,0-1.49-.29A1.86,1.86,0,0,0,68,88.64Z"/><path class="cls-6" d="M325.33,310a3.26,3.26,0,0,0,1.36,0c.67-.25.74-1.36.26-2s-1-.45-1.53-.14a1.5,1.5,0,0,0-.09,2.18Z"/><path class="cls-6" d="M214.37,183.62c.91-1.36.77-2-.76-3.62-.76,1.63-.6,2.41.76,3.62Z"/><path class="cls-6" d="M111.11,158.11c.32-.8.85-1.58-.11-2.13a1.31,1.31,0,0,0-1.21,0,1.88,1.88,0,0,0-.44,1.39c.18.87.86,1.06,1.76.72Z"/><path class="cls-6" d="M90.64,270.24a1.49,1.49,0,0,0-.6,2.07,1,1,0,0,0,1.55.1,1,1,0,0,0,.26-1.51,3.93,3.93,0,0,0-1.21-.66Z"/><path class="cls-6" d="M37.08,81.57c.25.89-.42,2,1,2.27A.93.93,0,0,0,39.24,83c0-1.18-1-1.27-2.16-1.38Z"/><path class="cls-6" d="M337.33,340.61c-1.27-.23-1.9.22-2.12,1a1,1,0,0,0,1.7.87,6.14,6.14,0,0,0,.42-1.91Z"/><path class="cls-6" d="M383.93,298.7c-.25.06-.41,0-.49.12-.74.7-.91,1.66-.31,2.16a1.08,1.08,0,0,0,1,.09,1.3,1.3,0,0,0,.13-2,3.54,3.54,0,0,0-.34-.34Z"/><path class="cls-6" d="M267.73,154.63c1.46-.89,1.06-2.14.81-3.44-1.51,1.39-1.66,2-.81,3.44Z"/><path class="cls-6" d="M223,203.86c.8-1.58.8-1.58-.28-3.21-1.09,1.63-1.07,2,.28,3.21Z"/><path class="cls-6" d="M95.56,24.63c1.06.52,2,1,3,.53a1.27,1.27,0,0,0,.54-.87c0-.14-.49-.53-.69-.49-1,.22-1.9.55-2.85.83Z"/><path class="cls-6" d="M169.5,264.22c-1.25,1.32-1.25,1.32-.14,2.92.36-.47.95-.88.94-1.29s-.48-1-.8-1.63Z"/><path class="cls-6" d="M237.15,271.42c-.81.85-1.33,1.53-.56,2.35a.81.81,0,0,0,1.33-.2,1.49,1.49,0,0,0,.25-1.09c-.12-.35-.56-.6-1-1.06Z"/><path class="cls-6" d="M66.88,91.85A8.52,8.52,0,0,0,67,94c.08.22.8.43,1.07.31a1,1,0,0,0,.37-1.61c-.24-.32-.76-.42-1.59-.84Z"/><path class="cls-6" d="M105.62,159.82c-.7,0-1.36-.07-1.45.11a5.08,5.08,0,0,0-.29,1.55c.45.06,1.18.31,1.32.12a4.72,4.72,0,0,0,.42-1.78Z"/><path class="cls-6" d="M322,212a22.64,22.64,0,0,0-.6,2.25c0,.17.37.56.59.58a.93.93,0,0,0,.73-.45,2.06,2.06,0,0,0-.17-2.28L322,212Z"/><path class="cls-6" d="M378.25,220.44a16.74,16.74,0,0,0-1.79,1.43c-.19.19-.07.68-.1,1,.41,0,1,.12,1.18-.08a15.21,15.21,0,0,0,1.11-2.12l-.4-.27Z"/><path class="cls-6" d="M151.81,8.62c-.52-1.51-1.6-1.77-3.05-1.79.75,1.22,1.43,2.19,3.05,1.79Z"/><path class="cls-6" d="M381.53,315.07a6,6,0,0,0-1.82.22.74.74,0,0,0-.12,1.3,1.23,1.23,0,0,0,1.15.12c.31-.24.4-.78.79-1.64Z"/><path class="cls-6" d="M329.37,321.6a5.91,5.91,0,0,0-1.27,1.16c-.15.25.14.76.24,1.16.4-.12,1-.13,1.16-.4a5,5,0,0,0,.41-1.59l-.54-.33Z"/><path class="cls-6" d="M70.25,154.78a6.62,6.62,0,0,0,.13,1.79,1.2,1.2,0,0,0,1.08.12.94.94,0,0,0,0-1.5c-.22-.21-.63-.22-1.25-.41Z"/><path class="cls-6" d="M228.59,205.75c0,.79-.1,1.59-.08,2.38,0,.16.39.46.54.42a1,1,0,0,0,.68-.51c.26-.87-.08-1.62-1.14-2.29Z"/><path class="cls-6" d="M151.85,222.46c1.12-.43,1.22-1.07.69-1.87a.66.66,0,0,0-1.13-.11c-.66.78-.31,1.39.44,2Z"/><path class="cls-6" d="M157.22,248.27a6,6,0,0,0,0,1.91,1.14,1.14,0,0,0,1.08.38,1,1,0,0,0,.26-1.51c-.17-.29-.64-.39-1.33-.78Z"/><path class="cls-6" d="M229.94,280.91c.7,0,1.16.12,1.48,0a.85.85,0,0,0,.22-1.45c-.22-.24-1-.37-1.12-.24a6.63,6.63,0,0,0-.58,1.73Z"/><path class="cls-6" d="M138.78,111.23c.4-.91.55-1.69-.48-2-.24-.07-.85.37-.93.66-.26,1,.4,1.32,1.41,1.33Z"/><path class="cls-6" d="M50.84,45.35c.07.74,0,1.36.18,1.48a1.74,1.74,0,0,0,1.31.07,1.26,1.26,0,0,0,.07-1.1c-.28-.27-.83-.26-1.56-.45Z"/><path class="cls-6" d="M265.05,30.47c-.11.54-.19,1.09-.32,1.62-.2.84-.19.92.55,1.88a2.7,2.7,0,0,0-.27-3.49Z"/><path class="cls-6" d="M327.92,338.85c-.65,0-1.24-.09-1.29,0a4.58,4.58,0,0,0-.21,1.52c0,.06.85.24.92.13a9,9,0,0,0,.58-1.67Z"/><path class="cls-6" d="M125,114.12c.73-.09,1.31,0,1.46-.21a3.48,3.48,0,0,0,.25-1.34c-.41,0-1-.25-1.2-.06s-.29.84-.51,1.61Z"/><path class="cls-6" d="M77.19,264.27c0,.71-.14,1.39,0,1.5a1.89,1.89,0,0,0,1.35.07c.14,0,.28-.87.13-1a5.27,5.27,0,0,0-1.53-.58Z"/><path class="cls-6" d="M243.05,340.84c.08-.61.32-1.13.15-1.4s-.74-.19-1.14-.26a2.93,2.93,0,0,0-.12,1.19c.06.2.59.26,1.11.47Z"/><path class="cls-6" d="M257.87,33.24c1-1,.47-1.82.3-3a2.55,2.55,0,0,0-.3,3Z"/><path class="cls-6" d="M228.61,333c-.44-.75-.78-1.34-1.28-2.22-.3,1.9-.3,1.9,1.28,2.22Z"/><path class="cls-6" d="M287.23,297.58l-1.69,1.57c1.39.83,1.47.77,1.69-1.57Z"/><path class="cls-6" d="M42.63,198.47c.82.27,1.32,0,1.37-.83a.84.84,0,0,0-.58-.55c-.91,0-1,.65-.79,1.38Z"/><path class="cls-6" d="M188,89.9c-.37-1.25-1.16-1.23-2.21-1.05A1.78,1.78,0,0,0,188,89.9Z"/><path class="cls-6" d="M182.81,71l1.86-1.43c-.08-.09-.15-.19-.22-.28l-1.84,1.41a3.13,3.13,0,0,1,.2.3Z"/><path class="cls-6" d="M154.89,149.61c.49-.69.7-1.26-.07-1.69a.7.7,0,0,0-.66.21c-.49.72-.13,1.16.73,1.48Z"/><path class="cls-6" d="M29.41,78.13c.27-.74.35-1.31-.47-1.45a.84.84,0,0,0-.7.46c-.11.75.34,1,1.17,1Z"/><path class="cls-6" d="M48.45,237.21c-.05.56-.18,1.06-.08,1.1a4.46,4.46,0,0,0,1.17.29c.07-.29.27-.74.16-.83a5.14,5.14,0,0,0-1.25-.56Z"/><path class="cls-6" d="M189.61,327.63c.54.78,1.08.84,1.61.22.12-.16.08-.71-.06-.79-.74-.47-1.12.07-1.55.57Z"/><path class="cls-6" d="M166.91,250.16c.47-.93,1-1.85,1.43-2.77l-.28-.18c-.54.9-1.1,1.79-1.64,2.68l.49.27Z"/><path class="cls-6" d="M257.19,297.65c-.35-.22-.7-.44-1-.67l-.45.92,1.28.25.21-.5Z"/><path class="cls-6" d="M245.25,161.2c1.06-.67.94-1.42.65-2.43-.67.74-1.21,1.3-.65,2.43Z"/><path class="cls-6" d="M108.61,211.84c0,.57,0,1,0,1.34.28,0,.72.12.81,0a1.49,1.49,0,0,0,.22-1c0-.12-.49-.18-1-.34Z"/><path class="cls-6" d="M175.47,229.54c-.23.5-.45,1-.83,1.8,1.33-.33,1.46-.89,1.29-1.62l-.46-.18Z"/><path class="cls-6" d="M275.65,209.35c-.66.88-.83,1.5,0,2.21.91-.66.61-1.28,0-2.21Z"/><path class="cls-6" d="M180.09,74.81a2.06,2.06,0,0,0-2.16.47,1.74,1.74,0,0,0,2.16-.47Z"/><path class="cls-6" d="M108.27,81.89c-.42,0-.81-.13-.94,0a.87.87,0,0,0-.1.81.76.76,0,0,0,.75.15c.18-.14.18-.53.29-1Z"/><path class="cls-6" d="M390.82,274.42c-.46.51-.54,1,.51,1.5,0-.63,0-1.06,0-1.49Z"/><path class="cls-6" d="M213.08,277.11c.13.46.26.93.48,1.74.64-1,.77-1.51,0-1.91l-.5.17Z"/><path class="cls-6" d="M168.87,39.68l1.74,1.07c-.31-1.3-1.05-1.22-1.74-1.07Z"/><path class="cls-6" d="M70.41,75.37v1.2c.29,0,.69.08.85-.07a.9.9,0,0,0,.09-.83c-.07-.16-.49-.17-.94-.3Z"/><path class="cls-6" d="M189.92,238.58l1.18.92c.1-.33.24-.61.2-.63a13,13,0,0,0-1.12-.69l-.26.4Z"/><path class="cls-6" d="M260.7,74.05c-.12.52-.23,1-.44,1.94,1.21-.71,1-1.3.44-1.94Z"/><path class="cls-6" d="M292.67,225.09c.16-.48.32-1,.57-1.7-1.06.73-1.06.73-1,1.59l.41.11Z"/><path class="cls-6" d="M43,68.3c-.47,0-.91,0-1,.14a2.82,2.82,0,0,0-.16,1c.28,0,.72.14.81,0A3.57,3.57,0,0,0,43,68.3Z"/><path class="cls-6" d="M235.54,233.69c-.19-.87-.31-1.41-.43-1.94-.67.7-.75,1.28.43,1.94Z"/><path class="cls-6" d="M237.88,243.42c.43,0,.81.79,1.31.05.05-.06.66.36,1,.35s.8-.5.87-.44c.7.69,1.15.11,1.33-.37a8.74,8.74,0,0,0,.85-4.57,2.6,2.6,0,0,0-1.81-2.31c-1-.31-1.59.1-2.53,1.29a5.11,5.11,0,0,0-1.05,3.47l0,2.53Z"/><path class="cls-6" d="M210.2,173a4.81,4.81,0,0,1-.17-1.89c.46-1.36-.21-2.28-1-3.17a2.08,2.08,0,0,0-3.77.73c-.25.71-.39,1.47-.58,2.19.41,1.45.83,2.94,1.32,4.65l.56-.82c1.83.5,1.87.48,2.82-1.2a1.76,1.76,0,0,1,.49-.49c.08-.06.25,0,.3,0Z"/><path class="cls-6" d="M202.86,160.32c1-.5.88,1,2,.64,2-.58,3-3.17,1.66-4.69-.34-.37-1.13-.73-1.48-.58a3.27,3.27,0,0,0-1.61,1.5,13.61,13.61,0,0,0-.57,3.13Z"/><path class="cls-6" d="M223.82,182.16a8.28,8.28,0,0,0,1.24-1.88,5.89,5.89,0,0,0,.26-2.63c-.19-1-1.21-1.17-1.89-.33a1.38,1.38,0,0,0-.3.49,5.18,5.18,0,0,0,.69,4.35Z"/><path class="cls-6" d="M216,181.48c0-.79.11-1.59.08-2.38,0-.15-.39-.45-.54-.42a1,1,0,0,0-.68.51c-.25.87.08,1.62,1.14,2.29Z"/><path class="cls-6" d="M209.08,153.54l.43,2c.67-.71.75-1.29-.43-2Z"/><path class="cls-6" d="M193.13,193l-.92,1.12c1.08.2,1.25-.25,1.3-.83l-.38-.29Z"/><path class="cls-6" d="M364,199.91c-.09.46-.19.92-.29,1.38l.24.05c.1-.46.19-.93.29-1.39l-.24,0Z"/><path class="cls-6" d="M203.26,114.67l-1.73-.62c.35,1.12.87,1.29,1.58,1.12l.15-.5Z"/><path class="cls-6" d="M86.8,279.45c.43,0,.83.17,1,0a.83.83,0,0,0,.12-.81.85.85,0,0,0-.8-.19c-.18.1-.18.52-.29,1Z"/><path class="cls-6" d="M59.55,302l-1.08,0a2.41,2.41,0,0,0,.05.86.67.67,0,0,0,.65.12,3,3,0,0,0,.38-.94Z"/><path class="cls-6" d="M164.5,111.27c-.19.65-.38,1.3-.62,2.17.86-.88.86-.88.62-2.17Z"/><path class="cls-6" d="M69.85,66.85c0-.06.07-.14,0-.18-.19-.33-.4-.65-.61-1-.18.22-.55.47-.52.64.13.6.53.83,1.11.45l0,.06Z"/><path class="cls-6" d="M269.61,314.26l-.77,2.27c.65-.71.65-.71.77-2.27Z"/><path class="cls-6" d="M249.06,316.82c.49,0,1,.05,1,0a2.73,2.73,0,0,0,0-1s-.56-.12-.64,0a4.51,4.51,0,0,0-.4,1.08Z"/><path class="cls-6" d="M193.31,110.64c-.15-1.07-.79-.91-1.51-.91.24.92.86.81,1.51.91Z"/><path class="cls-6" d="M287.69,321.17c-.86-.07-1.25.14-1.25.78,0,.12.22.33.36.34.74.07.72-.48.89-1.12Z"/><path class="cls-6" d="M249.33,270.24c.53-.13,1-.3.78-1a.68.68,0,0,0-.6-.26c-.58.3-.64.75-.18,1.27Z"/><path class="cls-6" d="M257.05,324.83c.23-.56.46-1.11.75-1.79-.91.56-.91.56-.75,1.79Z"/><path class="cls-6" d="M176.65,120.34c-.18-.52-.37-1-.55-1.55l-.41.15c.19.51.38,1,.56,1.54l.4-.14Z"/><path class="cls-6" d="M56.66,253.8c0,.41-.16.77-.07.84a1.22,1.22,0,0,0,.8.18c.07,0,.24-.51.14-.61s-.46-.24-.87-.41Z"/><path class="cls-6" d="M185.05,260.58c-.08.15-.23.3-.23.44,0,.49.1,1,.16,1.46l.39-.05c-.13-.62-.25-1.23-.39-1.85Z"/><path class="cls-6" d="M106.21,160.7c.13.34.24.69.4,1,0,0,.48-.12.47-.17a7.31,7.31,0,0,0-.19-1l-.68.18Z"/><path class="cls-6" d="M165.44,157.76c0,.47,0,.94-.06,1.79l1-1.33-1-.46Z"/><path class="cls-6" d="M281.84,341.9l.07,1c.28,0,.68,0,.78-.12s0-.56-.09-.79-.4-.05-.76-.08Z"/><path class="cls-6" d="M152.69,283.34a3.73,3.73,0,0,0,0,1c0,.06.59.09.63,0a1.25,1.25,0,0,0,.06-.81c0-.1-.4-.11-.73-.18Z"/><path class="cls-6" d="M117.81,203.79l-1,.86.06.08,1.17-.8-.23-.14Z"/><path class="cls-6" d="M79.42,167.28c-.38,0-.66-.14-.8,0a.61.61,0,0,0-.16.59.69.69,0,0,0,.63.2c.15-.06.18-.39.33-.75Z"/><path class="cls-6" d="M215.55,170.06c.08-.41.16-.81.28-1.45-1,.37-1,.81-.75,1.35l.47.1Z"/><path class="cls-6" d="M147.39,228.82c-.89.21-1.09.5-.73,1,.05.08.31.12.32.12.13-.32.24-.65.41-1.13Z"/><path class="cls-6" d="M382.39,314.31c0-.36.1-.72,0-.79a1.25,1.25,0,0,0-.81-.16c-.07,0-.21.55-.14.6a4.17,4.17,0,0,0,.95.35Z"/><path class="cls-6" d="M412.39,248.18l-.78.52.48.5.54-.78-.24-.24Z"/><path class="cls-6" d="M341.28,183.3c0,.27,0,.54,0,.8a2.09,2.09,0,0,0,.25,0l0-.8Z"/><path class="cls-6" d="M214.45,268.19a2.33,2.33,0,0,0,.06.75c0,.09.31.07.48.11a2.12,2.12,0,0,0,.07-.65c0-.08-.3-.11-.61-.21Z"/><path class="cls-6" d="M48.07,266.47c-.14.31-.28.62-.39.93,0,0,.24.19.26.17a10.33,10.33,0,0,0,.7-.77l-.57-.33Z"/><path class="cls-6" d="M251.57,256.18l-.65-.45c-.09.13-.16.27-.24.4l.72.35c.06-.1.12-.2.17-.3Z"/><path class="cls-6" d="M208.73,249l-.81-.64a2.31,2.31,0,0,0-.2.24l.79.66a2.75,2.75,0,0,0,.22-.26Z"/><path class="cls-6" d="M289.1,272.85a9.27,9.27,0,0,0,.14.92.74.74,0,0,0,.33,0c0-.32.06-.64.09-.95l-.56,0Z"/><path class="cls-6" d="M250.76,90.1l-.55,1.77c1.1-.55,1-1.11.55-1.77Z"/><path class="cls-6" d="M263.26,55c.08-.3.16-.59.22-.9l-.32-.1c-.08.31-.16.61-.23.91l.33.09Z"/><path class="cls-6" d="M77.26,232.09c.08.4,0,.7.18.81s.41,0,.63,0c0-.17.07-.42,0-.5a2.7,2.7,0,0,0-.8-.35Z"/><path class="cls-6" d="M265,30.48c.53-.35,1.06-.7.55-1.33l-.7-.12c.07.48.13,1,.2,1.44Z"/><path class="cls-6" d="M153.23,65.23l.78-.76-.09-.13-1,.58c.09.1.19.2.28.31Z"/><path class="cls-6" d="M258.65,93.17c.38.42.71,1.11,1.14,1.19.59.1,1.27-.26,3-.72l-3.49-1.33c-.23.29-.46.58-.7.86Z"/><path class="cls-6" d="M211.66,78.59a4.6,4.6,0,0,0-1.49,0c-1.46.27-2.09,1.29-1.48,3l4,1.3a2.32,2.32,0,0,0,.47-3.38,1.33,1.33,0,0,0,.28-.1c.34-.16.5-.73,1-1.55-1.51.11-2.23,0-2.66.27-.1.07-.13.24-.13.46Z"/><path class="cls-6" d="M395.32,144.3c-.31.08-.72-.22-1.24-.41.27-.47.42-1,.67-1.06a1.13,1.13,0,0,1,1,.53,1,1,0,0,1-.4.94Zm25.28-37.38a4.06,4.06,0,0,0-2.56-2.1c-.61-.14-1.9.89-2.24,1.68-1.21,2.82-2.15,5.76-3.4,9.22L407.84,112c-1.4.82-2.61,2.05-3.93,2.19-2.73.3-3.54,1.57-3.65,4.15-.14,3.19-1.4,4.2-4.57,4.16-2.54,0-5.07-.24-8-.38,1.62,3.53-2.87,1.38-3.12,3.79a25.47,25.47,0,0,1,2.81,3.19,2.76,2.76,0,0,1,.12,2.45,2.84,2.84,0,0,1-2.31.64c-1.69-.23-3.34-.74-5-1.14l1.71,1.56-3.83,3.59,3.7,3.84L379,144.91l3.77,1.53c.75,3.31.75,3.31,3.84,4.14,1.06-3.88.37-7.52-1.41-11.62l4.25.31c.11,1.87-.32,4,.33,4.41,3.63,2.32,1.27,4-.22,6-.24.32-.19.87-.3,1.47l3.36,2.65-8.78,3.58c1.15.67,2.17,1.77,3.06,1.67,1.77-.19,3.47-1,5.57-1.73.54,1.53,1.11,3.13,1.65,4.67l-1.45,1.56,3.05,5.89-14.34,4.22c0,.65.08,1.43.13,2.23a5.42,5.42,0,0,1,5.31-1c2.56.92,4.78-.29,6.76-1.7,3.77-2.67,5.23-7.24,8.35-10.49a3.9,3.9,0,0,0,.63-2.15c.54-4.91,1-9.82,1.56-14.84,2.84.2,2.41-2.95,4-4.06a2.84,2.84,0,0,0,1-4c-1.15-2-.19-3.64.93-5.35-2.49-.76-4.19-1.84-4-4.52,2.52-2.52,4.65-5.22,8.39-6.54,4.76-1.68,7.86-9.72,6.1-14.29Z"/><path class="cls-6" d="M365.75,142.52c-1.24,2-3.31.53-4.63,1.55,3,4,6.93,4,12.13.06-.84-.81-1.56-2.09-2.4-2.18-1.73-.19-4.54-.35-5.1.57Z"/><path class="cls-6" d="M376.38,137.61,376,132.1l-5.76,1.08c.95,4.26,1.55,4.68,6.14,4.43Z"/><path class="cls-6" d="M368,161c3.27,0,6.41-.37,9.37-2.4L364.52,158c.25,1.78,1.2,2.92,3.46,2.93Z"/><path class="cls-6" d="M359.51,166.12c.68,1.16,1.22,2.48,3.17,1.3-.57-3.51-2.76-5.79-5.63-7.4-.66-.37-1.94.38-2.93.61.09.35.18.71.28,1.07,3.18,1.17,3.2,1.16,5.11,4.42Z"/><path class="cls-6" d="M381.44,176l.11,0h0c0-.07,0-.13,0-.19l-.15.11,0,0Z"/><path class="cls-6" d="M383,180.13c.19-2.36.19-2.39-1.55-4.12l-7.27-2.1c2.39,4.09,5.39,5.38,8.82,6.22Z"/><path class="cls-6" d="M381.94,164.85c4.53-.65,4.53-.65,6.2-2.12-4.9-1.22-6-.85-6.2,2.12Z"/><path class="cls-6" d="M378.81,164.06c-2.84-2.37-4.79.25-7,1.31,2.11-1,5.19,2.29,7-1.31Z"/><path class="cls-6" d="M370.92,153.19c.18-.65-.76-1.61-1.5-3l-2.82,4.33c2.41.76,3.84.41,4.32-1.33Z"/><path class="cls-6" d="M73.16,313.81c-.09,1.63-.16,2.93-.23,4.23,2.74-2.57,2.74-2.57.23-4.23Z"/><path class="cls-6" d="M87.94,338.58c.65-2.33,1.06-3.78,1.46-5.23l-1.17-.4c-1.78,1.27-1.47,2.89-.29,5.63Z"/><path class="cls-6" d="M395.25,183.41c-.27-.07-.79.89-1.54,1.81a11.46,11.46,0,0,0,2.66.66c.29,0,.87-1.13.8-1.19a4.71,4.71,0,0,0-1.92-1.28Z"/><path class="cls-6" d="M368.46,165l-2.63-.56c-.08.42-.16.85-.25,1.27l2.75.21c.05-.31.09-.62.13-.92Z"/><path class="cls-6" d="M47.85,259.52a9.27,9.27,0,0,0,.57,1.58,6.64,6.64,0,0,0,1,1.14l.32-.34-1.4-2.61-.54.23Z"/><path class="cls-6" d="M113.11,315.31c-.14-.28-.67-.38-1-.56-.21.44-.42.89-.64,1.33l1.21.39c.21-.47.58-.93.47-1.16Z"/><path class="cls-6" d="M381.87,157.87a10.94,10.94,0,0,0-1.51.1l.18.9,1.5-.31c-.06-.24-.11-.69-.17-.69Z"/><path class="cls-6" d="M361.47,288.26a3.27,3.27,0,0,1,.59.76c-.49.06-.82.18-1,.08s-.15-.48-.12-.73a.72.72,0,0,1,.55-.11Zm-51.64,5.95c.88.23,1.76.42,2.65.61.37,1.16.73,2.32,1.16,3.66-2.49-1.33-3.7-2.54-3.81-4.27Zm-11.27-5.88c1.05.65,2.09,1.32,3.14,2q-.06.44-.12.93l-3-2.91Zm-4,13.28a6.41,6.41,0,0,1,0,1.24c0,.08-.49.09-.9.15a5.51,5.51,0,0,1,.15-1.26c0-.12.49-.09.76-.13Zm-1.79,8.94-1.12-.09c-.72-.3-1.16-.29-1.44-.11l-1.47-.12c-.57-1.5-.89-2.33-.79-2.88l.1.06a3.65,3.65,0,0,0,.47-.82,11.23,11.23,0,0,1,1.87-.82c.8,1.24,1.64,2.5,2.42,3.81.12.21,0,.58,0,1Zm-2.94,9.19.08-.07c0,.1.07.19.1.29l-.18-.22Zm-7.14,40.51a61.69,61.69,0,0,0-3.92-5.3,19.1,19.1,0,0,1-5.09-11.27s0,0,0,0L275,345a3.61,3.61,0,0,0,2.39,1.13,53.68,53.68,0,0,0,5.49-.64c.24.58.6,1.12.86,1.64-1.94,2.18-3.65,4.2-2.35,6.63,2.07,1.8,3.23-2.16,4.93-.14l-3.56,6.62Zm-6.51,2.18c-2.54-1.24-3.57-2.5-2.77-3.62,1.23-1.71,2.91-1.45,4.91-.5l-2.14,4.12ZM246.8,318.54a17.94,17.94,0,0,1-1.28-2.12c-1.31,3.47-1.31,3.44-4.89,3a29.52,29.52,0,0,0-3.83,0,5.25,5.25,0,0,0,2.69-5.54c-.2-1.85,1.09-2.38,2.71-1.38,2.45,1.52,2.87,1.77,3.89-.22a5.88,5.88,0,0,0,1.14,1.27,50.85,50.85,0,0,1,5.23,4.92l-.2.2c-1.86,1.87-3.82,1.87-5.46-.15ZM249.25,349l-.54.68-1.62-1.43.31-.41,1.85,1.16Zm-4.78-4.43c-2.46-1.79-.62-3.61-.64-5.49L242.12,338c1.8-2,1.8-2,4-.52-1.4,2,.22,4.81-1.62,7.1Zm-11-46.78-.56-.57,1.51-1.64c.25.27.5.53.76.79l-1.71,1.42Zm-34.38,59.36a30.45,30.45,0,0,0-2.59-3.1,3.36,3.36,0,0,0-2.42-1,2.89,2.89,0,0,0,.58-1.17c.24-.76.55-1.53.74-2.3a8.11,8.11,0,0,0,2.37.27,2.84,2.84,0,0,0,2.42,1.89c.09,1.71-1.52,3.4-1.1,5.41Zm0,4.87c-.07-.22.22-.55.35-.83.19.14.49.24.55.43a5,5,0,0,1,.06,1.23c-.49-.4-.88-.57-1-.83Zm-7.6-6.25a18.57,18.57,0,0,1-.68,1.84l-.65,0c-.25-1.12-.51-2.24-.8-3.51l-2.65-.13c.09-1.21.16-2.32.25-3.74a6.81,6.81,0,0,1,1.91.91,5.42,5.42,0,0,1,.76,1.7c1.77-.68,1.39-3.07,3.16-3.12.38,1.23.72,2.31,1.06,3.39a3.18,3.18,0,0,0-2.36,2.7Zm-9.56-4.54-.52-.29c0-1.12,0-2.25,0-3.48A5,5,0,0,0,183,349c-.37.76-.73,1.52-1.09,2.28Zm-7.17,2.64c-.59-1.15.79-3.09-1.71-3.27.48-.9.79-1.48,1.14-2.12,2.44,3,2.44,3,.57,5.39Zm-2.35-41.51c0-1,0-1.74,0-2.68l.28-.25c.69,1.06.68,1.79-.27,2.93ZM155.51,353.3c-.51-1.79-.51-1.79.89-3-.27.93-.55,1.85-.89,3Zm-41.77-30.87c0-.08,0-.15,0-.23l-2.86-.51-3.46-9.78c2.64-2.11,5.52-2.26,8.8-3.19-.79,1.53-1.27,2.48-1.8,3.51a4.66,4.66,0,0,0,.47.3c-.34.5-.68,1-1,1.53.28,1.6.94,3.63-.81,5.56l2.76.26c-.48,1-1.5,1.7-2,2.55Zm1.15,4.88c0-.19-.1-.38-.14-.58l.58.09-.44.49Zm-12.67-23.75,7.49.05-.22.15.78.66.35.09.09.26c-.94.66-1.81,1.71-2.84,1.89-2.56.46-3.39-.07-5.65-3.1Zm-.8-24.59.91-.13s0,.06,0,.09l.21-.12.28,0c0,.2,0,.39,0,.59l-1.43,0c0-.14,0-.27,0-.42ZM65.33,166.15a4.46,4.46,0,0,0,1.11-1.08c.19-.24.69-.25,1.41-.49-.32,1.67-.56,3-.84,4.48,1.08-.33,1.78-.59,2.51-.76.91-.22,1.83-.37,2.75-.51,3.22-.48,4,.3,4.32,3.56,0,.52.09,1,.14,1.55l-.12.35.17.13c.33,3.2,1,6.3,4.29,8.21.2.13.57,0,.81,0,.42-1.07.83-2.12,1.43-3.62.21.11.43.23.65.33.7,1.3,1.27,2.28,1.71,3.25a16.68,16.68,0,0,1-5.73.94,12.58,12.58,0,0,1-3.85-2.13c-1.17-1.19-1.69-3-2.62-4.81l-.92,1c-2-2.26.76-2.54,1.29-3.86-2.11-1-3.19.31-4,1.49-.07.1-.13.2-.19.3a3.24,3.24,0,0,1,.25-3.4c-3.46-.39-3.43-3.13-4.53-4.92Zm32.15-57.52c3,.93,2.7,3.84,4.12,6.17l-5.27,1.28-2.66-3.79,3.81-3.66Zm12.71,19.71c.14-.19.91-.17,1.19,0a7.26,7.26,0,0,1,1.21,1.42l-1.32.48-1.56-.36a4.88,4.88,0,0,1,.48-1.57Zm5.72,11.5c.2.78.41,1.57.61,2.36l-1.15.22c-.22-.82-.45-1.63-.67-2.45l1.21-.13Zm4.38-5.39h-1l.72-.44.24.43Zm22.57-50.6a28,28,0,0,1-4.51-2.44,11.06,11.06,0,0,1-2-2.47c5.77-1.17,11.87,3,15.28,9.63-.48,1.68-.84,2.73-1.06,3.81-.07-.09-.13-.15-.18-.14a3.21,3.21,0,0,0-1.33.61,1.84,1.84,0,0,0,.25.68c-1.17-.31-1.65-1.45-1.92-3.75-.36-3.06-1.94-4.75-4.56-5.93ZM138.6,60.07c.27-.22.56-.43.84-.65l2.8,2.32c-1.72-.12-2.44,0-2.93-.26s-.49-.92-.71-1.41Zm38.72.06A3.58,3.58,0,0,1,179.4,62c.71,1.6,1.32,3.25,2,5.15a18.72,18.72,0,0,0-4.72-1.89c.24-.72.48-1.46.74-2.27a6.72,6.72,0,0,0-2.23,1.73,6.62,6.62,0,0,1-2-1.21,7.59,7.59,0,0,0-1.21-.92,18.57,18.57,0,0,1,.87-2.61,21.24,21.24,0,0,1,4.45.12Zm7.66-.61c.11-.07.77.47.73.59a5.24,5.24,0,0,1-.81,1.27c-.41-.44-.87-.81-.82-.91a2.49,2.49,0,0,1,.9-.95Zm1.09-2.58-1,.13c-.08-.89-.16-1.77-.29-3.16,2,1,2.1,1.93,1.33,3Zm5.62,28.45-.3-.38c-1-1.33-2-2.73-2.91-4.1.18-.33.43-.64.68-1,2.89,1.16,2.2,3.52,2.53,5.52Zm21.18,17.3c-.41,1.63-.71,2.86-1.07,4.28-2.43-2.38-2.4-2.54,1.07-4.28Zm5.22,5.2c1.08-.93,1.59-5.08,1-6.49l0-.05c1,.19,2.1.35,3.4.58L219,107c6.52-4.18,6.52-4.18,8.3-3.57-7.16,5.3-7.5,5.67-7.88,8.56,4.66.42,8.21-.79,9.64-5.86.32-1.15,1.64-2,2.67-3.21l1.91,1.69c-.14,1.13-.24,2.26-.32,3.38a8.75,8.75,0,0,1-3.1-.46c-.27,3.71-.07,3.91,2.75,3.64l.18,0c-.06,1.51-.1,3-.15,4.53a6.32,6.32,0,0,1-2,.13l-.8-.08c-1-1.3-2.28-1.86-4.53-1.3a7.85,7.85,0,0,0,.66,1.39c-.87.4-1.33,1.32-2,3.19a19.63,19.63,0,0,0-5.63-4.12c-.5-.22-.78-.91-1.18-1.37-.8-.92-1.53-1.91-2.41-2.75,0-.28,0-.57,0-.89a26.77,26.77,0,0,0,3.1-2Zm10.72-10.18c-.87.86-1.75,1.72-3,3,.66-2.35.66-2.35,3-3Zm4.68,0c.23,2.25-.92,2.79-2.92,2.23l2.92-2.23Zm8.92-9.22c-1.75,3.7-2.53,4.28-7.43,5.61.57-5,4.5-4,7.43-5.61Zm2.84,16.89,0,0c-1,3.33-1.32,3.83-2.83,3a9.58,9.58,0,0,0-5.33-.78,38.58,38.58,0,0,1,.16-5.89c.89,5.7,5.12,2.85,8,3.59Zm28.94,1.83.12.28c-1.22.86-2.42,1.75-3.63,2.62a1.24,1.24,0,0,0-.45.64c-.06.32-.09.84.09,1s1,.42,1.14.26a5.36,5.36,0,0,1,3-1.35l-.09.14c-1.26,1.65-3.17,2.56-6,.92,1-1.62,1.69-3.23,2.85-4.3.6-.56,2.84-.53,3-.17Zm1.12-5.08a4.31,4.31,0,0,0,1.26-.5l-1.16.7a1.86,1.86,0,0,0-.1-.2Zm1.56-.68c1-.64,1.87-1.5,2.87-1.68-1,.51-1.92,1.1-2.87,1.68Zm2.52,8.66a4,4,0,0,1-.39.74c0-.67-.05-1.27-.08-1.9l0,0a1.3,1.3,0,0,1,.43,1.14Zm57.23,22.8c0,1,0,1.87.05,2.72a2.53,2.53,0,0,1-1.46.51,8,8,0,0,0-1,0,5.45,5.45,0,0,0-1.19-1.83l3.57-1.36ZM351.77,140l.58,1.13c-.1.62-.06,1.28-.13,1.88l-.15.14c0-.16.08-.31.13-.45s-.05-.44-.15-1a8.73,8.73,0,0,0-2.39-1.08,9.54,9.54,0,0,1,2.11-.57ZM351,178c-1.49.46-2.93,1.07-4.45,1.46h-.06c0-.69-.09-1.36-.13-2a20,20,0,0,1,5.46-1.6c-.24.77-.61,1.51-.82,2.14Zm-77.4,158.78.91.57a.19.19,0,0,1,0,.07l.06,0,.82.51c-.08.14-.17.27-.26.41-.57-.42-1.14-.85-1.72-1.26l.17-.28ZM252,314.17a6.19,6.19,0,0,1,1.55-.54l.42,1.55a6.08,6.08,0,0,1-1.76.08c-.16,0-.34-1-.21-1.09Zm-67.41-3.83a2.59,2.59,0,0,1-.27-.95,3,3,0,0,0,1.07-1.85,3.38,3.38,0,0,1,1.49-.41c.05.37.11.78.17,1.22a7.07,7.07,0,0,1,.9-1.08h0l0-.05a3.44,3.44,0,0,0,.84-1.19,9.3,9.3,0,0,1,1.64-1.08c0,.66.1,1.33.14,2.06l3.18,1.24c.11-1.56.21-2.86.3-4.18a8.21,8.21,0,0,1-2.12.2.5.5,0,0,1-.19-.1,4.32,4.32,0,0,0,1.56-1.88c1-2.42.93-4.49,1.18-6.94.76,3.25,1.51,6.49,2.31,9.92,1.17.56,2.68-1.9,3.23.35s-2.12,1.21-2.85,2.27c-.68,4.34-.68,4.34-3.16,4.79-.13.39-.24.76-.35,1.12h0c-1.85-.34-3.74-1.54-5.39.07-.66-.47-1.41-1.15-1.53-1.05-.29.22-.56.46-.84.71a21.87,21.87,0,0,0-1.36-3.18Zm-9.49-.19a.73.73,0,0,1,.48.5c0,.12-.31.47-.44.45s-.38-.3-.66-.54c.26-.18.47-.45.62-.41ZM154.62,297.2c0,.93,0,1.86,0,2.78l-.42,0c0-1,0-1.91,0-2.87l.42.13ZM86.49,185.35a.49.49,0,0,0,0,.11c.09.21.18.42.29.63l-.46-.23c0-.17.08-.34.13-.51Zm2.45-5.14,0,.06a1.16,1.16,0,0,1-1,.15,1.94,1.94,0,0,1-.21-.6l1.22.39Zm32.56-43.54a2.76,2.76,0,0,0-1.08.37,2.52,2.52,0,0,1-.78-.94,4.58,4.58,0,0,0,.94-1.12c.28.5.57,1.05.92,1.69Zm85.09-25.58a2,2,0,0,0-.71-.62c.09-.5.18-1,.26-1.47a3.08,3.08,0,0,1,.45,2.09Zm11.29,11c-.12.2-.25.41-.38.64l-5.21-4.13-1,.52a2.35,2.35,0,0,0-.94-1.71c0-.14-.07-.28-.1-.41l.37,0a.92.92,0,0,0,.07.63c.82,1.29,2,1,3,.4.21.17.4.35.6.52l-.41.18c.59.39.86.71,1.11.69a1.13,1.13,0,0,0,.18,0,22.84,22.84,0,0,1,2.27,2.61l.47.14Zm3.89,2.17-.34.2-1-.49a9.21,9.21,0,0,1,.66-.92,7.35,7.35,0,0,1,1,.51,2.43,2.43,0,0,1,.25.2,2.17,2.17,0,0,1-.55.5Zm10.72,1.3,0,1.1c-.27-.21-.57-.4-.85-.59a21.83,21.83,0,0,1-2.93-2.41l.8-1.3c1.27,1.37,2.26,2.44,3,3.2Zm4.69-12.2c0-.56,0-1.13,0-1.69s0-.89,0-1.34a6.89,6.89,0,0,1,3.44.62c-1.29.88-2.4,1.69-3.44,2.41Zm94.23,19.81c.1.61.2,1.22.31,1.86l-2.49-.14a7.38,7.38,0,0,0,2.18-1.72Zm-.76,4.28-1.23-.14-.13-.23c-.21-.39-.4-.8-.6-1.19l.74,0,2.35-.42c0-.06,0-.13,0-.2.07.45.15.91.23,1.39a6.36,6.36,0,0,0-1.34.82Zm12.25,3.21-.13,0a2.2,2.2,0,0,1,.28-.18l-.15.16Zm.22,4a11,11,0,0,1,1.46-2.33.86.86,0,0,1,.14-.13,3.41,3.41,0,0,1,2,1.6,3.73,3.73,0,0,0,.28.38c-1.3-1.09-2.57-.46-3.84.48ZM287.63,320.76c-.63-.22-1.13-.38-1.53-.55-.06-1.54-.16-3.08-.28-4.63a5,5,0,0,1,1.81,5.18Zm-68.33-36.6a1.35,1.35,0,0,1,.44-.63c0,.54.08,1.06.12,1.58l-.25.19a1,1,0,0,1-.31-1.14Zm-18.1,58.49,1.73-.37a4.83,4.83,0,0,1-.68,1.27,4.2,4.2,0,0,1-1.05-.9Zm-49.57-50.94-.43.73c-.15-1.22-1-2.29-.1-3.52a1,1,0,0,0,0-.1l.06,0a1,1,0,0,0,0-.18l-.21-.57a8.11,8.11,0,0,1,1.54.26,10.25,10.25,0,0,0-1.32.49v.1l0,0c.3.59.59,1.18.88,1.77s.33.94,0,1.31l-.36-.29ZM88.08,188.81l.12.34a3.86,3.86,0,0,1-1.4-.93l1.28.59Zm107.76-65.67-.22-.11c.11-.65.25-1.33.42-2,.16.37.3.66.42.9-.21.44-.42.86-.62,1.26Zm23.4,2.55c0-.06,0-.12,0-.18l.19.1-.15.08Zm26-2.89a32,32,0,0,1,.66-4.1c.2-.65.87-1.16,1.32-1.73.58.68,1.66,1.39,1.63,2-.1,1.92-1.24,3.24-3.61,3.78ZM208.67,284.65a5.23,5.23,0,0,1,.9-.81c1.49,2,.34,3.18-.65,4.63-1.21-1.4-.79-2.47-.25-3.82Zm-54.11,4.84-.37-.39c.13.09.27.19.39.29s0,.07,0,.1Zm-.27,2.12c.12,0,.33.28.57.5-.25.22-.44.5-.61.48s-.45-.32-.43-.47a.73.73,0,0,1,.47-.51Zm-7.9.22,1.15-1.73a5.36,5.36,0,0,1-.77,2.09l-.38-.36Zm32.3-178.34.24.08c0,.1,0,.2,0,.31l-.23-.39Zm3.64,9.26a29.92,29.92,0,0,1-2.28-2.36,2.18,2.18,0,0,1,2.4,1.77,3.25,3.25,0,0,1-.12.59Zm-16.84-10.46a2,2,0,0,0,.64.18,2.7,2.7,0,0,0,1.37,2.19,10,10,0,0,1,.17,1c-1.16-1-2.1-2.11-2.18-3.42ZM122.26,232.14c-.34.09-.7.08-1,.14a1,1,0,0,0,0-.17l2.27-.35c-.33.13-.73.25-1.19.38Zm1.45.65.24.17c-.6.29-1.21.55-1.83.8a1.87,1.87,0,0,1-.43-.41,20.42,20.42,0,0,1,2-.56Zm79.22-115-1.35-.18c0-.48,0-.87,0-1.25a5.9,5.9,0,0,1,1.48.32c.11.06-.07.73-.12,1.11Zm-26-2.12-1.56-.08a2.55,2.55,0,0,1,.44-1.21,6.38,6.38,0,0,1,1.12,1.29ZM93,186.37a1.54,1.54,0,0,0-.08.19c-.29.13-.6.25-.92.36.2-.33.34-.59.56-.66a.61.61,0,0,1,.44.11Zm86.47-78.48a4.43,4.43,0,0,0-3.32,2.24,7.23,7.23,0,0,0-1.4-3.66c0-.33.08-.69.13-1.09l1.69,1.33.4-.9a20.58,20.58,0,0,0,2.5,2.08Zm-32.94,10.68a5.21,5.21,0,0,1,.09-.67l.95.29.38.42-.23.42a5.7,5.7,0,0,1-1.16-.41h0l0-.05Zm32,193.09-.52.06-.27-2.28.65-.07c0,.76.09,1.53.14,2.29ZM203,341.33l-1.76-1.79c1,.51,1.65,1,1.76,1.79Zm15.51-60.85c0-.07,0-.15,0-.22.63-.55.8-.93.49-1.54a2.86,2.86,0,0,0,1.78-.85c.07-.07.41.16.88.46-.84.81-2.08,1.33-3.13,2.15ZM342.63,249l-.66.48-1.18-1.66.73-.57h0c.37.58.75,1.16,1.11,1.74ZM229.38,129.81c.09,1,.17,1.91.28,3.1,2.07-1.45,2.27-1.6.41-2.78,2.22,1.11,2.56,2.44,1.21,4.72l-1.09.17h-.07l-4.21-3.75a3,3,0,0,0,.52-1.05l-1.4.26-.08-.08c.29-.49.64-1,1-1.69a27.56,27.56,0,0,1,3.4,1.09Zm-15.32-6.23a.79.79,0,0,0,.35-.4c1.43.76,2.91,1.46,4.38,2.14-.51.36-1,.78-1.48,1.14a3.67,3.67,0,0,1-3.32-2.85l.07,0Zm-22.75-4.25.71,1.81-.56-.33c-.07-.12-.12-.17-.14-.16l-.07,0-1-.62,1.06-.73ZM163.58,309.48c-.49,0-.79.15-1,0l0,0c.25-.15.49-.31.73-.47l.25.45Zm34.52,28.73a.86.86,0,0,1-.63.76l-.47-1.43a1.59,1.59,0,0,1,1.1.67Zm-.65-12c0,1.37,0,2.15,0,3.11-2.19-1-1.1-1.76,0-3.11ZM352.66,208.61l.08-.09,0,.16,0-.06ZM150.61,93.5v.09a4.32,4.32,0,0,1-.8,0,7.24,7.24,0,0,0,.8-.1Zm38.82,254.06-.64,0c0-.47,0-1,0-1.42l.44-.05.21,1.43Zm5.08-1.71a6,6,0,0,0-.81-.74,3.14,3.14,0,0,0,2.87-3.15,2,2,0,0,1,.68-1.07c.42-.39.86-.75,1.29-1.12a1.62,1.62,0,0,0,0,.49c1,3.91,1,3.91-2.55,5.17a11.78,11.78,0,0,1-1.47.42Zm88.4-3.09c0,.29-.11.58-.17.85-.25-.39-.5-.76-.74-1.14l.35-.35,1.43,1.05-.87-.41Zm15.26-32.43c1.05,4.39,6.94,5,7.76,9.84l-6.71-.16c-.74-3-1.52-6.13-2.31-9.3l1.26-.38Zm12.05,6.76c.24.06.51,1.74.24,1.92a10.48,10.48,0,0,1-2.75,1c-.24-.82-.47-1.63-.84-2.94a14.84,14.84,0,0,1,3.35,0Zm-97.41,20.78c.24,0,.46.4.69.63-.29.17-.58.48-.87.48s-.52-.32-.95-.62c.51-.24.83-.53,1.13-.49Zm6.52,18.78,1.9.89a4.56,4.56,0,0,1-.29.61c-.66-.2-1.3-.45-1.95-.69.11-.27.22-.54.34-.81Zm8.39,6.34c-.65-1.77-1.17-3.2-1.8-4.9,2.87,1.79,2.87,1.79,1.8,4.9Zm3.87,3.82c.21,1.36.37,2.4.64,4.11l-3.1-2.47,2.46-1.64ZM61.34,273.1c-1.55-1.72-1.45-2.75.06-3.1.31-.07,1.06.46,1,.51-.31.88-.71,1.73-1.1,2.59ZM57.9,259.71l-.69.18L56,257.62l.52-.51c.51.34,1.19.57,1.48,1.05s0,1-.07,1.55Zm-5.38-17.84c-.53,1.58-1.94,1.54-3.41.47L51,238.85c.63,1.17,1.77,2.33,1.54,3Zm-5.81-1-1.39,0c.12-1.56.25-3.12.45-5.46,2.63,2.32,1.16,3.92.94,5.49ZM132.18,78.66,130,77.5c.2-.3.4-.61.61-.91l2,1.44-.36.63ZM376.94,210.5c-.14,0-.42-.24-.47-.42a6.7,6.7,0,0,0-2-3,5.71,5.71,0,0,0,1.66,0c.16-.05.28-1,.15-1.1a2.87,2.87,0,0,0-1.5-.35,5.85,5.85,0,0,0-.37,1.39,25.26,25.26,0,0,0-3.2-2.31c-2.49-1.64-5.09-3.11-7.65-4.62a1.45,1.45,0,0,0-1-.19c-.39.09-1,.31-1.06.58-.1.45,0,1.35.28,1.43,3,1,3.38,5.06,6.68,5.73.28.06.63,1,.53,1.38a1.62,1.62,0,0,1-1.09,1.07,3.27,3.27,0,0,1-2.15-.55,47.93,47.93,0,0,1-3.42-3.44c-1.8,0-3.58.38-5-.16a42.25,42.25,0,0,1-5.27-2.5c.4-.64.77-1.19,1.08-1.78,1.47-2.86,1.35-3.25-1-5.64-.92-.92-1.75-1.92-2.59-2.89a7.49,7.49,0,0,0,1.45-.75,9.7,9.7,0,0,0-1.07-.89,6.82,6.82,0,0,1,2.2-1.41,2.33,2.33,0,0,0,1.4.25,6.48,6.48,0,0,1,5.55,2.14,2.71,2.71,0,0,0,1.51.68c2,.18,2.81,1.38,3.46,3.1.54,1.41,1.49,2.7,3.29,2.67,1.16-2-1.66-2.62-1.16-4.7l4.53,2.1c-.87-1.78-1.47-2.82-2.91-3.26a2.5,2.5,0,0,1-1.41-1.18c-1-2.12-1.77-4.32-2.66-6.47a19.91,19.91,0,0,0-1.07-1.89l-3,1.65c.87.88,1.49,1.49,2.26,2.28-1.57.38-2.85.78-4.12,1a1.74,1.74,0,0,0-.21-.81c-1.17-2.17-1.09-4.67-2.08-6.93l.12-.11c-.33-1.15-.34-2.5-1-3.21a8,8,0,0,1-1.44-2,7.57,7.57,0,0,0,1.53-.71c-.48-1.71-1.57-3.3-.92-4.77,0-.08.09-.15.14-.23h0a3.49,3.49,0,0,1,1-1c-2.43-.94-2.85-1.14-5.08,0-1.7.92-3.75,1.34-5.44,2.26a5.83,5.83,0,0,1-2-.72c0,.1-.08.21-.3.73a7.29,7.29,0,0,1,1.28.64,5.49,5.49,0,0,0-1.78,2.34l-3.71-1.27c1.69-.88,3.06-1.15,3.28-1.8.9-2.6,2.78-2.73,5-2.56.91.07,1.77-.29,1.9-1l.31.2c-.07-1.31-.13-2.5-.19-3.63a7.11,7.11,0,0,0,1.11-1.4,3.24,3.24,0,0,0-1.22-.64c0-.65-.07-1.29-.1-1.94a10.59,10.59,0,0,0,2.92-1.08l.05-.05,1.1-.11v-.3l-.43-.11a12.72,12.72,0,0,1,7.66-2.54c1.25,0,2.75-.75,2-2.95-1.66-.26-3.44-.91-5.16-.75a37.75,37.75,0,0,0-7.21,1.63c-.72-.29-1.47-.54-2.26-.81.64-.53,1.27-1.07,1.89-1.63,1.24-1.11,2.25-1.74,3.43-.53l.4-.24c.38.63.77,1.24,1.15,1.87.84-1.32.83-2.16-.84-2l2.88-1.74c-.82-2.35-2.09.28-3.11-.42l-.2-.36a20.83,20.83,0,0,1,4.56-.39c0-2.45,0-4.51,0-7l10.37-.41c.5-2.39-1.36-3.56-2.49-5.08s-2.09-1.6-3.67-.2c-2,1.74-3.65,2.39-5.47,2.09,0-.16,0-.32,0-.48,0-.56-.07-1.12-.14-2.23a15.53,15.53,0,0,0-1.62,2.17,14.66,14.66,0,0,1-2.28-1.32,2.9,2.9,0,0,0-.29-.19c0-.08-.09-.15-.12-.22l-.14.09a4.85,4.85,0,0,0-1.94-.47h-.93a19.48,19.48,0,0,0,1.76-1.2,4.2,4.2,0,0,0-4,.17c-.46.27-.9.59-.86,1.09l-.69.05c.17-.55.33-1.16.48-1.82a2.76,2.76,0,0,0,.83-1.68,3.49,3.49,0,0,1-.5-.08c.08-.45.15-.93.21-1.42l-1-.85c.16-.65.25-1.37.47-2.54l-1.8,1.43-2.18-1.82,1.36-.94c1.94-1.38,2.09-2.06.74-3.85-.76-1-1.59-2-2.44-2.88a2.43,2.43,0,0,1-.44-3.34,2,2,0,0,0-1.82-3.08,6.55,6.55,0,0,0-3.75,1.34A78,78,0,0,0,329,118.5l5.93-1.36c.28,2.38.06,2.56-3.48,3-.82,2.11-.9,4,1.47,5.22l1.44-1.48c.23.8.46,1.56.68,2.29l-.05.05.08.08,1.06,3.59a2.57,2.57,0,0,1-2,1.24,8.67,8.67,0,0,0-4.08-3.49,1.72,1.72,0,0,0,.24-.61c0-.21-.73-.79-.83-.73a3.16,3.16,0,0,0-.73.74c-.65-.28-1.3-.54-1.93-.82a4.7,4.7,0,0,0-2-.37,5.91,5.91,0,0,0-.5-4.07l2.86-2.38c-1.88-2.15-1.88-2.15-4.57-3-2.39-.75-4.24.24-4.78,2.63-.07.32.31.74.59,1.35,2.31-2.34,4.53-2.57,5.6-.82,0,.45-.05.93-.1,1.69a4.17,4.17,0,0,0-.47-.47l-5.66.57c-1.72-4.81-1.72-4.81,4.68-7.66.2-1.47.39-2.83.62-4.51a23.39,23.39,0,0,0-2.31-3.29,2.3,2.3,0,0,0-2.08-.21c-.38.15-.68,1.19-.56,1.73a12,12,0,0,0,1.28,2.58c-3.15.87-6.08,1.25-9.12-.64.66-1.47,1.7-3-.45-4.22-1.25.57-2.94.48-3.18,2.52-.15,1.37-1.4,1.55-2.38,1.41a5.58,5.58,0,0,0-2.51.24c.93-1.67,2.79-2.46,4.65-3.29-.45-1-.81-1.68-1.28-2.65-.6.64-.93,1-1.31,1.38-1.12,1-1.49,3.33-3.85,2.21-.13-.06-.48.23-.64.43-1.07,1.36-2.65,1.54-4.41,2.07.23-1,.4-1.84.58-2.65-1.37-1-2.56-2.6-3.94-2.78-1.77-.22-3.69.68-5.54,1.09,1.58-.74,1.27-2.26,1.57-3.57.13-.6.77-1.47,1.26-1.52,1.64-.19,2.24-1.54,3.39-2.37-.32-.54-.57-1-.94-1.6-1.7,1.52-3.85,2-5,4-.83,1.5-3.16,1.69-3.71,3.62a.57.57,0,0,1-.47.21c-2.23-.26-3.91,1-5.61,2.09l-.73.49a1.82,1.82,0,0,1-.67-.86,2.35,2.35,0,0,0,1.24-1.5l-.21-.42a16.78,16.78,0,0,1,1.26-1.16,23.55,23.55,0,0,1,3.21-2c-.11-.28-.21-.56-.31-.84a2.68,2.68,0,0,1,1.34.55l3.07-1.72c-1.52-1.84-2.82-1.93-11.42-.66l2.74,2.58a14.36,14.36,0,0,0-3.58,3.35,10.92,10.92,0,0,1-3.37.85l1.14-1c-1.49.06-2.43.16-3.19.95a10.82,10.82,0,0,1-3.38-1.1c.35-.77.7-1.54,1.09-2.38,1.85.36,2.13-.08,2.19-1.76a1.66,1.66,0,0,1-1.62.52c.37-.82.79-1.71,1.25-2.73a7.62,7.62,0,0,1-5.08.8,5.9,5.9,0,0,0-.39-2.36c-1.65-1.45-2.24.75-3.38.7l-.35,0a25.63,25.63,0,0,0-4-2c.19.61.35,1.09.49,1.52a2.52,2.52,0,0,0-.26,1.22l-6.22.47c.32-2.55,1.45-3.89,3.66-5.16,3.37-2,6.19-4.86,9.2-7.33-2.39-4.31-4.68-.38-7.66.37,1.35-1.59,2.06-2.41,2.77-3.24l-.44-.61-7.43,3.82a10.93,10.93,0,0,0-3.63-1,26.28,26.28,0,0,0-1.37-9.65c5.17-1.76,5.17-1.77,5.68-4.15a11,11,0,0,0-2.43.34c-2.8,1.14-5.46,2.92-8.35,3.45a21.75,21.75,0,0,0-5.9,2c-.09-1-.16-1.93-.23-2.75a5.31,5.31,0,0,0,2.68-1.27,3.55,3.55,0,0,0,1.77.64,16.67,16.67,0,0,1,.57-4,22.94,22.94,0,0,1,2.53-3.82c1.37,1.39.85,3.7,3.28,4-.18-2.93-.36-5.65-.55-8.66l5-2.59c-2.35-2-4.38-1.41-6.26.36-1.78-3.42-2.38-3.48-4.39-.72-.36.5-.75,1-1.36,1.76l-3.38-3c-1,2.61-2,4.87-2.76,7.18A1.75,1.75,0,0,0,229,65c2.27.77,2.49,2.88,3.22,4.63-.93-.59-1.71-1.42-2.61-2.08s-2.93-.85-4.67-.57a14.41,14.41,0,0,0-1-2.48c-.41-.8-2-.22-1.86.76s.17,1.85.34,2.75a1.37,1.37,0,0,0-.21.28,19.88,19.88,0,0,0-1.35,2.74c.14-1.07.48-2.23.12-3.08-.92-2.21-1.38-3.93,1.16-5.43,1-.62.93-3.87.07-5a2.4,2.4,0,0,0-3.63-.63c-.48.31-1.58-.22-2.33-.52-2-.78-3.5-.1-3.33,1.94.24,2.79-1.69,5.73.55,8.39.18.21.09.75,0,1.09-.68,2.19.86,2.51,2.28,3l3-2.3c.44,1.16.76,2,1.09,2.89l.85,0a39.51,39.51,0,0,0-2.12,9.89c6.42-.78,7.44-5.67,9.55-10.09a6.86,6.86,0,0,0,1.19,1.62c-1.66,1.53-1.92,2.41-1.15,3.47a3.28,3.28,0,0,0,1.71.86c-1.76,1-3.44,2.13-5.17,3.27-2.17,1.44-2.32,3.28-3.29,6l20.32-9.35a35.75,35.75,0,0,0-.2,7.1l-1-.07a7.6,7.6,0,0,0-2.44.17c0-.15-.09-.31-.14-.49l-.34.64a5.72,5.72,0,0,0-3.29,3.51c-.68,1.62-1.56,3.16-2.21,4.45-2.38-.68-4.11-1.64-5.8-1.56-4.29.2-7.46,3-10.43,5.71-1.16,1-.69,2.85.55,3.88a6.86,6.86,0,0,1-1.82.29c-.23-1.49-.44-3-.69-4.43a7,7,0,0,0-2.35-3.82,20.37,20.37,0,0,1,4-1.1,3.59,3.59,0,0,0,3.09-4.44c-10.86,3.4-15.22,6-16.27,9.77.5,0,1.13.32,1.43.12a47.16,47.16,0,0,1,5.26-3.25,10,10,0,0,0,1.59,1.65,2.7,2.7,0,0,1,.92,3.36,2.76,2.76,0,0,1-.58.74L209.21,97c-1,1.47-1.25,2.17-1.24,2.86,0,1.68.09,3.35.14,5-.15-.15-.3-.29-.44-.44-1.3-1.36-3.28-2.19-4.56-3.6.06-.29.14-.6.23-.91l-.6.45a4.66,4.66,0,0,1-.89-3c0-.28-.72-.54-1-.89-1-1.11-2-2.24-2.94-3.4l0,0a2.38,2.38,0,0,0-.12-2.08l-.88.85c-.86-1.06-1.72-2.11-2.57-3.17l.09-.23c1.09-3.27-.29-6-2-8.6-.47-.71-1-1.39-1.53-2.06l1,.39,3.9-2.19c-1.8-.89-3.1-1.94-4.51-.72-.49.42-.3,1.65-.42,2.52l-.71-.87c.19-.22.38-.45.59-.68-1.7-1.67-3.41-3.2-5-4.77a3,3,0,0,1-.43-1.13c-.36-2.62-1.22-5.53,1.63-7.65a8.14,8.14,0,0,0,2.21-3c1-2.23,2.79-2.65,5.25-2.53A38.44,38.44,0,0,0,196,62.56c.71,1.58.42,4.2,3.33,4.29-.23-8.66-3.74-15.27-8-15.48-1.58.86,1,4.24-2.5,3.93l-.77-5c-1.93,1.25-3.49,3.32-5.61,2.05a47.46,47.46,0,0,1-5.11-4.14l-1.95,4.61c-3-1.68-.43-5.07-2.38-7.53L170.14,47c-2.08-1.44-3.86-3-5.94-4-3.32-1.59-6.82-2.77-8.09-6.79-2.44.53-4.52.66-5.59-2A2.49,2.49,0,0,0,148.67,33a30.81,30.81,0,0,0-6,.19,2.4,2.4,0,0,0-1.15,2A20,20,0,0,1,143,44.26c0,.31.39.66.5,1,.17.59.53,1.33.33,1.79a3.13,3.13,0,0,0-.31,1.33L142,48.08c0,.53-.09,1.06-.14,1.58.68.07,1.36.15,2,.19a17,17,0,0,0,1,1.76,9.19,9.19,0,0,1,1.31,2.69c.13.53.24,1.06.36,1.59l-.31.18c.2,1.59.42,3.3.64,5l-1,.44A43.92,43.92,0,0,0,142.19,57c-1.3-1.25-2.83-2.66-4.47-3-1.11-.24-3,.91-3.81,2-1.39,2-.95,4.22.67,6.06,1.18,1.32,2.47,2.55,4,4.15-3.23,1.49-4.5-.12-5.63-1.8-.84-1.25-1.23-3-4-2.32,1.29,4.86,5.28,8.37,6.43,14C129.82,73.62,125,69.8,118.83,72a26,26,0,0,1,11.41,9.16,36.84,36.84,0,0,0,4.24,5A7.48,7.48,0,0,0,138,88.4c1.12.2,2.43-.66,3.9-1.12.71,3.48,2.33,6.78-.12,10.34-.54.77.1,2.58.57,3.77a40.9,40.9,0,0,0,2.53,4.61c-1-.14-1.54-.1-1.59-.23-2.23-5.67-8.66-3.43-12.26-6.5-.17-.14-.61,0-.9.06-3.51.86-5.5,5.84-4.47,9.4a21.33,21.33,0,0,0,1.54,3.85,3.42,3.42,0,0,0-1.13-.29c-.92-.09-1,.47-.79,1.16.43.45.79,1.07,1.32,1.28a1.46,1.46,0,0,0,1.3-.63l0-.19c1.22,2.1,2.69,4.07,4.15,6.13l1.19-.07c-.3,0-.63.09-1,.12,1.38,1,3.39.42,3.62,2.53l-2.61,1.61-2.87-.86a16.56,16.56,0,0,1-1.58,2.67,11.29,11.29,0,0,1-1.32-2c-1-1.87-2.14-2-3.84-1.17l-1.1.49c-.19-.11-.4-.22-.61-.32-1.24-.61-2.38-1.45-3.84-2.36,0,.72-.21,1.48,0,1.68.82.65,1.7,1.23,2.55,1.79-1,.42-2.19.88-3.54,1.44l-1.86,2.54c-3.09-6.16-3.77-5.24-7.42-3l-1.08-1c-.54-1-.84-1.33-1.31-1.2l-3.14-2.87c.2-1.38.43-2.88.65-4.32,3.4,0,3.4,0,5.76-2.23,3.55.22,5.1,4.5,8.79,4.63.82-2-.37-3-1.42-3.77a14,14,0,0,1-3-2.8,2.55,2.55,0,0,0,1.09-1.08c-.87-.8-1.55-.91-2.19-.62a11.94,11.94,0,0,1-1-2.48c-.81-3-3.57-4.41-6.74-5.76-.24,1.92-.39,3.2-.57,4.64l-8.42-1.74c-.18,1.64-.32,3-.43,4l-8.41,2.56-3.86-2.83c-1.23,2.26-2.32,4.28-3.39,6.26l-7.53-2.42c-1.2,3.77-2.21,7-3.26,10.29L63.56,121c-4.53,3.63-5,9-7.9,13.12-1.57,2.25-2.56,4.88-5,6.49s-4.7,3-7,4.64c-1.95,1.37-2.58,3.53-1.15,4.73,4.26,3.6,7,8.87,12.43,11.23.32.14.63.28,1,.44,1.42,2.79,4,3.79,6.46,4.25l.24.15c-.51,1.76-.94,3.21-1.38,4.7l3.28.52-2.3,1.9,5.61,4.95c-1.59,2-4.59.07-5.52,2.83,2,1.59,4.46,1.36,6.94,1.69a8.08,8.08,0,0,1-1,.49c-2.92,1.3-5.86,2.55-9.12,4l-2.28-2.41c-2.21-.14-3.83-.14-5.41-.36-2.5-.35-2.78-.14-3.36,2.71-.17.85-.4,2.15-.95,2.37-3.44,1.36-7,3.38-10.48,3.47-5.13.12-8.94,3-8.87,8,.05,4,1.35,7,6,8.11-1.23,1.11-2,1.84-3.05,2.78l5.12,8.05c.35,2.09.86,4.42,1.11,6.79.22,2.06.65,4.32,0,6.19a7,7,0,0,0,.24,5.24c1.34,3.21,2.8,6.37,4.29,9.52.31.64.92,1.53,1.47,1.59,2.43.27,2.55,2.22,3.21,3.87.51,1.28.66,3.07,3.12,2.81-.19-1.37-.36-2.58-.53-3.78,2.09,3.76,4.26,7.27,4.39,11.76.1,3.4,1.4,6.79,2.39,10.12.86,2.89,2.05,5.65,5.8,5.8.4,0,.77.63,1.21,1,.65-1.06,1.09-1.76,1.61-2.6,2.56,3.42.84,5-2.37,6,1.16,1,1.92,1.64,2.87,2.45-1.59,1.76-3.55,3.44-.8,5.91.68-1.07,1.29-2,1.89-3l5.56-.78c1.62,3-3,8.21,3.64,8.91-.06,1.49-.1,2.95-.14,4-1.81,1.26-3.55,2.05-4.64,3.36s-2.8,2.55-1.13,5.07a22,22,0,0,0,6.35-6.92c2.73.3,4.92,1.92,5.08,4,.32,3.91,2.61,6.75,4.14,10,1.73,3.7,3.89,7.23,8.9,6.25.42,2.12.68,3.93,1.14,5.69,1.37,5.24,4.28,8.67,10.07,9.54,2.8.42,4.55-1.24,6.78-1.91a5.85,5.85,0,0,0,3.33-3.39,3.79,3.79,0,0,1,0,2.61,15.73,15.73,0,0,1-3.58,5.11c-1.32,1.33-1.55,1.38-.4,2.69a5.37,5.37,0,0,1,1.1,1.68c.49,1.57.84,3.18,1.28,4.89l5.12-.49c.78.66,1.35,1.51,2,1.56s1.46-.64,2.15-1a6.93,6.93,0,0,1,2.16,5.14c0,.73.12,1.49,1.11,1.51s1.15-.49,1.39-1.29c.4-1.28,1.27-2.44,1.54-3.74s1.78-1.73,2.43-2.93c.16,1.19.33,2.38.52,3.73l2.67-1.37c.32,1.5.59,2.75.89,4.13,1.38-.58,1.66-1.59.84-2.53-1.14-1.3-.8-2.31.25-3.81a6.06,6.06,0,0,0,2.24,3c2.26,2.1,2.15,2.2,4.1-.16a10.51,10.51,0,0,1,1-.88l2.06,1.26c1.09-.87,2-2,3.47-1.61.13.76.24,1.47.38,2.4l1.22-1.37c0,1.35,0,2.29,0,3.22l2.05,1.42c.41-.8.75-1.45,1.25-2.44,1.44,2.3,2.39.87,3.47-.52.4,1.33.68,2.3,1,3.28a3.4,3.4,0,0,0,2.93-2.13c.12-.25.56-.34.93-.55l.66,1.75a1.77,1.77,0,0,1,2.83-.47c1.35,1.14,2.72.87,4.13.71.83-1.05.93-2.66,2.79-2.79.18,1,.34,1.9.48,2.76l1.47-.63.57,1.83,2-.83c.22-1.74.38-3.06.54-4.38l-.06,0a.36.36,0,0,1,0-.1c-.69-.24-1.16-.63-.48-2.08.22,1,.35,1.55.48,2.08l.09,0s0,0,0,.05c.34-.12.81-.37.92-.26a2.87,2.87,0,0,0,4.16.35l2.49,1.63-.74,0c.16,1.51.65,2.84.33,3.95s-1.44,2.24-2.25,3.42c-.43,2.87,3.3,4.8,2.18,8.08-.05.16.74.56,1.06.91,1.68,1.81,1.91,3,.7,5.15a31.81,31.81,0,0,1-2.57,3.42c1.24.74,2.22,1.28,3.16,1.9a3.73,3.73,0,0,0,4.61-.32c1.47-1.16.94-2.7.09-4.12-.64-1-1.18-2.15-2.11-3.88,3.92.32,5.82-3.05,9.56-2.75,3.06.25,6.23-1.24,9.48-.51,1,.95.31,3,2.53,3.74.25-1.68.47-3.13.71-4.7l2.69.71,1.7-2.14,2.58,1.14a19.14,19.14,0,0,1,.59-4.21c.17-.45,1.59-.82,2.22-.6a2.24,2.24,0,0,1,.7,2,5.33,5.33,0,0,0-.89,3.94c.18,2.13.1,4.28.17,6.43,0,1.18-.22,2.56,1.72,3.13.62-3.86,1.73-7.46.13-11.18,3.19-1.39,1.86,3.24,4.18,2.68l.79,5.15,3.24,2c.29-1.88.5-3.26.72-4.67a4.31,4.31,0,0,0,1.16.26,5.75,5.75,0,0,0,1.27-.48c-1.68-2.32-.41-4.73-.29-7.21l-3.4-.73c-.92-3.44-2.38-6.46-1.73-10.14.58-3.28-1.64-4.54-4.76-3.28-.55.22-1.13.39-2.48.86.42-1.3.42-2.28.89-2.62,2.45-1.8,2.48-1.74,1.67-4.45-.35-1.17-.64-2.36-1-3.54h-.1a.08.08,0,0,1,0,0c-1.32,1.22-2.66,2.22-2.48,4.56.16,2-.78,4.06-1.35,6.65a35.65,35.65,0,0,1-2.75-4.94c-.77-2.09.73-3.52,2.13-4.78-2.19-2.63-2.19-2.63-.75-5.09,2.82-.36,3.92,1.75,5.2,3.6l.09-.09,0,.14,1.37.19c-.07-2.18,0-4.18-.2-6.15-.23-2.38-.48-4.78-2.55-6.51-.63-.52-1.52-1.55-1.36-2,.91-2.74-.8-4.71-1.79-7,1.36-1.58,2.73-3.14,4-4.6-.8-1.26-1.3-2.11-1.86-2.91-.69-1-4.42-2.05-5-1.24-1.48,1.92-4.47,2.7-4.46,5.8,0,.45-.56.9-1,1.57-.66-2.45-1.22-4.51-1.94-7.2,1.22-1.35,1.35-3.42-.45-5.55l-2.11.65a2.47,2.47,0,0,0-.37-.56c.12-1.66.23-3.1.34-4.6l3.22-2.17c3.53.85.7,3.85,2.17,5.55l8.76-5.35c1.93,2.18-1.07,3.05-2.05,4.81l3.69.62c1.25-4.23-.67-7.2-2.86-10,3.13-1.22,3.1-1.22,2.73-4-.1-.73.21-1.52.09-2.24a4.4,4.4,0,0,0-.1-.47l1.13.49c.14-.78.27-1.5.4-2.19h0c.47,5-.46,10.24,2.7,15l1.87-4,2.51,3.89,4.23-1.37c-.62,2.69-.62,2.69-2.59,3.62-3,1.4-3.11,1.76-1.3,5.61l2.34-3.5,2.1,0c.47-1.49.87-2.79,1.36-4.34,1.37.65,2.7,1.61,3.69-.11l.23-.4a2.84,2.84,0,0,0,.58.81,11.16,11.16,0,0,1,3.46,7.91c0,.12,0,.23,0,.35a3.26,3.26,0,0,0-2.27-.81c-2,.56-3.09-.31-4.47-1.19a13.4,13.4,0,0,0-2.42-1c-2.71,2.75.4,5.76-1.13,8.3,0,0,1.1.73,1.11.74.49,4.42-1.43,7.3-4.78,8.8.23,2.61.41,4.74.63,7.22-3.5-.38-2.85,1.9-3.13,4.28,1.37-1.08,2.21-2.24,3.26-2.47,2-.43,2.13-1.77,2.66-3.24.45-1.29,0-3.13,2.29-4.1,0,3.17,0,6,.06,8.83l2.76.35c.29,2.88.58,5.59.82,8.3.4,4.66,3.29,8.06,5.81,11.65,2.16,0,2.6,2,3.49,3.29l5.66,0a33.94,33.94,0,0,0-1.24-3.54c-1.11-2.21-1.81-4.27-.6-6.83a3.81,3.81,0,0,0-1.59-4.72l-3.13,2.48c.66-3.6,3.4-6.8-.74-9.19,3.4-4.74-.28-9.27-.25-13.89l3.53,1.43c-.45,3.21,2.3,5.71,2.06,8.91,3,1.3,3.54-2,5.56-3.12.92,1.64,1.74,3.13,2.73,4.91a34.81,34.81,0,0,0-2.47,3.11c-1,1.56-2.07,3-1,5.23.65,1.3.29,3.11.39,4.77,2.72.49,3.63-.2,3.19-2.89-.25-1.5-.88-2.93-1.15-4.43a6.49,6.49,0,0,1,.35-2.12c.62,1.88.53,3.76,1.22,5.29a65.49,65.49,0,0,1,4.07,13.44,6.4,6.4,0,0,0,.81,2.09,11.21,11.21,0,0,1,1,4.86c-.13.48.06,1.16-.21,1.47a3.79,3.79,0,0,1-1.45.71c.19,1.25.39,2.51.66,4.28l1.6-2.49c1,3.27,3.65,2.06,5.59,2.74L276,367.6c4,.92,3.83-3.15,6.07-5.06a13.07,13.07,0,0,1,2.65,1.62c2.79,2.76,3,2.8,5.42.39-.19-1.24-.33-2.14-.47-3-1.85,0-2.78-.65-2.18-2.75.3-1.06.1-2.25.38-3.31.5-1.88.82-4,1.89-5.51,1.81-2.61,2.09-7.07,0-9.5-.11-.47-.28-1-.49-1.64-.95-3-.92-5.4,2.14-7.17l-3-3.76,3.85-5.23c-.88-1.07-1.54-1.89-2.19-2.69.26-.18.53-.29.71-.42l5.49,4.72-4.62,2.16c1.63,1.49,3.05,2.8,4.69,4.29,1.82-.35,4.44.15,6.1-2.36.4-.61,1.7-.83,2.61-.87,2.92-.12,6.16.44,6.41-4,0-.18.48-.33.75-.49l8.1-4.74c-1.94-3-4.12-6.05.24-9l-3.38-2.9-.11.06-.1-.07c-2.06,3.36-2.58,3.52-5.65,1.87s-6.5-3.13-9.4-5.19-5.24-4.69-8-7.25L298,292.3c1.74,2.75,3.26,5.77,5.37,8.29,2.75,3.31,6.18,5.53,10.95,4.29.69-.18,1.7.89,2.58,1.46l.07-.12.14.13a13.06,13.06,0,0,1,2.68-1.47c3.65-1.09,4.85-3.54,2.65-6.53a7.66,7.66,0,0,0-1.09-1.19c1.66.52,3.3,1.08,4.9,1.72a20.8,20.8,0,0,1,5.08,3.07c1.46,1.15,2.55,2.75,4,4,.66.56,1.71.66,3.34,1.24l-1-4.61c2.51-.27,4.58.89,6.66,1.94,3.73,1.89,7.36,4,11.15,5.71,1.9.86,3.14,1.71,2.34,3.68l4.28,3c2.29-2.11-1.37-2.25-1.08-3.78.24-.25.55-.86.84-.85,1.71.06,3.34-.74,5.17,0a8.44,8.44,0,0,0,4.47.17,24.9,24.9,0,0,0,4.64-1.64c.66-.26,1.26-.64,2.49-1.28-2.38-.63-4-1.37-5.68,0-.31.25-1,.51-1.2.36-1.79-1.33-3.4-.13-4.93.34-1.91-.74-1.41-3.59-3.72-3.83-.18,0-.51-.89-.38-1.2.94-2.34-.48-3.56-2.32-4.62a13.66,13.66,0,0,1,3.4.51,21.88,21.88,0,0,1,3,1.46c.72-1.1,2.84-1.8,1.89-3.3-1.91-.5-3.33-.6-4.45-1.24a25.11,25.11,0,0,1-3.61-3.13l2.34-.7-1.5-1.45c3,0,6-1.62,7.68,1.84a1.6,1.6,0,0,0,2.63.18,20.51,20.51,0,0,0,1.91-2.6l-2.05-2-1.1,3.11-2.43-2c.4-.65.71-1.14.94-1.5-1.11-.94-2.54-1.55-2.85-2.53a7.61,7.61,0,0,0-4.89-5.12c.4-.55.63-.9.89-1.23s.71-.86,1.07-1.29l.4.84,1.65,2.49.46-.27c-.71-1.87-1.41-3.74-2.14-5.69,4.07-.23,4.64.36,4.25,4-.05.45-.13.89-.22,1.33-.34,1.63.35,2.55,1.95,2.92,4.34-3.3,3.7-8.17,3.7-12.61a6,6,0,0,0-3.68-5.43l-1.09,1.38-.53-.27c.37-1.55.73-3.1,1-4.41,1.78-.49,2.29,2.12,3.82.89-.67-1.4-1.79-2.73-1.82-4.07,0-2.23,2.64-1.41,3.79-2.38-.1-1.86-.87-3.72,1.06-5,.23-.16.11-.83.15-1.27.12-1.21.23-2.42.34-3.62l3.48-.31a37.58,37.58,0,0,1-2.26-3.31,4.72,4.72,0,0,1-.78-2.65c.39-2.24,1.09-4.43,1.68-6.7,3.24-.64,5.47,1.49,7.78,3.6l2.41-2.8c-1-.37-1.67-.55-2.25-.81-1.72-.78-4.57,0-4.47-3.32,0-.17-.51-.44-.81-.52-2.11-.54-3.1-2.27-4.6-4l3.34-.65c.48-2.09,1.7-4.26,1.21-5.93-.64-2.14-2.63-3.89-4-5.81,1.65,1.44,3.23.33,4.89,0a2.73,2.73,0,0,1,2.38.68c1,1.79,2.89,1.8,4.42,2.7l1.37-1.89c-2.6-1.18-4.18-3.44-7.11-3.71-2.13-.21-3.51-2.78-6-2.45Z"/><path class="cls-6" d="M372.92,178.21c-.58-1.5-.91-3.1-1.36-4.66-3.11-.15-3.1,3.25-5.39,4-2.36-1.61-4.89-2.26-7.63.2a7.39,7.39,0,0,0,1.53,1.57c2.05,1.1,4.23,2,6.25,3.1,3.23,1.84,6.24,2,9.11-.68.84-2.62-2-2.2-2.51-3.54Z"/><path class="cls-6" d="M368.58,198.93c1.48,2,1.57,4.88,4.75,4.63l1.77-2.19c1.81,2.56,6.11,2.54,5.29,6.34l3.51,2.66c1.36-2.68.8-4.21-5-13.46-.63,1.78-1.06,3-1.58,4.45-2.76-1.57-5.31-3-8.76-2.43Z"/><path class="cls-6" d="M377,258.66c-.4.08-.69.73-1.25,1.36,3.85,1.48,5.23,3.91,3.76,6l-3.08,1.13,4.83,2.42c1.54-3.24,1.54-3.24,1.16-6.77-.33-3.11-2.4-4.74-5.42-4.16Z"/><path class="cls-6" d="M373.81,294.63c.64,2,1.81,2.4,3.71,2-.57-1.63.12-2.44,1.72-2.64.92-.12,1.82-.41,3.46-.79l-3.91-2.07-5,3.52Z"/><path class="cls-6" d="M385.47,191.77a4,4,0,0,0-4.56-.78l9.64,4.79c-.11-1.56-.17-2.41-.24-3.42-2.06,1.26-3.52.49-4.84-.59Z"/><path class="cls-6" d="M374.93,298.07c-.73-.52-1.54-1-2.23.1,1.31,2.5,1.53,2.72,4.43,4.41a5.24,5.24,0,0,0-2.2-4.51Z"/><path class="cls-6" d="M370.47,186.24c.71,4.66,1,5.1,3.57,4.11-2.19-.62-.81-3.6-3.57-4.11Z"/><path class="cls-6" d="M111.29,122l4.94-1.76c-3-1.25-3.91-.93-4.94,1.76Z"/><path class="cls-6" d="M125.19,113.49a1.14,1.14,0,0,0,.11.11l-.06-.15,0,0,0,.06Z"/><path class="cls-6" d="M122.7,113.74c.82,1.26,1.79,1,2.49-.25l-3.39-3c.35,1.34.37,2.47.9,3.26Z"/><path class="cls-6" d="M378.82,297.63a3.86,3.86,0,0,0,.38.79l2.65-.56c-.53-.77-.86-1.25-1.2-1.73-.61.49-1.24,1-1.83,1.5Z"/><path class="cls-6" d="M357.13,200.54c-.26,0-.7.34-.72.54-.11,1.36.4,2.16,1.93,1.82,0-1.85-.31-2.45-1.21-2.36Z"/><path class="cls-6" d="M354.88,171.9c.31.25.72.51,1.17.87.36-.81.84-1.5.7-1.68a2.65,2.65,0,0,0-.52-.48c.42-.58.36-1.11.2-2.51-.34.81-.61,1.45-.9,2.12a3,3,0,0,0-.39-.13c-.17,0-.9,1-.78,1.23a1.54,1.54,0,0,0,.48.55l0,.1.09-.07Z"/><path class="cls-6" d="M382.78,221.61c.08.35.17.7.25,1,1,.8,1.71.3,2.14-.9,0-.13-.18-.34-.42-.74-.64.2-1.3.4-2,.59Z"/><path class="cls-6" d="M379.13,282.73c-.57-.26-1.16-.46-1.75-.67l-.33,1a16.69,16.69,0,0,0,1.83.42,3,3,0,0,0,.25-.77Z"/><path class="cls-6" d="M378.26,274.58l-.71-.77-.7.59c.23.21.43.54.69.59s.48-.26.72-.41Z"/><path class="cls-6" d="M370.1,304.46a4.13,4.13,0,0,0,.27,1.17c.31-.18.8-.31.88-.58s-.17-.71-.33-1.26c-.41.33-.81.49-.82.67Z"/><path class="cls-6" d="M385.53,242.06a15.32,15.32,0,0,0,.15,1.65l.9-.12c-.08-.56-.15-1.11-.22-1.66a4.91,4.91,0,0,0-.83.13Z"/><path class="cls-6" d="M381.66,238.87l-.53-.11c-.14.45-.27.88-.4,1.33l.77.23c.05-.48.1-1,.16-1.45Z"/><path class="cls-6" d="M377.82,192.68a5.8,5.8,0,0,0,.86-.66,3.58,3.58,0,0,0-.94-.73c-.15,0-.64.43-.6.52a2.29,2.29,0,0,0,.68.87Z"/><path class="cls-6" d="M113,101.15c4,2.39,4,2.28,3.42,6.79-.15,1.31-1.18,3,.9,4.33a58.49,58.49,0,0,0,3.78-7.43c.34-1-.55-2.55-1.26-3.6s-2.54-1.54-2.64-2.42c-.48-4.51-3.62-6.24-7.26-7.73l-4.77,1.58c.74,1.62,1,3.13,1.91,4a32.73,32.73,0,0,0,5.92,4.49Z"/><path class="cls-6" d="M116.13,92.85c1.49-1.47,2.37-3.13,4.23-1.7A62,62,0,0,1,127,96.3c1.9,1.92,3.13,1.39,4.82-.6l-8-7.45A22.13,22.13,0,0,1,120.43,85c-2.22-3.16-2.13-3.22-7.2-2.29,1.14,1.53,2.61,2.78,3.06,4.32s-.05,3.5-.16,5.78Z"/><path class="cls-6" d="M132.59,90.09c-.11-.78-.23-1.56-.41-2.75L129,87.7c.24.76.27,1.94.77,2.19.76.4,1.85.16,2.8.2Z"/><path class="cls-6" d="M110.47,103.86c.4.4.74,1,1.23,1.14a5.67,5.67,0,0,0,1.81.11c0-.21.09-.43.14-.64l-2.57-1.41-.61.8Z"/><path class="cls-6" d="M266.32,366.56h0c0-3.61-2.25-11.06-4.09-13.21-1.49,1.09-1.61,2.35-.81,3.95a14.54,14.54,0,0,1,1.57,4.23,2.9,2.9,0,0,1-1.3,2.35,3.63,3.63,0,0,1-2.72-.21c-.6-.27-.82-1.36-1.42-1.71-1.26-.72-3-2-3.94-1.6-1.89.71-3.5,2.3-5.05,3.72s-1.47,3-.77,4.83c.92,2.4,1.61,4.9,2.4,7.37l8.32-4c-.22-1-.45-2.2-.74-3.38s-1.08-2.22.14-3.74a22.92,22.92,0,0,0,7.18,7.68,23.15,23.15,0,0,1,.08-3.86,10.36,10.36,0,0,1,1.17-2.45l.07,0s0,0,0-.08l-.08.12Z"/><path class="cls-6" d="M205.44,65.21a10.08,10.08,0,0,1,3.5,5.38c-3.46,3-3.46,3-.88,6.27,0-2.45.67-4,2.87-4.13.32,0,1-1.67.71-2.07-2-3-1.53-6.47-1.94-9.76-.17-1.33-.41-2.66-.55-3.57l-7.88-1.12c-.13.47-.7,1.36-.46,1.8,1.4,2.51,2.59,5.35,4.63,7.2Z"/><path class="cls-6" d="M232.6,341.16c-.21,1.48-.36,2.85-.6,4.19a5.27,5.27,0,0,0,2.75,5.57c1.32.56,2.7,1,4.47,1.6-.12-1.5-.21-2.65-.33-4.1l-4,1.67c-.65-2.45,1.08-3.2,2.17-4.34.2-.21.18-.63.35-1.26l-3.68.56,2.3-2.66-3.45-1.23Z"/><path class="cls-6" d="M200.08,85.05c1.15,1.58,2.31,3.15,3.48,4.74.95-1.45.95-1.45-.87-5.53l1.81-1.08c-2.38-3.24-2.36-3.42.52-6.26-.2-.14-.44-.43-.59-.39-2.1.58-5.24,5.87-4.68,7.84a2,2,0,0,0,.33.68Z"/><path class="cls-6" d="M244.72,66.14c-.25,1.17-.34,2.24,1.5,2.85.7-2.17,1.37-4.21,2-6.26-2.39.31-3.08,1.27-3.53,3.41Z"/><path class="cls-6" d="M226,310.68c1.8-1.57,1.8-1.57,2.54-5-3.57.34-4,1.33-2.54,5Z"/><path class="cls-6" d="M208.44,384.2a9.55,9.55,0,0,0-1.82-7.65c-.53,2.6-.61,5.07,1.82,7.65Z"/><path class="cls-6" d="M301.77,357.72c-.47,1.6-.93,3.21-1.41,4.87l4.27-1.75-1.95-3.4-.91.28Z"/><path class="cls-6" d="M213.15,373.81l-.35.75,5.33,2.53c-.52-2.94-1.23-3.37-5-3.28Z"/><path class="cls-6" d="M294.14,329.73c-2.22,2.59-2.22,2.59.11,5,1.18-1.59,1.22-3.06-.11-5Z"/><path class="cls-6" d="M233.75,353.86c.33,1.07.69,2.24,1.1,3.59,1.9-.82,2.27-1.91,1.71-3.2-.45-1.05-1.34-1.4-2.81-.39Z"/><path class="cls-6" d="M194.16,376.76c0,.27,0,.55,0,.83.66.21,1.56.8,2,.56,1-.58,2.85-.88,1.56-3.43l-3.55,2Z"/><path class="cls-6" d="M294.61,338.36c-1.15,2.1-1.65,3.3-.07,4.28.29.19,1-.27,1.7-.49l-1.63-3.79Z"/><path class="cls-6" d="M190.78,67.9l3,2.59c-.1-3.49-.16-3.54-3-2.59Z"/><path class="cls-6" d="M290.29,355.41q-.29,3-.55,5.94c2.21-1.67,2.12-3.69.55-5.94Z"/><path class="cls-6" d="M289.74,361.35l-.13.1h0s0,.05,0,.08h.1s0-.11,0-.17Z"/><path class="cls-6" d="M293.42,365.89c1.47-1.26,1.45-2.38.35-3.87-1.59,1.24-1.4,2.37-.35,3.87Z"/><path class="cls-6" d="M207.94,87.17l1.18-.15c-.1-1-.21-2-.31-3l-1,.06.09,3.06Z"/><path class="cls-6" d="M192.94,61c-.32.44-1,.95-.88,1.3s.74.85,1.24,1.06c.16.07.6-.56,1.07-1L192.94,61Z"/><path class="cls-6" d="M240.26,369.22h-1c-.12,1-.81,2,.77,3.62l.22-3.62Z"/><path class="cls-6" d="M240,377.18c0,.11.34.25.62.43,1.16-.71,1.26-1.52-.25-3.32-.21,1.51-.33,2.2-.37,2.89Z"/><path class="cls-6" d="M280.56,366.2c-.26,1.73-.52,3,1.32,3.64,1-1.51.31-2.42-1.32-3.64Z"/><path class="cls-6" d="M200.72,95.28c-.05.22.54.6.84.9l1.94-2c-.95-.15-1.54-.44-1.88-.25a2.14,2.14,0,0,0-.9,1.3Z"/><path class="cls-6" d="M215.34,377.83c-.24.34-.77.8-.69,1,.21.47.7.81,1.41,1.55.19-.89.45-1.38.32-1.68s-.68-.58-1-.86Z"/><path class="cls-6" d="M240.41,355.32c.45,1.24.76,2.07,1.06,2.91.74-1.31,1.05-2.49-1.06-2.91Z"/><path class="cls-6" d="M253,59.54a7.75,7.75,0,0,0,1.14-1.15c-.27-.19-.63-.59-.79-.52a9.14,9.14,0,0,0-1.54,1.06c.62.33,1.06.7,1.19.61Z"/><path class="cls-6" d="M296.13,344.54c0,.91,0,1.72-.07,3,1.52-.94,1.48-1.79,1.09-2.7-.06-.14-.42-.15-1-.33Z"/><path class="cls-6" d="M229.41,317.7l1,.36c.11-.34.36-.72.28-1s-.54-.33-.83-.49l-.48,1.13Z"/><path class="cls-6" d="M229.5,55.32c-.42-.16-.78-.44-1-.35s-.41.52-.61.8l1.1.59.52-1Z"/><path class="cls-6" d="M231.41,313.07a1.14,1.14,0,0,0-.82-.56c-.22,0-.45.4-.68.63.31.27.62.56,1.11,1,.22-.56.48-.92.39-1.08Z"/><path class="cls-6" d="M245.77,360.69c-.1.26-.21.52-.31.77l.63.14c.08-.19.28-.43.22-.55s-.35-.24-.54-.36Z"/><path class="cls-6" d="M330.92,111.31a22.14,22.14,0,0,0,4.57-1.33c.87-.36,2-1,2.22-1.8.45-1.61,2.09-3.28,0-5.46L325.28,108c1.16,2.82,3.11,3.7,5.64,3.28Z"/><path class="cls-6" d="M273.59,88.13c.26,1.91-.76,2.73-2,3.35a3.23,3.23,0,0,0-2,3.08c2.31-1.93,4.23-3.53,6.58-5.51l-2.57-.92Z"/><path class="cls-6" d="M347.56,130.16c.11-.56.24-1.2.43-2.11l-1.65.31c.16.62.32,1.23.52,1.83a3.13,3.13,0,0,0,.7,0Z"/><path class="cls-6" d="M293.43,101.29c-.07-.07-.3,0-.67.07-.06.53-.13,1.08-.2,1.63l.85.15c.92-.5.76-1.15,0-1.85Z"/><path class="cls-6" d="M227.56,130.87a10.48,10.48,0,0,0-.47-1.14,3.11,3.11,0,0,0-.64.18l.66,1.16.45-.2Z"/><path class="cls-6" d="M329.9,123.88c.09-.13,0-.43-.07-.65l-.79.27c.08.27.15.48.21.7.22-.1.53-.14.65-.32Z"/><path class="cls-6" d="M246,122.14c.21.07.44.24.6.18s.3-.32.61-.7a3.75,3.75,0,0,0-.92.11c-.13.06-.19.27-.29.41Z"/><path class="cls-6" d="M269,97.58a1.84,1.84,0,0,0,.85-.21,4.67,4.67,0,0,0-.21-.85,2.85,2.85,0,0,0-.83.46c-.08.09.11.6.19.6Z"/><path class="cls-6" d="M142.17,354.65c0,.82,0,1.65,0,2.48l.46,0c0-.82,0-1.64,0-2.47l-.46,0Z"/><path class="cls-6" d="M116.58,353.56c1.1-.42,1.77-.73,1.45-1.82-1.33-.13-1.44.61-1.45,1.82Z"/><path class="cls-6" d="M112.12,312.54l-.46-.13c-.2.56-.41,1.12-.61,1.69l.56.17.51-1.73Z"/><path class="cls-6" d="M150.62,355.12l.07,0,0,0,0,0h0a0,0,0,0,0,0,0l-.06,0,0,0Z"/><path class="cls-6" d="M149.37,355.31c-.06.09,0,.31.08.47a5.93,5.93,0,0,0,.83-.32,1.37,1.37,0,0,0,.34-.34,1.67,1.67,0,0,0-.68-.21,1,1,0,0,0-.57.4Z"/><polygon class="cls-4" points="86.42 351.61 86.42 364.11 338.31 364.11 338.4 351.61 86.42 351.61 86.42 351.61"/><path class="cls-7" d="M133.08,265.5,117,215.26h12.45l6.11,21.24c1.71,6,3.28,11.7,4.47,18h.23c1.26-6,2.83-12,4.54-17.74l6.41-21.46h12.08L146.35,265.5Z"/><path class="cls-7" d="M180,215.26V265.5H168.63V215.26Z"/><path class="cls-7" d="M189.88,215.93a89.94,89.94,0,0,1,14.68-1.05c6.93,0,11.18.67,14.83,2.84a10.92,10.92,0,0,1,6,9.84c0,4.47-2.61,8.64-8.27,10.73v.15c5.74,1.56,10,5.89,10,12.37a13.38,13.38,0,0,1-5.22,10.66c-3.66,2.91-9.77,4.55-19.76,4.55a88,88,0,0,1-12.29-.75Zm11.25,19.23h3.73c6,0,9.17-2.46,9.17-6.19s-2.91-5.81-8.05-5.81a30.92,30.92,0,0,0-4.85.3Zm0,22.28a35.66,35.66,0,0,0,4.4.15c5.14,0,9.69-1.93,9.69-7.23,0-5.06-4.55-7.08-10.21-7.08h-3.88Z"/><path class="cls-7" d="M264.79,244.25H246.3v11.93H267v9.32h-32V215.26h31v9.31H246.3V235h18.49Z"/><path class="cls-7" d="M275.07,253.79a28.93,28.93,0,0,0,12.6,3.13c5.22,0,8-2.16,8-5.44,0-3.13-2.38-4.92-8.42-7.08-8.35-2.91-13.79-7.53-13.79-14.83,0-8.57,7.16-15.13,19-15.13A30.83,30.83,0,0,1,305.26,217l-2.53,9.17a23.94,23.94,0,0,0-10.52-2.39c-4.91,0-7.3,2.24-7.3,4.85,0,3.2,2.83,4.62,9.32,7.08,8.87,3.28,13,7.9,13,15,0,8.42-6.48,15.58-20.27,15.58-5.74,0-11.41-1.49-14.24-3.06Z"/><path class="cls-7" d="M158.62,179.49V200.6a17.13,17.13,0,0,1-3.22,1.69,29.65,29.65,0,0,1-3.73,1.24,28.87,28.87,0,0,1-3.92.76,31.29,31.29,0,0,1-3.73.24,20.25,20.25,0,0,1-8.75-1.81,19.3,19.3,0,0,1-6.48-4.9,21.73,21.73,0,0,1-4-7.17,26.44,26.44,0,0,1-1.39-8.62,25.81,25.81,0,0,1,1.5-8.89A22.31,22.31,0,0,1,129,166a18.87,18.87,0,0,1,14.46-6.47,21.85,21.85,0,0,1,8.72,1.48,16.11,16.11,0,0,1,5.67,4.08l-3.71,4.42a13.52,13.52,0,0,0-5.06-3.54,15.8,15.8,0,0,0-5.62-1,13,13,0,0,0-6,1.36A14.53,14.53,0,0,0,132.9,170a16.6,16.6,0,0,0-2.94,5.41,20.9,20.9,0,0,0-1,6.62,19.52,19.52,0,0,0,1.14,6.75,17.06,17.06,0,0,0,3.16,5.41,14.63,14.63,0,0,0,4.74,3.6,13.59,13.59,0,0,0,5.94,1.3,22.92,22.92,0,0,0,5.26-.58,13.63,13.63,0,0,0,4.22-1.66V184.94h-8.55v-5.45Z"/><path class="cls-7" d="M185.86,204.53a18.83,18.83,0,0,1-14.46-6.47,22.2,22.2,0,0,1-4.15-7.14,27.27,27.27,0,0,1,0-17.78A22.15,22.15,0,0,1,171.4,166a19.26,19.26,0,0,1,28.93,0,22.31,22.31,0,0,1,4.14,7.13,27.27,27.27,0,0,1,0,17.78,22.36,22.36,0,0,1-4.14,7.14,18.87,18.87,0,0,1-14.47,6.47Zm0-5.44a13.07,13.07,0,0,0,6-1.36,14.42,14.42,0,0,0,4.58-3.66,16.6,16.6,0,0,0,2.94-5.41,21.62,21.62,0,0,0,0-13.25,16.6,16.6,0,0,0-2.94-5.41,14.42,14.42,0,0,0-4.58-3.66,13.87,13.87,0,0,0-12,0,14.42,14.42,0,0,0-4.58,3.66,16.6,16.6,0,0,0-2.94,5.41,21.62,21.62,0,0,0,0,13.25,16.6,16.6,0,0,0,2.94,5.41,14.42,14.42,0,0,0,4.58,3.66A13.07,13.07,0,0,0,185.86,199.09Z"/><path class="cls-7" d="M231.19,204.53a18.87,18.87,0,0,1-14.47-6.47,22.36,22.36,0,0,1-4.14-7.14,27.09,27.09,0,0,1,0-17.78,22.31,22.31,0,0,1,4.14-7.13,19.25,19.25,0,0,1,28.93,0,22.31,22.31,0,0,1,4.14,7.13,27.09,27.09,0,0,1,0,17.78,22.36,22.36,0,0,1-4.14,7.14,18.83,18.83,0,0,1-14.46,6.47Zm0-5.44a13.1,13.1,0,0,0,6-1.36,14.42,14.42,0,0,0,4.58-3.66,16.6,16.6,0,0,0,2.94-5.41,21.82,21.82,0,0,0,0-13.25,16.6,16.6,0,0,0-2.94-5.41,14.42,14.42,0,0,0-4.58-3.66,13.89,13.89,0,0,0-12,0,14.5,14.5,0,0,0-4.57,3.66,16.6,16.6,0,0,0-2.94,5.41,21.62,21.62,0,0,0,0,13.25,16.6,16.6,0,0,0,2.94,5.41,14.5,14.5,0,0,0,4.57,3.66A13.11,13.11,0,0,0,231.19,199.09Z"/><path class="cls-7" d="M257.94,160.63h13.45a22.8,22.8,0,0,1,7.17,1,18.45,18.45,0,0,1,5.34,2.76,16.77,16.77,0,0,1,3.76,4A21.77,21.77,0,0,1,290,173a25.17,25.17,0,0,1,1.25,4.72,27.84,27.84,0,0,1,.38,4.35,23.57,23.57,0,0,1-1.36,8,20.47,20.47,0,0,1-4,6.83,19.81,19.81,0,0,1-6.62,4.81,21.69,21.69,0,0,1-9.13,1.81H257.94ZM263.17,198h6.59a19.46,19.46,0,0,0,6.29-1,14.73,14.73,0,0,0,5.21-3,14.35,14.35,0,0,0,3.54-5,17.37,17.37,0,0,0,1.31-7,23.56,23.56,0,0,0-.6-4.8,15,15,0,0,0-2.27-5.23,13.71,13.71,0,0,0-4.6-4.21,14.94,14.94,0,0,0-7.63-1.72h-7.84Z"/></g></g></svg>