<svg xmlns="http://www.w3.org/2000/svg" xmlns:xlink="http://www.w3.org/1999/xlink" width="263.815" height="52.683" viewBox="0 0 263.815 52.683">
  <defs>
    <clipPath id="clip-path">
      <rect id="Rectangle_18252" data-name="Rectangle 18252" width="263.815" height="52.683" fill="none"/>
    </clipPath>
  </defs>
  <g id="podpis" transform="translate(214.85 42.905)">
    <g id="Group_4834" data-name="Group 4834" transform="translate(-214.85 -42.905)" clip-path="url(#clip-path)">
      <path id="Path_34453" data-name="Path 34453" d="M1.725,21.083c-2.149.737-1.658,6.938.86,10.437.184.061.368.368.553.491a1.719,1.719,0,0,0,1.412.737H5.1a3.019,3.019,0,0,0,2.333-.982,10.376,10.376,0,0,0,2.824-3.807c.553-1.228.982-2.579,1.473-3.868l1.473-4.236,1.351-3.806c.307-.921.553-1.9.921-2.824l1.228-3.377a2.64,2.64,0,0,1,.43-.737c.061-.123.246-.061.368-.123l.368-.368L17.565,8.5l-1.6.368c-.8.061-1.535.491-2.394.184h-.86c-1.351.123-2.21-.86-3.193-1.473a3.438,3.438,0,0,1-1.6-1.9l-.184-.246-.184.246v.184c-.061.921-.123,1.78-.184,2.7s-.061,1.78-.123,2.7a8.841,8.841,0,0,0-.061,1.412,17.866,17.866,0,0,0,.368,2.087c.061.246.184.614-.123.675a.675.675,0,0,1-.921-.307,3.5,3.5,0,0,1-.491-1.719c0-.737-.061-1.473,0-2.149s.246-2.517.368-3.807.307-2.579.491-3.868a.8.8,0,0,1,.737-.8.779.779,0,0,1,.982.491c.184.491.614,1.412.8,2.087a3.5,3.5,0,0,0,1.473,1.658,7.122,7.122,0,0,0,3.561,1.228,7.859,7.859,0,0,0,2.272-.246,2.456,2.456,0,0,0,1.719-1.535c.307-.553.675-1.044.982-1.658s.368-.921.614-1.351a1.167,1.167,0,0,1,.553-.553c.307-.061.675-.123.921.246a.982.982,0,0,1,.061.491,5.956,5.956,0,0,1-.061.921,4.359,4.359,0,0,1-2.087,2.947,2.763,2.763,0,0,0-.921,1.167c-.553,1.105-.982,2.21-1.473,3.377s-.737,2.087-1.105,3.131L14.618,18.75,13.575,21.7,12.285,25.5a14.244,14.244,0,0,1-.614,2.026,14.98,14.98,0,0,1-3.622,4.789,4.857,4.857,0,0,1-3.807,1.412C2.708,33.547.375,28.389.068,26.609s.86-4.482.86-4.666l.614-1.412m14.428-6.569.368-.675c.061-.123-.061-.246-.061-.368s-.246.123-.246.246a2.4,2.4,0,0,1-.184.8l-.246.675v.184l.123-.184a4.666,4.666,0,0,1,.246-.675M17.442,9.48c-.061.061-.184.123-.246.246s-.307,1.228-.491,1.9a2.456,2.456,0,0,0-.061.307l.246-.246a15.84,15.84,0,0,0,.553-2.21m-2.7,8.043.614-1.473V15.8l-.184.184-.675,1.6v.246l.184-.246m-.8,2.026-.614,1.351h.246l.368-1.351M14,18.935a.553.553,0,0,1,0,.246c-.061.061,0,.184-.061.307l.246-.184c.123-.368.184-.675.307-1.044v-.123h-.123l-.307.737m-1.535,4.42v.368l.184-.184a.184.184,0,0,0-.061-.246" transform="translate(-0.006 -1.069)" fill="#97704f"/>
      <path id="Path_34454" data-name="Path 34454" d="M2.694,30.756l2.087-1.167c.123-.061.307.061.43.061s-.061.246-.184.307l-.8.491L2.694,31.492a7.367,7.367,0,0,1,0-.737" transform="translate(-1.037 -11.416)" fill="#97704f"/>
      <path id="Path_34455" data-name="Path 34455" d="M80.732,25.865l-.184.246a.737.737,0,0,0-.061.246h.246c.491-.553,1.167-.553,1.78-.737a1.535,1.535,0,0,1,.982.061c.737.307,1.412.737,1.412,1.719v.246l.246-.123a12.463,12.463,0,0,1,3.193-2.394,12.279,12.279,0,0,1,3.622-1.535,3.561,3.561,0,0,1,2.026,0c.982.368,1.044.8.8,1.6a6.017,6.017,0,0,1-.982,1.6,10.069,10.069,0,0,1-1.535,1.719c-1.044.86-1.719,2.026-2.7,2.886l-.921.921a3.008,3.008,0,0,1-1.78.675h-.307l.123-.368.123-.123A6.537,6.537,0,0,0,88.9,30.9a11.071,11.071,0,0,0,1.473-1.473c.43-.553,1.719-2.087,2.517-3.131a1.781,1.781,0,0,0,.246-.982.614.614,0,0,0-.368-.43,3.131,3.131,0,0,0-2.026.246,36.545,36.545,0,0,0-3.684,2.21,5.587,5.587,0,0,0-2.333,3.008,3.193,3.193,0,0,1-.553,1.105,2.517,2.517,0,0,0,1.658,3.929,7.437,7.437,0,0,0,5.1-1.044l1.658-.982a2.394,2.394,0,0,0,1.228-2.087A5.1,5.1,0,0,1,94.669,29a17.329,17.329,0,0,1,1.105-1.78l1.842-2.394,1.6-1.78L100.317,22l1.105-.982.921-.86a2.763,2.763,0,0,1,1.412-.86,1.105,1.105,0,0,1,.737.184c.246.184.184.43,0,.675s-.921,1.842-1.412,2.7-1.473,2.517-2.272,3.684A10.376,10.376,0,0,1,98.844,29c-.184.184-.368.43-.553.614L95.467,32c-.184.184-.307.246-.184.614s.123.8.246,1.228a1.167,1.167,0,0,0,.553.614,3.23,3.23,0,0,0,2.272-.123,9.148,9.148,0,0,0,3.254-1.9,3.008,3.008,0,0,0,.982-1.044,1.228,1.228,0,0,1,1.719-.43l.123.123a.553.553,0,0,1,.123.675,2.947,2.947,0,0,0-.123,2.394c.246.614.737.675,1.228.8H106.7l-.123-.123a4.111,4.111,0,0,1-1.535-2.947A3.991,3.991,0,0,1,105.352,29a5.833,5.833,0,0,1,3.806-2.947,9.332,9.332,0,0,1,2.21-.307,2.333,2.333,0,0,1,1.842.737l.368.246a1.78,1.78,0,0,1,1.044,1.289,4.973,4.973,0,0,1,.184,2.824,1.9,1.9,0,0,1-.368.675,12.156,12.156,0,0,1-4.113,3.008l-.43.123-.307.246.368.184,1.535.123,2.272.123a11.3,11.3,0,0,0,3.807-.553h.123c.246.061.614-.184.675.184l-.553.246c-.553.368-1.289.246-1.842.43-2.21.737-4.482.368-6.692.43a1.351,1.351,0,0,1-.737-.123,2.538,2.538,0,0,0-2.21,0,4.727,4.727,0,0,1-2.886-.123,2.971,2.971,0,0,1-1.167-2.272,1.351,1.351,0,0,0,0-.246h-.246l-1.412.921-1.965.921-1.412.491a3.991,3.991,0,0,1-2.149.123.976.976,0,0,1-.675-.614,2.763,2.763,0,0,1-.491-1.535c.061-.368-.184-.246-.368-.123a27.626,27.626,0,0,1-3.07,1.842,10.109,10.109,0,0,1-4.85,1.167,3.745,3.745,0,0,1-3.193-2.333,1.842,1.842,0,0,1-.061-.43v-.246l-.246.123a15.6,15.6,0,0,1-3.254,2.456,6.631,6.631,0,0,1-2.7.86,1.351,1.351,0,0,1-.8-.123,2.744,2.744,0,0,1-1.6-1.965l-.184-.491-.43.184a10.192,10.192,0,0,1-3.315,1.78,3.131,3.131,0,0,1-1.658,0c-.921-.184-1.167-.8-.737-1.658L68.76,32l.737-1.228a.553.553,0,0,1,.675-.246c.246.123.184.368.184.614a8.166,8.166,0,0,1-.86,1.9,10.745,10.745,0,0,0-.491,1.658c-.061.307.123.491.491.491a11.068,11.068,0,0,0,3.254-1.167l.675-.553c.246-.184.246-.368.184-.675a2.947,2.947,0,0,1,.061-.982A13.077,13.077,0,0,1,76.066,26.6a24.314,24.314,0,0,1,2.149-2.7,36.161,36.161,0,0,1,3.008-2.7,4.482,4.482,0,0,1,1.351-.675,1.167,1.167,0,0,1,.8.061c.307.123.43.368.061.614a1.492,1.492,0,0,0-.553.86l-1.535,3.07-.614.737m.982.921a4.236,4.236,0,0,0-2.64,1.9c-.246.43-.614.8-.86,1.167a2.579,2.579,0,0,0-.737,1.719c.061.491-.184.614-.675.491a.675.675,0,0,0-.8.184l-.737.614c-.491.368-.491.614-.246,1.167a1.842,1.842,0,0,0,.184.491c.307.368.614.86,1.044.982a5.507,5.507,0,0,0,3.07-.737l1.719-1.351A5.034,5.034,0,0,0,82.7,31.33a4.175,4.175,0,0,1,.614-1.351,2.6,2.6,0,0,0,.368-2.21.86.86,0,0,0-.614-.737,1.719,1.719,0,0,0-1.412-.123m25.356,6.14.675,1.044a.921.921,0,0,0,1.289.246h.061l1.167-.675a5.894,5.894,0,0,0,2.21-1.6,2.886,2.886,0,0,0,.86-2.456,4.912,4.912,0,0,0-.921-2.149c-.8-1.044-2.579-.921-3.561-.307l-1.105.553a3.5,3.5,0,0,0-1.473,3.008,3.193,3.193,0,0,0,.86,2.21M80.241,25.19l1.105-2.517a1.78,1.78,0,0,0,.061-.491l-.43.184-.491.368a37.126,37.126,0,0,0-2.64,2.763,20.015,20.015,0,0,0-1.658,2.456c-.246.43-.368.921-.614,1.289a9.516,9.516,0,0,0-.86,2.824.466.466,0,0,0,.123.246l.184-.123.737-.8a12.279,12.279,0,0,0,1.167-1.412,11.174,11.174,0,0,1,2.087-2.886,3.868,3.868,0,0,0,1.228-1.9m21.243-1.6.8-1.658.123-.43-.43.184L99.7,24.024c-.614.614-1.228,1.289-1.78,1.965a18.42,18.42,0,0,0-1.535,2.333,25.17,25.17,0,0,0-1.044,2.394.184.184,0,0,0,0,.123l.123.307.184-.123.737-.8a16.208,16.208,0,0,0,2.886-3.07c.675-1.167,1.473-2.272,2.272-3.438Z" transform="translate(-25.968 -7.447)" fill="#97704f"/>
      <path id="Path_34456" data-name="Path 34456" d="M220.9,24.927l-.982,1.351c-.061.123-.246.184-.307.307a2.947,2.947,0,0,1-1.9,1.658,2.21,2.21,0,0,0-1.535,1.719c-.307,1.351-.737,2.64-1.105,4.052s-.491,2.333-.737,3.561l-.614,2.824a5.771,5.771,0,0,0-.184,1.105,12.77,12.77,0,0,1-.8,3.622,4.6,4.6,0,0,1-2.824,2.947,8.289,8.289,0,0,1-3.807.8,6.131,6.131,0,0,1-5.464-3.806,3.438,3.438,0,0,1-.061-1.965l.553-2.579a12.464,12.464,0,0,1,1.6-3.315,27.812,27.812,0,0,1,3.806-4.666c.982-1.044,2.026-1.965,3.07-2.886l1.473-.921.246-.123-.246-.123-1.044-.307h-3.315a2.73,2.73,0,0,1-2.394-3.07,3.684,3.684,0,0,1,1.044-1.78c.737-.86,1.412-1.78,2.087-2.64a.184.184,0,0,0,0-.184l-.184-.123a29.777,29.777,0,0,0-5.1,1.105l-.737.307a.491.491,0,0,0-.246.368,7.614,7.614,0,0,0,.307,1.6,3.561,3.561,0,0,1-.614,3.684,8.227,8.227,0,0,1-3.377,2.333l-2.64.553a6.324,6.324,0,0,1-3.07.123,4.472,4.472,0,0,1-2.947-1.289A1.228,1.228,0,0,1,188.482,28c.184-.614.307-1.289.491-1.9a3.622,3.622,0,0,1,.614-.921h.307a1.719,1.719,0,0,1,0,.307c-.123.614-.553,1.167-.491,1.9s.184,1.105.982,1.351l2.21.675a4.175,4.175,0,0,0,1.412.061l2.149-.368a11.235,11.235,0,0,0,1.965-.8,4.175,4.175,0,0,0,1.9-2.087,3.622,3.622,0,0,0-.061-3.07,2.764,2.764,0,0,1-.123-.86c0-.184.061-.553-.368-.307l-.184-.246c-.061-.123,0-.246-.061-.368a9.946,9.946,0,0,0-1.658-2.824,15.225,15.225,0,0,1-1.289-1.658c-.246-.368-.43-.8-.675-1.228s-.184-.368-.307-.43a2.886,2.886,0,0,1-1.351-2.394,2.64,2.64,0,0,0-.184-.614l-.123-.123v.184a4.425,4.425,0,0,0,.123.614c-.184-.184-.43-.307-.491-.491a17.5,17.5,0,0,1-.86-2.64c-.184-.86.675-1.842,1.719-2.149l2.21-.43L198.674,7a13.691,13.691,0,0,1,5.1,1.044l.737.246c.553.246.675.8.921,1.228s0,.307-.246.246a4.157,4.157,0,0,1-1.6-.491,6.14,6.14,0,0,0-3.07-1.228,17.007,17.007,0,0,0-2.579-.307,12.279,12.279,0,0,0-2.272.307l-1.105.368a.737.737,0,0,0-.368.43,3.561,3.561,0,0,0,0,2.21,16.208,16.208,0,0,0,1.842,3.315,37.75,37.75,0,0,0,2.272,3.193c.8,1.044.491.184.614.368A12.036,12.036,0,0,1,199.9,19.4l.614,1.289a.3.3,0,0,0,.491.123,13.752,13.752,0,0,1,3.254-.982l2.517-.614.982-.123,1.351-.184a.553.553,0,0,1,.614.86,13.02,13.02,0,0,1-1.228,1.9,16.013,16.013,0,0,1-1.473,1.412,3.377,3.377,0,0,0-1.044,1.965,1.658,1.658,0,0,0,1.6,1.719h3.991a2.579,2.579,0,0,1,.982.184,1.9,1.9,0,0,0,1.6,0l.921-.184h.246l-.246.184-.553.184-.246.184.368.246c.737.123,1.044-.061,1.289-.8a7.122,7.122,0,0,1,2.886-3.745,5.4,5.4,0,0,1,1.044-.737,1.658,1.658,0,0,1,1.167,0,.737.737,0,0,1,.43.982v.123c-.246.491-.368.982-.614,1.473m-12.4,6.631-2.149,2.21a19.218,19.218,0,0,0-2.087,2.579,32.049,32.049,0,0,0-1.9,3.868,6.14,6.14,0,0,0-.368,1.9,3.94,3.94,0,0,0,.246,2.517c.491.8.737,1.105,1.044,1.658a1.351,1.351,0,0,0,.8.737,7.576,7.576,0,0,0,4.359.553,3.745,3.745,0,0,0,2.579-1.842,9.639,9.639,0,0,0,.675-1.473,18.414,18.414,0,0,0,.614-2.272c.246-1.473.43-3.008.737-4.482s.553-2.394.86-3.561.86-2.947,1.351-4.482c.123-.43,0-.614-.43-.553a3.438,3.438,0,0,1-1.535-.184,1.965,1.965,0,0,0-2.087.43l-2.7,2.272m11.113-7.429-.246.123a12.033,12.033,0,0,0-2.087,2.886c-.061.123,0,.307,0,.43l.368-.246,2.149-3.008c.061-.061,0-.184-.123-.246m-26.339-13.2-.123.184h.123a.553.553,0,0,0,0-.307" transform="translate(-72.752 -2.702)" fill="#97704f"/>
      <path id="Path_34457" data-name="Path 34457" d="M275.281,33.067c-.675-.614-.614-.614-1.473-.246l-3.377,1.535a4.666,4.666,0,0,1-1.965.368,1.473,1.473,0,0,1-1.412-1.965v-.491l-.553.246-1.289.921c-.614.43-1.228.86-1.842,1.228a13.63,13.63,0,0,1-3.929,1.78,1.67,1.67,0,0,1-1.965-.675,3.192,3.192,0,0,1-.123-1.535,6.937,6.937,0,0,1,.491-1.351,1.106,1.106,0,0,0,0-.368l-.307.123a11.174,11.174,0,0,1-2.824,2.087,24.436,24.436,0,0,1-3.254,1.473,2.886,2.886,0,0,1-1.535.184A1.351,1.351,0,0,1,249,34.664h0l.675-2.333a.92.92,0,0,0,0-.246l-.184.123-1.6,1.9c-.921,1.105-1.9,2.149-2.763,3.254a6.938,6.938,0,0,0-1.289,1.965c-.061.246-.43.43-.737.614s-.553-.368-.43-.737a7.245,7.245,0,0,1,.921-1.658c.737-.921,1.6-1.78,2.394-2.64s1.9-1.965,2.824-2.947a26.522,26.522,0,0,0,1.658-2.21,15.554,15.554,0,0,0,1.105-1.658,12.712,12.712,0,0,0,.737-1.473,1.965,1.965,0,0,1,1.228-.921c.553,0,.8.307.553.8l-.8,1.535c-.614,1.167-1.289,2.272-1.9,3.438a8.287,8.287,0,0,0-.675,1.78,4.6,4.6,0,0,0-.061,1.473c0,.246.184.368.491.368a5.894,5.894,0,0,0,3.131-1.044,28.422,28.422,0,0,0,2.763-1.9,12.463,12.463,0,0,0,3.5-3.684,1.167,1.167,0,0,1,1.474-.553c.43.123.491.43.184.8a17.19,17.19,0,0,0-1.9,2.394,9.709,9.709,0,0,0-1.473,2.579,1.842,1.842,0,0,0,.184,1.228.614.614,0,0,0,.43.246h.553c1.167.246,1.965-.491,2.824-.982s1.965-1.289,2.947-1.9a20.873,20.873,0,0,0,3.929-3.315,9.516,9.516,0,0,1,1.412-.982c.368-.246.491.123.675.307s.061.43-.123.614l-1.351,1.289a5.4,5.4,0,0,0-1.535,2.517c-.123.553.246.921.86.8l1.9-.368a7.736,7.736,0,0,0,2.763-1.658c.614-.43,1.044-1.105,1.78-1.412s.184-.43.368-.614a8.534,8.534,0,0,1,1.535-1.535,6.324,6.324,0,0,1,3.131-1.044,3.193,3.193,0,0,1,2.7.982,2.087,2.087,0,0,1-.123,2.394l-.675.86a4.175,4.175,0,0,1-1.719,1.228l-.368.184-.246.184.43.123,1.78-.307,2.087-.675a7.244,7.244,0,0,0,1.535-.675l1.412-1.228,2.149-1.965a3.131,3.131,0,0,1,1.412-.737c.43-.123.737-.061.86.307a.8.8,0,0,1-.368.8L288.91,30.8a3.827,3.827,0,0,0-.982,2.272c-.184.8.368.8.8.86a4.85,4.85,0,0,0,2.456-.614l2.087-1.167,1.842-.86c.921-.553,1.78-1.167,2.763-1.658l3.868-1.9a1.167,1.167,0,0,1,1.6.307.737.737,0,0,1,0,.675L301.8,30.8l-.982,1.535a9.639,9.639,0,0,1-.675,1.167,1.105,1.105,0,0,1-1.473,0,.491.491,0,0,1-.061-.675h0l2.087-3.254a.368.368,0,0,0,.061-.184h-.246l-1.9.921-2.947,1.535c-1.351.737-2.7,1.535-4.113,2.21a9.086,9.086,0,0,1-3.745,1.167,1.6,1.6,0,0,1-1.658-1.965c.061-.307.184-.614.246-.982a1.29,1.29,0,0,0,0-.246h-.184a24.078,24.078,0,0,1-2.21.982l-2.21.491-1.658.184h-2.7c-.8.061-1.658.184-2.272-.614m4.789-5.034a2.947,2.947,0,0,0-1.658,1.289,1.781,1.781,0,0,0,.061,2.333,1.044,1.044,0,0,0,.675.491,2.456,2.456,0,0,0,.982-.246,3.561,3.561,0,0,0,2.272-2.517,1.166,1.166,0,0,0-.8-1.473h-.246a3.807,3.807,0,0,0-1.289.246Z" transform="translate(-93.674 -9.921)" fill="#97704f"/>
      <path id="Path_34458" data-name="Path 34458" d="M353.657,19.139c.184.553-.246.86-.368,1.289v.307h.368l.921-.982.307-.246c.614-.675,1.535-1.044,1.965-1.842a7.735,7.735,0,0,0,.737-1.658,10.377,10.377,0,0,1,1.289-2.886c.553-.86,1.044-1.78,1.535-2.64A9.208,9.208,0,0,1,361.884,8.4a36.712,36.712,0,0,0,2.394-3.008c.86-.921.43-.737.921-.368s.307-.123.43-.184h.246a.368.368,0,0,1,.061.307l-.184.246L363.91,7.474c-.553.737-1.167,1.6-1.78,2.456l-1.658,2.394-.368.921L359,15.272a.923.923,0,0,0-.061.307l.246-.123.491-.491.86-.921.368-.368,1.719-1.965c.553-.675,1.167-1.228,1.658-1.9s1.658-2.272,2.456-3.438L367.1,6l.368-.491.8-1.351,1.105-1.842c.061-.061,0-.123,0-.246s-.184-.061-.246,0l-1.044.8L366.55,4.159l-.307.184L366,4.22l.123-.184.737-.86c.061-.061.061-.246.061-.307l-.246.123L365.629,4.22h-.061l-.553.184.246-.43c1.167-1.105,2.272-2.21,3.438-3.193a2.7,2.7,0,0,1,2.087-.8.553.553,0,0,1,.553.921l-1.044,1.842c-.43.8-.86,1.658-1.351,2.394s-1.473,1.965-2.21,2.947l-2.7,3.254-1.6,1.842-2.026,2.21c-.675.737-1.289,1.228-1.9,1.965a4.973,4.973,0,0,0-.614,1.228c-.061.184-.061.368-.123.553a5.157,5.157,0,0,0-.061,3.131,3.459,3.459,0,0,0,.246.737,1.19,1.19,0,0,0,.921.614,10.189,10.189,0,0,0,3.5-.982l2.272-1.105,2.7-1.658.921-.43.491-.43,2.149-2.149a1.105,1.105,0,0,1,1.842.307c.123.307-.061.43-.307.614a4.978,4.978,0,0,0-2.149,3.807c0,.675.246.86.921.982a11.7,11.7,0,0,0,4.6-.737l.675-.184-.614-.43a4.482,4.482,0,0,1-1.9-2.333,1.78,1.78,0,0,1,.921-2.333h.246a10.683,10.683,0,0,1,2.272-.553,3.5,3.5,0,0,1,2.7,1.105l.921.86a2.149,2.149,0,0,1-.123,2.517,4.482,4.482,0,0,1-1.719,1.167l-.307.246c.123.061.184.184.307.184s1.228.43,1.9.614l5.28,1.78,4.482,1.228c.614.184,1.167.491,1.719.675s.737.061,1.044.184l2.517.921.368.123.43.123c-.184.123-.368.368-.491.368l-1.105-.491-3.008-.982-3.377-.982-3.315-.86-4.3-1.289-3.377-1.167a1.289,1.289,0,0,0-.675,0c-1.474.368-2.886.921-4.359,1.167a17.191,17.191,0,0,1-3.193,0l-.246-.184a2.579,2.579,0,0,1-.614-2.947,1.168,1.168,0,0,0,0-.368h-.307l-2.394,1.473c-.921.553-1.78,1.167-2.763,1.658a13.2,13.2,0,0,1-4.175,1.412,2.763,2.763,0,0,1-1.965-.307,2.456,2.456,0,0,1-.921-1.719,6.57,6.57,0,0,1,0-2.947.8.8,0,0,0,0-.246h-.307l-.982.921a32.788,32.788,0,0,0-3.131,3.008,29.163,29.163,0,0,1-2.456,2.824c-.675.614-1.412,1.167-2.149,1.719l-.246.184c-.184.184-.368.491-.491.491a3.377,3.377,0,0,1-1.289-.246c-.43-.184-.368-.43-.061-.737l.982-.982,2.087-1.719c.614-.491,1.228-.982,1.78-1.473a1.9,1.9,0,0,0,.307-.675l.982-2.64v-.368a.8.8,0,0,1,.123-.368,1.658,1.658,0,0,1,1.842-.43c.123.061.184.184.307.307m26.277.368a2.169,2.169,0,0,0-1.6-2.64c-1.228-.491-1.412.123-2.087.491a1.289,1.289,0,0,0-.491,1.719l.123.184a11.849,11.849,0,0,0,1.535,1.535.8.8,0,0,0,.614.184,3.622,3.622,0,0,0,1.9-1.535m-21.979-2.7a4.419,4.419,0,0,0,.553-.921,11.174,11.174,0,0,1,.86-2.333,12.339,12.339,0,0,0,.675-1.535,1.106,1.106,0,0,0,.061-.307.613.613,0,0,0-.307.246l-1.228,2.7c-.061.184-.061.368-.123.553l-.737,1.535c-.061.061,0,.184,0,.246l.246-.123m-.614,2.21c0-.123.061-.246.061-.368v-.307l-.307.246a.86.86,0,0,0-.123.307,6.631,6.631,0,0,0,.123,4.359c0,.061.123.123.184.184a.8.8,0,0,0,0-.184,21.916,21.916,0,0,1-.307-2.333,7.737,7.737,0,0,1,.307-1.842m6.938-13.323-.491.614-.123.307h.307l.8-.921.123-.307h-.368c-.061,0-.123.123-.246.246m-2.456,3.745.614-.921c.061-.061,0-.184-.061-.246l-.246.123-.614.982a2.452,2.452,0,0,0-.123.553l.368-.491m-.921,1.105-.123.246h.123l.246-.307h-.246" transform="translate(-133.187 0.016)" fill="#97704f"/>
      <path id="Path_34459" data-name="Path 34459" d="M35.866,30.319l.368-.368.246-.246-.307-.123-2.087.307-1.965.491a4.052,4.052,0,0,0-.982.675c-.246.184-.491.553-.86.246a.675.675,0,0,1,.061-.921H30.4a4.052,4.052,0,0,1,2.026-1.044l2.7-.553a14.8,14.8,0,0,1,2.394-.184,1.105,1.105,0,0,1,.8.491c.061.123-.246.553-.43.8L36.3,31.3l-1.9,1.412-2.333,1.842-1.473,1.228-.491.553-.737.86a5.51,5.51,0,0,0-1.167,2.579c-.061,1.044.184.8.675,1.105a4.42,4.42,0,0,0,2.947.614l1.351-.307,1.9-.491,1.719-1.044,2.026-1.289a2.333,2.333,0,0,0,1.105-1.6,2.947,2.947,0,0,1,1.535-1.78A3.684,3.684,0,0,0,42.8,33.573a6.569,6.569,0,0,1,1.351-1.351,4.3,4.3,0,0,1,1.965-1.044h.675a5.157,5.157,0,0,1,2.456.614,1.78,1.78,0,0,1,.737,1.78,4.482,4.482,0,0,1-1.842,2.763c-.8.553-1.473,1.167-2.272,1.719a8.657,8.657,0,0,1-2.763,1.228,2.579,2.579,0,0,1-2.886-.737c-.307-.368-.553-.246-.86,0s-2.272,1.719-3.5,2.456a12.954,12.954,0,0,1-2.64.982,13.937,13.937,0,0,1-2.579.675,4.727,4.727,0,0,1-3.561-1.044A1.044,1.044,0,0,1,26.779,41a2.812,2.812,0,0,1,.123-2.333c.491-.737.737-.737.982-1.167A20.015,20.015,0,0,1,32,33.573L35.8,30.5M46.18,36.7h.184c.553-.614,1.167-1.167,1.658-1.78a1.9,1.9,0,0,0,.246-2.149A2.087,2.087,0,0,0,46.3,32.1a6.574,6.574,0,0,0-3.07,2.394.491.491,0,0,0-.123.368,1.289,1.289,0,0,1-.553,1.228l-.614.614a.675.675,0,0,0,0,.982l.246.184a2.149,2.149,0,0,0,2.21-.061l1.78-.982" transform="translate(-10.264 -11.041)" fill="#97704f"/>
      <path id="Path_34460" data-name="Path 34460" d="M339.684,14.242a1.9,1.9,0,0,1,.368-1.228,17.557,17.557,0,0,0,.921-1.658,1.412,1.412,0,0,1,1.9-.307A.675.675,0,0,1,343,11.6a1.6,1.6,0,0,0,.061,1.105c0,.061.123.184.061.246a9.924,9.924,0,0,0-.491,1.473,6.8,6.8,0,0,0,0,.8l-.184.491a1.864,1.864,0,0,1-.307-.43c-.061-.123,0-.86-.061-1.351a.86.86,0,0,0-.307-.553.553.553,0,0,0-.553.061c-.43.553-.8,1.105-1.167,1.658l-.184.246-.246.123a.465.465,0,0,1-.123-.246c0-.061.123-.553.184-.982" transform="translate(-131.063 -4.173)" fill="#97704f"/>
      <path id="Path_34461" data-name="Path 34461" d="M42.707,84.961l-.246.491H42.4l.246-.553h.061" transform="translate(-16.368 -32.775)" fill="#97704f"/>
      <path id="Path_34462" data-name="Path 34462" d="M46.923,29.2l-.123.184V29.2h.123" transform="translate(-18.067 -11.273)" fill="#97704f"/>
    </g>
  </g>
</svg>
