<svg xmlns="http://www.w3.org/2000/svg" xmlns:xlink="http://www.w3.org/1999/xlink" width="651" height="139" viewBox="0 0 651 139">
  <defs>
    <clipPath id="clip-path">
      <rect id="Rectangle_26002" data-name="Rectangle 26002" width="651" height="139" transform="translate(-6660 1228)" fill="#fff" stroke="#707070" stroke-width="1"/>
    </clipPath>
  </defs>
  <g id="Mask_Group_75" data-name="Mask Group 75" transform="translate(6660 -1228)" clip-path="url(#clip-path)">
    <path id="Path_39619" data-name="Path 39619" d="M-5798.169-445.368s5.2,26.251,40.9,22.047,43.734-25.049,43.734-25.049-11.784-10.838-9.726-8.692,13.292,0,13.292,0,25.9,1.448,26.753,0c2.608-4.406,19.028-1.337,20.624,0,2,1.674,24.542,2.306,24.542,2.306s7.918,1.383,41.177,6.386,26.686-.529,35.416-3.51,13.041,2.143,16.693,3.51,17.339-11.437,21.362-8.692c.571.39,12.305,4.856,13.8,5.182,6.769,1.489,41.673-6.786,44.512-5.182,3.309,1.869,19.755-4.063,26.64,2.306s37.876-9.736,42.283-9.736,48.58,7.43,48.58,7.43,28.477,9.59,45.283,11.694,20.964,15.055,27.041,13.826,18.394-3.24,20.9-3.577,9.5,12.477,24.051,11.8,53.153-3.845,53.153-3.845l12.48-18.2,7.581,383.65-3.922,520.385s-40.475,8.112-47.22,11.514-5.2,4.224-31.348,5.5-27.083-30.773-40.154-33.334-19.743-23.195-46.931-10.982-28.634-11.581-39.759-10.585-26.974,9.612-35.59,5.6-25.325,1.2-33.52,4.98-33.344,12.8-36.3,10.982-21.779-3.021-30.307,0-18.41,8.8-22.659,8.1-14.733,3.7-19.649,0-7.686-9.727-18.972-8.1,3.5-15.142-13.974-15.962-13.56,17.813-21.6,15.962-36.5-17.9-51.363-21.567-26.841,12.171-43.208,10.585,3.423,19.81-39.25,19.08-54.486-6.96-62.244,0-17.984-19.08-17.984-19.08l-2.5-854.688Z" transform="translate(-844.346 1731.505)" fill="#242328" stroke="#707070" stroke-width="1"/>
  </g>
</svg>
