<svg xmlns="http://www.w3.org/2000/svg" xmlns:xlink="http://www.w3.org/1999/xlink" width="184.07" height="38.145" viewBox="0 0 184.07 38.145">
  <defs>
    <style>
      .cls-1, .cls-2, .cls-8 {
        fill: none;
      }

      .cls-2 {
        stroke: #070606;
      }

      .cls-3, .cls-5 {
        fill: #fff;
      }

      .cls-4 {
        clip-path: url(#clip-path);
      }

      .cls-6 {
        clip-path: url(#clip-path-2);
      }

      .cls-7 {
        fill: #070606;
      }

      .cls-8 {
        stroke: #000;
        stroke-linejoin: round;
        stroke-width: 0.243px;
      }

      .cls-10, .cls-9 {
        stroke: none;
      }

      .cls-10 {
        fill: #070606;
      }
    </style>
    <clipPath id="clip-path">
      <rect id="Rectangle_13" data-name="Rectangle 13" class="cls-1" width="54.365" height="38.145"/>
    </clipPath>
    <clipPath id="clip-path-2">
      <rect id="Rectangle_12" data-name="Rectangle 12" class="cls-1" width="26.081" height="24.02"/>
    </clipPath>
  </defs>
  <g id="Group_4320" data-name="Group 4320" transform="translate(7459.07 1061)">
    <g id="strzalka" transform="translate(-7455.829 -845)">
      <line id="Line_5" data-name="Line 5" class="cls-2" x2="112.775" transform="translate(32.307 -194.591)"/>
      <g id="Polygon_1" data-name="Polygon 1" class="cls-3" transform="translate(-3.241 -182) rotate(-90)">
        <path class="cls-9" d="M 20.98040771484375 22.615234375 L 11.69258975982666 18.73858070373535 L 11.5 18.65818977355957 L 11.30741024017334 18.73858070373535 L 2.019592523574829 22.615234375 L 9.560990333557129 14.74594974517822 L 9.669099807739258 14.63315010070801 L 9.693739891052246 14.47885990142822 L 11.5 3.170101642608643 L 13.30626010894775 14.47885990142822 L 13.33090019226074 14.63315010070801 L 13.43900966644287 14.74594974517822 L 20.98040771484375 22.615234375 Z"/>
        <path class="cls-10" d="M 11.5 6.340204238891602 L 10.18747997283936 14.55772018432617 L 10.13819980621338 14.86629962921143 L 9.921990394592285 15.09191036224365 L 4.039224624633789 21.23044776916504 L 11.1148099899292 18.27716064453125 L 11.5 18.11639022827148 L 11.8851900100708 18.27716064453125 L 18.96077537536621 21.23044776916504 L 13.07800960540771 15.09191036224365 L 12.86180019378662 14.86629962921143 L 12.81252002716064 14.55772018432617 L 11.5 6.340204238891602 M 11.5 0 L 13.80000019073486 14.39999961853027 L 23 24 L 11.5 19.20000076293945 L 0 24 L 9.199999809265137 14.39999961853027 L 11.5 0 Z"/>
      </g>
      <g id="Polygon_2" data-name="Polygon 2" class="cls-3" transform="translate(180.829 -206) rotate(90)">
        <path class="cls-9" d="M 20.7850284576416 22.19684982299805 L 11.59964275360107 18.40022087097168 L 11.40865230560303 18.32126998901367 L 11.21766185760498 18.40022087097168 L 2.03227686882019 22.19684982299805 L 9.486222267150879 14.49444007873535 L 9.595521926879883 14.38150024414062 L 9.620542526245117 14.22635078430176 L 11.40865230560303 3.14006519317627 L 13.19676208496094 14.22635078430176 L 13.22178268432617 14.38150024414062 L 13.33108234405518 14.49444007873535 L 20.7850284576416 22.19684982299805 Z"/>
        <path class="cls-10" d="M 11.40865230560303 6.280120849609375 L 10.11416244506836 14.3059606552124 L 10.06411266326904 14.6162805557251 L 9.845521926879883 14.84215068817139 L 4.064573287963867 20.8157958984375 L 11.02666187286377 17.93812942504883 L 11.40865230560303 17.78024101257324 L 11.79064273834229 17.93812942504883 L 18.75273132324219 20.8157958984375 L 12.97178268432617 14.84215068817139 L 12.75319194793701 14.6162805557251 L 12.7031421661377 14.3059606552124 L 11.40865230560303 6.280120849609375 M 11.40865230560303 0 L 13.69038200378418 14.14673042297363 L 22.81730270385742 23.577880859375 L 11.40865230560303 18.86230087280273 L 1.9073486328125e-06 23.577880859375 L 9.126922607421875 14.14673042297363 L 11.40865230560303 0 Z"/>
      </g>
    </g>
    <g id="nożyczki" transform="translate(-7394.217 -1061)">
      <g id="nożyczki-2" data-name="nożyczki" transform="translate(27.182 19.072)">
        <g id="Group_23" data-name="Group 23" class="cls-4" transform="translate(-27.182 -19.072)">
          <path id="Path_49" data-name="Path 49" class="cls-5" d="M44.883.685c-.227-.187-.227.467-.214.681S65.048,23.854,65.048,23.854a1.055,1.055,0,0,0,.668.32c.387.04,1.015.093,1.8.2l1.282.187a20.573,20.573,0,0,1,10.042,3.7l.654.481a3.259,3.259,0,0,1,.761.761,8.759,8.759,0,0,1,1.015,2.19c.24.654.734,7.465,7.358,5.288a2.03,2.03,0,0,0,.815-.467l.04-.04c.387.28,1.309.908,2.016,1.375s.481,1.108,1.042.12.08-.574-.387-.815l-2.324-1.189a.2.2,0,0,1,.013-.053c.588-1.709-1.349-4.607-2.057-5.368a10.752,10.752,0,0,0-6.143-2.324c-.628.027-2.3-1.4-2.938-1.9a28.52,28.52,0,0,1-2.163-1.99,1.055,1.055,0,0,0-.8-.307l-1.3.067a10.221,10.221,0,0,1-3.245-.481,8.373,8.373,0,0,1-2.858-1.723S45.457,1.165,44.883.685m38.1,30.247c1-1,2.911-.694,4.287.681s1.669,3.285.668,4.287-2.911.694-4.287-.668-1.669-3.285-.668-4.287" transform="translate(-38.7 -0.564)"/>
          <path id="Path_50" data-name="Path 50" d="M44.914.653c-.027-.027-.08-.053-.107-.013a.214.214,0,0,0-.053.107,1.229,1.229,0,0,0-.04.24c0,.08-.013.16-.013.24v.107a.534.534,0,0,0,.067.093l.641.734L46.69,3.6l2.6,2.871L54.515,12.2l2.617,2.858,2.631,2.844L65.025,23.6l.16.174.174.134a.948.948,0,0,0,.4.134l.962.093c.641.067,1.282.16,1.923.24a24.572,24.572,0,0,1,3.833.681,20.953,20.953,0,0,1,3.672,1.335,17.939,17.939,0,0,1,1.723.935c.28.174.561.347.815.534l.4.28.4.28a5.743,5.743,0,0,1,.761.654l.174.214.134.227.24.427a6.024,6.024,0,0,1,.427.908l.174.454.08.227.04.134.027.134c.067.321.134.628.2.948a9.014,9.014,0,0,0,.254.908,6.931,6.931,0,0,0,.8,1.683,4.167,4.167,0,0,0,1.3,1.269,3.886,3.886,0,0,0,1.723.534,6.21,6.21,0,0,0,1.843-.16c.307-.067.614-.16.908-.254a2.057,2.057,0,0,0,.387-.174l.174-.12.08-.067.04-.04h.013l.2-.174.174.12c.534.387,1.1.748,1.656,1.135l.214.147.107.067.053.04.067.053a2.069,2.069,0,0,1,.374.427l.053.08c.013.013.027.013,0,0h-.107l.027-.027a2.244,2.244,0,0,0,.24-.374,3.62,3.62,0,0,0,.214-.414l.027-.067a.134.134,0,0,0,0,.027.2.2,0,0,0,.08.107h-.093a1.335,1.335,0,0,1-.307-.04l-.16-.053-.067-.027-.053-.027L91.52,37.1l-1.789-.921-.147-.08v-.16a.347.347,0,0,1,.013-.093v-.08l.027-.08.04-.16c.013-.053.013-.107.027-.174v-.174a3.393,3.393,0,0,0-.08-.708,6.678,6.678,0,0,0-.481-1.4,11.073,11.073,0,0,0-.721-1.322c-.134-.214-.28-.414-.427-.614a4.593,4.593,0,0,0-.467-.561,5.836,5.836,0,0,0-1.215-.828,12.247,12.247,0,0,0-1.375-.628,13.129,13.129,0,0,0-1.442-.454,8.254,8.254,0,0,0-1.469-.254h-.374a1.2,1.2,0,0,1-.454-.12,4.755,4.755,0,0,1-.708-.4c-.441-.294-.841-.614-1.242-.935l-.6-.481c-.2-.16-.4-.334-.6-.507s-.761-.708-1.122-1.068l-.28-.267L76.5,24.49l-.067-.067-.067-.053a.881.881,0,0,0-.588-.214l-1.536.067a10.81,10.81,0,0,1-3.071-.521h-.013a8.507,8.507,0,0,1-2.818-1.709l-.8-.734-3.218-2.951-6.477-5.929L51.377,6.5,44.914.653m0,0q3.245,2.9,6.49,5.836l6.49,5.849,6.5,5.822,3.258,2.911.815.734a8.253,8.253,0,0,0,2.764,1.629h-.013a11,11,0,0,0,2.991.467l1.536-.08a1.229,1.229,0,0,1,.828.294l.08.08.067.067.134.134.28.267c.374.347.748.708,1.135,1.042a6.816,6.816,0,0,0,.588.481l.614.481c.4.307.815.628,1.229.895a4.34,4.34,0,0,0,.641.361.828.828,0,0,0,.28.08h.4a8.253,8.253,0,0,1,1.562.254,13.622,13.622,0,0,1,1.5.467,12.755,12.755,0,0,1,1.429.641,6.276,6.276,0,0,1,1.322.895,5.033,5.033,0,0,1,.534.614c.16.214.307.427.454.641a11.551,11.551,0,0,1,.761,1.375,7.171,7.171,0,0,1,.534,1.509,3.914,3.914,0,0,1,.093.815v.214c-.013.067-.013.147-.027.214s-.027.147-.04.214l-.027.107v.053h0a.161.161,0,0,0,0-.04l-.147-.227,1.789.921.454.227.053.027.053.027.067.027h.481l.093.04.093.093a.36.36,0,0,1,.053.12.427.427,0,0,1,0,.16.828.828,0,0,1-.053.174,3.979,3.979,0,0,1-.24.481l-.134.227a1.735,1.735,0,0,1-.174.24.708.708,0,0,1-.16.134l-.067.027-.08.027a.4.4,0,0,1-.187-.027.521.521,0,0,1-.2-.147l-.093-.12a1.6,1.6,0,0,0-.28-.334l-.04-.027L91.346,38l-.107-.067-.214-.147c-.561-.374-1.108-.748-1.669-1.148l.361-.053-.067.067-.053.053-.107.093-.227.16a2.591,2.591,0,0,1-.494.227c-.32.107-.641.187-.962.267a6.717,6.717,0,0,1-2,.16,4.38,4.38,0,0,1-1.936-.628,4.661,4.661,0,0,1-1.442-1.416,9.743,9.743,0,0,1-1.309-3.712l-.027-.107-.04-.107-.08-.227L80.8,30.98a5.53,5.53,0,0,0-.387-.841l-.24-.414-.12-.187-.134-.16a5.368,5.368,0,0,0-.694-.614l-.387-.28-.4-.28c-.254-.187-.534-.361-.788-.534-.548-.334-1.1-.654-1.669-.935a20.619,20.619,0,0,0-3.592-1.362A24.278,24.278,0,0,0,68.6,24.65c-.641-.093-1.282-.2-1.91-.267l-.961-.107a1.162,1.162,0,0,1-.708-.347l-.16-.187L59.67,17.986l-2.591-2.871-2.6-2.871L49.28,6.5l-2.6-2.885L45.394,2.162l-.628-.721a.481.481,0,0,1-.067-.093V1.213a1.451,1.451,0,0,1,.013-.24,1.228,1.228,0,0,1,.027-.24.214.214,0,0,1,.053-.107c.04-.027.08,0,.107.013" transform="translate(-38.731 -0.532)"/>
          <path id="Path_51" data-name="Path 51" d="M327.6,223.485a2.083,2.083,0,0,1,1.042-.548,2.924,2.924,0,0,1,1.2.013,4.607,4.607,0,0,1,2.137,1.122,4.447,4.447,0,0,1,1.309,2.1,3.058,3.058,0,0,1,.067,1.3,2.15,2.15,0,0,1-1.789,1.789,3.045,3.045,0,0,1-1.3-.067,4.447,4.447,0,0,1-2.1-1.309,4.607,4.607,0,0,1-1.122-2.137,2.925,2.925,0,0,1-.013-1.2,2.083,2.083,0,0,1,.548-1.042m0,0a1.99,1.99,0,0,0-.534,1.055,2.791,2.791,0,0,0,.067,1.175,4.18,4.18,0,0,0,1.242,1.963,4.341,4.341,0,0,0,2,1.055,2.212,2.212,0,0,0,2-.467,2.166,2.166,0,0,0,.467-2,4.326,4.326,0,0,0-1.042-2,4.18,4.18,0,0,0-1.963-1.242,2.791,2.791,0,0,0-1.175-.067,1.99,1.99,0,0,0-1.055.534" transform="translate(-283.316 -193.117)"/>
          <g id="Group_22" data-name="Group 22" class="cls-6" transform="translate(5.969 0.08)">
            <g id="Group_21" data-name="Group 21" class="cls-6">
              <path id="Path_52" data-name="Path 52" class="cls-7" d="M70.781,23.31c-.187.454-.334.841-.548,1.282a36.938,36.938,0,0,0-4.434-.481,1.776,1.776,0,0,1-.868-.427S44.7,1.476,44.7,1.289s0-.881.214-.694c.574.494,23.3,21.126,23.3,21.126a8.36,8.36,0,0,0,2.564,1.589" transform="translate(-44.7 -0.568)"/>
            </g>
          </g>
          <path id="Path_53" data-name="Path 53" class="cls-8" d="M68.186,21.8S45.457,1.165,44.883.685c-.227-.187-.227.467-.214.681S64.9,23.761,64.9,23.761a1.776,1.776,0,0,0,.868.427,34.425,34.425,0,0,1,4.447.481c.214-.441.361-.828.548-1.282A8.36,8.36,0,0,1,68.186,21.8Z" transform="translate(-38.7 -0.564)"/>
          <path id="Path_54" data-name="Path 54" class="cls-5" d="M23.062,22.168A8.386,8.386,0,0,1,17,24.345l-1.3-.067a1.055,1.055,0,0,0-.8.307,28.086,28.086,0,0,1-2.163,1.99c-.614.467-2.31,1.923-2.938,1.9a10.752,10.752,0,0,0-6.143,2.324c-1.042,1.122-3.031,4.18-.881,6.463,1.536,1.629,4.327.013,5.382-1.269.454-.548,2.177-.734,2.39-1.042s-.641-2.324-.414-2.978a8.759,8.759,0,0,1,1.015-2.19c.374-.628,1.95-1.7,4.367-2.965,3.058-1.6,8.64-2.2,10.163-2.35a1.055,1.055,0,0,0,.668-.32S47.54,1.776,47.54,1.589s0-.881-.214-.694c-.574.481-24.265,21.273-24.265,21.273M7.745,35.5c-1.375,1.375-3.285,1.669-4.287.681s-.694-2.925.681-4.287,3.285-1.669,4.287-.668.694,2.911-.668,4.287" transform="translate(-1.575 -0.748)"/>
          <path id="Path_55" data-name="Path 55" d="M21.543,21.42a8.467,8.467,0,0,1-5.288,2.217c-.321.013-.654.013-.975,0l-.962-.04a1.309,1.309,0,0,0-.454.027.975.975,0,0,0-.387.214l-.681.681c-.467.454-.921.908-1.429,1.322s-1,.815-1.522,1.215a8.787,8.787,0,0,1-.815.548,2.658,2.658,0,0,1-.467.227.9.9,0,0,1-.294.053h-.24a8.173,8.173,0,0,0-1.856.334,13.514,13.514,0,0,0-1.789.654,8.974,8.974,0,0,0-1.643.921l-.347.294a3.926,3.926,0,0,0-.307.334,7.545,7.545,0,0,0-.548.761,6.931,6.931,0,0,0-.775,1.7,4.06,4.06,0,0,0-.147,1.8A3.045,3.045,0,0,0,1.4,36.256a1.9,1.9,0,0,0,.681.494,2.1,2.1,0,0,0,.841.147,4.006,4.006,0,0,0,1.723-.481,6.17,6.17,0,0,0,1.5-1.082l.16-.16.08-.08.04-.04.053-.067a1.709,1.709,0,0,1,.481-.32,6.717,6.717,0,0,1,.948-.334l.454-.134a2.3,2.3,0,0,0,.4-.147l.027-.027H8.776a.641.641,0,0,0,0-.16,3.886,3.886,0,0,0-.08-.441l-.24-.935a4.567,4.567,0,0,1-.16-1.015,1.175,1.175,0,0,1,.04-.307l.04-.134.04-.12.174-.454A6.357,6.357,0,0,1,9,29.539l.24-.427.12-.214.08-.12.08-.107a4.834,4.834,0,0,1,.761-.694,17.293,17.293,0,0,1,1.643-1.082c.561-.334,1.135-.641,1.709-.948.28-.147.588-.294.881-.427l.921-.361a27.2,27.2,0,0,1,3.779-.988c1.282-.24,2.564-.441,3.846-.574l.962-.093a.921.921,0,0,0,.721-.361l1.335-1.4L36.767,10.5,42.095,4.86l2.657-2.831.654-.708.32-.361.16-.174V.774h0c-.013.093,0,.013-.013.013V.64a1.221,1.221,0,0,0-.013-.227.734.734,0,0,0-.04-.2h.027l-.04.04-.187.16-.708.628Q33.214,11.2,21.543,21.42m-.04-.04Q33.188,11.177,44.766.867l.721-.641.187-.16.053-.04.107-.053a.187.187,0,0,1,.16.04.28.28,0,0,1,.067.08.921.921,0,0,1,.067.267,1.616,1.616,0,0,1,.013.254V.787c0,.027.013-.027-.013.08L46.1.921l-.027.027-.16.187-.334.347-.654.721L42.3,5.047l-5.3,5.662L26.364,21.994l-1.335,1.416-.08.093-.107.093a1.242,1.242,0,0,1-.227.147l-.267.093-.267.04-.962.107q-1.923.22-3.806.6a26.428,26.428,0,0,0-3.712,1l-.881.347c-.294.134-.561.267-.855.427-.561.307-1.122.614-1.669.948a16.825,16.825,0,0,0-1.589,1.068,4.393,4.393,0,0,0-.668.614l-.067.08-.053.08-.12.214-.24.414a5.849,5.849,0,0,0-.374.855l-.174.454-.04.12-.027.093a.668.668,0,0,0-.013.174,4.22,4.22,0,0,0,.147.895c.08.307.16.614.24.935a4.3,4.3,0,0,1,.093.507,1.108,1.108,0,0,1,0,.321.548.548,0,0,1-.04.12l-.04.067-.04.053a.668.668,0,0,1-.16.12,2.684,2.684,0,0,1-.507.2l-.467.147a6.289,6.289,0,0,0-.868.307,1.2,1.2,0,0,0-.321.214l-.027.027-.04.053-.08.093-.174.187A6.477,6.477,0,0,1,4.917,36.91a4.54,4.54,0,0,1-1.976.534,2.644,2.644,0,0,1-1.055-.2,2.444,2.444,0,0,1-.868-.628A3.592,3.592,0,0,1,.1,34.76a4.46,4.46,0,0,1,.174-2.03,7.425,7.425,0,0,1,.855-1.8,8.026,8.026,0,0,1,.588-.8,4.353,4.353,0,0,1,.347-.374,4.474,4.474,0,0,1,.4-.321,9.308,9.308,0,0,1,1.749-.948,13.9,13.9,0,0,1,1.856-.628,8.507,8.507,0,0,1,1.95-.307h.254l.187-.027a2.35,2.35,0,0,0,.414-.187,8.481,8.481,0,0,0,.8-.507c.521-.374,1.028-.775,1.536-1.162A18.488,18.488,0,0,0,12.649,24.4l.708-.668a1.148,1.148,0,0,1,.454-.24l.254-.04h.254l.962.053c.321.013.641.027.962.013a8.373,8.373,0,0,0,5.248-2.137" transform="translate(-0.043 0.027)"/>
          <path id="Path_56" data-name="Path 56" d="M12.813,227.509a5.008,5.008,0,0,1-2.043,1.3,2.911,2.911,0,0,1-1.269.12l-.16-.027-.16-.04a1.656,1.656,0,0,1-.307-.12l-.08-.04-.067-.04-.147-.093-.267-.214a2.257,2.257,0,0,1-.614-1.175,3,3,0,0,1,.053-1.3,4.674,4.674,0,0,1,1.282-2.15,4.58,4.58,0,0,1,2.163-1.2,3.018,3.018,0,0,1,1.255-.013,2.177,2.177,0,0,1,1.108.6,2.11,2.11,0,0,1,.548,1.122,2.925,2.925,0,0,1-.08,1.215,4.861,4.861,0,0,1-1.215,2.057m-.04-.04a3.993,3.993,0,0,0,1.135-2.043,2.791,2.791,0,0,0-.013-1.162,1.963,1.963,0,0,0-.534-.975,1.9,1.9,0,0,0-.988-.481,2.7,2.7,0,0,0-1.122.053,4.207,4.207,0,0,0-1.936,1.162,4.1,4.1,0,0,0-1.068,1.963,2.711,2.711,0,0,0-.027,1.068,1.83,1.83,0,0,0,.454.908,1.9,1.9,0,0,0,.908.507,2.791,2.791,0,0,0,1.108.04,3.873,3.873,0,0,0,2.07-1.055" transform="translate(-6.63 -192.748)"/>
          <path id="Path_57" data-name="Path 57" class="cls-5" d="M184.616,142.319a1.068,1.068,0,1,1-1.509.013,1.068,1.068,0,0,1,1.509-.013" transform="translate(-158.389 -123.049)"/>
          <path id="Path_58" data-name="Path 58" d="M184.268,141.938a1.175,1.175,0,0,1,.347.761,1.015,1.015,0,0,1-.307.788,1.135,1.135,0,0,1-.788.294,1.175,1.175,0,0,1-.775-.307,1.082,1.082,0,0,1-.347-.775,1.108,1.108,0,0,1,.32-.8,1.055,1.055,0,0,1,.8-.307,1.175,1.175,0,0,1,.761.347m-.013.013a.961.961,0,0,0-.748-.267,1.1,1.1,0,0,0-.708.32,1.028,1.028,0,0,0-.294.708,1.055,1.055,0,0,0,.28.721.975.975,0,0,0,.734.307,1.015,1.015,0,0,0,.708-.334,1.162,1.162,0,0,0,.307-.721.975.975,0,0,0-.28-.748" transform="translate(-158.041 -122.681)"/>
          <path id="Path_59" data-name="Path 59" d="M182.813,148.741l.507-.147.521-.107.534-.067.521-.12v.067q-.521.14-1.042.24l-.521.08-.534.053Zm0,0,.507-.147.521-.12c.347-.067.694-.134,1.055-.174v.067l-.521.093-.521.134-.521.107-.534.067Z" transform="translate(-158.389 -128.496)"/>
        </g>
      </g>
    </g>
  </g>
</svg>
