<svg xmlns="http://www.w3.org/2000/svg" width="900" height="60" viewBox="0 0 900 60">
  <path id="Path_44260" data-name="Path 44260" d="M-1802.881,1018.033s5.522-38.731,11.6-44.757,16.366-4.91,16.366-4.91,2.1,1.549,6.632,1.549,11.721-2.432,11.721-2.432,11.077,5.729,13.976,0,5.574-2.993,10.058-2.969,6.085,2.385,14.091,2.969,9.87-2.048,14.729,0,8.558-6.269,14.193-3.872a78.845,78.845,0,0,0,13.195,3.872s1.366.883,7.287-.862,7.391,1.784,11.3.862,6.11-2.037,9.3,0,7.278-10.349,9.764-2.969,1.949-.767,7.408,2.969,14.723,1.083,19.9,0,6.86-2.56,20.268-.862,19.482.545,23.041.862,17.042,4.7,33.444,4.7a128.16,128.16,0,0,0,32.162-4.7s22.51-7.214,34.534,1.8,12.822,4.183,26.821,4.21,13.507,4.992,23.165,3.49,10.814-6.3,16.224-6.126,8.327-1.667,19.92.707,17.325,10.458,25.7,5.419,12.724-3.719,17.584-9.5,20.809,2.733,20.809,2.733,11.254-6.062,19-2.733,24.606,4.905,29.7,5.071,19.511-5.071,19.511-5.071,11.1,4.008,15.151,0,4.621-.516,8.444-1.854,8.39-4.552,9.758,0,7.934,2.35,21.156,1.854,8.135,3.227,21.391,0a146.106,146.106,0,0,1,25.71-3.7s8.6-.518,11.772,3.7,5.1-12.474,24.5-8.625,25.766,9.983,32.914,8.625,24.825-.822,24.825-.822l15.141-1.893s10.8,5.447,17.09,2.715,28.361-8.625,28.361-8.625l15.522,4.925s15.266,1.054,19.619.986,8.266-9.531,12.287-5.91,21.548,8.625,21.548,8.625l15.54,5.071,5.872,45.479Z" transform="translate(1802.881 -958.033)" fill="#242328"/>
</svg>
