<svg xmlns="http://www.w3.org/2000/svg" viewBox="0 0 444.39 87.17"><g id="Layer_2" data-name="Layer 2"><g id="Layer_2-2" data-name="Layer 2"><g id="podpis"><path d="M0,48.47c.44.42.76,1,1.5,1.11.34.07.6.56.9.85a2.84,2.84,0,0,0,2.29,1.18,5,5,0,0,1,.95,0c1.58.21,2.7-.7,3.79-1.59A16.94,16.94,0,0,0,14,43.83c.92-2,1.62-4.2,2.38-6.32.83-2.28,1.61-4.57,2.42-6.85.74-2.08,1.52-4.14,2.24-6.22.52-1.53.94-3.1,1.47-4.63q1-2.77,2-5.51a4.34,4.34,0,0,1,.73-1.2c.12-.15.44-.12.63-.24a4.76,4.76,0,0,0,.61-.58c-.19-.07-.39-.23-.55-.19a18.72,18.72,0,0,1-2.59.62c-1.29.09-2.53.77-3.88.34a4.21,4.21,0,0,0-1.46,0c-2.16.15-3.57-1.39-5.2-2.38A5.61,5.61,0,0,1,10.2,7.59a2.27,2.27,0,0,0-.27-.44l-.28.44a.68.68,0,0,0-.12.26c-.11,1.47-.24,2.93-.32,4.4s-.1,2.92-.16,4.38a14.35,14.35,0,0,0-.13,2.26,29.11,29.11,0,0,0,.65,3.45c.1.44.34,1-.17,1.12A1.13,1.13,0,0,1,7.93,23a5.74,5.74,0,0,1-.79-2.85c0-1.18-.07-2.36,0-3.52.16-2.06.39-4.12.63-6.17s.51-4.23.79-6.34A1.29,1.29,0,0,1,9.72,2.87c.67-.09,1.27,0,1.56.75.43,1.14,1,2.25,1.36,3.4a5.68,5.68,0,0,0,2.45,2.65,11.61,11.61,0,0,0,5.78,2,12.83,12.83,0,0,0,3.69-.45,4,4,0,0,0,2.79-2.4c.45-.93,1.13-1.74,1.65-2.65.39-.7.63-1.49,1-2.19a1.85,1.85,0,0,1,.9-.91c.48-.13,1.14-.24,1.47.39a1.64,1.64,0,0,1,.14.83,9.73,9.73,0,0,1-.21,1.42,7.12,7.12,0,0,1-3.42,4.76,4.5,4.5,0,0,0-1.46,1.9c-.85,1.78-1.63,3.61-2.35,5.45-.65,1.67-1.17,3.38-1.76,5.07q-1,2.91-2.07,5.81c-.57,1.59-1.19,3.16-1.75,4.75-.71,2.06-1.39,4.13-2.08,6.21a23.15,23.15,0,0,1-1.11,3.42,24.43,24.43,0,0,1-5.86,7.8c-1.76,1.48-3.74,2.59-6.18,2.32A6.51,6.51,0,0,1,0,51.29c0-.93,0-1.85,0-2.82M23.26,21a9.79,9.79,0,0,0,.64-1.14c.06-.15-.09-.38-.14-.58-.14.13-.37.24-.4.39-.1.43-.13.89-.26,1.33s-.28.73-.39,1.1c0,.1.07.22.1.33a1.21,1.21,0,0,0,.21-.31A7.74,7.74,0,0,1,23.26,21m2.38-7.3c-.13.13-.33.24-.38.4-.29,1-.55,2-.8,3.07a4,4,0,0,0-.05.5c.12-.14.3-.26.35-.42a25.55,25.55,0,0,0,.88-3.55m-4.36,13.1c.33-.81.67-1.62,1-2.43,0-.12,0-.29,0-.43-.1.09-.25.16-.3.27-.39.87-.76,1.74-1.11,2.62,0,.09.09.24.14.37a3.51,3.51,0,0,1,.33-.4M20,30.09c-.32.73-.64,1.46-1,2.2a.34.34,0,0,0,.16.1.24.24,0,0,0,.15-.13c.21-.67.42-1.34.64-2.17M20.16,29c0,.12,0,.25-.05.37s0,.32-.05.48c.13-.11.33-.2.38-.34.2-.55.35-1.11.51-1.67,0-.05-.05-.13-.08-.19s-.19.07-.22.14A8.15,8.15,0,0,0,20.16,29M17.7,36.21a2,2,0,0,0-.1.26,2.35,2.35,0,0,0-.05.37c.08-.09.2-.16.25-.26A.3.3,0,0,0,17.7,36.21Z"/><path d="M0,31.48c1.12-.65,2.23-1.28,3.36-1.87.17-.08.46.06.69.09-.08.18-.11.43-.25.54-.41.31-.87.56-1.3.85C1.69,31.63.88,32.17,0,32.71A12.13,12.13,0,0,1,0,31.48Z"/><path d="M113.09,87.17c-.34-.48-.39-1.22-1.24-1.13-.06,0-.19-.13-.2-.21s.12-.21.19-.21c.24,0,.6-.06.72.07a11.67,11.67,0,0,1,1,1.44A1.53,1.53,0,0,1,113.09,87.17Z"/><path d="M86.53,30c-.11.2-.25.29-.32.42a1.22,1.22,0,0,0-.07.38c.15,0,.36.06.42,0,.76-.91,1.91-.93,2.91-1.22a2.46,2.46,0,0,1,1.58.14c1.19.54,2.33,1.19,2.32,2.78a1.51,1.51,0,0,0,.06.36,1.38,1.38,0,0,0,.38-.21A20.28,20.28,0,0,1,99,28.74a20.06,20.06,0,0,1,5.87-2.48,5.83,5.83,0,0,1,3.31,0c1.62.59,1.69,1.31,1.25,2.59a9.81,9.81,0,0,1-1.6,2.58,16.41,16.41,0,0,1-2.48,2.77c-1.7,1.36-2.8,3.26-4.43,4.66a21.2,21.2,0,0,0-1.51,1.49,4.9,4.9,0,0,1-2.89,1.06,1.47,1.47,0,0,1-.48-.12c.07-.21.12-.42.21-.63a.4.4,0,0,1,.23-.19c1.44-.46,2.34-1.61,3.36-2.62.8-.79,1.66-1.55,2.39-2.41,1.43-1.67,2.82-3.37,4.14-5.12a2.93,2.93,0,0,0,.43-1.62,1,1,0,0,0-.62-.75,5.08,5.08,0,0,0-3.34.39c-2,1.19-4.15,2.23-6,3.58A9.08,9.08,0,0,0,93,36.86a5.23,5.23,0,0,1-.86,1.85,4.11,4.11,0,0,0,2.69,6.4c3,.57,5.73-.34,8.34-1.69.94-.48,1.8-1.13,2.73-1.65a3.87,3.87,0,0,0,2-3.4,8.31,8.31,0,0,1,1.44-3.69c.59-1,1.09-2,1.75-2.92,1-1.34,2-2.63,3-3.91.84-1,1.73-2,2.63-2.94.57-.6,1.22-1.13,1.84-1.69l1.77-1.62a16.14,16.14,0,0,0,1.5-1.36,4.51,4.51,0,0,1,2.27-1.41,1.76,1.76,0,0,1,1.22.33c.44.27.29.65,0,1.08-.79,1.44-1.46,3-2.27,4.38-1.17,2-2.36,4.06-3.66,6a16.9,16.9,0,0,1-3.22,4c-.35.29-.57.73-.91,1-1.59,1.46-3.2,2.89-4.79,4.33-.28.25-.53.44-.3,1s.16,1.35.38,2a1.92,1.92,0,0,0,.88,1c1.23.6,2.46.12,3.68-.2a14.92,14.92,0,0,0,5.31-3.08A4.9,4.9,0,0,0,122,39a2,2,0,0,1,3-.47.9.9,0,0,1,.16,1.08,4.77,4.77,0,0,0-.19,3.88c.39,1,1.21,1.1,2,1.29a5.26,5.26,0,0,0,1.43,0c.08,0,.15-.08.23-.12a1.62,1.62,0,0,0-.18-.19c-1.7-1.14-2.14-2.91-2.54-4.77a6.47,6.47,0,0,1,.5-4.7,9.54,9.54,0,0,1,6.15-4.79,15.15,15.15,0,0,1,3.61-.47,3.76,3.76,0,0,1,3,1.19,1.61,1.61,0,0,0,.64.36,2.89,2.89,0,0,1,1.67,2.13,8.08,8.08,0,0,1,.32,4.64,3.05,3.05,0,0,1-.62,1.09,19.75,19.75,0,0,1-6.67,4.93c-.22.11-.48.13-.7.24a3.57,3.57,0,0,0-.52.44c.22.11.43.31.65.33.82.09,1.65.13,2.48.17,1.22.07,2.44.08,3.66.17a18.39,18.39,0,0,0,6.24-.93.42.42,0,0,1,.22,0c.39.1,1-.3,1.11.34,0,.07-.61.27-.9.45-.93.58-2.05.38-3,.69-3.59,1.18-7.26.56-10.89.72a2.19,2.19,0,0,1-1.17-.2c-1.21-.73-2.36-.36-3.58,0a7.67,7.67,0,0,1-4.71-.25c-.9-.31-2.12-2.77-1.91-3.74a2.14,2.14,0,0,0,0-.44,1.23,1.23,0,0,0-.44.09c-.77.49-1.51,1.06-2.32,1.49-1,.55-2.11,1-3.19,1.49-.74.31-1.53.52-2.29.81a6.52,6.52,0,0,1-3.53.17c-.63-.11-.86-.55-1.11-1a4.48,4.48,0,0,1-.81-2.53c.06-.62-.33-.41-.6-.25a44.93,44.93,0,0,1-5,3c-2.48,1.09-5,2.14-7.87,1.88a6.12,6.12,0,0,1-5.2-3.8,3,3,0,0,1-.09-.67c0-.14,0-.27,0-.41-.15.07-.34.1-.44.21a25.36,25.36,0,0,1-5.3,4,10.83,10.83,0,0,1-4.24,1.43,2.25,2.25,0,0,1-1.34-.18c-1.24-.73-2.38-1.57-2.63-3.16a3.19,3.19,0,0,0-.31-.77,2.81,2.81,0,0,0-.72.34,16.58,16.58,0,0,1-5.38,2.92,5.15,5.15,0,0,1-2.7,0c-1.48-.34-1.88-1.29-1.25-2.68s1.36-2.88,2.08-4.3a21.91,21.91,0,0,1,1.23-2,.87.87,0,0,1,1.13-.44c.41.2.33.57.26,1A13.25,13.25,0,0,1,68,41.8a17.49,17.49,0,0,0-.84,2.66c-.13.54.21.78.77.81,2,.09,3.64-.89,5.26-1.87a9.9,9.9,0,0,0,1.07-.89c.37-.3.36-.63.28-1.09a4.77,4.77,0,0,1,.08-1.64,21.33,21.33,0,0,1,3.93-8.53A39.49,39.49,0,0,1,82,26.89a58.81,58.81,0,0,1,4.9-4.43,7.25,7.25,0,0,1,2.22-1.12,1.94,1.94,0,0,1,1.25.12c.47.2.71.64.12,1s-.69.9-.94,1.43c-.79,1.68-1.64,3.34-2.46,5-.18.36-.38.7-.57,1.12m1.59,1.51a6.94,6.94,0,0,0-4.34,3.06c-.42.69-1,1.29-1.45,1.94a4.17,4.17,0,0,0-1.21,2.76c.06.83-.28,1-1.1.81a1.09,1.09,0,0,0-1.26.29,8.07,8.07,0,0,1-1.16,1c-.77.63-.84,1-.44,1.86a3,3,0,0,0,.34.81c.52.58,1,1.39,1.67,1.61,1.85.6,3.53-.17,5-1.21A35.21,35.21,0,0,0,87,42.23a8.18,8.18,0,0,0,2.73-3.42,6.81,6.81,0,0,1,1-2.25c1-1.13.67-2.39.64-3.61a1.42,1.42,0,0,0-1-1.25,2.82,2.82,0,0,0-2.3-.18m41.28,10a13.42,13.42,0,0,0,1.09,1.68,1.5,1.5,0,0,0,2.15.33,12.72,12.72,0,0,1,1.86-1.06A9.55,9.55,0,0,0,138,39.89a4.74,4.74,0,0,0,1.39-4,8,8,0,0,0-1.51-3.51c-1.26-1.69-4.25-1.46-5.82-.53-.58.34-1.11.78-1.67,1.16A5.74,5.74,0,0,0,128,37.88a5.24,5.24,0,0,0,1.37,3.65M85.66,28.9c.62-1.36,1.24-2.71,1.84-4.08a2.9,2.9,0,0,0,.11-.79,5.46,5.46,0,0,0-.7.3,4.25,4.25,0,0,0-.78.62c-1.46,1.5-3,2.94-4.34,4.54a32.55,32.55,0,0,0-2.7,4c-.41.66-.58,1.46-1,2.12-.87,1.42-1,3-1.4,4.58,0,.11.12.26.19.39a1.79,1.79,0,0,0,.28-.2c.41-.46.83-.92,1.23-1.39a19.93,19.93,0,0,0,1.92-2.31c1-1.64,1.85-3.42,3.36-4.71a6.31,6.31,0,0,0,2-3.1m34.62-2.54c.44-.9.9-1.79,1.34-2.7a3.79,3.79,0,0,0,.19-.68,1.93,1.93,0,0,0-.65.29c-1.27,1.24-2.53,2.47-3.75,3.75-1,1.05-2,2.1-2.91,3.24A30,30,0,0,0,112,34a41,41,0,0,0-1.75,3.88.33.33,0,0,0,0,.22,3.85,3.85,0,0,0,.19.47,2,2,0,0,0,.33-.25c.4-.44.76-.92,1.19-1.33a26.37,26.37,0,0,0,4.65-5C117.72,30.11,119,28.29,120.28,26.36Z"/><path d="M238.61,36.17c-.55.75-1.05,1.47-1.56,2.18-.14.19-.39.33-.46.53a4.79,4.79,0,0,1-3.11,2.65A3.55,3.55,0,0,0,231,44.28c-.49,2.2-1.25,4.35-1.79,6.55-.47,1.91-.8,3.85-1.19,5.78-.32,1.53-.64,3.07-.95,4.6a9.42,9.42,0,0,0-.31,1.8,20.78,20.78,0,0,1-1.31,5.9,7.47,7.47,0,0,1-4.59,4.81A13.51,13.51,0,0,1,214.61,75c-3.58-.23-7.6-2.38-8.86-6.24a5.55,5.55,0,0,1-.14-3.25c.35-1.4.58-2.83.95-4.22a20.29,20.29,0,0,1,2.65-5.41,45.25,45.25,0,0,1,6.22-7.57c1.6-1.65,3.3-3.2,5-4.71a16.22,16.22,0,0,1,2.4-1.47l.38-.23a1.67,1.67,0,0,0-.37-.24,7.24,7.24,0,0,0-1.71-.46c-1.8-.06-3.6,0-5.4,0-2.32,0-4.26-2.71-3.86-5a6,6,0,0,1,1.66-2.9c1.19-1.39,2.27-2.86,3.38-4.31a.32.32,0,0,0,0-.31.42.42,0,0,0-.31-.18,48.58,48.58,0,0,0-8.33,1.75,5.82,5.82,0,0,0-1.21.5.84.84,0,0,0-.37.62,12.37,12.37,0,0,0,.48,2.58,5.8,5.8,0,0,1-1,6,13.43,13.43,0,0,1-5.5,3.79A40,40,0,0,1,196.2,45a10.3,10.3,0,0,1-5,.22c-1.69-.35-3.56-.61-4.84-2.09a2,2,0,0,1-.58-1.94c.27-1,.46-2.08.82-3.08a5.88,5.88,0,0,1,1-1.53c.08-.11.35-.07.53-.09a2.78,2.78,0,0,1,0,.5c-.23,1-.91,1.92-.82,3.09.12,1.37.29,1.77,1.6,2.21s2.41.84,3.65,1.14a6.79,6.79,0,0,0,2.25.11,22.26,22.26,0,0,0,3.54-.64,18.34,18.34,0,0,0,3.2-1.26,6.81,6.81,0,0,0,3.09-3.45,5.94,5.94,0,0,0-.12-5,4.54,4.54,0,0,1-.19-1.35c0-.35.13-.87-.56-.5,0,0-.28-.25-.34-.42s0-.41-.06-.59a16.17,16.17,0,0,0-2.68-4.61,24.87,24.87,0,0,1-2.07-2.71c-.43-.62-.74-1.33-1.12-2-.15-.26-.29-.59-.53-.72-1.54-.88-2-2.34-2.18-3.93a4.29,4.29,0,0,0-.31-1c0-.09-.15-.15-.22-.22a1.21,1.21,0,0,0-.09.35c0,.33.11.66.16,1-.26-.26-.65-.47-.77-.78a28.41,28.41,0,0,1-1.41-4.33c-.29-1.43,1.06-3,2.83-3.51a25.63,25.63,0,0,1,3.62-.65,30.9,30.9,0,0,1,3.84-.31,22.28,22.28,0,0,1,8.32,1.73c.41.16.84.28,1.24.45.87.38,1.09,1.26,1.5,2,.18.32,0,.52-.36.41-.86-.31-1.83-.19-2.6-.83a10,10,0,0,0-5-2,27.61,27.61,0,0,0-4.24-.45,19.92,19.92,0,0,0-3.66.52,9,9,0,0,0-1.83.56,1.23,1.23,0,0,0-.65.66,5.75,5.75,0,0,0,0,3.62A26.41,26.41,0,0,0,198.19,19c1.09,1.82,2.41,3.51,3.68,5.22.22.29.78.31,1,.59a19.63,19.63,0,0,1,1.62,2.42,22.94,22.94,0,0,1,1,2.14c.19.4.49.36.83.19A22.37,22.37,0,0,1,211.64,28c1.37-.33,2.74-.68,4.11-1,.54-.12,1.1-.15,1.65-.23.75-.11,1.49-.29,2.24-.34a.94.94,0,0,1,1,1.42,21.27,21.27,0,0,1-2,3.06c-.7.86-1.65,1.51-2.41,2.32a5.49,5.49,0,0,0-1.69,3.19,2.71,2.71,0,0,0,2.63,2.84c2.16,0,4.31,0,6.46,0a4.2,4.2,0,0,1,1.61.32,3.06,3.06,0,0,0,2.61,0,6.94,6.94,0,0,1,1.53-.33c.12,0,.26.08.39.12-.12.1-.22.25-.36.3s-.62.18-.91.3a2.36,2.36,0,0,0-.45.33c.19.12.36.32.56.36,1.24.21,1.73-.1,2.11-1.31a11.61,11.61,0,0,1,4.68-6.14A8.89,8.89,0,0,1,237.11,32,2.71,2.71,0,0,1,239,32a1.24,1.24,0,0,1,.62,1.8c-.37.77-.65,1.58-1,2.42M218.32,46.92c-1.16,1.21-2.36,2.39-3.46,3.64a31.2,31.2,0,0,0-3.39,4.24,52.08,52.08,0,0,0-3.12,6.31,10,10,0,0,0-.6,3.08c-.11,1.38-.42,2.81.36,4.11.55.92,1.22,1.77,1.71,2.71a2.25,2.25,0,0,0,1.34,1.17c2.3.8,4.59,1.54,7.08.87a6.15,6.15,0,0,0,4.21-3,15.66,15.66,0,0,0,1.09-2.4,30,30,0,0,0,1-3.73c.42-2.43.69-4.89,1.15-7.31.37-1.94.89-3.86,1.42-5.76.68-2.43,1.45-4.85,2.18-7.27.19-.67,0-.95-.7-.89a5.58,5.58,0,0,1-2.47-.27,3.2,3.2,0,0,0-3.39.74c-1.45,1.2-2.86,2.43-4.37,3.72M236.5,34.78a1.79,1.79,0,0,0-.38.22,19.59,19.59,0,0,0-3.45,4.74c-.1.18,0,.47,0,.7.2-.11.47-.18.59-.35,1.18-1.62,2.33-3.25,3.47-4.89.06-.09,0-.28-.2-.42M193.63,13l-.24.34.22.14A.92.92,0,0,0,193.63,13Z"/><path d="M293.07,37.67c-1.06-1.05-1-1-2.41-.38-1.82.86-3.64,1.71-5.49,2.46a7.58,7.58,0,0,1-3.18.61,2.41,2.41,0,0,1-2.28-3.23,6,6,0,0,0,.15-.76,5.24,5.24,0,0,0-.87.39c-.73.48-1.43,1-2.15,1.5-1,.68-1.95,1.41-3,2a22.17,22.17,0,0,1-6.41,2.93c-1.36.29-2.81-.06-3.23-1.09a5.19,5.19,0,0,1-.23-2.54,11.24,11.24,0,0,1,.84-2.18,1.78,1.78,0,0,0,0-.65c-.16.07-.37.1-.48.23a18.18,18.18,0,0,1-4.57,3.38,39.7,39.7,0,0,1-5.26,2.41,4.67,4.67,0,0,1-2.49.33,2.21,2.21,0,0,1-1.43-2.88c.36-1.28.72-2.56,1.07-3.84a1.49,1.49,0,0,0,0-.42,1.55,1.55,0,0,0-.33.21l-2.64,3.11c-1.5,1.77-3.06,3.48-4.47,5.31a11.25,11.25,0,0,0-2.11,3.17c-.15.41-.72.73-1.16,1s-.92-.64-.69-1.15a11.84,11.84,0,0,1,1.46-2.72c1.22-1.49,2.58-2.87,3.91-4.27,1.53-1.61,3.14-3.16,4.62-4.82a43.1,43.1,0,0,0,2.69-3.56c.63-.87,1.25-1.74,1.8-2.66a20.5,20.5,0,0,0,1.21-2.44,3.21,3.21,0,0,1,2-1.54c.89,0,1.27.5.86,1.32s-1,1.71-1.45,2.57c-1,1.88-2.1,3.74-3.08,5.64A13.5,13.5,0,0,0,253.2,38a7.51,7.51,0,0,0-.08,2.37c0,.39.3.64.84.65a9.6,9.6,0,0,0,5.11-1.67,46.14,46.14,0,0,0,4.52-3.08,20.3,20.3,0,0,0,5.71-6,1.86,1.86,0,0,1,2.43-.86c.68.24.79.74.32,1.3a28,28,0,0,0-3.15,3.86c-.81,1.37-2,2.51-2.38,4.17a3,3,0,0,0,.27,2,1,1,0,0,0,.7.37c.28,0,.6-.18.88-.13,1.85.35,3.16-.83,4.57-1.63,1.67-.93,3.18-2.14,4.83-3.11a34,34,0,0,0,6.4-5.44,15.54,15.54,0,0,1,2.26-1.64c.57-.38.83.16,1.11.49s.13.68-.2,1c-.76.67-1.52,1.35-2.23,2.07a8.78,8.78,0,0,0-2.53,4.11c-.23.94.43,1.55,1.37,1.34s2.11-.39,3.15-.63a12.64,12.64,0,0,0,4.53-2.66c1-.73,1.66-1.81,2.89-2.26.27-.1.32-.71.58-1a13.87,13.87,0,0,1,2.51-2.51,10.35,10.35,0,0,1,5.12-1.74A5.16,5.16,0,0,1,307.09,29a3.4,3.4,0,0,1-.25,3.88,12,12,0,0,0-1.13,1.43,6.79,6.79,0,0,1-2.79,2c-.2.1-.42.15-.61.26a2.81,2.81,0,0,0-.44.33,2,2,0,0,0,.7.18,25.73,25.73,0,0,0,2.9-.46c1.14-.29,2.27-.65,3.37-1.05a11.87,11.87,0,0,0,2.54-1.14,20.52,20.52,0,0,0,2.25-2l3.49-3.22A5.09,5.09,0,0,1,319.41,28c.68-.16,1.22-.07,1.44.49a1.27,1.27,0,0,1-.58,1.51c-1.71,1.29-3.38,2.62-5,4-1.13.94-1.32,2.36-1.63,3.68-.15.62.64,1.34,1.33,1.37a7.92,7.92,0,0,0,4-1c1.17-.57,2.25-1.32,3.41-1.93,1-.52,2-.89,3-1.43,1.5-.85,2.93-1.86,4.45-2.66,2.08-1.1,4.22-2.09,6.34-3.11a1.89,1.89,0,0,1,2.6.51,1.17,1.17,0,0,1,0,1.05c-.77,1.2-1.64,2.34-2.45,3.52-.56.81-1.1,1.66-1.62,2.5a15.72,15.72,0,0,1-1.15,1.9,1.84,1.84,0,0,1-2.36-.05.76.76,0,0,1-.1-1.09c1.1-1.77,2.24-3.52,3.36-5.29a.59.59,0,0,0,.06-.31c-.13-.06-.32-.14-.43-.09-1,.48-2.09,1-3.1,1.51-1.57.83-3.1,1.72-4.65,2.57-2.22,1.22-4.4,2.53-6.68,3.62a14.8,14.8,0,0,1-6.05,1.87,2.63,2.63,0,0,1-2.68-3.21c.09-.53.28-1,.41-1.57a2.06,2.06,0,0,0,0-.43L311,36c-1.18.53-2.33,1.15-3.56,1.57a24.71,24.71,0,0,1-3.55.81,20.78,20.78,0,0,1-2.72.31c-.75,0-1.49-.12-2.24-.13a19.12,19.12,0,0,0-2.14.06c-1.34.13-2.67.25-3.7-1m7.82-8.21a4.76,4.76,0,0,0-2.74,2.13,2.87,2.87,0,0,0,.13,3.8,1.72,1.72,0,0,0,1.09.75,4,4,0,0,0,1.61-.42,5.78,5.78,0,0,0,3.7-4.11A1.91,1.91,0,0,0,303,29.09,6.14,6.14,0,0,0,300.89,29.46Z"/><path d="M356.42,31.16c.31.9-.43,1.44-.63,2.15a3.7,3.7,0,0,0-.08.48c.22,0,.51,0,.63-.12.55-.52,1-1.1,1.55-1.65.15-.16.37-.26.52-.42,1-1.08,2.45-1.74,3.21-3.05a12.6,12.6,0,0,0,1.17-2.69,16.88,16.88,0,0,1,2.06-4.71c.94-1.37,1.65-2.91,2.53-4.34a15,15,0,0,1,2.39-3.43c1.59-1.44,2.49-3.36,3.89-4.9.35-.39.68-1.2,1.51-.56.1.08.47-.2.72-.29s.38-.1.43,0a.63.63,0,0,1,.09.47,1.07,1.07,0,0,1-.27.44c-1,1.15-2,2.26-2.95,3.45s-1.92,2.64-2.87,4-1.86,2.55-2.74,3.87a14.13,14.13,0,0,0-.58,1.5c-.58,1.11-1.21,2.2-1.8,3.3a1.52,1.52,0,0,0-.06.53,1.46,1.46,0,0,0,.44-.19c.29-.26.57-.54.84-.83.47-.51.92-1,1.39-1.55.2-.21.42-.4.62-.62.95-1.05,1.9-2.1,2.84-3.16s1.9-2,2.73-3.07c1.38-1.81,2.66-3.7,4-5.55.17-.23.43-.4.61-.62a6.26,6.26,0,0,0,.56-.79c.44-.71.85-1.44,1.29-2.16.61-1,1.24-2,1.84-3,.06-.09,0-.24,0-.37s-.33-.07-.42,0c-.57.43-1.13.88-1.67,1.34l-2.46,2.13a1.26,1.26,0,0,1-.51.27c-.12,0-.27-.1-.41-.16a2.63,2.63,0,0,1,.2-.33c.41-.47.84-.92,1.22-1.41.11-.13.08-.36.11-.54a1.36,1.36,0,0,0-.39.22c-.57.66-1.12,1.33-1.69,2,0,0-.06.1-.11.11l-.91.29a2.72,2.72,0,0,1,.4-.71c1.85-1.77,3.67-3.58,5.6-5.25A4.35,4.35,0,0,1,384.35,0a.93.93,0,0,1,.85,1.47c-.56,1-1.11,2-1.66,3-.72,1.29-1.35,2.65-2.17,3.86-1.13,1.65-2.38,3.21-3.62,4.78-1.43,1.8-2.9,3.57-4.38,5.33-.85,1-1.75,2-2.63,3-1.1,1.21-2.19,2.44-3.32,3.62s-2.13,2-3.09,3.15a8.07,8.07,0,0,0-1,2c-.13.29-.12.64-.24.93a8.36,8.36,0,0,0-.13,5.14c.09.41.23.8.36,1.2.23.73.72.91,1.49,1,2.2.36,3.92-.7,5.73-1.62,1.22-.62,2.5-1.14,3.69-1.82,1.48-.84,2.89-1.83,4.35-2.72.48-.29,1-.44,1.52-.72a3.91,3.91,0,0,0,.83-.7c1.16-1.14,2.32-2.29,3.46-3.46a1.75,1.75,0,0,1,3,.53c.17.5-.11.67-.46,1-1.94,1.62-3.46,3.51-3.45,6.23,0,1.09.44,1.44,1.51,1.55,2.63.28,5.08-.53,7.55-1.22.37-.1.73-.23,1.1-.34l-1-.68a7.35,7.35,0,0,1-3.06-3.85,2.89,2.89,0,0,1,1.89-3.91,17.44,17.44,0,0,1,3.73-.94,5.7,5.7,0,0,1,4.41,1.75A12.67,12.67,0,0,1,401.1,29a3.53,3.53,0,0,1-.18,4.1A7.26,7.26,0,0,1,398.11,35a2.26,2.26,0,0,0-.5.39c.16.11.34.33.49.32,1.17-.07,2,.72,3.07,1,2.87.92,5.67,2,8.55,2.93,2.4.75,4.87,1.27,7.28,2,1,.27,1.86.77,2.81,1.08.55.17,1.18.07,1.72.25,1.37.46,2.71,1,4.06,1.51a4.74,4.74,0,0,0,.65.16l.72.2c-.28.2-.58.58-.84.56a8.7,8.7,0,0,1-1.79-.45c-1.64-.52-3.27-1.07-4.91-1.57-1.83-.55-3.68-1.08-5.53-1.59s-3.63-.93-5.44-1.44c-2.34-.67-4.68-1.34-7-2.09-1.84-.59-3.64-1.31-5.47-1.94a2.09,2.09,0,0,0-1.11,0c-2.38.64-4.72,1.48-7.13,1.91a28,28,0,0,1-5.18,0c-.15,0-.32-.16-.43-.28a4.21,4.21,0,0,1-1-4.81,1.91,1.91,0,0,0,0-.59,2.43,2.43,0,0,0-.48.14c-1.29.78-2.56,1.59-3.86,2.37-1.5.91-2.95,1.92-4.53,2.68a21.47,21.47,0,0,1-6.84,2.28,4.54,4.54,0,0,1-3.18-.48,4.05,4.05,0,0,1-1.54-2.76,10.7,10.7,0,0,1,0-4.81,1.28,1.28,0,0,0-.05-.38,1.34,1.34,0,0,0-.32.13c-.55.42-1.11.83-1.61,1.29a53.25,53.25,0,0,0-5.09,4.86,47.45,47.45,0,0,1-4.05,4.56c-1.1,1-2.34,1.87-3.52,2.8-.12.09-.23.2-.35.3-.28.27-.56.77-.84.76a5.47,5.47,0,0,1-2.12-.4c-.66-.3-.59-.71-.05-1.18s1.06-1.1,1.64-1.6c1.12-1,2.29-1.87,3.43-2.81,1-.8,2-1.58,2.88-2.43a3.14,3.14,0,0,0,.53-1.12c.54-1.44,1.08-2.89,1.61-4.34,0-.12,0-.29,0-.43a1.32,1.32,0,0,1,.16-.64,2.71,2.71,0,0,1,3-.71c.18.08.29.31.47.5m42.83.6c.32-2.4-.61-3.55-2.63-4.27-1.25-.45-2.32.22-3.42.76a2.09,2.09,0,0,0-.63,3.13,19.27,19.27,0,0,0,2.51,2.52,1.3,1.3,0,0,0,1.05.31,5.91,5.91,0,0,0,3.12-2.45m-35.8-4.37a7.19,7.19,0,0,0,.92-1.51,18.24,18.24,0,0,1,1.44-3.76,20,20,0,0,0,1.12-2.54,1.77,1.77,0,0,0,.08-.52c-.18.13-.45.22-.53.4q-1,2.17-2,4.38c-.11.27-.11.59-.23.85-.39.85-.82,1.67-1.21,2.51-.06.11,0,.28,0,.42a2.34,2.34,0,0,0,.41-.23m-1,3.58c0-.2.06-.4.08-.61l.06-.51a2,2,0,0,0-.48.37,1.42,1.42,0,0,0-.21.54,10.78,10.78,0,0,0,.17,7.07c0,.12.21.19.33.28a1.3,1.3,0,0,0,0-.34,35.81,35.81,0,0,1-.49-3.83,12.54,12.54,0,0,1,.52-3m11.2-21.52c-.27.35-.55.69-.81,1a2.76,2.76,0,0,0-.25.45c.18,0,.44.05.54,0,.47-.47.91-1,1.34-1.49a2.23,2.23,0,0,0,.24-.49,3.15,3.15,0,0,0-.64.13c-.14,0-.23.21-.42.4m-4.05,6.11c.34-.48.7-1,1-1.46.06-.1,0-.29-.06-.44-.13.07-.3.11-.38.22-.34.51-.68,1-1,1.56a4,4,0,0,0-.23.92c.18-.24.36-.48.62-.8M368,17.31l-.2.43c.07,0,.18.06.2,0s.27-.35.4-.53A.83.83,0,0,0,368,17.31Z"/><path d="M39,31.4l.6-.59.39-.39c-.17-.08-.36-.25-.52-.23-1.13.13-2.26.26-3.37.47a21.93,21.93,0,0,0-3.24.81,6.64,6.64,0,0,0-1.58,1.15c-.41.32-.77.88-1.36.4a1.09,1.09,0,0,1,.19-1.61,6.6,6.6,0,0,1,3.33-1.72c1.47-.27,2.92-.67,4.39-.9a24.24,24.24,0,0,1,3.9-.32,1.8,1.8,0,0,1,1.33.83c.13.24-.36.92-.71,1.26A34.3,34.3,0,0,1,39.66,33c-1,.8-2.08,1.51-3.1,2.29-1.27,1-2.51,2-3.76,3-.81.65-1.64,1.29-2.43,2a6.7,6.7,0,0,0-.84.92,12.16,12.16,0,0,0-1.17,1.41c-.79,1.3-1.83,2.47-1.86,4.15,0,1.31.28,1.27,1.14,1.85a7.2,7.2,0,0,0,4.76,1,13.9,13.9,0,0,0,2.18-.47,21.64,21.64,0,0,0,3.14-.84,22.27,22.27,0,0,0,2.81-1.66c1.12-.69,2.2-1.43,3.34-2.09a3.8,3.8,0,0,0,1.83-2.62A4.76,4.76,0,0,1,48.11,39a6,6,0,0,0,2.22-2.27,10.71,10.71,0,0,1,2.17-2.25,7,7,0,0,1,3.17-1.73,3.06,3.06,0,0,1,1.12-.14,8.44,8.44,0,0,1,4,1,2.86,2.86,0,0,1,1.23,2.89,7.34,7.34,0,0,1-3,4.46c-1.27.88-2.43,1.91-3.67,2.84a14.07,14.07,0,0,1-4.49,2,4.19,4.19,0,0,1-4.65-1.18c-.54-.58-.87-.36-1.4,0-1.88,1.36-3.73,2.79-5.74,4a21.09,21.09,0,0,1-4.32,1.61,22.65,22.65,0,0,1-4.23,1.08,7.68,7.68,0,0,1-5.81-1.66,1.75,1.75,0,0,1-.5-1c-.28-1.3-.59-2.63.21-3.84.46-.7,1.16-1.24,1.65-1.92a32.62,32.62,0,0,1,6.74-6.43c2.09-1.61,4.08-3.32,6.16-5M55.81,41.76a.73.73,0,0,0,.27-.11c.9-.95,1.85-1.85,2.68-2.86a3.06,3.06,0,0,0,.42-3.49A3.42,3.42,0,0,0,56,34.16c-2.2.63-3.58,2.3-5,3.94a.77.77,0,0,0-.16.56,2.11,2.11,0,0,1-.9,2,8.76,8.76,0,0,0-1,1,1.1,1.1,0,0,0,.35,1.81,3.48,3.48,0,0,0,3.64-.07C53.8,42.83,54.78,42.37,55.81,41.76Z"/><path d="M337.09,16.36a3.08,3.08,0,0,1,.59-2c.57-.85,1-1.81,1.47-2.71s2.39-1.24,3.06-.55a1.13,1.13,0,0,1,.18.94,2.56,2.56,0,0,0,.1,1.83c.05.14.18.3.14.41-.24.8-.56,1.57-.76,2.37a11.06,11.06,0,0,0,0,1.29,3.39,3.39,0,0,1-.3.78c-.16-.23-.44-.46-.46-.7-.06-.72,0-1.45-.05-2.16a1.45,1.45,0,0,0-.55-.92.9.9,0,0,0-.88.12c-.67.86-1.26,1.79-1.88,2.7a2.58,2.58,0,0,1-.33.41,1.83,1.83,0,0,1-.38.23c-.08-.15-.24-.31-.22-.45C336.85,17.46,337,17,337.09,16.36Z"/><path d="M184,82.57c0-.27.09-.45.13-.64a2.67,2.67,0,0,1,.34.43c.13.24.19.5.31.74a1.24,1.24,0,0,0,1.89.54,3.29,3.29,0,0,1,.44-.28c.23-.09.47-.16.71-.23a3.59,3.59,0,0,1-.35.64,2.12,2.12,0,0,1-2.29.48A1.75,1.75,0,0,1,184,82.57Z"/><path d="M269.45,16.68H271a1,1,0,0,1,.32.12c-.08.12-.18.34-.26.34-1.13-.07-2.3.08-3.3-.63-.12-.08-.14-.28-.21-.43a2.5,2.5,0,0,1,.49.1C268.51,16.33,268.94,16.51,269.45,16.68Z"/><path d="M350.58,1.43c-.56-.27-.21-.4,0-.47a1.77,1.77,0,0,1,1.8,1,1.46,1.46,0,0,1,0,.42c-.14-.06-.36-.09-.42-.2A1.3,1.3,0,0,0,350.58,1.43Z"/><path d="M44.74,15.76c.35.18.67.32,1,.46-.38,0-.75,0-1.13,0a1.86,1.86,0,0,1-.52-.07,1.72,1.72,0,0,1-.42-.18c.14-.09.26-.24.41-.27A1.7,1.7,0,0,1,44.74,15.76Z"/><path d="M142.9,4a2.56,2.56,0,0,1-.53.48,4.92,4.92,0,0,1,0-.94c0-.08.31-.11.48-.17C142.86,3.52,142.88,3.71,142.9,4Z"/><path d="M142.42,6.36a6.14,6.14,0,0,1,.28-.61c.06.18.21.37.19.54a9.63,9.63,0,0,1-.28,1.18C142.55,7.12,142.49,6.78,142.42,6.36Z"/><path d="M271.08,2.43a3.83,3.83,0,0,1,.53-.19l-.09.54A2.19,2.19,0,0,1,271.08,2.43Z"/><path d="M159.1,15.56a2.38,2.38,0,0,1,.34-.47l.13.53A.85.85,0,0,1,159.1,15.56Z"/><path d="M309.3,26.52a2,2,0,0,1-.27-.6c.1,0,.29,0,.31.1A.73.73,0,0,1,309.3,26.52Z"/><path d="M366.82,10.44c.05-.12.13-.27.23-.29a1.73,1.73,0,0,1,.49.06,3.18,3.18,0,0,1-.37.27A.57.57,0,0,1,366.82,10.44Z"/><path d="M45.25,1.27a1.48,1.48,0,0,1,.29.43A3.12,3.12,0,0,1,45,1.59a.87.87,0,0,1-.23-.2A3.91,3.91,0,0,1,45.25,1.27Z"/><path d="M40.17,85a7.9,7.9,0,0,1-.35.8,1.18,1.18,0,0,1-.12-.08l.36-.85S40.13,84.86,40.17,85Z"/><path d="M182.79,81.18a4.16,4.16,0,0,1,.69,0l0,.14A2.76,2.76,0,0,1,182.79,81.18Z"/><path d="M44.89,4.57a1.29,1.29,0,0,1-.42-.22s.07-.14.12-.22A1.71,1.71,0,0,1,44.89,4.57Z"/><path d="M339.35,6.4a2.5,2.5,0,0,1,.53,0,1.15,1.15,0,0,1-.08.21A1.21,1.21,0,0,1,339.35,6.4Z"/><path d="M437.91,78.28a1,1,0,0,1-.26.3l-.21-.38A1,1,0,0,1,437.91,78.28Z"/><path d="M44.1,18.46a1.13,1.13,0,0,1,0-.35l.39.38A1.19,1.19,0,0,1,44.1,18.46Z"/><path d="M444.38,67.6a1,1,0,0,1-.37,0l.36-.3A.48.48,0,0,1,444.38,67.6Z"/><path d="M359.12,5.05a3.3,3.3,0,0,1-.37.19l.08-.39A.88.88,0,0,1,359.12,5.05Z"/><path d="M44.3,29.22a1.11,1.11,0,0,1-.2.32L44,29.22A.5.5,0,0,1,44.3,29.22Z"/><path d="M379.68,17.59a1.26,1.26,0,0,1,.09.31l-.45-.34A1.19,1.19,0,0,1,379.68,17.59Z"/><path d="M426.36,37.67a1.45,1.45,0,0,1,.44.07l-.14.21A1,1,0,0,1,426.36,37.67Z"/><path d="M170.85,79.24a1,1,0,0,1,.47-.08v.15A1.08,1.08,0,0,1,170.85,79.24Z"/></g></g></g></svg>