<svg id="Layer_1" data-name="Layer 1" xmlns="http://www.w3.org/2000/svg" viewBox="0 0 278.75 419.31"><defs><style>.cls-1{fill:#ccc;}</style></defs><g id="Capture_Shape_2" data-name="Capture Shape 2"><path class="cls-1" d="M239.28,39.83c-45.6,1.87-95.39,2.93-143.39,0-22.26-1-43.3,4-64.71,0C-3.1,35.73,3.28,65.21,4.61,89.45,1.67,204.25,5.75,320.7,2,433.83c-.64,38.24,42.95,17.79,65.35,24.75,39.43-3.62,78.09.11,118.1-1.48,101.73,3.58,97.11,10.63,92.66-93.15C280,274,279.22,185,280,96.18,278.24,51.6,293.68,38.74,239.28,39.83Zm34.76,268a21.3,21.3,0,0,0-7.65,3.07c0,3.67.05,7.35.12,11,.12,5.62.05,11.26.15,16.89a23.78,23.78,0,0,0,3.65,3.23c-1.39,1.36-5.78-.49-4.23,43.41l-4.42,48c-.37.44-.77.88-1.18,1.3,1.78,2.07-6.45,5.88-13.05,8.19l-1.15.39C241,444,236,441,233,447h1c-3,0-6,3-9,4,0-1,1-1,2-1-3-2-7-3-11-4-11-2-21,2-32-2,0,2-3,2-4,3-3,1-7-3-10-2-17,6-33-5-50-1-4,1-7,5-11,7-1-1,2-2,1-3-2-3-7-3-9-4-12-2-24,4-34,1-12-3-24-3-36-2-2,1-4-3-5.56-4-.13.18-.25.37-.38.58.13-.21.25-.41.37-.59-.47-.34-.94-.69-1.42-1.08a18.93,18.93,0,0,1-1.41-1.32c-.43-.44-.87-.86-1.31-1.29l-.28.22.28-.22a10.62,10.62,0,0,1-3.16-4.49c-1.17-3.94.57-7.22,1.37-10.93.65-3.05-.84-5.26-1.33-8.34a61.68,61.68,0,0,1-.2-13.24h0a12.62,12.62,0,0,1,.18-1.49,4.54,4.54,0,0,1,2.76-3.52,12.52,12.52,0,0,1,2.13-2.11c-6.45-19.9-.56-34.65-5.36-54.51.08-.56.2-1.17.33-1.81A6.48,6.48,0,0,1,15.2,330a57,57,0,0,1,.53-17.44,4.25,4.25,0,0,1,.56-1.45c-1.85-19.27,2.23-39.35,2.08-58.86l.19-.22c0-.15,0-.29.05-.44a32.42,32.42,0,0,0,.41-5,11.81,11.81,0,0,0-1.71-.29c.63-.29,1.19-.57,1.71-.85,0-1.91-.18-3.82-.38-5.73-.65-.17-1.36-.34-2.18-.5l2.12-.16c0-.22,0-.45-.08-.67H16.42l2.08,0a1.37,1.37,0,0,1,0-.19H16.33l2.12-.23-.15-1.34-1.91-.14c.67-.18,1.26-.37,1.83-.56-.3-2.55-.57-5.11-.65-7.67l-.42-.22.41,0a34.22,34.22,0,0,1,.5-7.2c.55-2.93,1.38-5.64-2.23-8.8,5.26-2.15,6.09-4.75,6.63-7.46s.79-5.52-5.55-8c5.74-3.44,5.46-6.25,1.84-9.72,3.08-2.17,2.82-5,2.58-7.81s-.45-5.65-.64-8.47a101.23,101.23,0,0,1-.43-29.95c.17-3.44.43-6.87.81-10.3a6.47,6.47,0,0,1,.37-1.53c-.2-10,.54-18.39.8-25.76a4.87,4.87,0,0,1-2.5-4.64,21.65,21.65,0,0,1,.43-3.47,5.85,5.85,0,0,1-3.09-4.51,77.48,77.48,0,0,1-.47-13.26A29.56,29.56,0,0,0,14,74c1-.17,1.94-.38,2.86-.63.13-1.55.3-3.11.5-4.66a1.82,1.82,0,0,1,1.13-1.09C25,66,20,64,20,59c0-2,3-3,4-3,6,2,10-3,16-4,2,0,5,1,6,1,4,0,9-1,13-1,12-1,24,2,37,0,6-1,12,3,18,3,38-4,74,4,111.78,4a10.41,10.41,0,0,0,2.33.12A47.49,47.49,0,0,0,245.81,54c-2.51,9,8.75,3.73,15.19,6,1.26,1.36-4.3,4.09-5.35,5l.2.27c.24,0,.61-.11,1.15-.24,2,1.92,2.89,4.59,3.2,7.62a28,28,0,0,1,1.92,6.51c.88,5.35.46,10.69.41,16.07q0,1.55,0,3.09a9.52,9.52,0,0,0,1.06,1.24,3.5,3.5,0,0,0-1,1.46c.07,1.75.18,3.49.32,5.23.94,3.36,2.65,7.19,2.61,10.35.41,2.29-.22,4.67-.76,7,.32,2.77.62,5.55.88,8.32a8.43,8.43,0,0,0,2.06,1.61,19,19,0,0,0-1.82,1.24c.16,2.08.29,4.17.36,6.25a27,27,0,0,0,4.66,2.17c-2,.25-3.5.45-4.56.66q.36,10.22.82,20.43a42,42,0,0,0,4.89,1.86,50.09,50.09,0,0,0-4.73,1.91c.3,6.86.59,13.72.83,20.59a47.47,47.47,0,0,0,5.13,1.08,22.34,22.34,0,0,0-5,3.35c.43,13.59.63,27.18.21,40.79-.06,2.16-.14,4.32-.21,6.49.34.32.7.63,1.1.94-.41.28-.79.57-1.16.85q-.24,6.81-.5,13.63l.13.12-.14.09c-.54,13.95-1.08,27.88-1.29,41.84a9.85,9.85,0,0,0,6,3.24c-2.74.12-4.76.22-6.09.3v.16c1.87,0,5.13-.08,9.81-.18a71.37,71.37,0,0,0-9.82,1.76c0,.93,0,1.86,0,2.8A63.47,63.47,0,0,0,274,307.84Z" transform="translate(-1.99 -39.45)"/></g></svg>