<svg xmlns="http://www.w3.org/2000/svg" xmlns:xlink="http://www.w3.org/1999/xlink" width="1989" height="159" viewBox="0 0 1989 159">
  <defs>
    <clipPath id="clip-path">
      <rect id="Rectangle_26003" data-name="Rectangle 26003" width="1989" height="159" transform="translate(-1904 771)" fill="#fff"/>
    </clipPath>
  </defs>
  <g id="Mask_Group_76" data-name="Mask Group 76" transform="translate(1904 -771)" clip-path="url(#clip-path)">
    <path id="Path_44259" data-name="Path 44259" d="M-5763.053-445s15.706,46.224,123.5,38.82,157.535-32.575,157.535-32.575,35.514-10.023,41.728-6.245,62.422,18.046,62.422,18.046,48.231-2.948,54.264,0,65.491-11.8,65.491-11.8,29.394,23.766,129.832,32.575,105.047-9.226,131.411-14.475,67.643-8.706,78.675-6.3,37.891-16.635,50.04-11.8,29.13,8.51,39.122,11.8,3.285,18.96,24.073,30.176,39.928,0,53.237,0-18.07-35.611,85.26-23.877,127.211,26.613,137.264,14.475,35.1-17.329,45.424-20.774,74.993,0,74.993,0,73.314,26.471,124.066,30.176,82.435-21.713,100.786-23.877,55.548-5.705,63.129-6.3,28.7,21.97,72.632,20.774,160.518-6.77,160.518-6.77l60.58-7.7v1567.5s-134.076,14.285-154.444,20.274-15.712,7.438-94.671,9.689-130.562-5.179-170.038-9.689-35.045-32.542-117.152-11.038-169.747-10.991-203.344-9.236-75.211,37.019-101.228,29.963-63.459-16.338-88.206-9.689-56.809,12.893-65.746,9.689-34.238-15.009-59.994-9.689-54.557,10.927-67.388,9.689-32.747-37.918-47.59-44.437-65.409,31.879-99.494,34.749-25.67,11.133-78.435,9.689-66.5,3.259-90.772,0-23.993-3.235-68.875-9.689-64.974-17.48-114.4-20.274,12-13.189-116.868-14.475-164.544-12.255-187.969,0-54.312-33.6-54.312-33.6l-7.561-1504.954Z" transform="translate(3911.791 1250.681)" fill="#242328"/>
  </g>
</svg>
