<svg xmlns="http://www.w3.org/2000/svg" viewBox="0 0 194.34 194.37"><defs><style>.cls-1{fill:#be202e;}</style></defs><g id="Layer_2" data-name="Layer 2"><g id="Layer_1-2" data-name="Layer 1"><g id="Stamps_frames" data-name="Stamps frames"><path class="cls-1" d="M53.86,149.56h-.49v1.21h0c0-.71.49-.71.49-1.21Zm8.21.5s0-.5-.42-.5H53.86c0,.5,0,.5-.49,1.21h8.28c0-.71.42-.71.42-.71Zm15.64,13.66v-1.21h0a2,2,0,0,0-.43,1.21ZM50.32,150.77h0v-1.21h-.43v0H48.7v1.21ZM37.73,169.94c-1.14,1.63-1.14,1.63-1.14.43s0-1.13.5-1.13c-.5-.5-1.21-1.21-1.7-1.63-.71,1.13-1.13,1.63-1.13,2.33a7.6,7.6,0,0,1,.42-2.33c0-.71-.42-.71-.42-.71-.71.71-.71,1.84-.71,3-.5,0,0-2.33-1.2.43a39,39,0,0,0,5.87,4.74c0-1.2.71-2.83.71-4-.71-.71-.71-1.14-1.2-1.14Zm23.2-26.61c.72,0,.72.5,1.64.5,1.06-.5.56-.5-1.64-.5Zm8.57-.7v1.2H62.57l-6.8.71v-1.21l13.73-.7Zm-16.13,6.93H51.53v1.21h1.12c.72-.71.72-.71.72-1.21Zm15.63.5h0Zm-1.83,0v-.5H64.33v.5h2.84Zm-14.94-5.52v-1.21H51v1.21Zm1.63-1.21h-.49a2,2,0,0,1-.72,1.21h.72a1.89,1.89,0,0,1,.49-1.21Zm21.51,7.44v-.71h0v.71Zm.71-3.4-.71,1.13v.5l.71-.5v-1.13Zm.5,5Zm4.6,8.21-2.27-1.13v1.13l1.77.71.5-.71Zm-.5,9.34Zm-11.18-14H67.87c0,.71-.7.71-.7,1.2H69.5v-1.2Zm-2.33,0h-.5a2,2,0,0,0-.71,1.2h1.21v-1.2Zm.7,7.79a1.88,1.88,0,0,1,.5-1.21h-1.2a2.82,2.82,0,0,1-.5,1.21Zm2.34-1.21H69.5c0,.5,0,1.21-.5,1.21v-1.21h-.63v1.21H69.5c0-.71.71-.71.71-1.21Zm4-12.45.71.71v-1.21h0c0-.56,0,0-.71.5ZM71.84,149c0,.56,0,1.06-.43,1.06h.43V149Zm-33.62-5.67h-.49a.48.48,0,0,0,.49.5v-.5Zm.71,27.75c-1.84,9.76,1.62,0,2.33,3.54a5,5,0,0,1-.71,2.33c.71,0,.71.5,1.21.5,0-1.21.7-2.34.7-4-1.2-.7-2.33-1.91-3.53-2.4Zm23.14-33.62v-1.13H53.86a2.89,2.89,0,0,1-.49,1.13v-1.13h-.72c-.42,2.33-.42,1.13-.42,0l-18.68.42c0,.71.71.71.71,1.21l27.81-.5ZM35.39,125.85c-1.84,0-4.1,1.14-1.13.71-1.21,0,1.62,0,1.13-.71Zm5.16-1.2v1.91L25.62,127v-1.63h9.06l5.87-.71ZM31.85,141c-2.9-3.54-4.53-7.79-6.93-12.1v1.62a115.06,115.06,0,0,0,6.37,12.11c0-.43.56-1.14.56-1.63Zm10.61,13.73a.45.45,0,0,1,.5-.43c-1.7-1.91-3.54-3.53-4.74-4.74v1.21a26.52,26.52,0,0,0,3,3.53l.5-.7-.5.7a.45.45,0,0,1,.5.43v0Zm3.26,3.54v-1.14c-.42-.49-.42-1.2-1.13-1.2,0,.71-.5.71-.5,1.2.5,0,1.21.71,1.63,1.14Zm1.91-8.21v-.5l-4.24.5.7.71h3.54v-.71Zm5-19h.72v-1.2l-23.29.7c0,.5,0,.5.71,1.21L52.23,131Zm-9.26,26.11ZM51,143.33H38.22v.5a.7.7,0,0,0,.71.71H50.32a2,2,0,0,0,.71-1.21Zm-6.94,13.31v-1.2l-.7-.71v1.2c0,.71,0,.71.7.71ZM24.2,125.36c0,1.2-.42,1.63-.42,2.83,0,.71.42,1.13.42,1.63l.72-1.63c-.72,0-.72-.71-.72-1.2h.72l.7-1.14h-.7v-.49ZM59.31,131c0-.5,0-1.2.43-1.2H56.9V131Zm-16.85-6.37a2.21,2.21,0,0,0-.7,1.91l19.17-.71H73.75c.49-1.2,1.2,0,1.2,0h.42a4.09,4.09,0,0,1,.71-1.69l-19.18.49v1.2c-.7,0-.7,0-.7-1.2H55.06v0h-1.2s0,.71-.49.71h-.72a.7.7,0,0,0,.72-.71H42.46Zm30.09,5.87h1.69c-.49,0-.49-1.2-1.69,0Zm-18,.5v-1.2h-.7V131Zm-13.3-4.46h.5v-1.91h-.5v1.91ZM55.06,131c.71-.5.71-.5.71-1.2h-.71V131Zm21.52-6.86c0,.49-.5,1.2-.5,1.69h1.2a2.51,2.51,0,0,1,.43-1.69H76.58ZM46.92,71.86h0Zm13.52,58c0,.7-.7.7-.7,1.2l12.81-.5v-1.2l-11.62.5h-.49Zm18.47-5.17.5-.49h-1.7v1.69h1.2v-1.2Zm-4,5.87h3.47v-1.2h-3a3,3,0,0,1-.42,1.2Zm5.73-4.67h0v0ZM35.88,165.7l1.21,1.2a1.93,1.93,0,0,0,.64-1.7,1.19,1.19,0,0,1-1.14-.42c0,.42,0,.42-.71.92Zm1.21-17.2c0-.42-.5-.42-.5-1.13a1.57,1.57,0,0,1-.71,1.63,14,14,0,0,1,1.85,1.77c.49-2.27,0-1.21-.64-2.27Zm28.45,34.25v-.7c-3.89-1.63-8.14-3.4-11.68-5.1a1.88,1.88,0,0,0-.49,1.2c4,2.27,8.28,3.9,12.17,5.74v-1.14Zm1.13-20.24H66c0,.5,0,1.21-.42,1.21H66c.71,0,.71-.71.71-1.21ZM166,123v-1.2h-.7l.7,1.2ZM32.35,162.51c0,.5.7.5.7,1.21,0-1.91,0-2.41-.7-1.21ZM48.13,33.64v0ZM98.44,189.12h1.42v-1.2h-.71a100.44,100.44,0,0,1-23.78-3c-1.13,0-1.62.71-2.33,1.13a112.48,112.48,0,0,0,25.4,3.11ZM32.35,160.6c-5-4.67-9.06-10.54-13.31-16.77v1.84a171.11,171.11,0,0,0,12.81,16.84,2.76,2.76,0,0,0,.5-1.91ZM23.29,127h0c0-.43.49-1.14.49-1.63h-.49V127ZM183.23,66.12h0Zm-150.88-43,.7.71c1.63,0,2.34-.71.5-.71h-1.2ZM0,92.66C.57,53.24,22.08,23.16,53.86,8.59l-.49.7c1.19,2.34,2.4-.7,4-2.26h.71c-.71,2.26-1.21,3.47-1.21,4.6a91.3,91.3,0,0,0-22.22,13.8,19.79,19.79,0,0,0-5.73.64c.71,0,.71.49,1.84.49.5-.49,0-.49,1.06-1.13,0,.64,1.7,0,2.83,0a64.48,64.48,0,0,0-6.23,5.87c-.7.71-1.13.71-.7.71-1.14,1.13-1.64,2.34-2.83,3.47.7-1.13.7-2.34,1.19-4.18-.49,0-1.19,2.34-1.91,4.67a21.76,21.76,0,0,0-1.62,2.34h0l-.5-.71c0,1.06-.7,1.06-.7,1.77,0,0,0,.5-.43.5v.7a66,66,0,0,0-7.64,12.25c0-1.7,0-3.54-1.21,1.13v1.2a68.1,68.1,0,0,0-6.29,19c-1.21-.42-2.41-1.84-4,2.34.5,1.69,1.63,2.83,2.83,2.4A100,100,0,0,0,3.4,91c-1.13.43-2.34,2.34-2.34-1.2a25,25,0,0,0-.49,4.74c.49-4,0-3.11-.57-1.91ZM76.58,8.09a2,2,0,0,0-1.63.5l.42-.5c.71.5,0,.5.71.5l.5-.5ZM105.52,5.9V7a55.88,55.88,0,0,0-11.11-.71,82.59,82.59,0,0,0-16,1.77c-.71,0-.71,0-1.14.5h0a96.32,96.32,0,0,0-24.63,8.7c.72-2.12.72-1.63,0,0-5,3-10.19,5.87-14.92,10h0c-1.14,0-1.14.49-.64.49A94.79,94.79,0,0,0,23.29,42.2H21.38c15.71-22.57,42.25-35.88,72.68-37,3.89,0,7.93.71,11.46.71ZM8.14,127v1.2c-1.2-1.63-2.33-5.87-4-2.34.49-2.83,0-2.83.49-5.94v.71H4.11v.49A7,7,0,0,0,3,123c1.63,4.46,2.84,8.71,4.47,12.6H8.57c-.43.71-.43.71-.43,1.13,0,.71.43,1.21.43,1.91,1.91-5.45,1.91-1.2,2.4-.7a10.5,10.5,0,0,0-.49,3.53A12.35,12.35,0,0,0,14,147.37c0-1.2.43-2.83.43-4.74A144.82,144.82,0,0,1,8.14,127ZM4.6,119.91h0c0,2.41,1.84-3.4.5,3.11.71-.7.71-1.2,1.34-1.91a57,57,0,0,1-3-18c-.43-.5-.43-2.69-1.13-.5a4.48,4.48,0,0,1,.7-2.9H1.06v1.13h0v.64a.44.44,0,0,1-.49.42c0,.71-.57.71-.57,0A29.42,29.42,0,0,0,.57,109h0a25.35,25.35,0,0,0,1.7,9.27v1.2a1.83,1.83,0,0,1,.7-1.76v2.19ZM3,99.74V95c0,.71-.7,1.91-1.2,4.74Zm26,62.07c0,1.2-.5,2.26-.5,4.6h0A24.22,24.22,0,0,0,29,163c0,5,1.13,2.69,2.34,2.19,0,1.21-.5,1.21-.5,1.21,0-.71-.71.49-.71,1.62.71.71,1.77,1.91,2.27,2.34a11.86,11.86,0,0,0,.7-4.67,13.94,13.94,0,0,1-4.1-3.89Zm154.28-95Zm.71-.64a93.3,93.3,0,0,1,4.6,22.51c-.64-.43-.64-1.63-.64-2.2-.43.57-.43,1.07-1.13,1.07a79.89,79.89,0,0,0-3.54-17.91h0a6.84,6.84,0,0,0-1.2-3.47h1.91Zm-1.91,0h0ZM18.62,148.5a1.62,1.62,0,0,0-.71,1.56c0-2-1.06.71-1.06-1.56.56-.42.56-1.13.56-1.84-.56-1-1.77-2.12-2.26-3.33-.71,2.34-1.14,4-1.14,4A73.67,73.67,0,0,0,24.2,162.51a2.16,2.16,0,0,0,.72-1.91c1.19-4.67-.72,4.18.7,0a3.87,3.87,0,0,1-.7,2.41,13.8,13.8,0,0,1,1.69,1.77,16.53,16.53,0,0,0,1.84-3.47c-3.53-4.18-7.07-8.21-9.83-12.81ZM120,155.93l25.62-.49a1.1,1.1,0,0,1,1.2-1.14l-27.31.43.49,1.2ZM87.05,124.16h-1.2c-.71.49-.71,1.2-1.2,1.69h1.7c.7-.49.7-.49.7-1.2v-.49Zm-3.11,0c0,.49-.43,1.2-.43,1.69h.43c0-.49.71-1.2.71-1.69Zm71.05-80ZM87.47,124.65c.72,0,.72-.49.72-.49h0l-.72.49Zm-5.16-.49a1.82,1.82,0,0,0-.71,1.69h1.2c0-.49.71-1.2.71-1.69Zm66.1-55,.71.42,9-.42h0a1.68,1.68,0,0,0-1.19-.71c0-.5.7-.5.7-.5H143.25c2.33,1.21,4,2.27,5.16,1.21Zm-69,93.34v1.21H80c0-.71,0-.71.7-1.21Zm1.77,11.4H80c.7.71,1.2,1.2,1.2,0Zm-1.77-49.75h0v0Zm9.27,46.92.7.49c0-.49,0-.49-.7-.49Zm-23.14-8.57-6.23.5c.43,0,1.13.71,2.34.71h3.89v-1.21Zm92.14-40.19v1.84l1.21-.71V123s0-.7.49-.7c0,.7,0,.7.71,1.13,0,.71-.71.71-.71-.43v.43h.71v-1.13ZM109,129.82h.71a.36.36,0,1,0-.71,0ZM76.58,162.51h-.5v1.21h.5v-1.21Zm44.09,6.23h1.2a23.76,23.76,0,0,0,2.76-1.13h-3.46V168c0-.42-.5,0-.5.71Zm0-1.13-1.91.42c.71.71,1.2,0,1.91-.42ZM160.09,123l.42.43h4.75c-.5-1.13,0-1.13,0-1.63l-4.75.5v0h0v.7c.71,1.14-.42-.7-.42,0Zm-50.39,6.8,43-.92c0-.71.5-.71,1.64,0l11-.71v-.71L109.7,128.9v.92Zm6.22,6.51v0Zm45.8-1.21c0-.7.7-.7.7-1.2h-5.8v1.2Zm-6.73,0c-.7-.7-1.41-.7-1.41,0a4.15,4.15,0,0,1-1.63-.7v-.5l-36.45,1.2c.42,0,.42.5.42,1.21h0L155,135.12ZM78.42,3.56h.49s0,.43.5,0c-.5,0-.5-.71-1,0,1-.71-1.14.43,0,0Zm.49-.71a.48.48,0,0,1,.5-.49h-.5c.5,0-1.63.49,0,.49ZM58.6,7.38V7c.71-.71.71-.71,1.14-.71,0,1.77,0,3,1.19,0V5.9c1.64-.71,3.9-1.21,6.24-1.91v.7c.7-1.13.7,1.63,1.83-1.13C74.24,1.65,79.41,1.15,85.14.45h0A19,19,0,0,1,84.65,4c-7.37.7-15.15,3-22.58,5.3-.42,0,0,0,.5-.7h-.5c-2.33,0-.42,0-.42.7-1.21,0-.72,0-1.21.5h.49c-1.19.71-2.82,1.13-4,1.84,1.21-3,1.21-.71,1.7-4.25Zm-36.52,36h.5l.71-.5c-.71,0-1.21,0-1.21.5ZM49.19,33.14a.49.49,0,0,1-.49.5h.49c0-.5.7-.5,0-.5ZM26.11,71.36c1.64-.71,5.18,0,1.64,0,0,.5,2.33,0,3.54.5-.5-.5-1.63-.5-2.34-1.21,0,.71-1.63-.42-2.84.71ZM21,70.65c1.13-2.69,2.34-6.23,3.25-9.27h0c1.42-2.33,2.41-4.67,4.25-6.72-1.13.49,1.63-1.84,2.84-4.25V50c.56-.71.56-1.21,1.06-1.21h0c0-.7.7-.7.7-1.13V50a87.7,87.7,0,0,0-11,20.66h13.8c-.49,0,0,.71,1.85,0h-.64l7.5-.42c0,.42-.5,1.13,0,1.63H40.13c0-1.21,0-2.27-.71,0H37.73l-15.65.49H21v-1.7Zm83.37-1.06c-.5,0,0-.42-.5-.42a.44.44,0,0,0,.5.42Zm-55.62.64L138.64,68a2.5,2.5,0,0,0-1.13,1.63l-33.19,1.06c-.5-.42-1.2-1.06-1.63-1.06.43.64.43.64.43,1.06l-20.32.71c0-.71.71-1.13-.49-1.13,0,.42-.71.42-.71,1.13l-33.47.5v-.5c.57-.71.57-.71.57-1.13ZM16.85,140.29v-.49c0-.71-.5-1.14-.5-1.84,0,.7-.71,1.13-.71,1.84.71.49.71,1.2,1.21,1.69v-1.2Zm-10.41-41v-.7a8.16,8.16,0,0,0-.63,4.1,74,74,0,0,0,2.33,17.27,1.53,1.53,0,0,1,1.14,1.2h.49A69,69,0,0,1,6.44,99.24Zm3.33,23.08v0ZM21.38,42.2c0,.71-.43.71-.43,1.21.43-.5,1.13-.5.43-1.21Zm-12.1,82a3.74,3.74,0,0,1,.49-2.34l-.49-.71v3ZM5.1,99.74c0-.5,0-.5.71-1.2H5.1v1.2Zm29.16-51A66.43,66.43,0,0,1,48.13,34.84v-1.2h-.5a2,2,0,0,1-1.2.71h-.71c0,.49-.42.49-.42,1.13h0c-1.91,1.7-4,2.83-5.88,4.39h0c0,.7-.49.7-.49,1.2h0c-.71.71-1.2,1.13-1.84,1.84h-.5a19.3,19.3,0,0,1-2.33,2.83v.71h0v2.33ZM80,19.13v1.2c.7,0,1.2,0,1.2-.7h0c0-.5,0-.5.42-.5Zm19.88,4.74h0l-3-.71-1.2-2.33h-.5v-.5l-1.06,2.83-3.47.71,1.13,1.06h0l1.21,1.14V29.6l.42-.7c.71-2.34,1.06-4,1.77-3.47a5.47,5.47,0,0,0-.71,3l.71-.71,3.32,1.14-.91-2.83,2.33-2.2ZM80,19.13a1.88,1.88,0,0,0-1.56.5s-.71.7-.71,1.2a2.52,2.52,0,0,1,1.7-.5c0-.7.57-.7.57-1.2Zm14.43-1.84c-3.82.71-8.06.71-12.1,1.13a1.71,1.71,0,0,1-.71,1.21,117.52,117.52,0,0,1,13.52-1.21h7.57c0-.42,0-.42-.7-.42h.7a31.57,31.57,0,0,0-8.28-.71ZM51,32v.43l.5-.43v-1.2a.49.49,0,0,0-.5.49V32ZM76.58,20.83h0v0Zm-8.71,2.33-.7-.49a117,117,0,0,0-13.8,6.23c0,1.2,0,1.91-.72,2.4A84.5,84.5,0,0,1,69,23.16c-.63,0-.63,0-.63-.49.63.49.63,0,0-.71h0c.63,1.2-.5.71-.5,1.2ZM75,28.9h0l1.13,1.2v2.34l2.34-1.14,2.26,1.14L80,30.1l2.33-2.34h-2.9l-.5-1.69c0,.49,0,.49-.49.49V25.43h0v0c0,.64-.71.64-.71.64l-.43,1.69-3,.71.71.43ZM21,43.41A84.51,84.51,0,0,0,7.44,74.69h.7l-1.7,5.37A85.61,85.61,0,0,0,5.1,93.37a.7.7,0,0,0,.71-.71,2.82,2.82,0,0,1-.71,1.91v2.34c0-.71,0-1.2.71-1.2L6.44,95a87.84,87.84,0,0,1,1.7-18v-.49c0-.71.43-.71.43-.71.71-2,1.2-4.46,1.91-6.65V67.26c.49-1.63,1.2-3.54,1.2-4,0-1.91.42-1.2.42-3.11.71,1.91-1.13,5.94-1.13,5.94,3-7.57,6.44-15,11.11-21.58-1.13,0,.5-1.13-1.13-1.13ZM189,94.57a30.69,30.69,0,0,1-.42-5.94h-1.07V95a58.56,58.56,0,0,1-1.19,16.84h0a90.54,90.54,0,0,1-30.37,53.86l.71.71c-1.13.49-1.13,0-1.63,0-14.72,13-33.82,20.31-54.7,20.8a3.11,3.11,0,0,1-.43,1.91c43.88-1.91,79.83-34.39,87.61-76.15h0A106.71,106.71,0,0,0,189,94.57ZM170.63,43.41h0Zm0,0Zm0-.5h-.7a.35.35,0,1,0,.7,0Zm-5.87-7.43h0Zm8,12.17Zm-1.63-5.45h0v.71h.71c.42,1.2.92,1.63.92,2.34h0s.56,0,.56.49h0a35.27,35.27,0,0,0,2.41,3.54c-1.21,0-.71-.5-.71-.5h-.5l.5.5h.71a121.69,121.69,0,0,1,7.5,16.35h0l-.49.49s1.2-.49.49-.49h0v.49H182a110.19,110.19,0,0,0-11.4-22.71v.7l.5-.7h-1.2a91.25,91.25,0,0,0-58-36V7c24.34,3.47,45,16.84,59.16,35.17Zm-104.46,141v.71a1.88,1.88,0,0,0,1.2.49v-1.63h-1.2v.43Zm1.7,1.2c.63.5.63.5,1.13.5,0-.5,0-.5.71-.5v-.49h0c-.71-.71-.71-.71-1.21-.71v.71l-.63.49Zm7.71-10.47v-1.13a47.91,47.91,0,0,1-8.91-2.84h0c-.5,0-.5-.7-1.21-.7v1.13c0,.71,0,.71.71.71h.5a7.5,7.5,0,0,0,3.53,1.2v-.71c0,.71,1.14-1.2,1.14,1.21a9.86,9.86,0,0,0,4.24,1.13Zm31.28-168V7h0c1.21,0,2.83.35,3.89.35V7c-1.06-.71-2.68-.71-3.89-1.13Zm78.92,59Zm-7.79-16.84h0Zm-1.13,0Zm.71-2.34h0Zm-1.21-.49h-.71s0,.49.71,0Zm-.71,0a2.21,2.21,0,0,1,1.92-.71s-2.34.71-1.92.71Zm0-1.84c.71-.5-.42-.5,0,0ZM163.56,29.6h0Zm-4.67-5.73Zm0-1.91c-.72-.42,0-.42-1.21-.42.49,0,0,.42,1.21.42Zm-14-9.13Zm0,0c-.42,0-1.13.43,0,.43-.42,0,0-.43,0-.43Zm-.42.43s-.71.7,0,.7c0,0,.42-.7,0-.7Zm-4.18-1.63c-.42.49-.42-.71-1.13-.71h0v.71c0,.49,1.84.49,1.13,0ZM191.8,117.22c-.43.5-.93.5-1.63.5.7.56,1.2.56,1.63,0-9.06,42.88-47.35,76.07-93.36,76.57-16.84.71-32.9-3.54-46.91-10.4.7-1.14.7-3,1.12-4.11a99.94,99.94,0,0,0,12.89,5.81c0,.42,0,.42.42,0a2.64,2.64,0,0,0,1.21.42h.7s.5,0,.5.71c0,.49-.5.49-.5,1.2.5-.71,1.63,0,2.34-1.2v.49h0c9.2,2.34,19.17,4.25,28.94,3.54a91.87,91.87,0,0,0,72-36.45h.71c12.1-16.84,19.53-37.08,19-59.3-.7-10.19-2.33-20.81-5.73-30.08h0c-4.25-11-10.12-21.51-18-30.08v-.49h0c-8.92-9.42-18.68-17.06-30.28-22.23v-.49a.48.48,0,0,1-.5.49.48.48,0,0,0-.49-.49l-.71-.71v.71a85.64,85.64,0,0,0-40.7-8.07A58,58,0,0,0,85.85,4a6.77,6.77,0,0,1,1.2-2.84c-.7.5-.7,0-.7-.7A46.32,46.32,0,0,1,94.06,0C118.33-.47,141,7.38,158.17,21.54h0c1.21,1.13,3.05,2.33,4.25,3.39v.5c-1.2.64,0,.64-.7.64h.7c-.7,0,0,0-.7.49,0-.49,0-.49-.5-.49,0,.49,0,.49.5.49h0a.36.36,0,1,0,0,.71c0-.71.7-.71,0-.71,1.13-.49,1.13-1.13.7-1.63h0a94,94,0,0,1,31.71,68.94,69.43,69.43,0,0,1-2.33,23.35ZM3.4,119.91H3c0,.71,0,.71.43,0ZM106.23,5.9c0,.42,0,.42-.71,1.13h.71V5.9ZM105,18.42v.71a78.12,78.12,0,0,1,17.26,3.54h-.42c0-1.84,1.14,0,1.14,0v.49c1.62.71,3.89,1.07,5.8,1.77,0,0,.42,0,.42-.7-7.36-3.4-15.64-5.1-24.2-6.23v.42ZM17.41,142.63c0,.7,0,.7.5,1.2,0-1.2-.5-1.2-.5-1.2Zm16.14,19.88v-.7h0v.7Zm39-141c0-.71.49-1.21.49.42.71,0,.71-.42.71-.42h0c1.2,0,1.62,0,2.33-.71,0-.5.5-.5.5-1.2-1.21.7-2.83.7-4,1.2v.71ZM10.48,124.16v1.69H9.77c1.91,4.67,3.54,9.27,5.87,13.24,0-.43,0-1.13.71-1.13a51.86,51.86,0,0,1-4.67-11H11v-.43c0-.71-.49-1.91-.49-2.4Zm8.14,18.47v0c-.71,1.91,0,1.91,0,0Zm16.06,22.15c0,.42.71.42.71.42,0-1.13,0-1.13-.71-.42Zm18,13.37a2.16,2.16,0,0,0,.72-1.91c-.72,0-1.14-.42-1.84-.42,0,.42,0,1.63.7,1.13v.5h0v0c.42,0,.42.7.42.7ZM51,177v-1.84c-.71-.49-1.14-.49-2.33-1.2v1.91A6,6,0,0,1,51,177Zm11.54-9.34c-5.67-2.41-11-6.3-16.14-10.48V159l.49.5v0a79.64,79.64,0,0,0,15.15,9.27c.5,0,.5-.71.5-1.13ZM35.88,147.37c-1.2-1.7-2.33-3.54-3.53-5.17h0c-.5.43-.5.43-.5,1.13,1.2,1.63,2.83,3.33,4,5.17v-1.13Zm11,26.54c.71,0,.71,0,1.21.71v-1.14a65.3,65.3,0,0,1-9.91-7.78,2.81,2.81,0,0,1-.49,1.91,41.46,41.46,0,0,1,6.36,5.17c0-.5,0-.5.5-.5a.49.49,0,0,0-.5.5c1.21.7,1.63,1.13,2.83,1.13Zm3.4-17.27a2.85,2.85,0,0,0,1.21.49h14a2.06,2.06,0,0,0,.42-1.2l-15.64.71Zm37.15,9.06-5.87.71V160.6h-.42v1.91h0v1.21h0v3.18h5.87l1.14,1.84H86.35a1.71,1.71,0,0,1,.7,1.2h1.14l-.72-.7h1.91l-1.91-3.54Zm1.91,6.58.5-.71v-.49h0l-.5-.71v1.91Zm-3-3.54H81.6c.71,1.2,1.2,1.2,1.91.5v.7h1.14c.49-1.2.49-1.2,1.2-1.2v1.2h.5c-.5-.7,0-.7,0-1.2Zm-4.75,5.88v-.71h0v.71Zm29.65-38.29c0,.42-.49.42-.49,1.13a1.87,1.87,0,0,1-.57,1.63,3.32,3.32,0,0,0,1.06-1.13l-.49-.5c.49,0,.49-.71.49-1.13ZM76.08,168.74v1.2h1.63v-.7c1.2,1.13,1.7.7,2.27-.5Zm14.51,2.34h1.63l-.5-.71-1.13.71Zm21.87-34.33.7-.42-.7.42ZM93.35,170.37h0v-1.13l-.42.7c.42,0,.42,0,.42.43Zm-19.11-1.13v-.5h0v0H73c0,.5.71.5,1.2.5Zm-2.83-5.52v-1.21H70.7c0,.5-.49.5-.49,1.21Zm-1.2-7.79v1.2h4v-1.2Zm-5.38,12.81c0,.5,0,1.2-.5,1.2a2.07,2.07,0,0,0,1.21.43v-1.13l-.71-.5Zm-1.2,1.2v-1.2c0-.71,0-.71-.5-.71l.5.71a.49.49,0,0,0-.5.5l.5.7Zm12.45,4a1.78,1.78,0,0,0,1.63.71v-1.14c-.43,0-1.13-.7-1.13-.7,0,1.13-.5.7-.5,1.13ZM104.32,18h-1.2v.42a2.2,2.2,0,0,1,1.91.71v-.71c-.71,0-.71,0-.71-.42ZM73.75,163v-.5h0v.5Zm1.62,6.93c0-.7,0-.7.71-1.2H75v.5h0c0,.7.42.7.42.7Zm34.82-32h-.49v.7l.49-.7ZM76.58,159.47v0l1.84.71v-.71l-1.84-.5.7-1.13h-.7c0-1.2.7-1.2,1.13-1.2l1.2-3-1.63-1.7v1.2l.43.5-1.13,3,.7-.71H75c-.71,0-.71.71-.71,1.2l2.34-.49-.5,2.33.5.5ZM112.46,24.23l-1.21,2.33-2.68.71,1.13.49v.71l1.06.43L110.19,32l2.27-1.2,3,1.2-.7-3.11,1.84-1.63-3-.71-1.13-1.63h0v-.7Zm-25,105.09H78.91c0,.5,0,.5-.49,1.2h8.63v-.7l.42-.5Zm80.12,4.6c1.84-3.4,3-6.93,4.67-10.47a2.19,2.19,0,0,1,.5-1.63h-3.33c-.64.5-.64.5,0,.5-.64,0-.64,0-.64-.5h-.49v0h-1.21v0H166V123l.42.43c-.42-.43-.42,0-1.12,0h5.87c-8.71,23.21-27.39,41.75-51.17,48.83,0,.5-.49,0-.49.5v-.5a4.35,4.35,0,0,1-2.34.5v1.13c21.51-5.88,39.85-20.31,50-39.49v-.5c-.71-.71,0,0,.5,0Zm-56.34,40.7h0v0Zm26.69-145h0Zm1.2,0c0,.5-1.2.5-.5.5h0a.49.49,0,0,0,.5-.5ZM141,31.3h0Zm2.76,1.84h0Zm7.72,6.73h0Zm1.19,1.91c.5,0,.93-.71.93-.71h-.43l-.5.71Zm1.64,0h0ZM129.23,25.43v-1.2a76.26,76.26,0,0,1,9.41,4.67.69.69,0,0,1-.7.7h.7v-.7c.5.7.5.7,1.21.7v.5a18.39,18.39,0,0,1,3.4,2.34h0c4,3,8.21,5.87,11,9.34h-.71c.71,0,0,0,.71.42,0-.42,0,0,.7,0h-.7c0,.71,0,0,.7,0a.69.69,0,0,1-.7.71h.7c.5-.71,0-.71-.7-.71h.7a4.63,4.63,0,0,1,2,2.34h0l.7.71h0v.49h0c.49.71,1.21,1.2,1.7,1.91h0c1.84,2.34,3.47,4.67,5.38,7.5,0,0-.71-1.2-.71.36.71,0,.71,0,.71-.36a60.59,60.59,0,0,1,6.37,12.11c0,.7.71,1.2.71,1.91h-13c.49-.71.49,0,1.62,0,0-.71-.42-.71-.42-1.21,1.13.5,1.63,0,2.33,0h-.7l8.21-.7c-3.55-7.51-7.51-14.94-13.31-21.52h0a4.31,4.31,0,0,1-1.13-1.2v-.43H155a49.85,49.85,0,0,0-11.25-9.76v-.71h0a19.38,19.38,0,0,0-5.1-2.83h.5c-.5,0,0-.71,0-.71h-.5a67.51,67.51,0,0,0-9.41-4.67ZM51.53,179.36H51s-.71,0-.71.42c0-.42.71-.42.71-1.13a5,5,0,0,1-2.9-1.2h0s-.5-.5-1.21,3c-.49-.64,0-1.77.71-3.47h0c-2.33,4.6-2.33,1.7-3,0l1.13-1.13c-.42,0-.42-.71-.42-.71-.71.71-.71,1.84-1.21,3.54,0-2.41,0,0-.7-1.7a9.62,9.62,0,0,0,1.2-1.84l-.5-.49c-.7,2.83-1.13,2.33-1.63,3.53.5-2.33.5-3.53.93-4.24H43a29.51,29.51,0,0,0-.5,4.24c2.84,1.63,5.67,3.9,9.07,5.74v-.71c.7-2.76,0-1.63,0-3.82Zm59.23-4.74a101.78,101.78,0,0,1-12.32,1.2H95.12V177c-.71-1.13-1.06-.71-1.77,0h5.09a118.19,118.19,0,0,0,12.32-1.13c0-.71-.57-.71-.57-1.2,0,0,1.06,1.62.57,0Zm2.4-.71H112l.49,1.2h0v-1.2c.7,1.2.7.71.7,0Zm0,1.91h-.7l.7.42v-.42Zm24.78-15.22-22,.71v-.71l5.25-2.76-2.41-5.45,3.53-3.39,29.66-.5c.7-.42,1.2-.42,1.2-1.13l-30.86.71.72.42-4.25-4,.71-2.34v.43l15.64-.43h22.57a1.85,1.85,0,0,1,.49-1.2l-38.21.49.71-2.4-5.17-1.63v-1.13h0c0-.71,0,0-.7,0-.5-.71.7,0,0-1.21h.7v-3.39h-5.8l-.71-1.21v.5c0-.5-.42-1.2-.42-1.7h0a.41.41,0,0,0,.42-.42h-.42l-1.21-2.34L102,128.9l-4-3.54,30.15-.71c0-1.2.71-.49.71-1.2v1.2l7.5-.49h-.49a.5.5,0,1,1,1,0h18.68c.42-.71,1.13-.71,1.49-1.14.7.43,0-.7,0-.7,0,.7.7,0,.7.7v-.7h-9.76l-16.78.7c.43,1.14,0,1.63-.7,0l-42.25.43v2.4l9.34-.49-3.47,3.54L88.19,127l-1.14,2.83v.7h0l-.7,1.63H80.68v3.47l-18.11.71c0,.42,0,.42-.5,1.13l18.61-.71V138l-5.31,2.33,1.21,2.34H70.21v1.2h6.37v-1.2l1.13,3-1.13,1.7v.71l2.33-2.41L76.58,141l4.6-2.34v-5.87h5.87l1.63-5.31,5.38,2.34,3.47-4,4,3.47,5.17-2.33,2.33,5.16h5.31l.5,5.31,4.67,2.34L117.62,145l4.25,3.54-4.25,3.89,2.34,5.45-4.46,2.34v5h-5.8l-1.84,5.17-5.17-1.63-4.25,4-2.12-2.41c0,.71-.7.71-.7-.43h0l-1.21-1.2-1.06.5.71.7h.35L98,172.78a1.26,1.26,0,0,1-.42-1.21c0-.49.42,1.91.42.71v1.2l.49.43,4.25-4.67,5.88,2.33v-1.63s0-.7.42-.7v0h3a1.29,1.29,0,0,1,1.19-1.21H109.7l.49-1.62,5.73-.71v-3.19l19.9-.7a2.39,2.39,0,0,0,2.12-1.21Zm-22,12.88a1.51,1.51,0,0,1,.72,1.14h-.72v-1.14Z"/><path class="cls-1" d="M58.19,107.22c0-.69,0-1.73.29-1.74s1.23.23,1.3.48.07,1.22.07,1.51-.11,1.3-.14,1.76c0,.62.06.87.11,1.33a2.46,2.46,0,0,1,0,.54,5.73,5.73,0,0,1-.08,1.05c0,.18-.57.23-1.33.25-.14,0-.15-.18-.16-.65,0-.18,0-.32-.15-.32-.65,0-1.22.17-2.12.19s-2.52-.23-3.64-.27c-.58,0-1,.27-1.47.28s-.61-.13-1.19-.12c-.94,0-1.69.29-2.41.31s-1.18,0-1.87,0c-1.22,0-3.06.07-3.56,0a5.55,5.55,0,0,0-.83-.09,7.77,7.77,0,0,0-1.22.17c-.44,0-1.26.32-1.69.33s-3.27.07-3.57-.28a.69.69,0,0,1-.15-.46c0-.36.16-.76.41-.81s1.91-.11,2.19-.12c0-1.08.15-2.92.14-3.57S37,106,37,104.17c0-.5-.17-4-.2-5.65s0-4.93,0-5.87c0-.14-.2-.68-.2-.86a4.59,4.59,0,0,1-.05-.72c0-.75.11-1.22.1-1.94a14.52,14.52,0,0,1-.26-1.76c0-.22-.88-.56-1.35-.55h-.28c-.36,0-.76,0-.76-.2s-.09-.54-.1-.86a1,1,0,0,1,.1-.51c.1-.22,1.51-.32,2.77-.35.93,0,1.8,0,2,0,.79,0,1.88.21,2.56.2s3-.25,4-.27c1.26,0,2.45.12,3.79.09s2.91-.28,4.63-.32,2-.12,2.56-.13.34-.8.48-.91.14,0,.25,0c.36,0,.9.08.94.19a2.49,2.49,0,0,1,.13.72c0,.5,0,1,0,1.91,0,.68,0,.93,0,1.22s.06,1.08.07,1.73c0,.25-.81.81-1.09.81s-.33-.2-.41-.31a11.84,11.84,0,0,0-.18-1.69L53,88.18c-.5,0-1.19.06-1.91.08a10.28,10.28,0,0,1-1.11,0c-.69-.06-1-.48-1.53-.51a12.37,12.37,0,0,0-1.57.4c-2,0-2.41.13-3.2.14a8.26,8.26,0,0,0-2.59.32c-.28.15-.31.65-.3,1.19l0,.79c0,.65-.34.91-.33,1.2a6.27,6.27,0,0,1,.29,1.72l0,2.16c0,.43.66.74,1.42.83s1.55.07,2.06.06c.79,0,2.11-.26,2.73-.28s2.09.17,3.38.14c.8,0,1.58-.36,2.08-.37.22,0,.25-.36.24-.76l0-.72a1.39,1.39,0,0,1,0-.4c.07-.25.32-.33.6-.33s.4,0,.51,0,.31.93.32,1.54L54.2,98c0,.61.09,2.16.09,2.56s-.48.84-1.09.85c-.18,0-.44-.17-.45-.57s-.17-1.43-.43-1.43c-1.11,0-1.65,0-2.66,0-2.34.06-3.6.23-5.65.27-1.08,0-1.94,0-2.44,0-.69,0-.68.49-.67,1,0,1.08,0,3.93,0,4.94,0,.36.23.64.23,1,0,1.23,0,1.26,0,1.44,0,.51.59.6,1.27.59s1.3-.14,1.69-.15c1.52,0,2.78.12,4.11.09.61,0,1.65-.22,2.37-.24s1.37,0,1.87,0c.72,0,3-.17,3.6-.19.79,0,1.22-.2,1.65-.21S58.2,107.79,58.19,107.22Z"/><path class="cls-1" d="M65.31,84.26c.28,0,.54.06.93.06a4,4,0,0,0,.54,0c.11,0,.22,0,.4,0h.25c.65-.09,1.69-.15,2-.16.57,0,2.77.08,3.31.07s.76.2.77.56,0,.94-.45,1-1.83.08-2.3.09c0,.35.08.46.09.71,0,.76-.18,1.52-.16,2.56a7.15,7.15,0,0,0,.06.9A29.52,29.52,0,0,1,71,93a9.91,9.91,0,0,1,0,1.12,26.46,26.46,0,0,1-.25,3.43,1.57,1.57,0,0,0-.1.5c0,.47.27.79.29,1.44a23.09,23.09,0,0,1-.26,3c0,.69.39,1.4.41,2s-.09.94-.08,1.41.09.65.1,1.22c0,.4.63.71,1.64.69,1.22,0,1.8,0,2.34,0,1.22,0,2-.26,2.47-.27.8,0,1.45.18,2,.17.32,0,2.66-.1,2.8-.17.79,0,1.76-.12,2.27-.13s.51-1.16.5-1.85c0-.21,0-.39.24-.4s1.15,0,1.16.44.05.69.06,1.05-.06.5,0,.86.08.5.09.79c0,.69,0,1.37,0,3,0,.54-.6.74-1,.75s-.51-.35-.6-.78c-.07-.25-.9-.23-1.48-.22-1.76,0-3.49-.1-5.43-.06-1.16,0-2.38.24-3.17.25s-1.4,0-2.16,0-1.08-.19-1.48-.18a10.17,10.17,0,0,0-2.55.35c-.18,0-1.47.07-1.83.07s-.76.06-1.19.07c-.61,0-1.19-.05-1.19-.34,0-.46,0-1,.33-1s1.44-.1,1.43-.39c0-.65.12-1.16.14-2,0-.36.15-1.16.15-1.38s0-2.59,0-2.8c0-.36.2-.58.2-.87s-.23-.57-.24-.93-.06-1-.07-1.23c0-1.29.17-2.41.14-3.56,0-1.41-.16-2.12-.17-2.81a8.63,8.63,0,0,1,.07-1.51,14.86,14.86,0,0,0,0-2c0-.61-.21-1.36-.23-2,0-.36.06-.8,0-1.3a4.78,4.78,0,0,0-.17-1.15,1.58,1.58,0,0,1-.05-.43l-.79,0c-.11,0-.43,0-.76,0s-.9,0-.9-.27,0-1.11.48-1.12S64.91,84.27,65.31,84.26Z"/><path class="cls-1" d="M95,83.48c1,0,1.37-.1,2.91-.14.22,0,.44.07.69.06s.28-.11.46-.12.37.1.37.43a2.63,2.63,0,0,1-.16.94c-.28.22-1.83.11-2,.29s-.12.8-.25,1.63c0,.22-.14,1.91-.12,2.7,0,.58.17,1.26.19,2,0,.29-.31.55-.3.87,0,.76.32,1.69.34,2.48,0,.57-.12,1-.11,1.4,0,.58.32,1.29.33,2,0,.51-.6,2-.58,2.75s.56.93.6,2.65l.06,2.7c0,.58-.07,1.52-.06,2.24,0,.32.17.89.27.89a18.09,18.09,0,0,1,2.24.09,1.11,1.11,0,0,1,.08.51,1.4,1.4,0,0,1-.06.57,3.28,3.28,0,0,1-1.5.32c-.54,0-1.23,0-1.62,0-.22,0-.76-.06-2.63,0l-.72,0c-.18,0-1.26.1-1.94.12s-.9,0-.92-.7c0-.26,0-.51.13-.58a10.1,10.1,0,0,1,1.44-.22.9.9,0,0,0,.68-.19c.31-.33.21-1.55.24-1.81a17.31,17.31,0,0,0,0-2.52C93,102,93,101.39,92.88,99.8c0-.75.12-1.29.1-2s.15-1.16.15-1.48a8.27,8.27,0,0,1-.42-2.59c-.11-1.47-.17-2.48-.19-3.45a37.43,37.43,0,0,0-.2-3.88,2.75,2.75,0,0,1-.12-.83c0-.36-.27-.57-.7-.56S90.06,85,90,85a.72.72,0,0,1-.15-.43,2,2,0,0,1,.23-.94,2.05,2.05,0,0,1,.86-.13C91.5,83.49,92.08,83.55,95,83.48Z"/><path class="cls-1" d="M126.18,87c0-.25,0-.5-.05-.79-.57,0-1.18.14-1.69.15-1,0-2-.17-3.24-.14a1.58,1.58,0,0,0-.47,0,12.44,12.44,0,0,1-1.79.19c-.47.08-1,.74-.94,1.78,0,.87.2,2.27.23,3.53,0,.54-.09.86-.08,1.19,0,.75.26.57.27,1,0,1.15-.23,2.31-.21,3.54,0,.54,0,1,0,1.69,0,1,0,2,0,3.2,0,.61.1,1.22.15,1.8a14.24,14.24,0,0,1,.11,1.44c0,1,.11,1.94.18,3.09l1.76,0c.5,0,.77.49.78.92s0,.54-.46.55-2,.12-2.62.13-1.12-.15-1.74-.18c-.39,0-.71.16-1.11.17-1,0-2.09-.06-3.35,0-.25,0-.54,0-.54-.24s0-1.12.44-1.12c.72,0,1.4,0,2.16,0a16.58,16.58,0,0,0,0-1.83c0-1.8.21-3.32.19-4.44,0-.9-.31-.78-.33-1.83,0-.43,0-1.62,0-2s.07-1.44-.07-7.56c0-1.11,0-1.44,0-1.8a7.91,7.91,0,0,0-.13-1c-.09-1,0-1.51-.21-1.65a9,9,0,0,0-1,0c-2,0-3.27,0-4.1,0-.51,0-1,.17-1.58.18-.36,0-.65-.06-1-.08,0,.1,0,.61.06,1.11s0,1.12-.3,1.12-1.18,0-1.19-.36c0,0,0,0,0-.22s0-.57,0-.86.06-.36,0-.65-.17-1.15-.17-1.51c0-.79.07-1.55,0-2.45,0-.36.24-.51.6-.52.18,0,1,0,1,.38v.5c.9,0,1.47,0,2.73,0,.94,0,1.48-.11,2-.12.79,0,2,.28,3,.26.68-.09,1.57-.5,2.11-.52,1,0,1.63.18,2,.17.79,0,1.8-.15,2.7-.17.29,0,.61.06,1.12,0s1.07-.1,1.72-.11c.9,0,1.58-.14,2.84-.17v-.26c0-.32.24-.5.88-.52.29,0,.69,0,.7.31s.05,1,.06,1.44-.16.72-.15,1.08.12.47.12.75c0,.65-.08,1.23-.06,2,0,.18.05.36.05.57s0,.43-.28.44-1.19,0-1.19-.37S126.2,87.53,126.18,87Z"/><path class="cls-1" d="M156,105c0-.68,0-1.72.29-1.73s1.23.22,1.3.47a15,15,0,0,1,.07,1.52c0,.28-.11,1.29-.14,1.76s.06.87.11,1.33a3.29,3.29,0,0,1,.05.54,6.63,6.63,0,0,1-.09,1.05c0,.18-.57.23-1.33.24-.14,0-.14-.17-.15-.64,0-.18-.05-.32-.16-.32-.64,0-1.22.17-2.12.19-.75,0-2.52-.23-3.64-.28-.57,0-1,.28-1.47.29s-.61-.13-1.19-.12c-.93,0-1.68.29-2.4.31s-1.19,0-1.88,0c-1.22,0-3.06.07-3.56,0a5.27,5.27,0,0,0-.83-.09,7.77,7.77,0,0,0-1.22.17c-.43,0-1.26.32-1.69.33s-3.27.07-3.57-.28a.72.72,0,0,1-.15-.47c0-.36.16-.76.41-.8s1.91-.11,2.2-.12c0-1.08.15-2.92.13-3.57s-.13-.93-.17-2.8c0-.51-.16-4-.2-5.65s0-4.93,0-5.87c0-.14-.2-.68-.2-.86a4.59,4.59,0,0,1,0-.72c0-.75.11-1.22.1-1.94a14.52,14.52,0,0,1-.26-1.76c0-.22-.88-.56-1.34-.55h-.29c-.36,0-.76,0-.76-.2a8.49,8.49,0,0,1-.09-.86.92.92,0,0,1,.09-.51,7.18,7.18,0,0,1,2.77-.35c.93,0,1.8,0,2,0,.79,0,1.88.21,2.56.19s3-.24,4-.27c1.26,0,2.46.13,3.79.1s2.91-.28,4.63-.32,2.05-.12,2.56-.13.34-.8.48-.91.14,0,.25,0c.36,0,.9.09.94.2a2.49,2.49,0,0,1,.13.72c0,.5-.05,1,0,1.91,0,.68,0,.93,0,1.22s.06,1.08.08,1.73a1.87,1.87,0,0,1-1.1.81c-.29,0-.33-.21-.41-.31a10.55,10.55,0,0,0-.18-1.69l-3.49.08c-.5,0-1.19.06-1.91.08a10.28,10.28,0,0,1-1.11,0c-.69-.06-1-.48-1.53-.51a12.37,12.37,0,0,0-1.57.4c-2,0-2.41.13-3.2.14a8.63,8.63,0,0,0-2.59.31c-.28.15-.31.66-.29,1.2v.79c0,.65-.34.91-.33,1.2a6.27,6.27,0,0,1,.29,1.72l.05,2.16c0,.43.67.74,1.42.83s1.55.07,2.06.06c.79,0,2.12-.26,2.73-.28s2.09.17,3.39.14c.79,0,1.57-.36,2.08-.37.21,0,.24-.37.23-.76l0-.72a1.39,1.39,0,0,1,0-.4c.07-.25.32-.33.6-.34s.4,0,.51,0,.31.93.32,1.54l.06,2.59c0,.61.09,2.16.1,2.55s-.49.84-1.1.86c-.18,0-.44-.17-.45-.57s-.17-1.43-.42-1.43c-1.12,0-1.66,0-2.67,0-2.34,0-3.59.23-5.65.27-1.08,0-1.94,0-2.44,0-.69,0-.68.49-.67,1,0,1.08,0,3.93,0,4.94,0,.36.23.64.24,1,0,1.23,0,1.26,0,1.44,0,.51.59.6,1.28.59s1.29-.14,1.68-.15c1.52,0,2.78.12,4.11.09.61,0,1.65-.22,2.37-.24s1.37,0,1.88,0c.72,0,3-.17,3.59-.19.79,0,1.22-.21,1.65-.22S156,105.57,156,105Z"/></g></g></g></svg>