<svg xmlns="http://www.w3.org/2000/svg" xmlns:xlink="http://www.w3.org/1999/xlink" viewBox="0 0 109.72 105.26"><defs><style>.cls-1{fill:none;}.cls-2{clip-path:url(#clip-path);}.cls-3{fill:#27a8ff;}.cls-4{fill-rule:evenodd;}.cls-5{opacity:0.98;}.cls-6{clip-path:url(#clip-path-4);}.cls-7{fill:#fff;}.cls-8{clip-path:url(#clip-path-5);}.cls-9{clip-path:url(#clip-path-6);}.cls-10{clip-path:url(#clip-path-7);}.cls-11{clip-path:url(#clip-path-8);}.cls-12{clip-path:url(#clip-path-9);}.cls-13{clip-path:url(#clip-path-10);}.cls-14{clip-path:url(#clip-path-11);}.cls-15{clip-path:url(#clip-path-12);}</style><clipPath id="clip-path" transform="translate(0 0)"><rect class="cls-1" width="109.72" height="105.26"/></clipPath><clipPath id="clip-path-4" transform="translate(0 0)"><rect class="cls-1" x="21" y="57.43" width="5.96" height="12.25"/></clipPath><clipPath id="clip-path-5" transform="translate(0 0)"><rect class="cls-1" x="27.44" y="57.43" width="5.94" height="12.25"/></clipPath><clipPath id="clip-path-6" transform="translate(0 0)"><rect class="cls-1" x="33.9" y="57.43" width="5.94" height="12.25"/></clipPath><clipPath id="clip-path-7" transform="translate(0 0)"><rect class="cls-1" x="40.45" y="57.55" width="5.94" height="12.03"/></clipPath><clipPath id="clip-path-8" transform="translate(0 0)"><rect class="cls-1" x="49.55" y="57.53" width="6.26" height="12.04"/></clipPath><clipPath id="clip-path-9" transform="translate(0 0)"><rect class="cls-1" x="56.03" y="57.55" width="2.32" height="12.03"/></clipPath><clipPath id="clip-path-10" transform="translate(0 0)"><rect class="cls-1" x="58.97" y="57.55" width="5.91" height="12.03"/></clipPath><clipPath id="clip-path-11" transform="translate(0 0)"><rect class="cls-1" x="65.33" y="57.55" width="4.97" height="12.03"/></clipPath><clipPath id="clip-path-12" transform="translate(0 0)"><rect class="cls-1" x="70.51" y="57.43" width="5.89" height="12.25"/></clipPath></defs><g id="Layer_2" data-name="Layer 2"><g id="Layer_1-2" data-name="Layer 1"><g id="GOODVIBES"><g class="cls-2"><g class="cls-2"><polygon class="cls-3" points="12.5 17.87 61.65 17.87 61.65 14.38 9.01 14.38 9.01 36.92 12.5 35.69 12.5 17.87"/><polygon class="cls-3" points="94.29 23.96 90.8 23.96 90.8 96.17 86.65 96.17 86.63 99.66 94.29 99.66 94.29 23.96"/><polygon class="cls-3" points="12.5 96.17 12.5 35.69 9.01 36.92 9.01 99.66 16.37 99.66 16.37 96.17 12.5 96.17"/><g class="cls-2"><path class="cls-4" d="M33.39,12.23c.32-.15.42-.27.12-.55,0,.2-.08.34-.12.55m3.26-4.66c.27,0,.67,0,.78.18s.42,0,.56.21.27.22.39.35a1.72,1.72,0,0,1,.7,1,1,1,0,0,0,.33.69c-.34.31,0,.61,0,.9-.12.09-.4.09-.2.36a.15.15,0,0,1,0,.13l-.7.82c.15.25.33.47.69.32a.19.19,0,0,1,.13,0c.3.19.69.19,1,.41,0,0,.16,0,.24,0,.11.69.21.81.75.9-.14.05-.36.08-.4.17s0,.32-.11.48,0,.41.22.53a1.49,1.49,0,0,1-.38.24c-.19,0,.13.35-.19.33-.1,0-.21.17-.31.27a.4.4,0,0,0,0,.11.91.91,0,0,1-.44.48,3.11,3.11,0,0,1-.63.41c-.18.07-.24.45-.32.62l-.51-.39a2.76,2.76,0,0,0-.46.43,2.16,2.16,0,0,0-.22.49l-.24-.26s-.17-.06-.18-.1c0-.3-.23-.27-.44-.23,0-.05,0-.11,0-.16,0-.35-.08-.42-.39-.29l-.18.08a2,2,0,0,0,.18-.48c0-.26-.23-.27-.42-.32,0-.13.06-.23.08-.34l-.2-.1a2.29,2.29,0,0,0,.24-1.6l-.52-.05s0-.06,0-.08l.68-.2c0-.25,0-.52-.27-.53a3.45,3.45,0,0,0-.67.14c0-.14,0-.33,0-.37s-.24,0-.28.2a.85.85,0,0,1-.06.17l-.07,0c0-.19.05-.38.09-.67l-.46.23c0-.13,0-.26,0-.39l-.3,0c0-.17.12-.38-.15-.48a2.1,2.1,0,0,1-1.62.48c-.28-.4-.58-.8-.25-1.25s.77-.36,1.26-.13c0-.31.07-.55.1-.85l-.63.07c.3-.19.7-.25.81-.68l-.22-.14L34,9l-.35-.28c.36,0,.77.25.82-.33,0,0,.11,0,.16-.09S34.94,8,35.1,8s.21,0,.3-.09a.65.65,0,0,0,.18-.22l.17.12a4.28,4.28,0,0,1,.9-.19" transform="translate(0 0)"/><path class="cls-4" d="M39.57,22.51a1.28,1.28,0,0,0-.21.14c.08.06.14.15.22.16.26,0,.31,0,.29-.35-.1,0-.2,0-.3.05m-.83,6.37a3.66,3.66,0,0,0,.12-.67c0-.54-.13-1.1.32-1.56a.41.41,0,0,0,.08-.19l-.68-.56h.14c0-.11,0-.31-.09-.31-.38,0-.1-.47-.37-.55a.25.25,0,0,0-.11-.38c.27-.18.1-.48.19-.68s.06-.64.31-.87.28-.72.37-1.09c0-.1-.08-.26-.17-.34a4.3,4.3,0,0,0-.62-.43c-.3-.19-.28-.51-.45-.73s0-.57.06-.84a1.29,1.29,0,0,1,.06-.21,1.51,1.51,0,0,1,2.15-.71,3.93,3.93,0,0,0,.83.45c.2.07.4.12.62.18-.17.17-.13.27,0,.43a1.41,1.41,0,0,1,.09,1.58c-.11.21-.07.33.12.54-.55-.17-.49.3-.7.43s-.28.09-.42.11a3.39,3.39,0,0,1-.45,0s0,.09-.07.18l.56.2A1.27,1.27,0,0,1,41,23a2.65,2.65,0,0,1,.95,1.27,1.65,1.65,0,0,1-.18,1.43l-.35.52-.22-.12c.06.28.12.47.33.53,0,0,.14-.08.2-.13.05.1.07.22.14.28s-.13.18,0,.28a.56.56,0,0,0,.17.2,1.09,1.09,0,0,0,.34,0,.48.48,0,0,0-.13.67c.21.42,0,.85.07,1.28,0,.05,0,.14,0,.15-.42.13-.35.82-.91.8-.08,0-.15.14-.23.22l-.22-.23-1,.31c.39-.27,0-.34,0-.49l-.45.13-.35-.91-.16,0,0-.32-.23-.05" transform="translate(0 0)"/><path class="cls-4" d="M56.59,93.32a2.33,2.33,0,0,1-.34-.37A1.43,1.43,0,0,0,55,92.07.77.77,0,0,1,54.4,91c.08-.23.14-.44-.07-.58a.71.71,0,0,0-.49-.11.35.35,0,0,0-.25.43,3.22,3.22,0,0,0,.08.37c-.22-.17-.3-.49-.6-.27,0,0-.23-.19-.33-.31a.56.56,0,0,1-.07-.24c-.15.06-.28.12-.41.16s-.35.07-.61.13c-.21-.27-.54-.26-.9-.09a.87.87,0,0,0-.57.82c0,.14-.06.35-.14.38s-.15.24-.15.36a3.35,3.35,0,0,0,.41,1.4c.06.11.1.36.12.35.29,0,.29.28.48.37a1,1,0,0,0,.73.1c.36-.18.59,0,.83.15a1.32,1.32,0,0,0,.95.14c.34-.09.47,0,.59.31a1.07,1.07,0,0,0,.85.74,1.74,1.74,0,0,0,1.41-.37c.4-.3.36-.34.41-.89a1.86,1.86,0,0,1,.07-.34.3.3,0,0,0,0-.16c-.06-.18-.12-.35-.17-.48" transform="translate(0 0)"/><path class="cls-4" d="M39.78,58l.45.14c0-.13-.08-.15-.2-.17s-.38-.1-.55-.15c.07-.18.12-.31.16-.45s.21-.16.3-.28a1.25,1.25,0,0,0,.35-.66.37.37,0,0,0-.33-.45,1.61,1.61,0,0,1-.25-.07,1.66,1.66,0,0,0,.47-.94s0,0,0,0c.34,0,.47-.15.46-.38a.54.54,0,0,0-.47-.53.85.85,0,0,0-.31,0c0-.15-.12-.16-.21-.22a1.12,1.12,0,0,0-1.57.37.91.91,0,0,0-.07.35c0,.11,0,.23,0,.32a2,2,0,0,0-.4-.15s-.11.15-.12.23a.25.25,0,0,0,.26.3L38,55c.16.11.12.35.33.42s0,.33-.1.4a.66.66,0,0,0-.17.16,5.7,5.7,0,0,0-.35.8.7.7,0,0,0,.07.76.35.35,0,0,1,.09.23c0,.12,0,.2.14.23s.08,0,.08,0c0,.28.27.39.35.64s.33.19.53.19c.43,0,.76-.26.79-.95" transform="translate(0 0)"/><path class="cls-4" d="M38.39,42.1l.21-.16.68.44c-.15.34-.15.34-.48.31,0,.08,0,.17,0,.25-.33,0-.33.33-.52.47s-.19.66-.15.93a1.49,1.49,0,0,0,.42,1,1.35,1.35,0,0,0,1.49.4c.11,0,.28,0,.47.06a1.55,1.55,0,0,0,.28-.32c.11-.21.31-.38.25-.7s-.1-.58.31-.71l-.24-.3.25-.26-.56-.33A1,1,0,0,1,41.57,42a3.42,3.42,0,0,1,.25-.89,1,1,0,0,0,0-.93,2.31,2.31,0,0,0-2.29-1.58,1,1,0,0,0-.65.15c-.17.18-.42.28-.53.52s-.31.66-.47,1c.08.06.26.13.25.19a2,2,0,0,1-.14.48c.08.05.28.12.29.21a2.32,2.32,0,0,1,.1,1Z" transform="translate(0 0)"/><path class="cls-4" d="M46.91,24c-.49-.07-.65,0-.7.25s.08.42.52.56a1,1,0,0,0,.15-.14l.1-.12.82.67c.11.32-.16.39-.37.44a3,3,0,0,1-.24.83.6.6,0,0,0,.06.71c-.33.28-.73.55-.59,1s.49.5.89.49l.48-.45c.1.2.53,0,.48.43l.92-.28.17.21c.06-.16.1-.3.16-.48l.28.08a1.35,1.35,0,0,1,.18-.33s.19,0,.1-.12,0-.47.19-.64a6.67,6.67,0,0,0-.19-.91c-.1-.28-.26-.53-.42-.87a1.73,1.73,0,0,0-.19-1.62,1,1,0,0,0-1.25-.4.37.37,0,0,1-.34,0c-.68-.26-1-.1-1.21.65" transform="translate(0 0)"/><path class="cls-4" d="M15.88,18.59c0,.13-.06.22-.08.32a2.14,2.14,0,0,1,.28-.12c.2,0,.42.15.6,0s.44.17.48-.19c.19.06.34,0,.51-.08s.38-.22.55-.38l.54-.52s-.05-.2-.08-.36a.77.77,0,0,1,.17,0,.71.71,0,0,1,.21,0c.24.1.49.13.65-.1a.74.74,0,0,0,0-.73c-.14-.33-.52-.38-.72-.63s-.2-.59-.54-.72a.41.41,0,0,1-.17-.12c-.36-.54-.94-.47-1.45-.42a1.31,1.31,0,0,0-1.16.68c-.05.1-.26.12-.33.22a2.44,2.44,0,0,0-.45.82c-.07.27.07.58-.08.87a.31.31,0,0,0,.08.38,1.44,1.44,0,0,1,.3.62c.14.44.18.49.72.52" transform="translate(0 0)"/><path class="cls-4" d="M37.81,33.65c.38.08-.11.55.33.64l-.34.23a.53.53,0,0,1,.59.36c.09.21.53.21.43.53l1,.39.13-.08c.43.11.29.51.46.83.11-.18.19-.32.34-.54.07.23.12.39.18.56.93.21,1.69-.62,1.16-1.72.44.13.46-.29.67-.47-.54-.64-.54-.64-.51-1.11-.24-.16-.6-.21-.56-.63a7.59,7.59,0,0,0-1-.54,2.11,2.11,0,0,0-1.31,0c-.61.15-.88.64-1.28,1a1.4,1.4,0,0,0-.28.51" transform="translate(0 0)"/><path class="cls-4" d="M44.39,79.06c.36,0,.25.42.5.68l1.33.09-.57,1.56s0,.06,0,.06c.37.06.4.33.39.55l.63.46c.29-.33.39-.32.62.13a.63.63,0,0,1,.23-.5,1.9,1.9,0,0,0,.8-1.64.79.79,0,0,0-.19-.54c-.3-.32-.6-.63-1.1-.52,0-.34,0-.34.28-.45,0-.24.09-.47.1-.7a1.47,1.47,0,0,0-1.59-1.63,1.65,1.65,0,0,0-1.39,1l-.26.46c.06.3.13.61.2,1" transform="translate(0 0)"/><path class="cls-4" d="M32.52,71.56c.36,0,.14.49.52.43a5.44,5.44,0,0,0-.72.8,4.65,4.65,0,0,0-.28,1,1.91,1.91,0,0,0-.38.23,1.05,1.05,0,0,0-.15,1.19,1,1,0,0,0,.61.23,1.28,1.28,0,0,0,.43-.1c.1-.28.2-.55.32-.84l.48.14c-.2.39-.23.72.24.89l.39-.2a.7.7,0,0,0-.2-.75A1.52,1.52,0,0,0,34.61,73l-.77-.89a1.35,1.35,0,0,0,.86-1,1.2,1.2,0,0,0-.87-1.49,1.22,1.22,0,0,0-1.44,1.06c.19.17-.26.28,0,.49s.11.31.16.46" transform="translate(0 0)"/><path class="cls-4" d="M60.24,91.48c.19.37.34.72.54,1a1.66,1.66,0,0,0,2.48.42,3.26,3.26,0,0,0,.52-.89c.19-.34.36-.69.55-1.06,0,0-.12-.12-.12-.19a.81.81,0,0,0-.43-.79c-.13-.08-.1-.43-.14-.64-.11.2-.31.23-.58.1s-.43-.2-.58-.13-.37-.06-.49-.13a1.18,1.18,0,0,1-.2.27,6,6,0,0,1-.59.39.34.34,0,0,0-.18.27c0,.2-.18.4-.53.27.35.42-.11.72-.06,1.09h-.19" transform="translate(0 0)"/><path class="cls-4" d="M20.34,62.3c.05-.12.11-.23.16-.33s.11,0,.14,0a1.41,1.41,0,0,0,1.34.32,1.78,1.78,0,0,0,.46-.33,2.14,2.14,0,0,0,.91-2.16,1.33,1.33,0,0,0-.63-.93.88.88,0,0,1-.28-.17c-.27-.3-.6-.08-.9-.12-.46-.07-.74.28-1,.5A1.22,1.22,0,0,0,20,60a5.36,5.36,0,0,1-.26,1,1.2,1.2,0,0,1,.64,1.23" transform="translate(0 0)"/><path class="cls-4" d="M47.67,29.7,48,30a1.06,1.06,0,0,0,.84-.73,1,1,0,0,0,0-.63.61.61,0,0,0-.69-.41,2.89,2.89,0,0,0-.76.35,1.17,1.17,0,0,0-1.81,0,1.61,1.61,0,0,0-.36,1.16.91.91,0,0,0,.27.65,1.32,1.32,0,0,0,1.07.45c.43-.06.65-.4,1-.47,0-.21.08-.39.13-.67" transform="translate(0 0)"/><path class="cls-4" d="M65.58,89.06v-.85a.86.86,0,0,0-.34.88.73.73,0,0,1-.26.67,1.88,1.88,0,0,0-.45,1.33.93.93,0,0,0,1,1c.21,0,.42,0,.63,0,0,0,.11,0,.13,0,.25-.23.57-.42.71-.7a1.87,1.87,0,0,0,.23-1.52,1,1,0,0,0-.6-.67c-.13,0-.19-.11-.36-.07a1.74,1.74,0,0,1-.68-.07" transform="translate(0 0)"/><path class="cls-4" d="M82.55,72.17l-.19,0c0-.25,0-.5,0-.72a2.77,2.77,0,0,0,.45-.46,1.25,1.25,0,0,0,.05-.52c-.55,0-.61.1-.74.59a.6.6,0,0,1-.43-.73,2.35,2.35,0,0,0-.1-.58c-.34-.13-.34-.13-1.2,0-.05.24-.1.49-.15.78a.67.67,0,0,0-.45.81c.11.4.28.49.71.37a1.91,1.91,0,0,0,0,.41c0,.15.12.28.12.42,0,.42.3.56.62.66a1,1,0,0,0,.94-.36l.38-.64" transform="translate(0 0)"/><path class="cls-4" d="M47.93,74.34c.26.13.62,0,.79.32a2.86,2.86,0,0,0,.79-.09c.34-.15.74-.27.86-.7a.47.47,0,0,0,.35-.51,3.52,3.52,0,0,0-.29-1.21c-.24-.44-1.12-.51-1.67-.21a.88.88,0,0,0-.55.55c0,.15-.19.27-.28.4a.68.68,0,0,0-.08.85,1.56,1.56,0,0,1,.08.6" transform="translate(0 0)"/><path class="cls-4" d="M32.63,5.52a1.54,1.54,0,0,0-.27,2,1.6,1.6,0,0,0,.9.52,1.55,1.55,0,0,0,1.14-.33,1.58,1.58,0,0,0,.09-2.19,1.41,1.41,0,0,0-1.86,0" transform="translate(0 0)"/><path class="cls-4" d="M59.46,80.26l-.33-.93c0,.26-.07.46-.1.62a2,2,0,0,0-.53.21.81.81,0,0,0,.15,1.37c.23.11.25.28.29.47a1.19,1.19,0,0,0,.31.67.94.94,0,0,0,1.61-.33c0-.12.12-.23.17-.34a.71.71,0,0,0,0-.81c-.1-.13-.14-.3-.23-.44a.88.88,0,0,0-.3-.38.9.9,0,0,0-1-.11" transform="translate(0 0)"/><path class="cls-4" d="M41.56,68.24c.13-.12,0-.25.19-.39a1.31,1.31,0,0,0,.44-1.71A.46.46,0,0,0,42,66c-.11-.09-.24-.16-.36-.24a.6.6,0,0,1-.34-.65c-.11,0-.21.05-.27,0-.46-.23-.51-.21-.65.28l0,.09-.3-.08c0,.23-.1.49,0,.66a.66.66,0,0,1,0,.8c-.2.26-.14.41.14.59a1,1,0,0,1,.44.81c0,.18,0,.36,0,.61.27-.2.1-.51.34-.68s.45,0,.64.07" transform="translate(0 0)"/><path class="cls-4" d="M54.91,73.06c0-.12.06-.25.11-.48l.28.11A1.41,1.41,0,0,0,55.17,71a1.31,1.31,0,0,1-.34-.71c0-.38-.32-.58-.7-.65a1,1,0,0,0-1,.45c-.1.21-.26.42-.13.7a1.32,1.32,0,0,1,0,.51l.71.44c-.23.39.19.59.31.89s.55.33.81.47" transform="translate(0 0)"/><path class="cls-4" d="M30.64,57.78c.12,0,.27.06.29.12a2.68,2.68,0,0,1,.24.8c.39.15.83.6,1.39.19a1.65,1.65,0,0,0,.19.58c.06.08.29,0,.43,0,.3-.39,0-.73,0-1.08a1.18,1.18,0,0,1,0-.62,1.23,1.23,0,0,0-.92-1.47,1.06,1.06,0,0,0-1.09.57c-.1.23-.21.46-.32.69,0,.07-.12.13-.16.19" transform="translate(0 0)"/><path class="cls-4" d="M30.61,78.85a1.22,1.22,0,0,0,.11,2,1.48,1.48,0,0,0,2-.7.9.9,0,0,0-.1-1,1.32,1.32,0,0,0-1.56-.56c-.16.07-.31.18-.47.27" transform="translate(0 0)"/><path class="cls-4" d="M70.23,78.27c0,.19-.08.37-.13.55a1.51,1.51,0,0,0,.74,1.63,1.11,1.11,0,0,0,1.43-1c0-.06,0-.11,0-.16.12-.54-.22-.9-.47-1.31s-.43-.3-.72-.28-.55.08-.63.44c0,0-.12.06-.19.09" transform="translate(0 0)"/><path class="cls-4" d="M37.29,37c0-.31,0-.65-.1-1a1.1,1.1,0,0,0-.81-.95,1.39,1.39,0,0,0-.73,0,.77.77,0,0,0-.47.42,1.47,1.47,0,0,0,.54,2,1,1,0,0,0,1.18-.13l.39-.35" transform="translate(0 0)"/><path class="cls-4" d="M43.86,70.78c.07-.39.38-.71.27-1.16a1.62,1.62,0,0,0-.61-.89,1,1,0,0,0-1.45,1.11A3.07,3.07,0,0,1,41.88,71a.88.88,0,0,0,.91.54c.09-.15.21-.46.31-.46.32,0,.43-.46.78-.28Z" transform="translate(0 0)"/><path class="cls-4" d="M12.18,53.61l.07.6c.07-.19.11-.34.17-.46s.15-.35.39-.31a.26.26,0,0,0,.18-.06c.29-.4.59-.79.86-1.2a.56.56,0,0,0-.13-.74.59.59,0,0,0-.75-.08.6.6,0,0,1-.53.09,1,1,0,0,0-.94.37,1,1,0,0,0,.13,1.58,3.2,3.2,0,0,0,.55.21" transform="translate(0 0)"/><path class="cls-4" d="M35.4,66.24c-.17-.28-.31-.51-.46-.73a1,1,0,0,0-1.19-.32,1.32,1.32,0,0,0-.42,2.08,1.27,1.27,0,0,0,1,.42.63.63,0,0,0,.55-.32,1.4,1.4,0,0,0,.36-1s.11-.13.16-.17" transform="translate(0 0)"/><path class="cls-4" d="M33.73,78.57a6.56,6.56,0,0,0,.41-.62,1.24,1.24,0,0,0-.07-1.22,1.1,1.1,0,0,0-1.28-.45.92.92,0,0,0-.54.5c-.1.18-.4.29-.24.6,0,.08,0,.23-.08.36a.59.59,0,0,0,.58.82,1.65,1.65,0,0,0,1,0c.07,0,.18,0,.26,0" transform="translate(0 0)"/><path class="cls-4" d="M28.35,28.83c.2.41.55.35.8.37A1,1,0,0,0,30.25,28a1.3,1.3,0,0,0-.68-1.15,1,1,0,0,0-1.22.16A2.08,2.08,0,0,0,28,28c0,.23.18.49.29.73a.61.61,0,0,0,.11.15" transform="translate(0 0)"/><path class="cls-4" d="M47.41,82c0,.12,0,.16,0,.23l-.47,0c-.17.16-.3.3-.45.43a1.52,1.52,0,0,0,.2,2,1,1,0,0,0,1.6-.78,1.22,1.22,0,0,0-.49-1.39c-.14-.08-.22-.27-.37-.46" transform="translate(0 0)"/><path class="cls-4" d="M65.73,63c0,.58-.14.75-.58.76,0,.32,0,.65.06,1a2.94,2.94,0,0,0,.16.58c.19.54.66.73,1.19.22.24-.24.59-.44.58-.87,0-.07.11-.14.17-.21-.33-.3-.36-.51-.1-1.11-.29.27-.54.14-.76.07a3.55,3.55,0,0,1-.72-.41" transform="translate(0 0)"/><path class="cls-4" d="M39.36,61.46l.29-.53-.1-.08a4.2,4.2,0,0,0-1.17,1.24c-.23.37-.11.77-.14,1.15s.69.67,1.06.54a2.86,2.86,0,0,0,.66-.37,3.29,3.29,0,0,0,.9-1.22l-.91,0v.07l-.42-.2c-.05-.21-.11-.42-.17-.63" transform="translate(0 0)"/><path class="cls-4" d="M67.05,82.8a1.7,1.7,0,0,0,.41,1,6.19,6.19,0,0,0,.79.55.45.45,0,0,0,.64-.09c.19-.24.57-.4.3-.86-.09-.14.11-.46.18-.69l-.38.22-.37-1-1,.06-.59.85" transform="translate(0 0)"/><path class="cls-4" d="M58.54,78.39l.27.67.46.17A.87.87,0,0,0,59.44,78c-.18-.31-.31-.33-.77-.23a1.86,1.86,0,0,0-.3-.37,1.73,1.73,0,0,0-.41-.2,2.57,2.57,0,0,0,.14-.58.46.46,0,0,0-.51-.5.51.51,0,0,0-.45.58.47.47,0,0,0,.06.2.85.85,0,0,1,.07.82.66.66,0,0,0,0,.48c0,.13.15.32.27.35a2.09,2.09,0,0,0,.66,0c.09,0,.17-.07.33-.14" transform="translate(0 0)"/><path class="cls-4" d="M65,77.43c0-.14.09-.27.15-.47a2.33,2.33,0,0,0-.75-.32c-.19,0-.39.19-.45.43a1.7,1.7,0,0,1,0,.22.74.74,0,0,0,.23.79c.27.23.51,0,.78-.14,0,.18.06.32.07.45a.83.83,0,0,0,.57.7.72.72,0,0,0,.75-.5A1,1,0,0,0,66,77.45a.48.48,0,0,0-.57-.15c-.12.07-.25.13-.38.19L65,77.43" transform="translate(0 0)"/><path class="cls-4" d="M67.54,74.84c0-.2,0-.38.06-.55a1.05,1.05,0,0,0-1-1.21.62.62,0,0,0-.24.1,1.18,1.18,0,0,0-.61.9,1.38,1.38,0,0,0,.4,1.14.68.68,0,0,0,.93,0,4.33,4.33,0,0,0,.43-.42" transform="translate(0 0)"/><path class="cls-4" d="M80.82,88.16c-.06.07-.12.18-.2.22a.67.67,0,0,0-.46.49,2,2,0,0,0,.14.88c.09.21.14.33,0,.54a.4.4,0,0,0,.19.59c.22.09.43,0,.53-.31a1.4,1.4,0,0,1,.46-.67,1,1,0,0,0,0-1.5,2.73,2.73,0,0,0-.68-.24" transform="translate(0 0)"/><path class="cls-4" d="M81.72,83.63l-.39.48-.57-.27c0,.14,0,.24,0,.34-.26.1-.49.23-.54.55a1.43,1.43,0,0,0,.2,1.14.77.77,0,0,0,1.29-.2c.05-.14.07-.27.2-.35-.14-.17-.07-.26.09-.38s0-.3-.08-.45-.15-.54-.23-.86" transform="translate(0 0)"/><path class="cls-4" d="M70.81,82.87a.81.81,0,0,0-.5,1.06.54.54,0,0,0,.64.26.7.7,0,0,0,.43-.77,4.85,4.85,0,0,0-.28-.56l.35-.29a.91.91,0,0,0,.18-1,.63.63,0,0,0-1-.27.88.88,0,0,0,.14,1.54" transform="translate(0 0)"/><path class="cls-4" d="M31.49,32.29c.37,0,.49-.13.64-.67-.15-.24-.27-.56-.65-.46s-.39.35-.45.66-.28.42-.44.65c-.27-.08-.5-.4-.83-.22a.79.79,0,0,0-.34.31.61.61,0,0,0,.28.94c.4.2.7,0,1-.63l.45.13c.26-.2.26-.2.34-.71" transform="translate(0 0)"/><path class="cls-4" d="M80.2,49.15c-.17.3-.33.58-.48.86a1.5,1.5,0,0,0,0,1.41.55.55,0,0,0,1,.06A1.94,1.94,0,0,0,81,49.71c-.07-.27-.25-.53-.63-.4,0,0-.11-.11-.15-.16" transform="translate(0 0)"/><path class="cls-4" d="M68.75,80.13c.53-.56.31-1.18.33-1.76-.11,0-.25-.05-.32-.12a.53.53,0,0,0-.74-.09.74.74,0,0,0-.47.72,4.06,4.06,0,0,0,.08.7.75.75,0,0,0,1.12.55" transform="translate(0 0)"/><path class="cls-4" d="M28.94,13.33a6.5,6.5,0,0,0-.4.8c-.08.22.28.62.55.69a1.37,1.37,0,0,0,1.22-.48c.34-.46.33-.72,0-1.09s-.79-.33-1.33.08" transform="translate(0 0)"/><path class="cls-4" d="M62.79,17.69l-.13-.26c0,.07-.08.09-.08.12a2.62,2.62,0,0,1,.07,1c-.08.3.59,1.23.9,1.37s.39,0,.47-.23a1.87,1.87,0,0,0-.13-1.63c-.11-.21-.24-.41-.36-.61l-.74.23" transform="translate(0 0)"/><path class="cls-4" d="M80.55,58.16l-.27.31-.2-.17-.18.23c-.05-.17-.08-.29-.14-.48-.18.5-.33.93-.48,1.36a.92.92,0,0,0,.28.93c.29.37.88.16,1.07-.35a1.66,1.66,0,0,0,0-1.49,1.63,1.63,0,0,1-.09-.34" transform="translate(0 0)"/><path class="cls-4" d="M57.92,63.62c-.12,0-.22-.22-.36,0,0,0-.19-.11-.28-.1s-.22.14-.24.12c-.2-.19-.33,0-.38.1A2.44,2.44,0,0,0,56.43,65a.7.7,0,0,0,.51.64c.28.09.44,0,.7-.36a1.41,1.41,0,0,0,.29-1c0-.23,0-.47,0-.7" transform="translate(0 0)"/><path class="cls-4" d="M55.92,51.67c-.44-.05-.49-.39-.5-.78-.18.29-.25.67-.73.61-.07.29-.13.59-.23.88a.81.81,0,0,0,.14.76.61.61,0,0,0,1.11,0,1.81,1.81,0,0,0,.21-1.43" transform="translate(0 0)"/><path class="cls-4" d="M47.52,66.17a3.94,3.94,0,0,0,.6-.09c.41-.13.47-.52.46-.85a1.24,1.24,0,0,0-.58-1,.74.74,0,0,0-.94.32,1.1,1.1,0,0,0,.13,1.28l.33.38" transform="translate(0 0)"/><path class="cls-4" d="M57.65,57.85a1.42,1.42,0,0,1,.05.53.84.84,0,0,0,.26.88.58.58,0,0,0,1.06-.2c.07-.2.11-.41.16-.61-.12-.41-.23-.82-.37-1.3-.07.1-.11.17-.16.23-.51-.14-.52-.13-.78.33a.47.47,0,0,1-.14.14s-.07,0-.08,0" transform="translate(0 0)"/><path class="cls-4" d="M57.6,84.71c-.27.79-.27.79.07,1.48l-.34.51.07,0,.42-.44c.84.06.94,0,1.31-1-.58-1.06-.6-1.07-1.53-.63" transform="translate(0 0)"/><path class="cls-4" d="M58.65,18.54c-.2.23-.47-.23-.66.24,0-.27-.05-.41-.06-.56,0,0-.07.05-.08.07a2.92,2.92,0,0,1-.25.7,1.61,1.61,0,0,0,.07,1.56.46.46,0,0,0,.78,0A1.91,1.91,0,0,0,58.78,19a4.32,4.32,0,0,0-.13-.47" transform="translate(0 0)"/><path class="cls-4" d="M37,29.29l.25-.15c0-.39-1.22-.55-1.59-.24-.11.09-.2.2-.35.34.07.22.13.5.23.76a.78.78,0,0,0,.74.49c.27,0,.75-.33.78-.57a2.5,2.5,0,0,0-.06-.63" transform="translate(0 0)"/><path class="cls-4" d="M69.84,48.74a7.48,7.48,0,0,0-.5.69,1.58,1.58,0,0,0,.44,1.38.51.51,0,0,0,.57,0A1.27,1.27,0,0,0,70.5,49a2.79,2.79,0,0,0-.66-.28" transform="translate(0 0)"/><path class="cls-4" d="M10.43,70c.16-.12.33-.23.5-.34a1,1,0,0,0,.19-1.36A.7.7,0,0,0,10,68.15a1.08,1.08,0,0,0-.08,1.38c.16.16.35.29.51.43" transform="translate(0 0)"/><path class="cls-4" d="M69.26,57.62c-.22.43-.48.84-.67,1.29a1.58,1.58,0,0,0-.08.78.5.5,0,0,0,.87.27.92.92,0,0,0,.29-.45c.06-.48.34-1,.1-1.47,0-.08,0-.21,0-.34l-.49.42-.09,0c0-.15.07-.3.11-.44l-.07,0" transform="translate(0 0)"/><path class="cls-4" d="M74.2,72.22c-.15-.37-.23-.75-.71-.62-.35-.26-.58.14-.88.14a1.26,1.26,0,0,0-.16.83.79.79,0,0,0,.54.62.54.54,0,0,0,.67-.22c.19-.24.36-.49.54-.75" transform="translate(0 0)"/><path class="cls-4" d="M60,39.14a.68.68,0,0,0-.13,0c-.58.3-.71.55-.54,1.2a1.12,1.12,0,0,0,.67.92c.22.07.44,0,.5-.18a5.21,5.21,0,0,0,.15-.95s0-.07,0-.1c-.2-.31-.4-.63-.6-.93" transform="translate(0 0)"/><path class="cls-4" d="M63,35.37l-.16.15c-.29-.28,0-.63-.15-1.06-.37.9-.94,1.6-.7,2.54.12.45.36.54.69.23a1.74,1.74,0,0,0,.42-1.47,2.49,2.49,0,0,0-.1-.39" transform="translate(0 0)"/><path class="cls-4" d="M73.55,57.44h-.48a1.07,1.07,0,0,0-.25,1.44.73.73,0,0,0,.68.45c.28,0,.35-.19.47-.57.19-.56-.14-.92-.42-1.31" transform="translate(0 0)"/><path class="cls-4" d="M22.93,75.85c.33.42.77.52,1.11.23a.85.85,0,0,0,0-1.22.66.66,0,0,0-1-.16.85.85,0,0,0-.12,1.15" transform="translate(0 0)"/><path class="cls-4" d="M72.73,21.82c-.37.19-.37-.09-.41-.29L70.88,23a.48.48,0,0,0,.05.14c.27.53.5.59,1,.22a1.85,1.85,0,0,0,.8-1.57" transform="translate(0 0)"/><path class="cls-4" d="M52.86,74.53c.3.37.62.45.92.23a.77.77,0,0,0,.22-.34A2.38,2.38,0,0,0,54,74a.87.87,0,0,0-.47-.9.54.54,0,0,0-.81.35,1.28,1.28,0,0,0,.13,1" transform="translate(0 0)"/><path class="cls-4" d="M87.52,49.82l-.46,0-.42-.07-.3,1a1.21,1.21,0,0,0,.37.87.36.36,0,0,0,.45,0,1,1,0,0,0,.44-.83,6.19,6.19,0,0,0-.08-1" transform="translate(0 0)"/><path class="cls-4" d="M70.07,67.73l-1,.31c-.07.21-.14.4-.19.59a.77.77,0,0,0,.54.92.52.52,0,0,0,.63-.31c.12-.4.39-.82,0-1.23,0,0,0-.13,0-.28" transform="translate(0 0)"/><path class="cls-4" d="M26.51,26.24a.75.75,0,1,0,1.16-.95.81.81,0,0,0-1.06-.16.89.89,0,0,0-.1,1.11" transform="translate(0 0)"/><path class="cls-4" d="M17.2,6.12a.76.76,0,0,0,1,.18.8.8,0,0,0,.13-1.06.71.71,0,0,0-1-.14.77.77,0,0,0-.17,1" transform="translate(0 0)"/><path class="cls-4" d="M6.76,27.19a.64.64,0,0,0-.91-.11.9.9,0,0,0-.16,1.13.66.66,0,0,0,.95.1.83.83,0,0,0,.12-1.12" transform="translate(0 0)"/><path class="cls-4" d="M59.45,36.63c-.1.35-.4.27-.66.32,0,.29,0,.55,0,.82a1.18,1.18,0,0,0,0,.27c.11.36.42.6.66.54a.72.72,0,0,0,.39-.77,3.92,3.92,0,0,0-.25-.7c0-.13-.08-.27-.15-.48" transform="translate(0 0)"/><path class="cls-4" d="M22.38,11.66c.57-.55.51-.66.27-1.15-.14-.32-.35-.36-.72-.26a.6.6,0,0,0-.47.7c0,.51.4.7.92.71" transform="translate(0 0)"/><path class="cls-4" d="M90.45,67.84a1.17,1.17,0,0,0,0,1.43c.13.16.29.26.47.18a.8.8,0,0,0,.43-.35.92.92,0,0,0-.91-1.26" transform="translate(0 0)"/><path class="cls-4" d="M9.48,9.54c.16.67.35.92.71.9a.64.64,0,0,0,.65-.53.64.64,0,0,0-.36-.8,1,1,0,0,0-.62,0c-.17.07-.26.28-.38.43" transform="translate(0 0)"/><path class="cls-4" d="M68.75,65.43a4.83,4.83,0,0,0-.37.42.85.85,0,0,0,0,1.09.53.53,0,0,0,.86-.14,1.61,1.61,0,0,0,0-1c0-.05-.17-.08-.25-.13a1.7,1.7,0,0,1-.29-.2" transform="translate(0 0)"/><path class="cls-4" d="M99.16,93.17c.28.31.56.37.8.17a.84.84,0,0,0,.17-1.07,1.14,1.14,0,0,0-.39-.3.53.53,0,0,0-.41,0,1,1,0,0,0-.17,1.2" transform="translate(0 0)"/><path class="cls-4" d="M52.22,60.79c.22.29.52.38.73.22a.74.74,0,0,0,.14-1.12c-.26-.34-.48-.39-.78-.18a.72.72,0,0,0-.09,1.08" transform="translate(0 0)"/><path class="cls-4" d="M25.45,20.19c.65-.27.79-.46.72-.93a.68.68,0,0,0-.61-.52.61.61,0,0,0-.65.46c-.14.42-.05.59.54,1" transform="translate(0 0)"/><path class="cls-4" d="M85.34,75.62a.63.63,0,0,0-.83.13c-.17.2-.37.44-.27.73s.2.41.34.45a.74.74,0,0,0,.58-.17.83.83,0,0,0,.18-1.14" transform="translate(0 0)"/><path class="cls-4" d="M93.13,60.33a.54.54,0,0,0-.74.09,1,1,0,0,0-.35.87.48.48,0,0,0,.78.33c.42-.27.52-.69.31-1.29" transform="translate(0 0)"/><path class="cls-4" d="M54.65,58.82a.88.88,0,0,0-.11,1,.78.78,0,0,0,.9.06.71.71,0,0,0,.1-1,.74.74,0,0,0-.89-.08" transform="translate(0 0)"/><path class="cls-4" d="M59.7,61.39c-.29.14-.25-.27-.56-.18a.84.84,0,0,0-.46,1.31.5.5,0,0,0,.41.16.92.92,0,0,0,.45-.42,4.38,4.38,0,0,0,.16-.87" transform="translate(0 0)"/><path class="cls-4" d="M43.64,82.37l.63,0a1.58,1.58,0,0,1,.17-.4.73.73,0,0,0,0-.77c-.17-.38-.49-.4-.79-.09a.72.72,0,0,0-.06,1.09.53.53,0,0,1,.06.13" transform="translate(0 0)"/><path class="cls-4" d="M93.32,54.81c-.09.15-.25.29-.26.44a1.82,1.82,0,0,0,.1.73c.14.39.53.33.74.09a1.19,1.19,0,0,0-.08-1.36c-.23-.22-.35,0-.5.1" transform="translate(0 0)"/><path class="cls-4" d="M29.78,57.9a4,4,0,0,0,.51-.19c.42-.23.41-.49.23-1a.44.44,0,0,0-.54-.26.63.63,0,0,0-.51.49.86.86,0,0,0,.31.92" transform="translate(0 0)"/><path class="cls-4" d="M35.36,48.63a.56.56,0,0,0,.78.13.68.68,0,0,0,.17-.95.61.61,0,0,0-.86-.15.67.67,0,0,0-.09,1" transform="translate(0 0)"/><path class="cls-4" d="M67.5,49l-.42.49a1.46,1.46,0,0,0-.35,1.16c0,.19.1.4.31.39a.59.59,0,0,0,.39-.23,1.61,1.61,0,0,0,.26-1,.31.31,0,0,0,0-.11c-.41-.07-.18-.38-.18-.67" transform="translate(0 0)"/><path class="cls-4" d="M75.51,89.45a.48.48,0,0,0,.71.1.73.73,0,0,0,.1-1,.57.57,0,0,0-.79-.18.73.73,0,0,0,0,1" transform="translate(0 0)"/><path class="cls-4" d="M46.75,47.32c.48-.06.5-.44.64-.73-.28-.58-.52-.75-.86-.61s-.41.46-.26,1.05a.77.77,0,0,1,.19.08l.29.21" transform="translate(0 0)"/><path class="cls-4" d="M18.57,9.8l.86-.42c-.07-.22-.11-.39-.17-.56a.5.5,0,0,0-.49-.37.54.54,0,0,0-.52.32c-.2.4-.12.68.34,1Z" transform="translate(0 0)"/><path class="cls-4" d="M13.33,17.34a3.26,3.26,0,0,0,.49-.23.7.7,0,0,0,.07-1,.58.58,0,0,0-.7-.08.67.67,0,0,0-.24.81,4.74,4.74,0,0,0,.38.5" transform="translate(0 0)"/><path class="cls-4" d="M82.83,60.84c0,.12,0,.26.06.4a1.1,1.1,0,0,0,0,.26.61.61,0,0,0,.68.4.71.71,0,0,0,.36-.77,2.17,2.17,0,0,0-.16-.38c-.35-.28-.66-.14-1,.09" transform="translate(0 0)"/><path class="cls-4" d="M29.38,69.29c-.24-.32-.27-.87-.86-.75a.55.55,0,0,0-.43.56.74.74,0,0,0,.48.67c.41.09.6-.24.81-.48" transform="translate(0 0)"/><path class="cls-4" d="M21,75a3.29,3.29,0,0,0,0-.63c-.07-.4-.32-.57-.64-.51a.66.66,0,0,0-.43.77c.12.41.32.53.72.43L21,75" transform="translate(0 0)"/><path class="cls-4" d="M42.55,52.6a.71.71,0,0,0-.15.92.56.56,0,0,0,.79.08c.34-.29.42-.67.19-.94a.61.61,0,0,0-.83-.06" transform="translate(0 0)"/><path class="cls-4" d="M50.88,52.64l-.85.25.27.89c.55.18.69.15.9-.22s.13-.47-.32-.92" transform="translate(0 0)"/><path class="cls-4" d="M80.15,93.43a.85.85,0,0,0,.16-1.08.61.61,0,0,0-.63-.09.6.6,0,0,0-.33.57.58.58,0,0,0,.36.61.8.8,0,0,0,.44,0" transform="translate(0 0)"/><path class="cls-4" d="M66.43,57c0,.33-.05.63,0,.92a.49.49,0,0,0,.43.44.42.42,0,0,0,.37-.12A.94.94,0,0,0,66.91,57c-.1,0-.25,0-.48,0" transform="translate(0 0)"/><path class="cls-4" d="M30.24,19.41a.49.49,0,0,0,.83.08.59.59,0,0,0,.06-.78.55.55,0,0,0-.81-.16.58.58,0,0,0-.08.86" transform="translate(0 0)"/><path class="cls-4" d="M18.59,9.81a2,2,0,0,0-.49.38.53.53,0,0,0,.14.76c.23.19.43.17.72-.07l.23-.21a.93.93,0,0,0-.62-.87h0" transform="translate(0 0)"/><path class="cls-4" d="M21.93,49.16l-.3-.21c-.28-.16-.52-.14-.66,0a.55.55,0,0,0,.07.77,1.18,1.18,0,0,0,.32.19c.23.08.49.11.64-.12a.55.55,0,0,0-.07-.67" transform="translate(0 0)"/><path class="cls-4" d="M42.73,56.52a.76.76,0,0,0-.09-1.17.68.68,0,0,0,.14-.22c0-.15,0-.32-.15-.34s-.26.12-.2.29a.22.22,0,0,1-.14.3c-.29.12-.33.34-.28.62a.52.52,0,0,0,.54.49l.18,0" transform="translate(0 0)"/><path class="cls-4" d="M34.87,39.38c-.08-.35,0-.74-.38-.89s-.52.21-.82.36c.06.26.12.5.17.73a1,1,0,0,0,1-.2" transform="translate(0 0)"/><path class="cls-4" d="M7.12,51.61a.6.6,0,0,0,.09-.83.65.65,0,0,0-.79-.08.56.56,0,0,0-.16.8.59.59,0,0,0,.86.11" transform="translate(0 0)"/><path class="cls-4" d="M85.71,64.61c-.09.18-.19.35-.27.53a.48.48,0,0,0,0,.33c.09.24.21.48.53.48a.62.62,0,0,0,.49-.5.65.65,0,0,0-.32-.73,3.84,3.84,0,0,0-.4-.11" transform="translate(0 0)"/><path class="cls-4" d="M23.69,68.86a1.4,1.4,0,0,0,.2-.32,1.62,1.62,0,0,0,0-.62.47.47,0,0,0-.47-.38c-.28,0-.36.21-.42.42-.12.43.12.76.66.9" transform="translate(0 0)"/><path class="cls-4" d="M22,34.64q0-.21,0-.39a.55.55,0,0,0-.47-.65c-.25,0-.45.22-.47.54s0,.34.38.67l.53-.17" transform="translate(0 0)"/><path class="cls-4" d="M49.13,82.74c.19-.06.42-.07.52-.18a.67.67,0,0,0,.13-.72.54.54,0,0,0-.56-.34.53.53,0,0,0-.33.61,5.66,5.66,0,0,0,.24.63" transform="translate(0 0)"/><path class="cls-4" d="M30.92,40.67c.31-.51.35-.77.1-1a.62.62,0,0,0-.46-.16c-.12,0-.25.2-.29.33-.14.42.12.74.65.82" transform="translate(0 0)"/><path class="cls-4" d="M21.85,24.33a.64.64,0,0,0-.11.83c.15.22.37.25.66.07a.64.64,0,0,0,.12-.77.48.48,0,0,0-.67-.13" transform="translate(0 0)"/><path class="cls-4" d="M61.66,78.39a.91.91,0,0,0-.39-.11c-.23,0-.28.26-.27.47a.62.62,0,0,0,.35.62.54.54,0,0,0,.45-.16c.2-.2.15-.46-.14-.82" transform="translate(0 0)"/><path class="cls-4" d="M25.69,32.58c.39-.28.49-.48.38-.77s-.37-.42-.55-.34a.86.86,0,0,0-.41.39c-.1.26.16.55.58.72" transform="translate(0 0)"/><path class="cls-4" d="M50.24,79.94a.58.58,0,0,0-.77-.12.64.64,0,0,0-.06.71.7.7,0,0,0,.79.12.46.46,0,0,0,0-.71" transform="translate(0 0)"/><path class="cls-4" d="M33.09,24.22c.27.15.52.33.79.05a.58.58,0,0,0,.09-.69.54.54,0,0,0-.56-.23c-.4.16-.35.5-.32.87" transform="translate(0 0)"/><path class="cls-4" d="M1.22,12.78a.55.55,0,0,0-.15.76.63.63,0,0,0,.7.12.62.62,0,0,0,.14-.79.52.52,0,0,0-.69-.09" transform="translate(0 0)"/><path class="cls-4" d="M83.87,37.36a1.7,1.7,0,0,0-.29,1.18c0,.16.08.33.29.34s.28-.13.35-.29a1.16,1.16,0,0,0-.35-1.23" transform="translate(0 0)"/><path class="cls-4" d="M33.61,55c.08-.37-.19-.6-.37-.85a.33.33,0,0,0-.52,0,.56.56,0,0,0,0,.78.72.72,0,0,0,.87.05" transform="translate(0 0)"/><path class="cls-4" d="M12.17,16.19c.18.23.4.28.59.11a.55.55,0,0,0,.13-.8.46.46,0,0,0-.66-.08.53.53,0,0,0-.06.77" transform="translate(0 0)"/><path class="cls-4" d="M61.89,18.28a2.73,2.73,0,0,0-.35.5,1.86,1.86,0,0,0-.14.73.44.44,0,0,0,.27.33.48.48,0,0,0,.36-.26,2,2,0,0,0,0-.69,3.67,3.67,0,0,0-.18-.61" transform="translate(0 0)"/><path class="cls-4" d="M82.74,80.61a.6.6,0,0,0-.64.47.71.71,0,0,0,.12.54c.17.17.41.07.59-.09s.27-.52-.07-.92" transform="translate(0 0)"/><path class="cls-4" d="M87.13,40.75l-.45,0a8.07,8.07,0,0,0-.11,1,.5.5,0,0,0,.25.37c.22.09.3-.14.38-.29a1.41,1.41,0,0,0-.07-1.08" transform="translate(0 0)"/><path class="cls-4" d="M38.19,31.6a4.26,4.26,0,0,0,.05-.57.47.47,0,0,0-.46-.45.41.41,0,0,0-.43.35.5.5,0,0,0,.24.6.32.32,0,0,0,.15.06h.45" transform="translate(0 0)"/><path class="cls-4" d="M33.27,43c.22-.23.53-.36.42-.75a.42.42,0,0,0-.35-.36.47.47,0,0,0-.55.22.38.38,0,0,0,0,.49c.13.14.29.25.46.4" transform="translate(0 0)"/><path class="cls-4" d="M80.42,22.06c.1-.3.17-.55.26-.81l.26-.05-.59-.69c-.48.67-.5,1.18.07,1.55" transform="translate(0 0)"/><path class="cls-4" d="M21.4,17.82c.34-.43.36-.59.16-.85a.39.39,0,0,0-.57-.11.85.85,0,0,0-.22.56c0,.25.24.38.63.4" transform="translate(0 0)"/><path class="cls-4" d="M11.75,16.73a1.38,1.38,0,0,0-.11.51c0,.18.11.4.37.39s.52-.11.58-.39a.53.53,0,0,0-.31-.6.54.54,0,0,0-.53.1Z" transform="translate(0 0)"/><path class="cls-4" d="M40.76,78.66a.51.51,0,0,0-.09.72.44.44,0,0,0,.62.07.6.6,0,0,0,.11-.76.46.46,0,0,0-.64,0" transform="translate(0 0)"/><path class="cls-4" d="M36.76,80.74c.14-.34.3-.68-.08-.92a.53.53,0,0,0-.49,0,.47.47,0,0,0-.18.57c.1.31.27.4.75.39" transform="translate(0 0)"/><path class="cls-4" d="M49.72,84.47c.06.22.11.44.19.66a.3.3,0,0,0,.4.18.51.51,0,0,0,.26-.3.76.76,0,0,0-.37-.91l-.36.35-.12,0" transform="translate(0 0)"/><path class="cls-4" d="M53.85,55.3a2.25,2.25,0,0,0-.35.52,1.66,1.66,0,0,0-.07.73c0,.3.34.33.53.1a.39.39,0,0,0,.08-.14,1.43,1.43,0,0,0-.19-1.21" transform="translate(0 0)"/><path class="cls-4" d="M21.27,27.83l.54.1c.3-.39.34-.63.12-.88a.4.4,0,0,0-.5-.1c-.29.15-.32.31-.16.88" transform="translate(0 0)"/><path class="cls-4" d="M43.32,46.73a.45.45,0,0,0,.09-.66.51.51,0,0,0-.63-.14.58.58,0,0,0-.11.73.4.4,0,0,0,.65.07" transform="translate(0 0)"/><path class="cls-4" d="M82.84,59.57a.37.37,0,0,0-.54-.13.64.64,0,0,0-.13.82.32.32,0,0,0,.5.12.67.67,0,0,0,.17-.81" transform="translate(0 0)"/><path class="cls-4" d="M68.73,37.32a5.35,5.35,0,0,0-.35.65.64.64,0,0,0,.13.75.33.33,0,0,0,.29,0c.26-.16.22-.44.2-.69a2.52,2.52,0,0,0-.13-.47c0-.08-.08-.15-.14-.27" transform="translate(0 0)"/><path class="cls-4" d="M49.93,43.29c-.11.28-.21.46-.26.64a2.62,2.62,0,0,0-.07.74c0,.1.17.19.26.29.11-.11.27-.2.31-.33a1.24,1.24,0,0,0,0-.54c0-.24-.14-.47-.23-.8" transform="translate(0 0)"/><path class="cls-4" d="M85.78,54.67l-.2-.06-.14,0c-.06.07-.11.11-.12.15a2.27,2.27,0,0,0-.08.63.43.43,0,0,0,.43.4.52.52,0,0,0,.31-.56,5.38,5.38,0,0,0-.2-.51" transform="translate(0 0)"/><path class="cls-4" d="M9,67a.55.55,0,0,0-.08.74.54.54,0,0,0,.6.08.7.7,0,0,0,.07-.77A.44.44,0,0,0,9,67" transform="translate(0 0)"/><path class="cls-4" d="M62.44,3.53A1.31,1.31,0,0,0,62,4.67c0,.12.15.22.22.33.11-.08.28-.14.31-.24a1.74,1.74,0,0,0,.08-.64,2.84,2.84,0,0,0-.15-.59" transform="translate(0 0)"/><path class="cls-4" d="M34.86,44.77a4.82,4.82,0,0,0-.11-.52.37.37,0,0,0-.44-.31.7.7,0,0,0-.35.35.38.38,0,0,0,.22.5c.2.09.43.23.68,0" transform="translate(0 0)"/><path class="cls-4" d="M60.25,67.31c-.12-.19-.25-.2-.42,0a.72.72,0,0,0-.09.88.31.31,0,0,0,.47,0,.6.6,0,0,0,0-.81" transform="translate(0 0)"/><path class="cls-4" d="M46.9,58a.38.38,0,0,0-.56-.12.59.59,0,0,0,0,.75.48.48,0,0,0,.58.12.68.68,0,0,0,0-.75" transform="translate(0 0)"/><path class="cls-4" d="M14.49,21.09c.4-.27.49-.42.37-.66s-.18-.36-.44-.32a.44.44,0,0,0-.4.38c-.07.24.05.39.47.6" transform="translate(0 0)"/><path class="cls-4" d="M28.91,36.44a.52.52,0,0,0-.05-.72.35.35,0,0,0-.53,0,.56.56,0,0,0,0,.74.38.38,0,0,0,.61,0" transform="translate(0 0)"/><path class="cls-4" d="M61,76.78A.65.65,0,0,0,61,76a.35.35,0,0,0-.51,0,.67.67,0,0,0,0,.74.42.42,0,0,0,.58.09" transform="translate(0 0)"/><path class="cls-4" d="M52.49,62.55a.53.53,0,0,0,0,.73.34.34,0,0,0,.52,0,.47.47,0,0,0,0-.68.39.39,0,0,0-.57-.1" transform="translate(0 0)"/><path class="cls-4" d="M65.86,45a1,1,0,0,0-.55,1,.42.42,0,0,0,.18.29c.07,0,.24-.06.3-.15A1.17,1.17,0,0,0,65.86,45" transform="translate(0 0)"/><path class="cls-4" d="M11.87,19.78a.54.54,0,0,0-.13.67c.12.16.26.3.49.17a.49.49,0,0,0,.16-.74.36.36,0,0,0-.52-.1" transform="translate(0 0)"/><path class="cls-4" d="M88.53,38.05c-.44.22-.6.47-.51.8,0,.12.16.28.26.3a.44.44,0,0,0,.33-.21.86.86,0,0,0-.08-.89" transform="translate(0 0)"/><path class="cls-4" d="M27.66,35.35c.58,0,.74-.15.69-.52a.44.44,0,0,0-.47-.36c-.3.05-.36.27-.22.88" transform="translate(0 0)"/><path class="cls-4" d="M11.09,12.46a.44.44,0,0,0-.08.66.45.45,0,0,0,.56.09.49.49,0,0,0,.09-.68.41.41,0,0,0-.57-.07" transform="translate(0 0)"/><path class="cls-4" d="M31.4,46.41c.1-.13.19-.22.25-.32a.52.52,0,0,0-.18-.67.32.32,0,0,0-.47.1.45.45,0,0,0,.08.67,3,3,0,0,0,.32.22" transform="translate(0 0)"/><path class="cls-4" d="M30.66,78.68a2.28,2.28,0,0,0,.19-.51.37.37,0,0,0-.35-.45.5.5,0,0,0-.44.47c0,.26.14.38.6.49" transform="translate(0 0)"/><path class="cls-4" d="M29.18,81.16c.44-.23.54-.37.45-.65s-.17-.36-.37-.29a.57.57,0,0,0-.36.32.51.51,0,0,0,.28.62" transform="translate(0 0)"/><path class="cls-4" d="M54.14,57.65a.57.57,0,0,0-.12.64.45.45,0,0,0,.59.08.48.48,0,0,0,.06-.64.39.39,0,0,0-.53-.08" transform="translate(0 0)"/><path class="cls-4" d="M33.72,34.82a.64.64,0,0,0-.06.69.44.44,0,0,0,.57.05.5.5,0,0,0,0-.69.38.38,0,0,0-.53,0" transform="translate(0 0)"/><path class="cls-4" d="M28,41.93c.3-.16.45-.36.34-.68a.34.34,0,0,0-.42-.26.49.49,0,0,0-.3.26c-.1.25.05.49.38.68" transform="translate(0 0)"/><path class="cls-4" d="M82.71,89.86a.4.4,0,0,0,.54,0,.58.58,0,0,0,.06-.65.39.39,0,0,0-.57,0,.56.56,0,0,0,0,.64" transform="translate(0 0)"/><path class="cls-4" d="M19.12,12.89a.5.5,0,0,0-.13.63.43.43,0,0,0,.58.1.51.51,0,0,0,.08-.64.4.4,0,0,0-.53-.09" transform="translate(0 0)"/><path class="cls-4" d="M78.12,91.42c-.34.07-.52.26-.49.57a.42.42,0,0,0,.25.29.32.32,0,0,0,.44-.2.45.45,0,0,0-.2-.66" transform="translate(0 0)"/><path class="cls-4" d="M42.47,36a.4.4,0,0,0-.08.57.45.45,0,0,0,.61.14.52.52,0,0,0,0-.6.41.41,0,0,0-.57-.11" transform="translate(0 0)"/><path class="cls-4" d="M42.89,57.32c-.3,0-.48.1-.51.39s.09.43.49.58c.29-.42.3-.45,0-1" transform="translate(0 0)"/><path class="cls-4" d="M59.08,24.69c.56-.11.73-.34.73-1-.66.3-.84.54-.73,1" transform="translate(0 0)"/><path class="cls-4" d="M45.07,56.48l.53-.3a2,2,0,0,0-.14-.49c-.06-.1-.26-.23-.32-.2s-.27.23-.27.35a2.59,2.59,0,0,0,.2.64" transform="translate(0 0)"/><path class="cls-4" d="M14.77,22.85c.28-.05.53,0,.58-.3a.43.43,0,0,0-.2-.52.32.32,0,0,0-.43.09c-.26.27,0,.46,0,.73" transform="translate(0 0)"/><path class="cls-4" d="M69.65,39a4.66,4.66,0,0,0-.27.74c-.06.26.12.51.3.48S70,40,70,39.81a6.41,6.41,0,0,0-.16-.76l-.16,0" transform="translate(0 0)"/><path class="cls-4" d="M23.46,38.1a.53.53,0,0,0-.14.66.37.37,0,0,0,.52.06.39.39,0,0,0,.07-.61.33.33,0,0,0-.45-.11" transform="translate(0 0)"/><path class="cls-4" d="M54.08,79.49c-.15,0-.3-.1-.4-.06s-.13.19-.17.3a.81.81,0,0,0,0,.22.37.37,0,0,0,.38.38c.24,0,.29-.18.28-.38a3.67,3.67,0,0,0-.09-.46" transform="translate(0 0)"/><path class="cls-4" d="M22.32,44.49c.08-.16.16-.27.21-.4a.34.34,0,0,0-.22-.48.42.42,0,0,0-.36.12.39.39,0,0,0,0,.54,1.75,1.75,0,0,0,.39.22" transform="translate(0 0)"/><path class="cls-4" d="M21.9,41.9c.18-.2.39-.41.2-.7a.38.38,0,0,0-.35-.14.54.54,0,0,0-.29.32c0,.3.13.47.44.52" transform="translate(0 0)"/><path class="cls-4" d="M72.73,81c.12.17.27.26.46.14a.59.59,0,0,0,.12-.63.41.41,0,0,0-.53-.09.44.44,0,0,0,0,.58" transform="translate(0 0)"/><path class="cls-4" d="M36.85,60.28c.34-.42.37-.64.12-.84a.33.33,0,0,0-.5.11c-.16.26,0,.53.38.73" transform="translate(0 0)"/><path class="cls-4" d="M16.08,11.92c-.15.12-.2.5,0,.57a.77.77,0,0,0,.54,0c.16,0,.17-.43,0-.58a.43.43,0,0,0-.54,0" transform="translate(0 0)"/><path class="cls-4" d="M65.55,14.87c-.43.89-.43,1.05,0,1.34.32-.44.16-.87,0-1.34" transform="translate(0 0)"/><path class="cls-4" d="M34.94,63.09a.38.38,0,0,0,.51-.33.36.36,0,0,0-.21-.44.43.43,0,0,0-.35,0c-.17.13-.15.38,0,.72" transform="translate(0 0)"/><path class="cls-4" d="M51.6,80.93a4.52,4.52,0,0,0-.1.47c0,.19,0,.38.27.39a.52.52,0,0,0,.34-.18.38.38,0,0,0-.08-.53,2.05,2.05,0,0,0-.43-.15" transform="translate(0 0)"/><path class="cls-4" d="M47.12,93.41c-.47.07-.63.24-.55.57a.33.33,0,0,0,.46.25c.27-.1.3-.31.09-.82" transform="translate(0 0)"/><path class="cls-4" d="M21,20.67a.51.51,0,0,0-.11.64c.15.18.33.13.5.05s.2-.38.07-.58a.33.33,0,0,0-.46-.11" transform="translate(0 0)"/><path class="cls-4" d="M42,78.52a.42.42,0,0,0-.06.62.32.32,0,0,0,.46.13c.16-.09.17-.49,0-.68a.26.26,0,0,0-.42-.07" transform="translate(0 0)"/><path class="cls-4" d="M65.92,76.15a.67.67,0,0,0,.18-.8.25.25,0,0,0-.22-.07.57.57,0,0,0-.28.71c.07.1.24.12.32.16" transform="translate(0 0)"/><path class="cls-4" d="M92.16,39.8c-.21.36-.4.67-.12,1,.26,0,.36-.17.37-.37s.15-.51-.25-.67" transform="translate(0 0)"/><path class="cls-4" d="M36.52,18a.64.64,0,0,0-.48.69c0,.11.23.16.53.14.16-.37.16-.37,0-.83" transform="translate(0 0)"/><path class="cls-4" d="M66,81.28a.86.86,0,0,0-.91.07.33.33,0,0,0-.11.27.31.31,0,0,0,.24.17c.35,0,.56-.18.78-.51" transform="translate(0 0)"/><path class="cls-4" d="M32.12,14.49c0,.32.16.51.44.49a.4.4,0,0,0,.29-.26.56.56,0,0,0-.18-.42c-.23-.18-.38,0-.55.19" transform="translate(0 0)"/><path class="cls-4" d="M73.13,92.18c.51.39.81-.11,1.26-.26-1-.14-1-.14-1.26.26" transform="translate(0 0)"/><path class="cls-4" d="M11.22,22.82a1.06,1.06,0,0,0,.39,0,.37.37,0,0,0,.11-.55.27.27,0,0,0-.42-.08.52.52,0,0,0-.08.65" transform="translate(0 0)"/><path class="cls-4" d="M83,84.56a1,1,0,0,0,.38,0c.18-.07.2-.38.07-.57s-.29-.13-.43,0a.41.41,0,0,0,0,.61" transform="translate(0 0)"/><path class="cls-4" d="M52.05,49.31c.26-.38.22-.55-.2-1a.7.7,0,0,0,.2,1" transform="translate(0 0)"/><path class="cls-4" d="M23.25,42.2c.09-.23.24-.44,0-.6a.35.35,0,0,0-.33,0,.49.49,0,0,0-.13.38c0,.25.24.3.49.21" transform="translate(0 0)"/><path class="cls-4" d="M17.54,73.47a.42.42,0,0,0-.16.58.29.29,0,0,0,.43,0,.27.27,0,0,0,.07-.42,1.16,1.16,0,0,0-.34-.19" transform="translate(0 0)"/><path class="cls-4" d="M2.6,20.85c.07.25-.11.56.27.63a.27.27,0,0,0,.34-.25c0-.33-.29-.35-.61-.38" transform="translate(0 0)"/><path class="cls-4" d="M86.35,93.1c-.35-.06-.53.07-.59.29s0,.32.12.35a.39.39,0,0,0,.36-.1,1.9,1.9,0,0,0,.11-.54" transform="translate(0 0)"/><path class="cls-4" d="M99.35,81.41c-.07,0-.11,0-.13,0-.21.19-.26.46-.09.6a.31.31,0,0,0,.28,0,.37.37,0,0,0,0-.57.91.91,0,0,0-.1-.1" transform="translate(0 0)"/><path class="cls-4" d="M66.94,41.23c.41-.25.3-.6.23-1-.43.38-.47.55-.23,1" transform="translate(0 0)"/><path class="cls-4" d="M54.46,55c.23-.44.23-.44-.08-.9-.3.46-.29.55.08.9" transform="translate(0 0)"/><path class="cls-4" d="M18.92,5c.29.14.56.28.83.14a.31.31,0,0,0,.15-.24s-.13-.15-.19-.14c-.27.06-.53.16-.79.24" transform="translate(0 0)"/><path class="cls-4" d="M39.54,71.79c-.35.37-.35.37,0,.82.1-.13.27-.25.26-.36s-.13-.29-.22-.46" transform="translate(0 0)"/><path class="cls-4" d="M58.41,73.8c-.23.24-.37.43-.16.66a.22.22,0,0,0,.37-.06.38.38,0,0,0,.07-.3c0-.1-.15-.17-.28-.3" transform="translate(0 0)"/><path class="cls-4" d="M10.91,23.71a2.77,2.77,0,0,0,.05.6c0,.06.22.12.3.09a.29.29,0,0,0,.1-.45c-.07-.09-.21-.12-.45-.24" transform="translate(0 0)"/><path class="cls-4" d="M21.72,42.68c-.2,0-.38,0-.4,0a1.56,1.56,0,0,0-.09.44c.13,0,.33.08.37,0s.08-.28.12-.49" transform="translate(0 0)"/><path class="cls-4" d="M82.09,57.23c-.06.21-.13.42-.17.63,0,0,.1.15.17.16a.25.25,0,0,0,.2-.12.58.58,0,0,0-.05-.64l-.15,0" transform="translate(0 0)"/><path class="cls-4" d="M97.77,59.58a4.87,4.87,0,0,0-.5.4c0,.05,0,.19,0,.29s.29,0,.33,0a4.14,4.14,0,0,0,.31-.59l-.11-.08" transform="translate(0 0)"/><path class="cls-4" d="M34.61.5c-.15-.42-.45-.49-.86-.5.21.34.4.61.86.5" transform="translate(0 0)"/><path class="cls-4" d="M98.68,86a1.78,1.78,0,0,0-.51.06.2.2,0,0,0,0,.36.34.34,0,0,0,.32,0c.09-.07.12-.22.22-.46" transform="translate(0 0)"/><path class="cls-4" d="M84.13,87.8a1.57,1.57,0,0,0-.35.33c0,.06,0,.21.07.32.11,0,.27,0,.32-.11a1.35,1.35,0,0,0,.11-.45l-.15-.09" transform="translate(0 0)"/><path class="cls-4" d="M11.86,41.27a1.52,1.52,0,0,0,0,.5.34.34,0,0,0,.3,0,.27.27,0,0,0,0-.42c-.07-.06-.18-.06-.35-.11" transform="translate(0 0)"/><path class="cls-4" d="M56,55.49c0,.22,0,.44,0,.66,0,0,.11.13.15.12a.31.31,0,0,0,.19-.14c.07-.25,0-.46-.32-.64" transform="translate(0 0)"/><path class="cls-4" d="M34.62,60.15c.31-.12.34-.3.19-.52s-.22-.15-.32,0-.08.38.13.55" transform="translate(0 0)"/><path class="cls-4" d="M36.12,67.35a1.91,1.91,0,0,0,0,.53.34.34,0,0,0,.3.11.29.29,0,0,0,.08-.43c-.05-.08-.18-.11-.37-.21" transform="translate(0 0)"/><path class="cls-4" d="M56.4,76.45a1.27,1.27,0,0,0,.41,0,.24.24,0,0,0,.06-.41c-.06-.06-.28-.1-.31-.06a1.56,1.56,0,0,0-.16.48" transform="translate(0 0)"/><path class="cls-4" d="M31,29.12c.11-.25.15-.47-.13-.55-.07,0-.24.1-.26.18-.07.29.11.37.39.37" transform="translate(0 0)"/><path class="cls-4" d="M6.44,10.74c0,.21,0,.38,0,.42a.58.58,0,0,0,.37,0,.37.37,0,0,0,0-.31c-.08-.08-.23-.07-.44-.13" transform="translate(0 0)"/><path class="cls-4" d="M66.19,6.59c0,.15,0,.31-.09.46s0,.25.16.52a.76.76,0,0,0-.08-1Z" transform="translate(0 0)"/><path class="cls-4" d="M83.73,92.61c-.18,0-.35,0-.36,0a1.19,1.19,0,0,0-.06.42s.24.07.26,0a2.31,2.31,0,0,0,.16-.47" transform="translate(0 0)"/><path class="cls-4" d="M27.12,29.93c.2,0,.37,0,.41-.06a1.12,1.12,0,0,0,.07-.38c-.12,0-.28-.07-.34,0s-.08.23-.14.45" transform="translate(0 0)"/><path class="cls-4" d="M13.79,71.81c0,.2,0,.39,0,.42a.55.55,0,0,0,.38,0s.08-.25,0-.28a1.39,1.39,0,0,0-.43-.16" transform="translate(0 0)"/><path class="cls-4" d="M60.06,93.17c0-.17.08-.32,0-.39s-.21,0-.32-.08a.67.67,0,0,0,0,.34s.16.07.31.13" transform="translate(0 0)"/><path class="cls-4" d="M64.19,7.37c.28-.28.13-.51.08-.83a.71.71,0,0,0-.08.83" transform="translate(0 0)"/><path class="cls-4" d="M56,91l-.36-.62c-.08.53-.08.53.36.62" transform="translate(0 0)"/><path class="cls-4" d="M72.38,81.1l-.47.44c.39.23.41.21.47-.44" transform="translate(0 0)"/><path class="cls-4" d="M4.15,53.45c.23.08.37,0,.38-.23a.22.22,0,0,0-.16-.15c-.25,0-.27.18-.22.38" transform="translate(0 0)"/><path class="cls-4" d="M44.7,23.17c-.1-.35-.32-.34-.61-.29a.5.5,0,0,0,.61.29" transform="translate(0 0)"/><path class="cls-4" d="M43.25,17.88l.52-.39-.06-.08-.51.39,0,.08" transform="translate(0 0)"/><path class="cls-4" d="M35.47,39.83c.13-.2.19-.35,0-.47,0,0-.15,0-.18,0-.13.2,0,.33.21.42" transform="translate(0 0)"/><path class="cls-4" d="M.46,19.89c.08-.21.1-.37-.13-.41a.24.24,0,0,0-.19.13c0,.21.09.29.32.28" transform="translate(0 0)"/><path class="cls-4" d="M5.77,64.26a1.38,1.38,0,0,0,0,.31,1.23,1.23,0,0,0,.33.08c0-.08.07-.21,0-.23a1.15,1.15,0,0,0-.35-.16" transform="translate(0 0)"/><path class="cls-4" d="M45.15,89.48q.23.33.45.06a.24.24,0,0,0,0-.22c-.2-.13-.31,0-.43.16" transform="translate(0 0)"/><path class="cls-4" d="M38.82,67.87l.4-.77-.08,0-.46.75.14.07" transform="translate(0 0)"/><path class="cls-4" d="M64,81.12l-.29-.19-.12.26.35.07.06-.14" transform="translate(0 0)"/><path class="cls-4" d="M60.67,43.06c.29-.19.26-.4.18-.68-.19.21-.34.36-.18.68" transform="translate(0 0)"/><path class="cls-4" d="M22.56,57.18c0,.16,0,.27,0,.38s.2,0,.22,0a.37.37,0,0,0,.07-.27s-.14-.05-.28-.1" transform="translate(0 0)"/><path class="cls-4" d="M41.21,62.12c-.07.14-.13.28-.23.51.37-.1.4-.26.35-.46l-.12-.05" transform="translate(0 0)"/><path class="cls-4" d="M69.15,56.49c-.18.24-.23.42,0,.62.25-.19.17-.36,0-.62" transform="translate(0 0)"/><path class="cls-4" d="M42.5,19a.57.57,0,0,0-.61.13A.5.5,0,0,0,42.5,19" transform="translate(0 0)"/><path class="cls-4" d="M22.46,20.94c-.12,0-.23,0-.26,0a.22.22,0,0,0,0,.22c0,.05.17.08.21,0s.05-.14.08-.26" transform="translate(0 0)"/><path class="cls-4" d="M101.28,74.64c-.13.14-.15.27.14.42v-.42h-.14" transform="translate(0 0)"/><path class="cls-4" d="M51.7,75.39c0,.13.07.26.13.48.18-.27.22-.42,0-.53l-.14,0" transform="translate(0 0)"/><path class="cls-4" d="M39.37,9.16l.48.3c-.09-.36-.29-.34-.48-.3" transform="translate(0 0)"/><path class="cls-4" d="M11.9,19.12v.33c.08,0,.19,0,.24,0a.26.26,0,0,0,0-.23s-.13,0-.26-.08" transform="translate(0 0)"/><path class="cls-4" d="M45.24,64.64l.32.26a.84.84,0,0,0,.06-.18l-.31-.19-.07.11" transform="translate(0 0)"/><path class="cls-4" d="M65,18.75c0,.14-.07.29-.12.54.33-.2.27-.36.12-.54" transform="translate(0 0)"/><path class="cls-4" d="M73.9,60.88c0-.13.09-.27.16-.47-.3.2-.3.2-.28.44l.12,0" transform="translate(0 0)"/><path class="cls-4" d="M4.25,17.14c-.13,0-.25,0-.28.05a.79.79,0,0,0,0,.28c.08,0,.2,0,.22,0a1.06,1.06,0,0,0,.1-.34" transform="translate(0 0)"/><path class="cls-4" d="M58,63.28c-.05-.24-.09-.39-.12-.54-.19.19-.21.35.12.54" transform="translate(0 0)"/><path class="cls-4" d="M58.61,66c.12,0,.23.22.37,0,0,0,.18.1.28.1s.22-.15.24-.13c.2.19.32,0,.37-.1a2.45,2.45,0,0,0,.24-1.28A.73.73,0,0,0,59.6,64c-.28-.09-.44,0-.7.36a1.47,1.47,0,0,0-.3,1c0,.23,0,.47,0,.7" transform="translate(0 0)"/><path class="cls-4" d="M50.89,46.35a1.22,1.22,0,0,1,0-.53.86.86,0,0,0-.27-.88.58.58,0,0,0-1.06.2c-.07.2-.11.41-.16.61.12.41.23.82.37,1.3l.16-.23c.51.14.52.14.78-.33a.47.47,0,0,1,.14-.14s.07,0,.08,0" transform="translate(0 0)"/><path class="cls-4" d="M48.84,42.81c.29-.14.25.27.56.18a.84.84,0,0,0,.47-1.3.51.51,0,0,0-.42-.17,1,1,0,0,0-.45.42,4.38,4.38,0,0,0-.16.87" transform="translate(0 0)"/><path class="cls-4" d="M54.69,48.91a2.29,2.29,0,0,0,.35-.53,1.66,1.66,0,0,0,.07-.73c0-.29-.34-.33-.53-.1a.5.5,0,0,0-.08.14,1.45,1.45,0,0,0,.19,1.22" transform="translate(0 0)"/><path class="cls-4" d="M52.52,48.72c0-.23,0-.45,0-.67,0,0-.11-.12-.15-.12a.29.29,0,0,0-.19.15c-.07.24,0,.45.32.64" transform="translate(0 0)"/><path class="cls-4" d="M50.58,40.92c.05.25.09.4.12.55.19-.2.21-.36-.12-.55" transform="translate(0 0)"/><path class="cls-4" d="M46.13,51.93c-.07.09-.14.18-.26.31.31.06.35-.07.37-.23l-.11-.08" transform="translate(0 0)"/><path class="cls-4" d="M93.8,53.86c0,.12,0,.25-.08.38l.07,0c0-.13,0-.26.08-.39H93.8" transform="translate(0 0)"/><path class="cls-4" d="M49,30.08l-.49-.17c.1.31.25.36.44.31l.05-.14" transform="translate(0 0)"/><path class="cls-4" d="M16.47,76c.12,0,.23,0,.27,0a.22.22,0,0,0,0-.23.22.22,0,0,0-.22,0c-.05,0-.05.14-.08.26" transform="translate(0 0)"/><path class="cls-4" d="M8.87,82.33h-.3a.64.64,0,0,0,0,.24.19.19,0,0,0,.19,0,.74.74,0,0,0,.1-.26" transform="translate(0 0)"/><path class="cls-4" d="M38.14,29.13l-.17.61c.24-.25.24-.25.17-.61" transform="translate(0 0)"/><path class="cls-4" d="M11.74,16.74l0,0c-.06-.09-.12-.18-.17-.27s-.16.13-.15.18.15.23.31.13Z" transform="translate(0 0)"/><path class="cls-4" d="M67.46,85.75c-.08.27-.14.43-.21.64.18-.2.18-.2.21-.64" transform="translate(0 0)"/><path class="cls-4" d="M61.73,86.47a1.58,1.58,0,0,0,.28,0,.7.7,0,0,0,0-.29s-.16,0-.18,0a1.2,1.2,0,0,0-.11.3" transform="translate(0 0)"/><path class="cls-4" d="M46.18,29c0-.3-.22-.26-.42-.26.07.26.24.23.42.26" transform="translate(0 0)"/><path class="cls-4" d="M72.51,87.68c-.24,0-.35,0-.35.22a.13.13,0,0,0,.1.09c.21,0,.2-.13.25-.31" transform="translate(0 0)"/><path class="cls-4" d="M61.81,73.47c.15,0,.29-.08.22-.28,0,0-.14-.09-.17-.07s-.18.21,0,.35" transform="translate(0 0)"/><path class="cls-4" d="M64,88.7l.21-.5c-.25.16-.25.16-.21.5" transform="translate(0 0)"/><path class="cls-4" d="M41.53,31.66l-.15-.43-.11,0,.15.43.11,0" transform="translate(0 0)"/><path class="cls-4" d="M8.07,68.89c0,.11-.05.21,0,.23a.31.31,0,0,0,.23,0s.06-.14,0-.17a.91.91,0,0,0-.24-.11" transform="translate(0 0)"/><path class="cls-4" d="M43.88,70.78s-.07.08-.07.12,0,.27,0,.41H44c0-.18-.07-.35-.11-.52h0" transform="translate(0 0)"/><path class="cls-4" d="M21.89,42.92a1.36,1.36,0,0,0,.11.28s.13,0,.13-.05a1.4,1.4,0,0,0-.06-.28l-.18.05" transform="translate(0 0)"/><path class="cls-4" d="M38.41,42.1c0,.13,0,.26,0,.5l.28-.37-.28-.13h0" transform="translate(0 0)"/><path class="cls-4" d="M70.88,93.46l0,.28c.07,0,.18,0,.21,0s0-.16,0-.22-.11,0-.21,0" transform="translate(0 0)"/><path class="cls-4" d="M34.85,77.13a1.21,1.21,0,0,0,0,.28s.17,0,.18,0a.37.37,0,0,0,0-.23s-.12,0-.21-.05" transform="translate(0 0)"/><path class="cls-4" d="M25.12,54.94l-.28.24,0,0,.33-.22-.07,0" transform="translate(0 0)"/><path class="cls-4" d="M14.41,44.75c-.1,0-.18,0-.22,0s-.07.14,0,.17a.18.18,0,0,0,.17.05s0-.1.09-.21" transform="translate(0 0)"/><path class="cls-4" d="M52.39,45.53l.07-.41c-.27.11-.27.23-.21.38l.14,0" transform="translate(0 0)"/><path class="cls-4" d="M33.37,61.92c-.24.06-.3.14-.2.28s.09,0,.09,0,.07-.17.11-.31" transform="translate(0 0)"/><path class="cls-4" d="M98.92,85.77c0-.1,0-.21,0-.22a.34.34,0,0,0-.22,0,.24.24,0,0,0,0,.17,1.42,1.42,0,0,0,.26.1" transform="translate(0 0)"/><path class="cls-4" d="M107.29,67.32l-.22.15a1.85,1.85,0,0,1,.14.14l.15-.22-.07-.07" transform="translate(0 0)"/><path class="cls-4" d="M87.46,49.22v.23h.07c0-.08,0-.15,0-.23h-.06" transform="translate(0 0)"/><path class="cls-4" d="M52.08,72.9a.66.66,0,0,0,0,.21s.09,0,.14,0a.55.55,0,0,0,0-.18s-.09,0-.17-.06" transform="translate(0 0)"/><path class="cls-4" d="M5.67,72.42c0,.09-.08.17-.11.26l.07,0,.2-.21-.16-.1" transform="translate(0 0)"/><path class="cls-4" d="M62.43,69.55l-.18-.12-.07.11a1.24,1.24,0,0,1,.2.1.41.41,0,0,0,0-.09" transform="translate(0 0)"/><path class="cls-4" d="M50.48,67.56l-.22-.18-.06.06.22.19.06-.07" transform="translate(0 0)"/><path class="cls-4" d="M72.9,74.2a2,2,0,0,0,0,.26s.09,0,.09,0l0-.26H72.9" transform="translate(0 0)"/><path class="cls-4" d="M62.21,23.23c-.05.13-.09.26-.16.49.31-.15.27-.31.16-.49" transform="translate(0 0)"/><path class="cls-4" d="M65.69,13.44a1.14,1.14,0,0,0,.06-.25s0,0-.09,0l-.06.26.09,0" transform="translate(0 0)"/><path class="cls-4" d="M13.81,62.83c0,.12,0,.2,0,.23s.12,0,.18,0,0-.12,0-.14a.94.94,0,0,0-.22-.1" transform="translate(0 0)"/><path class="cls-4" d="M66.18,6.6c.15-.1.3-.2.15-.38l-.19,0c0,.14,0,.27,0,.4h0" transform="translate(0 0)"/><path class="cls-4" d="M35,16.29l.22-.21,0,0-.27.16.08.09" transform="translate(0 0)"/><path class="cls-4" d="M64.41,24.08c.1.12.19.31.32.34a3.61,3.61,0,0,0,.85-.21l-1-.37-.19.24" transform="translate(0 0)"/><path class="cls-4" d="M51.3,20a1.18,1.18,0,0,0-.42,0c-.4.07-.58.36-.41.82l1.12.37a.65.65,0,0,0,.13-.95l.08,0c.1-.05.14-.21.28-.44-.42,0-.62,0-.74.08s0,.07,0,.13" transform="translate(0 0)"/><path class="cls-4" d="M102.53,38.35c-.09,0-.2-.06-.35-.12.08-.13.12-.28.19-.3a.33.33,0,0,1,.27.15.31.31,0,0,1-.11.27m7-10.43a1.16,1.16,0,0,0-.71-.59c-.17,0-.53.25-.63.47-.34.79-.6,1.61-.95,2.57L106,29.32c-.39.23-.72.58-1.09.62-.77.08-1,.43-1,1.15,0,.89-.39,1.17-1.28,1.16-.7,0-1.41-.06-2.23-.1.46,1-.8.38-.87,1.05a7.69,7.69,0,0,1,.79.89.77.77,0,0,1,0,.69c-.09.14-.43.2-.64.18-.47-.07-.94-.21-1.4-.32l.48.43-1.07,1,1,1.08L98,38.52l1.05.42c.21.93.21.93,1.07,1.16a4.65,4.65,0,0,0-.39-3.24l1.19.08c0,.52-.1,1.12.09,1.23,1,.65.35,1.13-.06,1.67a1,1,0,0,0-.09.41l.94.74-2.45,1c.32.19.6.5.85.47a8.26,8.26,0,0,0,1.56-.48l.46,1.3-.41.44c.3.57.54,1,.85,1.64l-4,1.18c0,.18,0,.4,0,.62a1.52,1.52,0,0,1,1.48-.28,2,2,0,0,0,1.89-.47c1-.75,1.46-2,2.32-2.93a1,1,0,0,0,.18-.6c.15-1.37.29-2.74.44-4.14.79.06.67-.82,1.12-1.13a.79.79,0,0,0,.27-1.12c-.32-.57,0-1,.26-1.49-.69-.21-1.17-.51-1.11-1.26a6.35,6.35,0,0,1,2.34-1.83c1.33-.46,2.19-2.71,1.7-4" transform="translate(0 0)"/><path class="cls-4" d="M94.28,37.85c-.34.57-.92.15-1.29.43.83,1.11,1.93,1.12,3.38,0-.23-.23-.43-.58-.67-.61-.48,0-1.26-.1-1.42.16" transform="translate(0 0)"/><path class="cls-4" d="M97.25,36.48c0-.49-.07-1-.11-1.54l-1.61.3c.27,1.19.44,1.31,1.72,1.24" transform="translate(0 0)"/><path class="cls-4" d="M94.9,43a4.37,4.37,0,0,0,2.62-.67l-3.58-.15a.85.85,0,0,0,1,.82" transform="translate(0 0)"/><path class="cls-4" d="M92.54,44.43c.19.32.34.69.88.36a2.82,2.82,0,0,0-1.57-2.06c-.18-.1-.54.1-.81.17,0,.1,0,.2.08.3.88.33.89.32,1.42,1.23" transform="translate(0 0)"/><path class="cls-4" d="M98.66,47.19h0v-.05l0,0h0" transform="translate(0 0)"/><path class="cls-4" d="M99.09,48.34c0-.66,0-.67-.43-1.15l-2-.59a3.45,3.45,0,0,0,2.46,1.74" transform="translate(0 0)"/><path class="cls-4" d="M98.8,44.08c1.26-.18,1.26-.18,1.73-.59-1.37-.34-1.67-.24-1.73.59" transform="translate(0 0)"/><path class="cls-4" d="M97.93,43.86c-.8-.66-1.34.07-2,.36.6-.27,1.45.64,2-.36" transform="translate(0 0)"/><path class="cls-4" d="M95.72,40.83c0-.19-.21-.45-.41-.84-.31.47-.51.77-.79,1.21.67.21,1.07.11,1.2-.37" transform="translate(0 0)"/><path class="cls-4" d="M12.67,85.63c0,.45-.05.81-.07,1.18.77-.72.77-.72.07-1.18" transform="translate(0 0)"/><path class="cls-4" d="M16.79,92.54l.41-1.46L16.87,91c-.5.35-.41.8-.08,1.57" transform="translate(0 0)"/><path class="cls-4" d="M102.51,49.25c-.08,0-.22.25-.43.51a3,3,0,0,0,.74.18c.08,0,.24-.31.23-.33a1.35,1.35,0,0,0-.54-.36" transform="translate(0 0)"/><path class="cls-4" d="M95,44.11,94.3,44c0,.12,0,.24-.07.36l.77.06c0-.09,0-.18,0-.26" transform="translate(0 0)"/><path class="cls-4" d="M5.61,70.49a2.23,2.23,0,0,0,.16.43,1.47,1.47,0,0,0,.29.32l.09-.09-.39-.73-.15.07" transform="translate(0 0)"/><path class="cls-4" d="M23.81,86.05c0-.08-.19-.11-.29-.16l-.18.37.34.11c.06-.13.16-.26.13-.32" transform="translate(0 0)"/><path class="cls-4" d="M98.78,42.13l-.42,0a2.21,2.21,0,0,0,0,.25l.42-.09c0-.06,0-.19,0-.19" transform="translate(0 0)"/><path class="cls-4" d="M93.09,78.5a1.11,1.11,0,0,1,.16.21c-.13,0-.22.05-.28,0s0-.13,0-.2a.26.26,0,0,1,.16,0M78.68,80.16c.25.07.5.12.74.17.11.33.21.65.33,1-.7-.37-1-.71-1.07-1.19m-3.14-1.64.88.55c0,.08,0,.17,0,.26l-.84-.81m-1.11,3.71a1.93,1.93,0,0,1,0,.34s-.14,0-.25,0a1.34,1.34,0,0,1,0-.35s.14,0,.21,0m-.5,2.49-.31,0c-.2-.08-.32-.08-.4,0l-.41,0a1.92,1.92,0,0,1-.22-.8h0a.76.76,0,0,0,.13-.23,4.16,4.16,0,0,1,.52-.23c.22.35.46.7.68,1.07,0,.06,0,.16,0,.27m-.82,2.56a0,0,0,0,0,0,0,.41.41,0,0,1,0,.08l0-.06m-2,11.3A17.49,17.49,0,0,0,70,97.1,5.28,5.28,0,0,1,68.61,94h0c.11.13.23.25.35.38a1,1,0,0,0,.66.32,15,15,0,0,0,1.53-.18,4.79,4.79,0,0,0,.25.45c-.55.61-1,1.18-.66,1.86.58.5.9-.61,1.38,0l-1,1.85m-1.82.61c-.7-.35-1-.7-.77-1,.35-.48.82-.41,1.37-.14-.23.45-.41.8-.6,1.15M61.1,87a6.14,6.14,0,0,1-.35-.59c-.37,1-.37,1-1.37.83a7.78,7.78,0,0,0-1.07,0,1.45,1.45,0,0,0,.75-1.55c-.05-.51.31-.66.76-.38.68.42.8.49,1.08-.06a1.83,1.83,0,0,0,.32.35,14.67,14.67,0,0,1,1.46,1.37l0,.06a.92.92,0,0,1-1.53,0m.69,8.49-.15.19-.46-.4.09-.11.52.32m-1.34-1.23c-.68-.5-.17-1-.18-1.53l-.47-.31c.5-.55.5-.55,1.1-.14-.39.56.07,1.34-.45,2m-3.07-13c-.05,0-.1-.11-.16-.16l.42-.46.21.22c-.15.14-.31.27-.47.4M47.79,97.72a9,9,0,0,0-.72-.87,1,1,0,0,0-.68-.28.8.8,0,0,0,.16-.32c.07-.22.16-.43.21-.65a2.17,2.17,0,0,0,.66.08.8.8,0,0,0,.67.53c0,.47-.42,1-.3,1.51m0,1.36c0-.07.06-.16.1-.24s.14.07.15.12a1.13,1.13,0,0,1,0,.35c-.14-.11-.25-.16-.27-.23m-2.12-1.75a3.13,3.13,0,0,1-.19.51h-.18l-.22-1-.74,0c0-.34,0-.65.07-1a1.88,1.88,0,0,1,.53.25,1.86,1.86,0,0,1,.22.47c.49-.19.38-.85.88-.87.1.35.2.65.29,1a.9.9,0,0,0-.66.75M43,96.07,42.85,96V95a1.37,1.37,0,0,0,.45.42l-.3.64m-2,.73c-.17-.32.22-.86-.48-.91.13-.25.22-.41.32-.59.68.83.68.84.16,1.5m-.66-11.57v-.75a.27.27,0,0,1,.08-.07.58.58,0,0,1-.08.82m-4.7,11.41c-.14-.5-.14-.5.25-.84-.08.26-.16.52-.25.84M24,88s0,0,0-.06l-.8-.14-1-2.73a6.22,6.22,0,0,1,2.45-.89l-.5,1,.13.08L24,85.7a1.58,1.58,0,0,1-.23,1.55l.77.07c-.13.28-.42.48-.56.71m.32,1.36a.75.75,0,0,1,0-.16l.16,0-.12.13m-3.54-6.62h2.09l-.06,0L23,83l.1,0s0,0,0,.08c-.26.18-.5.47-.79.52-.71.13-1,0-1.58-.86m-.22-6.86.25,0v0l.06,0H21c0,.06,0,.11,0,.17h-.4s0-.08,0-.12M10.48,44.44a1.24,1.24,0,0,0,.31-.3c.06-.07.2-.07.4-.14L11,45.25l.7-.21c.25-.06.51-.1.77-.14.9-.14,1.12.08,1.21,1l0,.43,0,.1,0,0a2.65,2.65,0,0,0,1.19,2.29c.06,0,.16,0,.23,0,.12-.29.23-.59.4-1l.18.09c.19.36.35.64.48.91a4.92,4.92,0,0,1-1.6.26,3.77,3.77,0,0,1-1.08-.6,5.8,5.8,0,0,1-.73-1.34l-.25.29c-.57-.63.21-.71.36-1.08-.59-.28-.89.09-1.13.42a.22.22,0,0,0-.05.08.9.9,0,0,1,.07-.95c-1-.1-1-.87-1.27-1.37m9-16c.84.26.75,1.07,1.15,1.72l-1.47.35c-.27-.37-.51-.72-.74-1l1.06-1M23,33.89s.25,0,.33,0a1.89,1.89,0,0,1,.34.4l-.37.13-.44-.1a1.26,1.26,0,0,1,.14-.44m1.59,3.21c.06.22.12.44.17.66l-.32.06-.18-.68.33,0m1.22-1.5h-.26l.2-.12.06.12m6.3-14.12a7.66,7.66,0,0,1-1.26-.68,2.92,2.92,0,0,1-.55-.69c1.61-.32,3.31.84,4.27,2.69-.14.47-.24.76-.3,1.06l-.05,0a1,1,0,0,0-.37.17.4.4,0,0,0,.07.19c-.33-.08-.46-.4-.54-1a1.92,1.92,0,0,0-1.27-1.66m-1.19-6.63.24-.18.78.65c-.48,0-.68,0-.82-.08s-.14-.25-.2-.39m10.8,0a1,1,0,0,1,.58.53c.2.44.37.9.56,1.43a5.34,5.34,0,0,0-1.32-.52c.07-.2.14-.41.21-.64a1.77,1.77,0,0,0-.62.49,1.89,1.89,0,0,1-.55-.34,2.37,2.37,0,0,0-.34-.26,6.87,6.87,0,0,1,.24-.73,6.35,6.35,0,0,1,1.24,0m2.14-.17s.21.13.2.16a1.34,1.34,0,0,1-.22.36c-.12-.13-.25-.23-.23-.26a.63.63,0,0,1,.25-.26m.3-.72-.29,0c0-.24,0-.49-.08-.88.55.29.59.54.37.85m1.57,7.93-.08-.1c-.29-.37-.55-.76-.82-1.15.05-.09.12-.18.19-.29.81.33.62,1,.71,1.54m5.91,4.83c-.12.45-.2.8-.3,1.19-.68-.66-.67-.71.3-1.19m1.45,1.45a2.31,2.31,0,0,0,.27-1.81v0l.95.17-1,1.41c1.82-1.17,1.82-1.17,2.31-1-2,1.48-2.09,1.58-2.19,2.39,1.3.12,2.29-.22,2.69-1.63.09-.32.45-.57.74-.9l.53.47c0,.32-.06.63-.08.95a2.37,2.37,0,0,1-.87-.14c-.08,1,0,1.1.77,1h0c0,.42,0,.84,0,1.26a2.12,2.12,0,0,1-.56,0l-.22,0A1.08,1.08,0,0,0,55.19,30a2.36,2.36,0,0,0,.19.39c-.24.11-.37.37-.56.89a5.49,5.49,0,0,0-1.58-1.15c-.13-.06-.21-.25-.32-.38a10.1,10.1,0,0,0-.68-.77c0-.08,0-.16,0-.25a6.81,6.81,0,0,0,.86-.55m3-2.84-.83.82c.18-.65.18-.65.83-.82m1.31,0c.06.63-.26.78-.81.62l.81-.62m2.49-2.57c-.49,1-.71,1.19-2.07,1.56.15-1.4,1.25-1.11,2.07-1.56m.79,4.71h0c-.28.93-.37,1.06-.79.85a2.68,2.68,0,0,0-1.49-.22,11.19,11.19,0,0,1,.05-1.64c.25,1.59,1.43.79,2.22,1m8.07.51,0,.08-1,.73a.32.32,0,0,0-.12.18c0,.09,0,.23,0,.27s.28.11.32.07a1.47,1.47,0,0,1,.85-.38l0,0a1.17,1.17,0,0,1-1.69.26,6.1,6.1,0,0,1,.8-1.2c.17-.16.79-.15.83-.05m.32-1.42a1,1,0,0,0,.35-.14l-.33.2s0,0,0-.06m.43-.19a2.79,2.79,0,0,1,.8-.47l-.8.47m.7,2.42a.71.71,0,0,1-.11.21c0-.19,0-.36,0-.53h0c.08.06.16.24.12.32m16,6.36c0,.27,0,.52,0,.76a.78.78,0,0,1-.41.14h-.27a1.47,1.47,0,0,0-.33-.51l1-.38m4.22,2,.16.32c0,.17,0,.36,0,.53l0,0,0-.12s0-.12,0-.29a2.58,2.58,0,0,0-.67-.31,4.31,4.31,0,0,1,.59-.16m-.2,10.59c-.42.13-.82.3-1.24.41h0c0-.19,0-.37,0-.56a5.94,5.94,0,0,1,1.53-.44c-.07.21-.17.42-.23.59M68.59,92l.25.16v0h0l.23.14a1,1,0,0,1-.08.11l-.48-.35a.56.56,0,0,0,0-.08m-6-6.29a1.63,1.63,0,0,1,.44-.15c0,.11.06.22.11.43a1.39,1.39,0,0,1-.49,0,.46.46,0,0,1-.06-.3m-18.8-1.07a.68.68,0,0,1-.07-.26.84.84,0,0,0,.29-.52.94.94,0,0,1,.42-.12c0,.11,0,.22.05.35a1.79,1.79,0,0,1,.25-.31h0a1.09,1.09,0,0,0,.24-.33,2.35,2.35,0,0,1,.45-.3c0,.18,0,.37,0,.57l.89.35c0-.44.06-.8.08-1.17a2.08,2.08,0,0,1-.59,0l0,0a1.3,1.3,0,0,0,.44-.53,5.87,5.87,0,0,0,.32-1.93c.21.9.43,1.81.65,2.76.32.16.75-.53.9.1s-.59.34-.8.63c-.19,1.21-.19,1.21-.88,1.34,0,.11-.07.21-.1.31-.51-.09-1-.43-1.5,0-.18-.13-.39-.32-.43-.29l-.23.2a6.8,6.8,0,0,0-.38-.89m-2.65,0a.2.2,0,0,1,.14.14s-.09.13-.12.12-.11-.08-.19-.15c.07,0,.13-.12.17-.11M35.39,81v.77h-.11c0-.27,0-.53,0-.8l.12,0m-19-31.2v0a1.3,1.3,0,0,0,.08.17l-.13-.06a.57.57,0,0,1,0-.14m.68-1.44v0a.33.33,0,0,1-.27,0,.49.49,0,0,1-.06-.17l.34.11m9.08-12.14a.71.71,0,0,0-.3.1.67.67,0,0,1-.22-.26,1.37,1.37,0,0,0,.26-.31l.26.47m23.74-7.14a.55.55,0,0,0-.2-.17c0-.14.05-.28.07-.41a.81.81,0,0,1,.13.58M53,32.14l-.1.18-1.45-1.15-.28.14a.66.66,0,0,0-.27-.48.43.43,0,0,0,0-.11l.1,0a.25.25,0,0,0,0,.18.53.53,0,0,0,.83.11l.17.15-.12.05c.17.11.24.2.31.19h.05a6.22,6.22,0,0,1,.63.73l.13,0m1.09.6L54,32.8l-.29-.14c0-.08.12-.17.18-.25a1.22,1.22,0,0,1,.28.14.13.13,0,0,1,.07.06.47.47,0,0,1-.15.13m3,.37c0,.1,0,.2,0,.3l-.24-.16a6.55,6.55,0,0,1-.81-.67c.07-.12.14-.24.22-.36l.82.89m1.31-3.41v-.84a2,2,0,0,1,1,.17l-1,.67M84.7,35.23l.09.52-.69,0a2.23,2.23,0,0,0,.6-.48m-.21,1.19-.34,0,0-.06c-.06-.11-.11-.22-.16-.33h.2l.66-.12a.07.07,0,0,1,0,0c0,.12,0,.25.07.38a2.14,2.14,0,0,0-.38.23m3.42.9h0l.08,0,0,0M88,38.43a3.15,3.15,0,0,1,.41-.65l0,0a.93.93,0,0,1,.55.45l.08.1c-.36-.3-.71-.13-1.07.13M72.49,87.57l-.42-.16c0-.43,0-.86-.08-1.29a1.4,1.4,0,0,1,.5,1.45M53.43,77.36a.41.41,0,0,1,.12-.18c0,.15,0,.3,0,.44l-.07,0a.25.25,0,0,1-.09-.31m-5,16.31.48-.1a1.3,1.3,0,0,1-.18.35,1.11,1.11,0,0,1-.3-.25M34.56,79.46a2.25,2.25,0,0,0-.12.21c0-.34-.28-.64,0-1,0,0,0,0,0,0h0V78.6l-.06-.16a2.58,2.58,0,0,1,.43.07l-.37.14v0h0l.24.5c.07.14.1.26,0,.37l-.1-.09M16.83,50.76l0,.1a1.25,1.25,0,0,1-.39-.26l.36.16M46.89,32.44l-.06,0c0-.18.07-.37.11-.57l.12.25-.17.35m6.53.71s0,0,0,0l.06,0,0,0m7.26-.8a8.62,8.62,0,0,1,.19-1.14c.05-.19.24-.33.36-.49.16.19.47.39.46.57a1.12,1.12,0,0,1-1,1.06M50.47,77.49a1.31,1.31,0,0,1,.25-.22c.41.57.09.88-.18,1.29-.34-.39-.22-.69-.07-1.07m-15.1,1.36a.55.55,0,0,0-.1-.11l.11.08v0m-.07.59s.09.07.16.13-.13.14-.17.14-.13-.09-.12-.13a.17.17,0,0,1,.13-.14m-2.21.06c.12-.17.22-.33.32-.49a1.45,1.45,0,0,1-.21.59.52.52,0,0,0-.11-.1m9-49.75.07,0v.09l-.07-.11m1,2.59c-.22-.21-.44-.43-.64-.66a.6.6,0,0,1,.67.49.55.55,0,0,1,0,.17m-4.7-2.92.18,0a.76.76,0,0,0,.38.61,2.93,2.93,0,0,1,.05.29,1.55,1.55,0,0,1-.61-.95M26.36,62.85a2.58,2.58,0,0,1-.29,0,.08.08,0,0,0,0,0l.64-.1-.34.11m.41.18.07,0-.52.22a.68.68,0,0,1-.12-.12c.2,0,.38-.14.57-.15M48.87,31l-.38-.05v-.35a1.75,1.75,0,0,1,.41.09s0,.2,0,.31m-7.26-.59-.43,0A.69.69,0,0,1,41.3,30a1.79,1.79,0,0,1,.31.36M18.2,50.08a.17.17,0,0,0,0,.05l-.26.1a.36.36,0,0,1,.16-.18.15.15,0,0,1,.12,0M42.32,28.19a1.23,1.23,0,0,0-.93.62,2,2,0,0,0-.39-1c0-.09,0-.19,0-.3l.47.37c0-.09.07-.17.11-.25a5.53,5.53,0,0,0,.7.58m-9.19,3a.74.74,0,0,1,0-.19l.26.08.11.12-.07.12a1.75,1.75,0,0,1-.32-.12h0M42.05,85h-.14c0-.21,0-.42-.08-.63l.18,0c0,.21,0,.43,0,.64m6.85,8.28-.5-.51c.29.15.47.3.5.51m4.32-17v-.06c.17-.15.22-.26.13-.43a.76.76,0,0,0,.5-.24s.12.05.25.13c-.24.23-.58.37-.88.6m34.61-8.79-.18.14-.33-.46.2-.16h0c.11.16.21.32.31.48M56.24,34.3c0,.27,0,.54.08.87.58-.41.63-.45.12-.78.62.31.71.68.33,1.32l-.3,0h0l-1.17-1a.87.87,0,0,0,.14-.29l-.39.07,0,0c.08-.14.18-.29.28-.47a7.78,7.78,0,0,1,1,.3M52,32.57a.25.25,0,0,0,.1-.12c.4.22.81.41,1.22.6l-.41.32a1,1,0,0,1-.93-.8h0m-6.35-1.19c.07.16.13.31.2.51l-.15-.1,0,0h0l-.28-.18.29-.2m-7.73,53c-.14,0-.22,0-.27,0h0l.21-.14a.83.83,0,0,0,.07.13m9.63,8a.25.25,0,0,1-.18.22c0-.14-.08-.27-.13-.4a.47.47,0,0,1,.31.18m-.18-3.35V90c-.62-.28-.31-.49,0-.87M90.63,56.29l0,0a.06.06,0,0,1,0,0h0M34.27,24.18v0a.81.81,0,0,1-.22,0l.22,0M45.1,95h-.18v-.39l.12,0,.06.4m1.42-.47a2.4,2.4,0,0,0-.23-.21.88.88,0,0,0,.8-.88.57.57,0,0,1,.19-.3l.36-.31a.66.66,0,0,0,0,.14c.28,1.09.28,1.09-.71,1.44l-.41.12m24.65-.87c0,.09,0,.16,0,.24l-.21-.32a.94.94,0,0,0,.1-.1l.4.3-.25-.12m4.26-9c.29,1.22,1.94,1.39,2.17,2.74l-1.88,0c-.2-.83-.42-1.71-.64-2.6l.35-.1m3.36,1.88a.72.72,0,0,1,.07.54,2.83,2.83,0,0,1-.77.28c-.06-.22-.13-.45-.23-.82a4.09,4.09,0,0,1,.93,0m-27.17,5.8c.07,0,.13.11.19.17s-.16.14-.24.14-.14-.09-.27-.17c.15-.07.24-.15.32-.14m1.82,5.24.53.25s-.07.17-.08.17l-.55-.2a2.14,2.14,0,0,0,.1-.22m2.34,1.77L55.28,98c.8.5.8.5.5,1.37m1.08,1.06c.06.38.1.67.18,1.15l-.86-.69.68-.46M9.37,74.27c-.43-.48-.4-.76,0-.86.08,0,.29.13.29.14-.09.25-.2.48-.31.72m-1-3.73-.19,0L7.87,70,8,69.81c.14.1.33.16.41.29s0,.29,0,.44m-1.5-5c-.15.44-.54.43-1,.13.15-.29.31-.57.52-1,.18.32.5.65.43.84m-1.62-.28H4.9c0-.44.07-.87.13-1.53.73.65.32,1.1.26,1.53M29.13,20l-.62-.32.17-.25.55.4-.1.17M97.4,56.81s-.11-.07-.13-.12a1.8,1.8,0,0,0-.54-.84,1.41,1.41,0,0,0,.46,0s.08-.29,0-.31a.83.83,0,0,0-.41-.1s-.06.2-.11.39a8,8,0,0,0-.89-.64c-.69-.46-1.42-.87-2.14-1.29a.34.34,0,0,0-.26,0c-.12,0-.28.08-.3.16s0,.37.08.4c.83.28.94,1.41,1.86,1.59.08,0,.18.27.15.39a.46.46,0,0,1-.31.3,1,1,0,0,1-.6-.15c-.36-.31-.67-.68-1-1a4.3,4.3,0,0,1-1.4,0,11.63,11.63,0,0,1-1.47-.7,5.4,5.4,0,0,0,.3-.49c.41-.8.38-.91-.28-1.58-.26-.25-.49-.53-.72-.8a2.25,2.25,0,0,0,.4-.21,2.34,2.34,0,0,0-.3-.25,1.85,1.85,0,0,1,.62-.39.67.67,0,0,0,.39.07,1.82,1.82,0,0,1,1.55.59.71.71,0,0,0,.42.19c.54,0,.78.39,1,.87a1,1,0,0,0,.92.74c.32-.57-.46-.73-.32-1.31l1.26.59c-.24-.5-.41-.79-.81-.91a.73.73,0,0,1-.4-.33c-.26-.59-.49-1.2-.74-1.8a5.06,5.06,0,0,0-.29-.53l-.84.46.63.63c-.43.11-.79.22-1.15.29a.32.32,0,0,0-.06-.22c-.32-.61-.3-1.31-.58-1.94l0,0c-.09-.32-.1-.7-.28-.89a2.53,2.53,0,0,1-.41-.55,2.83,2.83,0,0,0,.43-.2c-.13-.48-.44-.92-.26-1.33l0-.07h0a1,1,0,0,1,.26-.28c-.67-.27-.79-.32-1.41,0s-1,.37-1.52.63a1.58,1.58,0,0,1-.56-.2s0,.06-.08.2a3,3,0,0,1,.36.18,1.58,1.58,0,0,0-.5.65l-1-.35c.47-.25.86-.32.92-.5.25-.73.77-.76,1.39-.72.25,0,.5-.08.53-.26l.09.05c0-.36,0-.7-.06-1a1.56,1.56,0,0,0,.31-.39.92.92,0,0,0-.34-.18l0-.54a2.9,2.9,0,0,0,.82-.3v0l.31,0v-.08l-.12,0a3.59,3.59,0,0,1,2.14-.71.56.56,0,0,0,.56-.82,5.39,5.39,0,0,0-1.44-.21,11,11,0,0,0-2,.45c-.2-.08-.41-.15-.63-.22.18-.15.36-.3.53-.46.34-.31.63-.48,1-.15l.11-.06.32.52c.23-.37.23-.6-.24-.57l.81-.49c-.23-.65-.58.08-.87-.12a.64.64,0,0,0-.06-.1,6.19,6.19,0,0,1,1.28-.1c0-.69,0-1.26,0-1.94l2.89-.12c.14-.67-.38-1-.69-1.42s-.59-.44-1-.05a1.82,1.82,0,0,1-1.52.58v-.13a6.29,6.29,0,0,0,0-.63,5.49,5.49,0,0,0-.45.61,4,4,0,0,1-.64-.37l-.08,0,0-.06,0,0a1.34,1.34,0,0,0-.54-.13h-.26a5.11,5.11,0,0,0,.49-.34,1.18,1.18,0,0,0-1.12.05c-.12.08-.25.17-.24.31h-.19c.05-.16.09-.32.13-.51a.78.78,0,0,0,.24-.47l-.14,0,.06-.4-.29-.23c.05-.18.07-.38.13-.71l-.5.4-.61-.51.38-.26c.54-.39.59-.58.21-1.08-.21-.28-.45-.54-.68-.8a.68.68,0,0,1-.13-.93.56.56,0,0,0-.5-.86,1.85,1.85,0,0,0-1.05.37c-.56.49-1,1.07-1.53,1.6l1.65-.38c.08.66,0,.71-1,.85-.23.59-.25,1.11.41,1.45l.4-.41c.07.22.13.43.19.64h0l0,0c.11.35.2.67.3,1a.71.71,0,0,1-.57.34,2.39,2.39,0,0,0-1.14-1,.47.47,0,0,0,.07-.17c0-.06-.2-.22-.23-.2a.75.75,0,0,0-.21.2l-.54-.23a1.28,1.28,0,0,0-.55-.1,1.64,1.64,0,0,0-.15-1.13l.8-.67a1.89,1.89,0,0,0-1.27-.84,1,1,0,0,0-1.34.74c0,.08.09.2.17.37.64-.65,1.26-.72,1.56-.23,0,.13,0,.26,0,.47l-.13-.13L80.89,32c-.48-1.34-.48-1.34,1.31-2.13.06-.41.11-.79.17-1.26a7.8,7.8,0,0,0-.64-.92.65.65,0,0,0-.58-.06c-.11,0-.19.33-.16.48a3,3,0,0,0,.36.72,3,3,0,0,1-2.55-.17c.19-.42.48-.85-.12-1.18-.35.16-.82.13-.89.7,0,.38-.39.43-.66.39a1.6,1.6,0,0,0-.7.07,2.58,2.58,0,0,1,1.3-.92c-.13-.26-.23-.46-.36-.74-.17.18-.26.29-.37.39-.31.28-.41.93-1.07.62,0,0-.14.06-.18.11-.3.39-.74.43-1.23.58.06-.29.11-.51.16-.74-.38-.28-.71-.72-1.1-.77a5.06,5.06,0,0,0-1.54.3c.44-.2.35-.63.43-1,0-.17.22-.41.36-.43.45-.05.62-.43.94-.66l-.26-.44c-.48.42-1.08.54-1.39,1.11-.23.42-.88.47-1,1a.15.15,0,0,1-.13.06,2.39,2.39,0,0,0-1.56.58l-.21.14a.52.52,0,0,1-.18-.24.68.68,0,0,0,.34-.42L69.28,27l.35-.32a7.46,7.46,0,0,1,.9-.55l-.09-.23a.74.74,0,0,1,.38.15l.86-.48c-.43-.51-.79-.54-3.19-.18l.76.72a4,4,0,0,0-1,.93,3.33,3.33,0,0,1-.94.24l.32-.28a1.15,1.15,0,0,0-.89.26A3,3,0,0,1,65.8,27q.15-.31.3-.66c.52.1.6,0,.62-.49a.46.46,0,0,1-.46.14l.35-.76a2.12,2.12,0,0,1-1.41.23,2,2,0,0,0-.11-.66c-.47-.41-.63.21-1,.19h-.09a7.26,7.26,0,0,0-1.12-.55l.13.42a.65.65,0,0,0-.07.34l-1.73.13a1.75,1.75,0,0,1,1-1.44,19.92,19.92,0,0,0,2.56-2c-.66-1.2-1.3-.11-2.14.1l.78-.9-.12-.17-2.08,1.07a3,3,0,0,0-1-.29,7.29,7.29,0,0,0-.38-2.69c1.44-.49,1.44-.49,1.58-1.16a2.7,2.7,0,0,0-.67.1,14,14,0,0,1-2.33,1,6.29,6.29,0,0,0-1.65.56c0-.29,0-.54-.06-.77a1.43,1.43,0,0,0,.74-.35,1,1,0,0,0,.5.18,4.32,4.32,0,0,1,.16-1.12,6.12,6.12,0,0,1,.7-1.07c.39.39.24,1,.92,1.11-.05-.82-.1-1.58-.16-2.42L61,14.24a1.16,1.16,0,0,0-1.74.1c-.5-.95-.67-1-1.23-.2l-.37.49-1-.84c-.28.73-.55,1.36-.77,2a.47.47,0,0,0,.2.43c.63.22.69.81.9,1.3-.26-.17-.48-.4-.73-.58a2,2,0,0,0-1.3-.16,4.74,4.74,0,0,0-.28-.69c-.12-.23-.54-.07-.52.21a6.59,6.59,0,0,0,.1.76.21.21,0,0,0-.06.08,5.5,5.5,0,0,0-.38.77,1.81,1.81,0,0,0,0-.86c-.25-.62-.38-1.1.33-1.52.29-.17.26-1.08,0-1.38a.68.68,0,0,0-1-.18c-.13.09-.44-.06-.65-.15-.55-.21-1,0-.92.55.06.77-.47,1.59.15,2.34a.39.39,0,0,1,0,.3c-.19.61.24.7.63.85.28-.22.53-.4.84-.65l.31.81h.24a10.73,10.73,0,0,0-.59,2.75C55,20.57,55.32,19.2,55.91,18a1.75,1.75,0,0,0,.33.45c-.46.43-.53.67-.32,1a.93.93,0,0,0,.48.24c-.49.28-1,.59-1.44.91s-.65.92-.92,1.66l5.66-2.6a10.85,10.85,0,0,0-.05,2l-.27,0a2.11,2.11,0,0,0-.68,0,.5.5,0,0,1,0-.13l-.1.17a1.62,1.62,0,0,0-.92,1c-.19.45-.43.88-.61,1.24a6.2,6.2,0,0,0-1.62-.44A4.83,4.83,0,0,0,52.5,25a.74.74,0,0,0,.15,1.09,2.74,2.74,0,0,1-.5.08c-.07-.42-.13-.83-.2-1.24a2,2,0,0,0-.65-1.07,5.67,5.67,0,0,1,1.13-.3,1,1,0,0,0,.86-1.24c-3,.95-4.25,1.67-4.54,2.72.14,0,.31.1.4,0a13.12,13.12,0,0,1,1.46-.91,2.8,2.8,0,0,0,.45.46.75.75,0,0,1,.25.94.69.69,0,0,1-.16.21c-.19-.24-.36-.44-.53-.64a1.41,1.41,0,0,0-.35.8c0,.46,0,.93,0,1.4l-.12-.12c-.36-.38-.92-.62-1.27-1A1.14,1.14,0,0,1,49,26l-.17.12a1.24,1.24,0,0,1-.24-.84c0-.08-.21-.15-.29-.25-.28-.31-.56-.62-.82-1h0a.64.64,0,0,0,0-.58l-.24.23-.72-.88,0-.06a2.69,2.69,0,0,0-.56-2.41q-.2-.28-.42-.57l.28.11,1.09-.61c-.5-.25-.86-.54-1.26-.2-.13.12-.08.46-.11.7l-.2-.24c.05-.06.1-.13.16-.19-.47-.47-1-.9-1.4-1.33a1,1,0,0,1-.12-.32c-.1-.73-.33-1.54.46-2.13a2.31,2.31,0,0,0,.62-.85c.29-.62.78-.74,1.46-.71a12.31,12.31,0,0,0,.44,1.53c.2.44.12,1.17.93,1.19-.06-2.41-1-4.26-2.23-4.32-.44.24.29,1.19-.69,1.1-.07-.43-.13-.83-.22-1.4-.54.36-1,.93-1.56.58a13.51,13.51,0,0,1-1.43-1.16l-.54,1.29c-.83-.47-.12-1.42-.67-2.1l-.79.48a11.63,11.63,0,0,0-1.66-1.13c-.92-.45-1.9-.78-2.25-1.9-.69.15-1.26.19-1.56-.56a.7.7,0,0,0-.52-.32,8.46,8.46,0,0,0-1.67,0,.66.66,0,0,0-.32.56,5.65,5.65,0,0,1,.42,2.53c0,.09.11.18.14.28s.15.37.09.5a.91.91,0,0,0-.09.37l-.43-.08c0,.14,0,.29,0,.44l.57.05c.08.17.19.32.29.49a2.62,2.62,0,0,1,.37.75c0,.15.07.3.1.44l-.09.05c.06.45.12.93.18,1.4l-.29.13a11.51,11.51,0,0,0-1-1.27,2.92,2.92,0,0,0-1.24-.83,1.37,1.37,0,0,0-1.07.55,1.31,1.31,0,0,0,.19,1.69c.33.37.69.71,1.13,1.16a1.07,1.07,0,0,1-1.58-.5c-.23-.35-.34-.83-1.11-.65.36,1.36,1.47,2.34,1.79,3.92-1.56-.7-2.91-1.77-4.62-1.15a7.2,7.2,0,0,1,3.18,2.56,10.53,10.53,0,0,0,1.18,1.4,2.1,2.1,0,0,0,1,.61c.32.06.68-.18,1.09-.31.2,1,.65,1.89,0,2.88-.15.22,0,.72.15,1.05a11.52,11.52,0,0,0,.71,1.29c-.29,0-.43,0-.44-.06-.62-1.58-2.42-1-3.42-1.82-.05,0-.17,0-.25,0a2.19,2.19,0,0,0-1.25,2.62,6.4,6.4,0,0,0,.43,1.08.79.79,0,0,0-.31-.08c-.26,0-.29.13-.22.32s.22.3.36.36.35-.09.37-.18v-.05a20.59,20.59,0,0,0,1.16,1.71l.33,0-.27,0c.38.29.94.12,1,.71l-.72.45-.8-.24a6.25,6.25,0,0,1-.44.74,2.65,2.65,0,0,1-.37-.55c-.27-.52-.6-.55-1.07-.33l-.31.14-.17-.09c-.35-.17-.66-.4-1.07-.65,0,.2-.06.41,0,.46a6.54,6.54,0,0,0,.71.5l-1,.41-.52.7c-.86-1.71-1.05-1.46-2.07-.82l-.3-.28c-.15-.27-.24-.37-.37-.33l-.87-.8c.06-.39.12-.8.18-1.21.95,0,.95,0,1.61-.62,1,.06,1.42,1.26,2.45,1.29a.79.79,0,0,0-.4-1.05,4,4,0,0,1-.85-.78.73.73,0,0,0,.31-.3c-.25-.22-.44-.25-.62-.17a4.3,4.3,0,0,1-.26-.69c-.22-.85-1-1.23-1.88-1.61-.07.53-.11.89-.16,1.29l-2.35-.48c0,.45-.09.82-.12,1.12l-2.34.72-1.08-.79-.95,1.74-2.1-.67c-.33,1.05-.61,1.94-.91,2.87L10,31.85c-1.26,1-1.4,2.51-2.2,3.66A6,6,0,0,1,6.4,37.32c-.65.43-1.31.85-1.95,1.29s-.72,1-.32,1.32c1.19,1,1.94,2.48,3.46,3.13l.27.13a2.34,2.34,0,0,0,1.8,1.18l.07,0c-.15.5-.26.9-.39,1.32l.92.14-.64.53,1.56,1.38c-.44.57-1.28,0-1.54.79a3.63,3.63,0,0,0,1.94.47,1.92,1.92,0,0,1-.29.14l-2.54,1.1-.64-.67c-.62,0-1.07,0-1.51-.1-.7-.1-.78,0-.94.76,0,.23-.11.6-.26.66a9.1,9.1,0,0,1-2.92,1A2.25,2.25,0,0,0,0,54.13a2,2,0,0,0,1.67,2.26l-.85.78c.5.78,1,1.5,1.43,2.25.1.58.24,1.23.31,1.89a4.38,4.38,0,0,1,0,1.73,2,2,0,0,0,.07,1.46c.37.89.78,1.78,1.2,2.65.08.18.25.43.41.45.68.07.71.62.89,1.08s.19.85.87.78c0-.38-.1-.72-.15-1a7.1,7.1,0,0,1,1.23,3.28,11.45,11.45,0,0,0,.67,2.82c.24.81.57,1.58,1.61,1.62.11,0,.22.17.34.28.18-.3.31-.49.45-.72.72,1,.23,1.4-.66,1.66l.8.69c-.44.49-1,.95-.22,1.65.19-.3.36-.57.52-.84l1.55-.22c.46.85-.82,2.29,1,2.49,0,.41,0,.82,0,1.12a6.07,6.07,0,0,0-1.29.94c-.28.32-.78.71-.32,1.41a6,6,0,0,0,1.77-1.93,1.46,1.46,0,0,1,1.42,1.13,8.06,8.06,0,0,0,1.15,2.78c.49,1,1.09,2,2.49,1.74.12.6.19,1.1.32,1.59a3.2,3.2,0,0,0,2.8,2.66c.78.12,1.27-.34,1.89-.53a1.63,1.63,0,0,0,.94-1,1.08,1.08,0,0,1,0,.73,4.26,4.26,0,0,1-1,1.43c-.37.37-.43.38-.11.75a1.6,1.6,0,0,1,.31.47c.13.43.23.88.35,1.36l1.43-.13c.22.18.38.42.56.43s.4-.18.59-.27A1.92,1.92,0,0,1,27,97.28c0,.2,0,.42.31.42s.32-.14.38-.36a9.14,9.14,0,0,0,.43-1c.09-.4.5-.49.68-.82.05.33.09.66.15,1l.74-.38c.09.42.17.77.25,1.15.38-.16.46-.44.23-.7s-.22-.65.07-1.07a1.74,1.74,0,0,0,.63.84c.63.58.6.61,1.14,0a3.08,3.08,0,0,1,.27-.24l.58.35c.3-.24.55-.56,1-.45l.1.67.34-.38c0,.37,0,.63,0,.89.18.13.37.27.57.4l.35-.68c.4.64.66.24,1-.15.12.38.2.65.28.92a1,1,0,0,0,.81-.6c0-.06.16-.09.26-.15l.19.49a.49.49,0,0,1,.79-.13,1.33,1.33,0,0,0,1.15.2c.23-.3.26-.75.78-.78.05.28.09.53.13.77l.41-.18.16.51.57-.23c.06-.48.1-.85.15-1.22h0v0c-.2-.07-.33-.18-.14-.58.06.27.1.43.14.58h0c.09,0,.22-.1.25-.07a.8.8,0,0,0,1.17.09l.69.46h-.21a3.14,3.14,0,0,1,.1,1.1,4.12,4.12,0,0,1-.63,1c-.12.81.92,1.34.61,2.26,0,0,.2.15.29.25a1,1,0,0,1,.2,1.44,10.78,10.78,0,0,1-.72.95c.35.21.62.36.88.53a1,1,0,0,0,1.29-.09c.41-.32.26-.75,0-1.15s-.33-.6-.59-1.08c1.1.09,1.63-.85,2.67-.77.85.07,1.74-.34,2.65-.14.27.27.08.84.7,1,.07-.47.13-.88.2-1.32l.75.2c.19-.23.33-.41.47-.6l.72.32a5.47,5.47,0,0,1,.17-1.17c.05-.13.44-.23.62-.17s.27.47.19.57a1.54,1.54,0,0,0-.25,1.1c.06.59,0,1.19,0,1.79,0,.33-.06.72.48.88a5.44,5.44,0,0,0,0-3.12c.89-.39.52.9,1.16.74.07.44.14.88.22,1.44l.91.57.2-1.3a1,1,0,0,0,.32.07,1.33,1.33,0,0,0,.36-.13c-.47-.65-.12-1.32-.08-2l-.95-.21a6.26,6.26,0,0,1-.49-2.83c.17-.91-.45-1.26-1.32-.91l-.69.24c.11-.36.11-.64.24-.73.69-.5.7-.49.47-1.24-.1-.33-.18-.66-.27-1h0v0c-.37.35-.74.62-.69,1.28a7.33,7.33,0,0,1-.38,1.85A10.58,10.58,0,0,1,52.88,95c-.21-.58.21-1,.6-1.33-.61-.73-.61-.73-.21-1.42.78-.1,1.09.49,1.45,1l0,0a.06.06,0,0,1,0,0l.38,0c0-.61,0-1.16-.05-1.71a2.48,2.48,0,0,0-.71-1.82c-.18-.14-.43-.43-.38-.57.25-.76-.23-1.31-.5-2L54.6,86c-.22-.35-.36-.59-.52-.81s-1.23-.58-1.41-.35c-.41.54-1.24.75-1.24,1.62,0,.13-.16.25-.28.44-.19-.69-.35-1.26-.55-2a1.12,1.12,0,0,0-.12-1.55l-.59.18a.65.65,0,0,0-.1-.15c0-.47.06-.87.09-1.29l.9-.6c1,.24.19,1.07.6,1.54.84-.5,1.64-1,2.45-1.49.54.61-.3.85-.57,1.34l1,.18a2.93,2.93,0,0,0-.79-2.8c.87-.34.86-.34.76-1.11,0-.21.06-.43,0-.63a.35.35,0,0,0,0-.13l.32.14c0-.22.08-.42.11-.61h0c.13,1.39-.13,2.86.76,4.19.21-.46.34-.75.52-1.13.27.42.48.76.7,1.09l1.18-.39c-.17.75-.17.75-.73,1-.83.39-.86.49-.36,1.57l.66-1H58c.13-.42.24-.78.38-1.21.38.18.75.45,1,0l.06-.12a.81.81,0,0,0,.17.23,3.13,3.13,0,0,1,1,2.21s0,.06,0,.09a.88.88,0,0,0-.63-.22,1.38,1.38,0,0,1-1.25-.34,5.08,5.08,0,0,0-.67-.28c-.76.77.11,1.61-.32,2.32l.31.2a2.2,2.2,0,0,1-1.33,2.46c.06.72.11,1.32.17,2-1-.1-.79.53-.87,1.19.38-.3.62-.62.91-.68.55-.12.59-.5.74-.91s0-.87.64-1.14c0,.88,0,1.67,0,2.46l.77.1c.08.8.16,1.56.23,2.32a6.72,6.72,0,0,0,1.62,3.25c.6,0,.72.54,1,.91h1.58a7.81,7.81,0,0,0-.35-1A2,2,0,0,1,63,95.21a1,1,0,0,0-.44-1.31l-.87.69c.18-1,1-1.9-.21-2.56,1-1.32-.07-2.59-.07-3.88l1,.4c-.13.9.64,1.59.57,2.49.83.36,1-.57,1.55-.87.26.45.49.87.76,1.37-.21.27-.48.54-.69.86s-.57.85-.26,1.46a3.78,3.78,0,0,1,.11,1.33c.76.14,1,0,.89-.8-.07-.42-.25-.82-.32-1.24a1.8,1.8,0,0,1,.09-.59c.18.52.15,1,.34,1.48a18.15,18.15,0,0,1,1.14,3.74,1.52,1.52,0,0,0,.23.59A3.29,3.29,0,0,1,67,99.72c0,.14,0,.33-.06.41a1,1,0,0,1-.41.2c.06.35.11.7.19,1.2l.44-.7c.28.91,1,.58,1.56.76.18-.35.32-.63.47-1,1.11.26,1.07-.88,1.7-1.41a3.75,3.75,0,0,1,.74.45c.77.77.83.78,1.51.11-.06-.35-.1-.59-.13-.84-.52,0-.78-.18-.61-.77.08-.29,0-.62.11-.92a4.6,4.6,0,0,1,.52-1.54,2.37,2.37,0,0,0,0-2.65c0-.13-.08-.28-.14-.46-.27-.82-.26-1.5.6-2-.31-.38-.54-.68-.84-1l1.08-1.46-.61-.75.19-.12,1.54,1.32-1.29.6,1.3,1.2c.51-.1,1.24,0,1.71-.66.11-.17.47-.23.73-.25.81,0,1.71.13,1.78-1.1,0,0,.14-.1.21-.14l2.26-1.32c-.54-.82-1.15-1.69.07-2.52l-.94-.81h-.06c-.58.93-.72,1-1.58.52a26.56,26.56,0,0,1-2.62-1.45,27.41,27.41,0,0,1-2.24-2c.47-.4.83-.69,1.17-1a20.18,20.18,0,0,0,1.49,2.31A2.87,2.87,0,0,0,80,83.14c.19,0,.47.25.72.41l0,0,0,0a3.38,3.38,0,0,1,.74-.41c1-.31,1.36-1,.74-1.83a3.08,3.08,0,0,0-.3-.33c.46.15.92.3,1.37.48a5.86,5.86,0,0,1,1.41.86c.41.32.71.77,1.11,1.11a3.79,3.79,0,0,0,.93.34c-.13-.56-.21-.91-.29-1.28A3.29,3.29,0,0,1,88.3,83c1,.52,2,1.11,3.11,1.59.53.24.87.48.65,1l1.2.84c.63-.59-.39-.63-.3-1,.06-.07.15-.24.23-.24.48,0,.93-.21,1.44,0a2.39,2.39,0,0,0,1.25,0,6.85,6.85,0,0,0,1.29-.46,7.36,7.36,0,0,0,.7-.35c-.67-.18-1.12-.39-1.59,0-.08.07-.27.14-.33.1-.5-.37-1,0-1.38.09-.53-.21-.39-1-1-1.07-.05,0-.15-.24-.11-.33.26-.65-.14-1-.65-1.29a4.33,4.33,0,0,1,1,.14,7,7,0,0,1,.82.41c.21-.31.8-.5.53-.92a5.57,5.57,0,0,1-1.24-.35,6.44,6.44,0,0,1-1-.87l.66-.2-.42-.4c.82,0,1.66-.45,2.14.52a.44.44,0,0,0,.73,0,5,5,0,0,0,.54-.72L95.9,79l-.3.87-.68-.55c.11-.18.2-.31.26-.42-.31-.26-.71-.43-.79-.7A2.13,2.13,0,0,0,93,76.79l.24-.34.3-.36c0,.08.07.16.11.23.16.23.31.47.46.7l.13-.08c-.2-.52-.39-1-.6-1.59,1.14-.06,1.3.1,1.19,1.12l-.06.37a.61.61,0,0,0,.54.81c1.21-.92,1-2.27,1-3.51a1.66,1.66,0,0,0-1-1.52L95,73l-.14-.08c.1-.43.2-.86.28-1.23.5-.14.64.59,1.07.25a3.27,3.27,0,0,1-.51-1.14c0-.62.74-.39,1.06-.66,0-.52-.24-1,.29-1.4.07,0,0-.24,0-.36l.09-1,1-.09a8.54,8.54,0,0,1-.63-.92,1.38,1.38,0,0,1-.22-.74c.11-.62.31-1.23.47-1.86.9-.18,1.53.41,2.17,1l.67-.78c-.29-.11-.46-.16-.62-.23-.48-.22-1.28,0-1.25-.92,0-.05-.14-.13-.23-.15-.58-.15-.86-.63-1.28-1.12l.93-.19c.14-.58.48-1.18.34-1.65a6.09,6.09,0,0,0-1.13-1.62c.46.4.9.09,1.37,0,.21,0,.58,0,.66.19.29.5.81.51,1.23.76l.39-.53c-.73-.33-1.17-1-2-1-.59-.05-1-.77-1.68-.68" transform="translate(0 0)"/><path class="cls-4" d="M96.28,47.8c-.16-.41-.25-.86-.38-1.3-.87,0-.86.91-1.5,1.12a1.54,1.54,0,0,0-2.13.06,2,2,0,0,0,.43.44c.57.3,1.18.54,1.74.86A2,2,0,0,0,97,48.79c.23-.73-.55-.61-.7-1" transform="translate(0 0)"/><path class="cls-4" d="M95.07,53.58c.41.56.44,1.36,1.33,1.29l.49-.61c.5.72,1.7.71,1.47,1.77l1,.74C99.72,56,99.57,55.6,98,53c-.18.5-.3.84-.45,1.24a3.47,3.47,0,0,0-2.44-.68" transform="translate(0 0)"/><path class="cls-4" d="M97.42,70.24c-.12,0-.2.21-.35.38,1.07.42,1.46,1.09,1.05,1.68l-.86.32,1.34.67a2.37,2.37,0,0,0,.33-1.88,1.19,1.19,0,0,0-1.51-1.17" transform="translate(0 0)"/><path class="cls-4" d="M96.53,80.28c.18.54.5.67,1,.55-.16-.45,0-.68.47-.74a9.52,9.52,0,0,0,1-.22l-1.09-.57-1.39,1" transform="translate(0 0)"/><path class="cls-4" d="M99.78,51.59a1.1,1.1,0,0,0-1.27-.22l2.69,1.34c0-.44,0-.68-.07-1a1,1,0,0,1-1.35-.16" transform="translate(0 0)"/><path class="cls-4" d="M96.84,81.24c-.2-.15-.43-.27-.62,0,.36.69.43.76,1.24,1.22a1.44,1.44,0,0,0-.62-1.25" transform="translate(0 0)"/><path class="cls-4" d="M95.6,50c.19,1.3.29,1.43,1,1.15-.61-.17-.22-1-1-1.15" transform="translate(0 0)"/><path class="cls-4" d="M23.3,32.13l1.38-.49c-.83-.35-1.09-.26-1.38.49" transform="translate(0 0)"/><path class="cls-4" d="M27.18,29.75l0,0s0,0,0,0h0v0" transform="translate(0 0)"/><path class="cls-4" d="M26.48,29.82c.23.35.5.29.7-.07l-.94-.84a3.29,3.29,0,0,0,.24.91" transform="translate(0 0)"/><path class="cls-4" d="M97.93,81.12s0,.1.1.22l.74-.16-.33-.48c-.17.13-.35.27-.51.42" transform="translate(0 0)"/><path class="cls-4" d="M91.88,54c-.08,0-.2.1-.2.15,0,.38.11.6.53.51,0-.52-.08-.68-.33-.66" transform="translate(0 0)"/><path class="cls-4" d="M91.25,46l.33.25c.1-.23.23-.42.19-.47a.93.93,0,0,0-.14-.14c.11-.16.1-.31.05-.7-.09.23-.17.41-.25.6l-.11,0s-.25.28-.22.34a.4.4,0,0,0,.14.15v0l0,0" transform="translate(0 0)"/><path class="cls-4" d="M99,59.91c0,.1,0,.19.07.29.29.23.48.09.6-.25,0,0,0-.09-.12-.2l-.55.16" transform="translate(0 0)"/><path class="cls-4" d="M98,77l-.49-.19-.09.29a4.64,4.64,0,0,0,.51.11S98,77,98,77" transform="translate(0 0)"/><path class="cls-4" d="M97.77,74.69l-.2-.22-.19.17c.06,0,.12.15.19.16s.13-.07.2-.11" transform="translate(0 0)"/><path class="cls-4" d="M95.49,83a1.32,1.32,0,0,0,.08.33c.09-.06.22-.09.25-.16s0-.2-.1-.36c-.11.09-.22.14-.23.19" transform="translate(0 0)"/><path class="cls-4" d="M99.8,65.61a3.42,3.42,0,0,0,0,.46l.25,0-.06-.46a1.62,1.62,0,0,0-.23,0" transform="translate(0 0)"/><path class="cls-4" d="M98.72,64.72l-.15,0c0,.13-.07.25-.11.37l.21.07c0-.14,0-.27,0-.41" transform="translate(0 0)"/><path class="cls-4" d="M97.65,51.84a1.85,1.85,0,0,0,.24-.18,1.32,1.32,0,0,0-.26-.21s-.18.12-.17.15a.72.72,0,0,0,.19.24" transform="translate(0 0)"/><path class="cls-4" d="M23.77,26.31c1.11.67,1.1.63,1,1.89,0,.37-.33.85.25,1.21A15.51,15.51,0,0,0,26,27.34c.1-.27-.15-.71-.35-1s-.71-.44-.74-.68c-.13-1.26-1-1.74-2-2.16l-1.33.44a3.66,3.66,0,0,0,.53,1.12,9.55,9.55,0,0,0,1.65,1.25" transform="translate(0 0)"/><path class="cls-4" d="M24.65,24c.42-.41.67-.87,1.18-.47A17.49,17.49,0,0,1,27.68,25c.53.54.87.39,1.35-.16l-2.25-2.08a7.13,7.13,0,0,1-.93-.89c-.62-.89-.59-.9-2-.64a4.74,4.74,0,0,1,.85,1.2A5.26,5.26,0,0,1,24.65,24" transform="translate(0 0)"/><path class="cls-4" d="M29.25,23.22c0-.21-.07-.43-.12-.76l-.88.1c.07.21.07.54.21.61a2,2,0,0,0,.79,0" transform="translate(0 0)"/><path class="cls-4" d="M23.07,27.07c.12.11.21.26.35.31a1.38,1.38,0,0,0,.5,0c0-.05,0-.12,0-.18l-.72-.39c0,.08-.11.15-.17.23" transform="translate(0 0)"/><path class="cls-4" d="M66.55,100.34h0a8.1,8.1,0,0,0-1.14-3.68.76.76,0,0,0-.23,1.1,3.92,3.92,0,0,1,.44,1.18.81.81,0,0,1-.36.65,1,1,0,0,1-.76,0c-.17-.08-.23-.38-.4-.48-.35-.2-.82-.55-1.1-.45a5,5,0,0,0-1.41,1,1.12,1.12,0,0,0-.21,1.35c.26.67.45,1.36.67,2l2.32-1.11c-.06-.28-.13-.61-.21-.94s-.3-.62,0-1a6.47,6.47,0,0,0,2,2.14,7.07,7.07,0,0,1,0-1.08,3,3,0,0,1,.32-.68h0v0Z" transform="translate(0 0)"/><path class="cls-4" d="M49.57,16.28a2.87,2.87,0,0,1,1,1.51c-1,.82-1,.82-.24,1.74,0-.68.18-1.1.8-1.15.08,0,.27-.46.19-.58a6.08,6.08,0,0,1-.54-2.72c0-.37-.11-.74-.15-1l-2.2-.32c0,.13-.19.38-.13.51a7.66,7.66,0,0,0,1.3,2" transform="translate(0 0)"/><path class="cls-4" d="M57.14,93.26c-.06.41-.1.79-.17,1.16A1.47,1.47,0,0,0,57.74,96c.37.16.75.27,1.25.45,0-.42-.06-.74-.09-1.15l-1.11.47c-.19-.68.3-.9.6-1.21.06-.06,0-.18.1-.35l-1,.15.64-.74-1-.34" transform="translate(0 0)"/><path class="cls-4" d="M48.07,21.82l1,1.32c.27-.41.27-.41-.24-1.54l.5-.3c-.66-.91-.66-1,.15-1.75-.06,0-.12-.12-.17-.11A2.74,2.74,0,0,0,48,21.63a.66.66,0,0,0,.09.19" transform="translate(0 0)"/><path class="cls-4" d="M60.52,16.54c-.07.33-.09.63.42.8.2-.61.38-1.18.57-1.75-.67.09-.86.36-1,.95" transform="translate(0 0)"/><path class="cls-4" d="M55.3,84.75c.51-.43.51-.43.72-1.38-1,.1-1.13.37-.72,1.38" transform="translate(0 0)"/><path class="cls-4" d="M50.4,105.26a2.67,2.67,0,0,0-.5-2.13,2.12,2.12,0,0,0,.5,2.13" transform="translate(0 0)"/><path class="cls-4" d="M76.43,97.88c-.13.44-.25.89-.39,1.35l1.19-.48-.54-1-.26.08" transform="translate(0 0)"/><path class="cls-4" d="M51.72,102.36a2,2,0,0,0-.1.21l1.49.71c-.15-.82-.35-.94-1.39-.92" transform="translate(0 0)"/><path class="cls-4" d="M74.31,90.07c-.62.72-.62.72,0,1.38a1,1,0,0,0,0-1.38" transform="translate(0 0)"/><path class="cls-4" d="M57.46,96.8l.31,1c.53-.23.63-.53.47-.89s-.37-.39-.78-.11" transform="translate(0 0)"/><path class="cls-4" d="M46.42,103.19v.23c.19.06.43.22.54.16.28-.17.8-.25.44-1l-1,.57" transform="translate(0 0)"/><path class="cls-4" d="M74.44,92.47c-.32.59-.46.92,0,1.2.08,0,.28-.08.47-.14l-.45-1.06" transform="translate(0 0)"/><path class="cls-4" d="M45.48,17l.84.72c0-1,0-1-.84-.72" transform="translate(0 0)"/><path class="cls-4" d="M73.23,97.23l-.15,1.66c.62-.47.59-1,.15-1.66" transform="translate(0 0)"/><path class="cls-4" d="M73.08,98.89l0,0h0v0h0v0" transform="translate(0 0)"/><path class="cls-4" d="M74.11,100.16a.69.69,0,0,0,.09-1.09c-.44.35-.39.67-.09,1.09" transform="translate(0 0)"/><path class="cls-4" d="M50.26,22.41l.33,0c0-.28-.06-.56-.08-.83l-.27,0c0,.28,0,.57,0,.85" transform="translate(0 0)"/><path class="cls-4" d="M46.08,15.1c-.09.12-.27.26-.25.36s.21.24.35.29.17-.15.3-.28l-.4-.37" transform="translate(0 0)"/><path class="cls-4" d="M59.28,101.08H59c0,.28-.22.57.22,1,0-.45,0-.73.06-1" transform="translate(0 0)"/><path class="cls-4" d="M59.19,103.3s.1.07.17.13c.33-.21.35-.43-.06-.93-.06.42-.1.61-.11.8" transform="translate(0 0)"/><path class="cls-4" d="M70.52,100.24c-.08.48-.15.84.37,1,.26-.43.08-.68-.37-1" transform="translate(0 0)"/><path class="cls-4" d="M48.25,24.67c0,.06.15.17.23.25l.55-.54c-.27,0-.44-.12-.53-.07a.56.56,0,0,0-.25.36" transform="translate(0 0)"/><path class="cls-4" d="M52.33,103.49c-.07.09-.22.22-.19.27s.19.23.39.43c0-.24.12-.38.09-.46s-.19-.17-.29-.24" transform="translate(0 0)"/><path class="cls-4" d="M59.32,97.21c.13.34.21.58.3.81.2-.37.29-.7-.3-.81" transform="translate(0 0)"/><path class="cls-4" d="M62.82,14.7a1.88,1.88,0,0,0,.31-.32c-.07-.05-.17-.16-.22-.14a2.29,2.29,0,0,0-.42.29c.17.09.29.2.33.17" transform="translate(0 0)"/><path class="cls-4" d="M74.86,94.2c0,.25,0,.48,0,.84.43-.26.42-.49.31-.75,0,0-.12,0-.29-.09" transform="translate(0 0)"/><path class="cls-4" d="M56.25,86.71l.29.1c0-.09.1-.2.08-.28s-.15-.09-.24-.13a3.05,3.05,0,0,1-.13.31" transform="translate(0 0)"/><path class="cls-4" d="M56.28,13.53c-.12,0-.22-.13-.29-.1s-.11.14-.17.22l.31.17c0-.09.09-.17.15-.29" transform="translate(0 0)"/><path class="cls-4" d="M56.81,85.42a.38.38,0,0,0-.23-.16c-.06,0-.13.12-.19.18l.31.28c.06-.15.14-.25.11-.3" transform="translate(0 0)"/><path class="cls-4" d="M60.82,98.71l-.09.21.17,0s.08-.12.07-.15-.1-.07-.15-.1" transform="translate(0 0)"/><path class="cls-4" d="M84.57,29.14a5.76,5.76,0,0,0,1.27-.37c.24-.1.56-.29.62-.5.13-.45.58-.91,0-1.52L83,28.23a1.32,1.32,0,0,0,1.58.91" transform="translate(0 0)"/><path class="cls-4" d="M68.57,22.68a.81.81,0,0,1-.55.93.88.88,0,0,0-.56.86c.64-.54,1.18-1,1.83-1.54l-.72-.25" transform="translate(0 0)"/><path class="cls-4" d="M89.21,34.4c0-.16.06-.33.12-.59l-.46.09c0,.17.09.34.14.51a.77.77,0,0,0,.2,0" transform="translate(0 0)"/><path class="cls-4" d="M74.11,26.35s-.09,0-.19,0,0,.3,0,.45l.23.05c.26-.15.22-.33,0-.52" transform="translate(0 0)"/><path class="cls-4" d="M55.74,34.6a3.09,3.09,0,0,0-.14-.32l-.17,0,.18.33.13-.06" transform="translate(0 0)"/><path class="cls-4" d="M84.28,32.65s0-.12,0-.18l-.22.07c0,.08,0,.14.06.2s.15,0,.18-.09" transform="translate(0 0)"/><path class="cls-4" d="M60.87,32.16c.05,0,.12.07.16.05s.09-.09.17-.19a1.23,1.23,0,0,0-.26,0s0,.07-.07.11" transform="translate(0 0)"/><path class="cls-4" d="M67.29,25.31a.38.38,0,0,0,.23-.06s0-.11,0-.23c-.1.05-.19.07-.23.13s0,.16.05.16" transform="translate(0 0)"/><path class="cls-4" d="M31.92,97v.69h.13V97h-.13" transform="translate(0 0)"/><path class="cls-4" d="M24.78,96.72c.31-.12.49-.21.4-.51-.37,0-.4.17-.4.51" transform="translate(0 0)"/><path class="cls-4" d="M23.53,85.27l-.12,0c-.06.15-.12.31-.17.47l.15.05c.05-.16.1-.32.14-.49" transform="translate(0 0)"/><path class="cls-4" d="M34.27,97.15h0" transform="translate(0 0)"/><path class="cls-4" d="M33.93,97.2s0,.09,0,.14l.23-.09s.06-.07.09-.1a.47.47,0,0,0-.19-.06.27.27,0,0,0-.15.11" transform="translate(0 0)"/><polygon class="cls-3" points="16.37 96.17 16.37 99.66 86.63 99.66 86.65 96.17 16.37 96.17"/><g class="cls-5"><g class="cls-6"><path class="cls-7" d="M21.64,68.77A4.86,4.86,0,0,1,21,66V60.81a3.77,3.77,0,0,1,.74-2.52A2.8,2.8,0,0,1,24,57.43a3.05,3.05,0,0,1,1.84.48,2.41,2.41,0,0,1,.91,1.39A8.76,8.76,0,0,1,27,61.63H24.61V60.56a1.58,1.58,0,0,0-.11-.68.44.44,0,0,0-.43-.23c-.46,0-.69.29-.69.89v5.83a1.92,1.92,0,0,0,.14.82.51.51,0,0,0,.49.28.49.49,0,0,0,.49-.28,1.78,1.78,0,0,0,.14-.82V64.64H24V62.57h2.94v7H26l-.4-1a2.14,2.14,0,0,1-2,1.12,2.19,2.19,0,0,1-1.94-.91" transform="translate(0 0)"/></g></g><g class="cls-5"><g class="cls-8"><path class="cls-7" d="M28.2,68.79a3.69,3.69,0,0,1-.76-2.49V60.57a3.26,3.26,0,0,1,.76-2.35,2.94,2.94,0,0,1,2.21-.79,2.94,2.94,0,0,1,2.21.79,3.26,3.26,0,0,1,.76,2.35V66.3a3.7,3.7,0,0,1-.76,2.5,2.74,2.74,0,0,1-2.21.88,2.71,2.71,0,0,1-2.21-.89m2.64-1.6a2.06,2.06,0,0,0,.12-.78V60.53a1.64,1.64,0,0,0-.11-.64.42.42,0,0,0-.43-.24c-.4,0-.6.3-.6.91v5.86a1.82,1.82,0,0,0,.13.79.47.47,0,0,0,.46.26.41.41,0,0,0,.43-.28" transform="translate(0 0)"/></g></g><g class="cls-5"><g class="cls-9"><path class="cls-7" d="M34.65,68.79a3.74,3.74,0,0,1-.75-2.49V60.57a3.3,3.3,0,0,1,.75-2.35,3,3,0,0,1,2.21-.79,3,3,0,0,1,2.22.79,3.3,3.3,0,0,1,.75,2.35V66.3a3.75,3.75,0,0,1-.75,2.5,2.76,2.76,0,0,1-2.22.88,2.72,2.72,0,0,1-2.21-.89m2.65-1.6a2.31,2.31,0,0,0,.11-.78V60.53a1.65,1.65,0,0,0-.1-.64.43.43,0,0,0-.43-.24c-.4,0-.6.3-.6.91v5.86a2,2,0,0,0,.12.79.48.48,0,0,0,.46.26.43.43,0,0,0,.44-.28" transform="translate(0 0)"/></g></g><g class="cls-5"><g class="cls-10"><path class="cls-7" d="M40.45,57.55h3.32a2.46,2.46,0,0,1,1.93.71,3.11,3.11,0,0,1,.66,2.11l0,5.63a4.6,4.6,0,0,1-.61,2.68,2.39,2.39,0,0,1-2.09.89H40.45Zm2.84,9.89c.44,0,.66-.21.66-.64V60.6a2.29,2.29,0,0,0-.06-.61.39.39,0,0,0-.24-.27,1.32,1.32,0,0,0-.51-.07h-.27v7.79Z" transform="translate(0 0)"/></g></g><g class="cls-5"><g class="cls-11"><polygon class="cls-7" points="51.03 69.57 49.55 57.53 51.84 57.53 52.73 65.72 53.51 57.53 55.81 57.53 54.32 69.57 51.03 69.57"/></g></g><g class="cls-5"><g class="cls-12"><rect class="cls-7" x="56.03" y="57.55" width="2.32" height="12.03"/></g></g><g class="cls-5"><g class="cls-13"><path class="cls-7" d="M59,57.55h3.26a2.47,2.47,0,0,1,1.91.64,3,3,0,0,1,.6,2.1v.53c0,1.15-.41,1.84-1.23,2.06a1.5,1.5,0,0,1,1.06.91,4.78,4.78,0,0,1,.31,1.89,5.75,5.75,0,0,1-.58,2.9,2.18,2.18,0,0,1-2.07,1H59Zm2.84,4.52a.42.42,0,0,0,.42-.23,1.46,1.46,0,0,0,.11-.65V60c0-.39-.17-.59-.51-.59h-.51v2.68Zm.69,4.49v-1.5a1.75,1.75,0,0,0-.16-.82.6.6,0,0,0-.57-.28h-.45v3.48l.24,0c.63,0,.94-.3.94-.9" transform="translate(0 0)"/></g></g><g class="cls-5"><g class="cls-14"><polygon class="cls-7" points="65.33 69.57 65.33 57.55 70.14 57.55 70.14 59.87 67.78 59.87 67.78 62.21 70.05 62.21 70.05 64.48 67.78 64.48 67.78 67.23 70.3 67.23 70.3 69.57 65.33 69.57"/></g></g><g class="cls-5"><g class="cls-15"><path class="cls-7" d="M71.23,68.87a3.89,3.89,0,0,1-.72-2.62V65.08h2.36v1.5c0,.59.19.89.58.89a.48.48,0,0,0,.44-.19,1.12,1.12,0,0,0,.13-.63,3,3,0,0,0-.14-1,2,2,0,0,0-.36-.64c-.14-.17-.4-.44-.77-.81l-1-1a3.59,3.59,0,0,1-1.2-2.61,3.46,3.46,0,0,1,.7-2.34,2.6,2.6,0,0,1,2.07-.81,2.9,2.9,0,0,1,2.34.86,4.25,4.25,0,0,1,.71,2.7H73.88v-.83a.51.51,0,0,0-.14-.37.46.46,0,0,0-.37-.14.57.57,0,0,0-.42.15.61.61,0,0,0-.14.42,1.78,1.78,0,0,0,.67,1.22l1.4,1.34a9.06,9.06,0,0,1,.82.9,3.83,3.83,0,0,1,.51,1,4.1,4.1,0,0,1,.2,1.38,4.68,4.68,0,0,1-.65,2.7,2.45,2.45,0,0,1-2.15.91,3.06,3.06,0,0,1-2.37-.81" transform="translate(0 0)"/></g></g><path class="cls-7" d="M40.73,53.91A3.93,3.93,0,1,1,44.54,50a3.75,3.75,0,0,1-3.81,3.93m0-.67a3,3,0,0,0,3-3.26,3,3,0,1,0-6,0,3,3,0,0,0,3,3.26" transform="translate(0 0)"/><polygon class="cls-7" points="51.47 46.14 51.47 53.83 50.7 53.83 46.44 47.37 46.44 53.83 45.67 53.83 45.67 46.14 46.44 46.14 50.7 52.6 50.7 46.14 51.47 46.14"/><polygon class="cls-7" points="53.71 46.14 53.71 53.21 56.47 53.21 56.47 53.83 52.94 53.83 52.94 46.14 53.71 46.14"/><polygon class="cls-7" points="56.66 46.14 57.53 46.14 59.53 50.14 61.52 46.14 62.38 46.14 59.91 50.84 59.91 53.83 59.14 53.83 59.14 50.84 56.66 46.14"/><polygon class="cls-3" points="90.8 17.87 90.8 23.96 94.29 23.96 94.29 14.38 61.65 14.38 61.65 17.87 90.8 17.87"/></g></g></g></g></g></g></svg>