<svg xmlns="http://www.w3.org/2000/svg" xmlns:xlink="http://www.w3.org/1999/xlink" width="241.454" height="94.606" viewBox="0 0 241.454 94.606">
  <defs>
    <clipPath id="clip-path">
      <rect id="Rectangle_172" data-name="Rectangle 172" width="241.454" height="94.606" fill="none"/>
    </clipPath>
  </defs>
  <g id="logo" transform="translate(120.727 47.303)" style="isolation: isolate">
    <g id="logo-2" data-name="logo" transform="translate(-120.727 -47.303)" clip-path="url(#clip-path)">
      <path id="Path_1565" data-name="Path 1565" d="M14.428,57.6A5.051,5.051,0,0,0,17.9,52.847c0-4.172-3.824-5.447-5.563-5.447H0a5.215,5.215,0,0,1,1.564.869,1.8,1.8,0,0,1,.464.985V67.333a1.8,1.8,0,0,1-.464.985A5.215,5.215,0,0,1,0,69.187H13.443c1.564,0,6.026-1.1,6.026-5.679s-2.9-5.5-5.041-5.91m1.449-5.041a5.371,5.371,0,0,1-3.187,4.693,4.983,4.983,0,0,0,2.723-4.693,5.33,5.33,0,0,0-2.665-4.346s3.187,1.391,3.187,4.346M4.4,66.927l-.29-8.865.116-9.155.348,9.213Zm4.751,1.68H7.591c-.869,0-.869-.521-.869-1.159V49.08c0-.753.058-1.217,1.217-1.217h.7a4.61,4.61,0,0,1,4.693,4.983c0,3.766-2.318,4.578-4.462,4.578H7.417v.7H8.923a5.078,5.078,0,0,1,5.331,5.389c0,4.114-2.665,5.1-5.1,5.1m4.578-.174a5.621,5.621,0,0,0-.579-10.14s4,1.217,4,5.157a5.138,5.138,0,0,1-3.419,4.983" transform="translate(0 -19.934)" fill="#fff"/>
      <path id="Path_1566" data-name="Path 1566" d="M54.3,69.145h8.228a4.462,4.462,0,0,1-1.275-.869,3.708,3.708,0,0,1-.579-1.043L55.63,49.212A1.934,1.934,0,0,1,57.137,47.3H44.389A1.945,1.945,0,0,1,45.9,49.212L40.854,67.233a3.708,3.708,0,0,1-.579,1.043A4.462,4.462,0,0,1,39,69.145h7.938a1.953,1.953,0,0,1-1.507-1.97l5.157-18.6L54.008,60.8H47.981l-.232.7h6.49L55.8,67.233A2,2,0,0,1,54.3,69.145M45.722,58.773l-2.607,8.46L45.258,58.6l2.607-8.75Zm9.966-.058-2.26-8.865,2.723,8.808,2.086,8.576Z" transform="translate(-16.402 -19.892)" fill="#fff"/>
      <path id="Path_1567" data-name="Path 1567" d="M95.314,69.187h9.677a11.416,11.416,0,0,1-1.738-.927,8.113,8.113,0,0,1-1.1-1.1L97.69,60.322c1.391-.058,5.273-2.723,5.273-6.606S99.138,47.4,97.4,47.4H85a5.273,5.273,0,0,1,1.564.869,1.8,1.8,0,0,1,.464.985V67.333a1.8,1.8,0,0,1-.464.985A5.215,5.215,0,0,1,85,69.187h8.75s-2.028-.521-2.028-1.738V49.08c0-.753.058-1.217,1.217-1.217h.7c1.912,0,4.693,2.086,4.693,5.852s-2.318,6.026-4.462,6.026H92.475v.637l4.462,6.664s.637.753.174,1.217a5.794,5.794,0,0,1-1.738.927M89.4,66.869,89.114,58l.232-9.1.232,9.155ZM100.355,53.6a6.755,6.755,0,0,0-3.013-5.389s3.535,1.68,3.535,5.389a6.49,6.49,0,0,1-3.535,5.794S100.413,58,100.413,53.6m-5.563,6.9h.579l4.4,7.3Z" transform="translate(-35.747 -19.934)" fill="#fff"/>
      <path id="Path_1568" data-name="Path 1568" d="M126.464,68.318a5.215,5.215,0,0,1-1.564.869h13.443c1.565,0,6.026-1.1,6.026-5.679s-2.9-5.5-5.041-5.91a5.051,5.051,0,0,0,3.477-4.751c0-4.172-3.824-5.447-5.563-5.447H124.9a5.215,5.215,0,0,1,1.564.869,1.8,1.8,0,0,1,.464.985V67.333a1.8,1.8,0,0,1-.464.985m15.587-4.925a5.575,5.575,0,0,1-3.419,4.983,5.621,5.621,0,0,0-.579-10.14s4,1.217,4,5.157m-1.275-10.836a5.371,5.371,0,0,1-3.187,4.693,4.983,4.983,0,0,0,2.723-4.693,5.33,5.33,0,0,0-2.665-4.346s3.187,1.391,3.187,4.346m-9.213-3.477c0-.753.058-1.217,1.217-1.217h.7a4.61,4.61,0,0,1,4.693,4.983c0,3.766-2.318,4.578-4.462,4.578h-1.391v.7h1.507a5.078,5.078,0,0,1,5.331,5.389c0,4.114-2.665,5.041-5.1,5.041h-1.622c-.869,0-.869-.521-.869-1.159Zm-2.492-.232.348,9.213-.174,8.808-.29-8.808Z" transform="translate(-52.528 -19.934)" fill="#fff"/>
      <rect id="Rectangle_169" data-name="Rectangle 169" width="11.299" height="0.707" transform="translate(102.793 38.011)" fill="#fff"/>
      <path id="Path_1569" data-name="Path 1569" d="M165.522,68.276a5.215,5.215,0,0,1-1.564.869H184.7a4.751,4.751,0,0,1-1.275-.811,1.68,1.68,0,0,1-.406-1.043V63.177a2.144,2.144,0,0,1,.464-1.043,3.129,3.129,0,0,1,1.159-.811h-7.938a3.129,3.129,0,0,1,1.159.811,2.2,2.2,0,0,1,.464.927v4.114a1.622,1.622,0,0,1-.29.869A1.8,1.8,0,0,1,177,68.45h-4.983a1.8,1.8,0,0,1-1.1-.464,1.623,1.623,0,0,1-.29-.869V49.328a1.68,1.68,0,0,1,.29-.869,1.8,1.8,0,0,1,1.043-.406h4.983a1.8,1.8,0,0,1,1.043.406,1.681,1.681,0,0,1,.29.869v4.114a2.2,2.2,0,0,1-.464.927,3.129,3.129,0,0,1-1.159.811h7.88a3.129,3.129,0,0,1-1.159-.811,2.086,2.086,0,0,1-.464-1.043V49.154a1.68,1.68,0,0,1,.406-.985,4.752,4.752,0,0,1,1.275-.869H163.9a5.273,5.273,0,0,1,1.564.869,1.8,1.8,0,0,1,.464.985V67.291a1.8,1.8,0,0,1-.464.985m15.066-5.621.29,2.434-.232,2.434-.29-2.434Zm0-14.08.29,2.434-.232,2.434-.29-2.434Zm-12.284.348.232,9.155-.174,8.808-.29-8.865Z" transform="translate(-68.929 -19.892)" fill="#fff"/>
      <path id="Path_1570" data-name="Path 1570" d="M223.352,68.218a8.17,8.17,0,0,1-1.1-1.1l-4.462-6.9c1.391-.058,5.273-2.723,5.273-6.606S219.238,47.3,217.5,47.3H205.1a5.273,5.273,0,0,1,1.564.869,1.8,1.8,0,0,1,.464.985V67.291a1.8,1.8,0,0,1-.464.985,5.215,5.215,0,0,1-1.565.869h8.75s-2.028-.521-2.028-1.738V49.038c0-.753.058-1.217,1.217-1.217h.7c1.912,0,4.693,2.086,4.693,5.852s-2.318,6.026-4.462,6.026h-1.391v.637L217.037,67s.637.753.174,1.217a5.8,5.8,0,0,1-1.738.927h9.677a11.474,11.474,0,0,1-1.738-.927M209.5,66.827l-.29-8.865.232-9.1.232,9.155Zm10.951-13.269a6.755,6.755,0,0,0-3.013-5.389s3.535,1.68,3.535,5.389a6.49,6.49,0,0,1-3.535,5.794s3.071-1.391,3.071-5.794m-5.563,6.9h.579l4.4,7.3Z" transform="translate(-86.256 -19.892)" fill="#fff"/>
      <path id="Path_1571" data-name="Path 1571" d="M282.9,48.169a4.752,4.752,0,0,1,1.275-.869H268.413c-3.245,0-3.245,4.983-.521,7.185a19.874,19.874,0,0,0,2.723,1.854c1.854,1.1,3.882,2.376,5.794,3.361s2.434,1.333,3.071,3.3-.406,5.389-3.361,5.389h-3.187a1.565,1.565,0,0,1-.869-.406,1.622,1.622,0,0,1-.29-.869V63a2.144,2.144,0,0,1,.464-.927,3.129,3.129,0,0,1,1.159-.811h-7.938a3.129,3.129,0,0,1,1.159.811,2.086,2.086,0,0,1,.464,1.043v4.114a1.681,1.681,0,0,1-.406.985,4.809,4.809,0,0,1-1.275.811h16.34c3.245,0,3.187-5.157.522-7.011-.7-.464-7.417-4.288-8.054-4.636-1.854-1.159-2.9-1.854-3.477-3.882s.406-5.5,3.361-5.5h2.839a1.333,1.333,0,0,1,.637.348,1.68,1.68,0,0,1,.29.869v4.114a2.144,2.144,0,0,1-.464.927,3.129,3.129,0,0,1-1.159.811h7.88a3.129,3.129,0,0,1-1.159-.811,2.144,2.144,0,0,1-.464-1.043V49.154a1.68,1.68,0,0,1,.406-.985M269.282,67.523l-.29-2.434.232-2.492.29,2.434Zm12.342-1.275a4.589,4.589,0,0,0-.521-3.187,5.025,5.025,0,0,1,.985,3.187c-.232,1.564-2.2,2.086-2.2,2.086a3.187,3.187,0,0,0,1.8-2.028M268.355,50.429a4.589,4.589,0,0,0,.521,3.187,5.025,5.025,0,0,1-.985-3.187c.232-1.564,2.2-2.086,2.2-2.086a3.187,3.187,0,0,0-1.8,2.028m11.821,3.419-.29-2.434.232-2.492.29,2.434Z" transform="translate(-111.616 -19.892)" fill="#fff"/>
      <path id="Path_1572" data-name="Path 1572" d="M304.865,68.276a5.215,5.215,0,0,1-1.565.869h8.75a5.215,5.215,0,0,1-1.565-.869,1.854,1.854,0,0,1-.464-.869V49.038a1.854,1.854,0,0,1,.464-.869,5.273,5.273,0,0,1,1.565-.869H303.3a5.273,5.273,0,0,1,1.565.869,1.8,1.8,0,0,1,.464.985V67.291a1.8,1.8,0,0,1-.464.985m2.781-19.353.232,9.155-.174,8.808-.29-8.865Z" transform="translate(-127.555 -19.892)" fill="#fff"/>
      <path id="Path_1573" data-name="Path 1573" d="M329.016,48.169a6.142,6.142,0,0,1,1.564-.869h-8.75a5.273,5.273,0,0,1,1.565.869,1.8,1.8,0,0,1,.464.985V57.9H316.5v.7h7.417v8.692a1.8,1.8,0,0,1-.464.985,5.215,5.215,0,0,1-1.565.869h8.75a6.083,6.083,0,0,1-1.565-.869,1.623,1.623,0,0,1-.464-.869V49.038a1.623,1.623,0,0,1,.464-.869m-2.723,18.716-.29-8.865.232-9.1.232,9.155Z" transform="translate(-133.106 -19.892)" fill="#fff"/>
      <path id="Path_1574" data-name="Path 1574" d="M361.034,47.532h0a2.839,2.839,0,0,0-.985-.232h-8a2.839,2.839,0,0,0-.985.232h0c-2.26.869-4.867,3.824-4.867,10.6s4.056,11.009,5.679,11.009h8.286c1.68,0,5.794-4.23,5.794-11.009s-2.723-9.793-4.983-10.6M348.228,57.846c0-6.606,4.172-9.387,4.4-9.561s-3.882,2.665-3.882,9.561,2.839,9.908,2.839,9.908-3.361-3.129-3.361-9.908m8.344,10.6h-1.1c-1.8,0-4.288-3.419-4.288-10.256s3.187-10.14,4.809-10.14,4.925,3.361,4.925,10.14-2.55,10.256-4.346,10.256m3.766-.637s2.839-2.781,2.839-9.908-3.65-9.387-3.882-9.561a12,12,0,0,1,4.4,9.561c0,6.606-3.361,9.908-3.361,9.908" transform="translate(-145.597 -19.892)" fill="#fff"/>
      <path id="Path_1575" data-name="Path 1575" d="M398.142,47.3H385.8a5.215,5.215,0,0,1,1.565.869,1.8,1.8,0,0,1,.464.985V67.291a1.8,1.8,0,0,1-.464.985,5.215,5.215,0,0,1-1.564.869h8.75s-2.028-.637-2.028-1.738V49.038c0-.753.058-1.217,1.217-1.217h.7c1.912,0,4.694,2.086,4.694,5.852s-2.318,6.026-4.462,6.026h-1.391v.637h5.157c1.333,0,5.331-2.723,5.331-6.606s-3.824-6.316-5.563-6.316m-8.112,19.411-.29-8.865.232-9.1.232,9.155Zm8.054-7.533s3.071-1.391,3.071-5.794-3.013-5.389-3.013-5.389,3.535,1.68,3.535,5.389a6.49,6.49,0,0,1-3.535,5.794" transform="translate(-162.251 -19.892)" fill="#fff"/>
      <path id="Path_1576" data-name="Path 1576" d="M221.766,125.316l-15.819-.116H136.356l-15.819.116c-.348,0-.637.116-.637.232s.29.232.637.232l15.819.116h2.2a9.387,9.387,0,0,0,1.8,3.65,7.533,7.533,0,0,0,3.766,2.434,11.7,11.7,0,0,0,4.462.348,17.325,17.325,0,0,0,4.346-1.043l.637-.232h.058l.348-.116.985-.348,2.028-.7a18.773,18.773,0,0,1,4.056-.811,10.835,10.835,0,0,1,4,.406,8.982,8.982,0,0,1,1.854.811,4.694,4.694,0,0,1,1.449,1.275,5.157,5.157,0,0,1,.927,3.766,5.447,5.447,0,0,1-1.333,2.9,10.2,10.2,0,0,0-1.97-.7,8.227,8.227,0,0,0-2.26-.232l-1.159.174a3.3,3.3,0,0,0-1.159.521,1.97,1.97,0,0,0-.464.521,1.565,1.565,0,0,0-.232.753,1.043,1.043,0,0,0,0,.174h0v.232l.116.348a1.68,1.68,0,0,0,.521.579,2.955,2.955,0,0,0,1.159.464h1.159a7.011,7.011,0,0,0,4.23-1.68l.29-.232a8.575,8.575,0,0,1,1.275.869l.579.521a7.127,7.127,0,0,0-1.391,2.665,4.693,4.693,0,0,0-.058,2.318,2.492,2.492,0,0,0,.579,1.159,1.854,1.854,0,0,0,1.275.579h.116a1.854,1.854,0,0,0,1.217-.579,2.55,2.55,0,0,0,.637-1.159,4.694,4.694,0,0,0-.058-2.318,7.069,7.069,0,0,0-1.391-2.665l.579-.521a8.575,8.575,0,0,1,1.275-.869l.29.232a7.011,7.011,0,0,0,4.23,1.68h1.159a2.955,2.955,0,0,0,1.159-.464,1.68,1.68,0,0,0,.521-.579l.116-.348v-.232h0v-.116a1.507,1.507,0,0,0-.232-.753,1.97,1.97,0,0,0-.464-.521,3.3,3.3,0,0,0-1.159-.521l-1.159-.174a8.17,8.17,0,0,0-2.26.232,10.2,10.2,0,0,0-1.97.7,5.447,5.447,0,0,1-1.333-2.9,5.157,5.157,0,0,1,.927-3.766,4.694,4.694,0,0,1,1.449-1.275,8.981,8.981,0,0,1,1.854-.811,10.894,10.894,0,0,1,4-.406,18.833,18.833,0,0,1,4.056.811l2.028.7.985.348.348.116h.058l.579.232a17.383,17.383,0,0,0,4.346,1.043,11.763,11.763,0,0,0,4.462-.348,7.591,7.591,0,0,0,3.766-2.434,9.387,9.387,0,0,0,1.8-3.65h3.65l15.819-.116c.348,0,.637-.116.637-.232s-.29-.232-.637-.232m-52.44,18.137a5.91,5.91,0,0,1,1.1-2.318,5.852,5.852,0,0,1,1.1,2.318,3.824,3.824,0,0,1,0,1.912,1.622,1.622,0,0,1-.406.753.869.869,0,0,1-.637.232h-.058a.869.869,0,0,1-.637-.232,1.68,1.68,0,0,1-.406-.7,3.824,3.824,0,0,1,0-1.912m-6.664-3.361a2.028,2.028,0,0,1-.811-.348.579.579,0,0,1-.29-.521.753.753,0,0,1,.348-.521,2.376,2.376,0,0,1,.811-.406l.985-.174h.521l1.507.174a8.172,8.172,0,0,1,1.564.464,6.142,6.142,0,0,1-3.708,1.391h-.985m14.66.058a6.142,6.142,0,0,1-3.708-1.391,8.228,8.228,0,0,1,1.565-.464,7.358,7.358,0,0,1,2.028-.116l.985.174a2.433,2.433,0,0,1,.811.406.753.753,0,0,1,.348.579.579.579,0,0,1-.29.521,2.028,2.028,0,0,1-.811.348h-.985m-6.142-14.2h30.653a8.807,8.807,0,0,1-1.738,3.245,6.78,6.78,0,0,1-3.477,2.086,10.6,10.6,0,0,1-4.114.116,17.324,17.324,0,0,1-4-1.1l-.579-.232h-.058l-.348-.116-.985-.406-2.086-.753a18.948,18.948,0,0,0-4.346-.927,10.488,10.488,0,0,0-4.52.579,9.851,9.851,0,0,0-2.028,1.043,5.737,5.737,0,0,0-1.68,1.68,6.432,6.432,0,0,0,.464,7.591l-1.275.869-.579.579-.579-.579-1.275-.869a6.432,6.432,0,0,0,.464-7.591,5.736,5.736,0,0,0-1.68-1.68,9.909,9.909,0,0,0-2.028-1.043,10.546,10.546,0,0,0-4.52-.579,18.948,18.948,0,0,0-4.346.927l-2.086.753-.985.406-.348.174-.579.29a17.267,17.267,0,0,1-4,1.1,10.6,10.6,0,0,1-4.114-.116,6.779,6.779,0,0,1-3.477-2.086A8.749,8.749,0,0,1,139.2,126.3h32.043" transform="translate(-50.425 -52.654)" fill="#fff"/>
      <rect id="Rectangle_170" data-name="Rectangle 170" width="9.677" height="0.608" transform="translate(82.223 9.097)" fill="#fff"/>
      <path id="Path_1577" data-name="Path 1577" d="M131.691,18.021a4.462,4.462,0,0,1-1.333.753h17.789a4.114,4.114,0,0,1-1.1-.7,1.449,1.449,0,0,1-.348-.869V13.617a1.8,1.8,0,0,1,.406-.927,2.666,2.666,0,0,1,.985-.7h-6.779a2.665,2.665,0,0,1,.985.7,1.854,1.854,0,0,1,.406.753v3.535a1.391,1.391,0,0,1-.232.753,1.565,1.565,0,0,1-.869.348h-4.288a1.565,1.565,0,0,1-.869-.348,1.448,1.448,0,0,1-.29-.753V1.738a1.448,1.448,0,0,1,.29-.753,1.565,1.565,0,0,1,.869-.348H141.6a1.564,1.564,0,0,1,.869.348,1.449,1.449,0,0,1,.232.753V5.273a1.854,1.854,0,0,1-.406.753,2.665,2.665,0,0,1-.985.7h6.722a2.665,2.665,0,0,1-.985-.7,1.8,1.8,0,0,1-.406-.927V1.564A1.449,1.449,0,0,1,146.988.7a4.056,4.056,0,0,1,1.159-.7H130.3a4.52,4.52,0,0,1,1.333.753,1.565,1.565,0,0,1,.406.869V17.152a1.565,1.565,0,0,1-.406.869m12.98-4.867.232,2.086-.232,2.086-.232-2.086Zm0-12.052.232,2.086-.232,2.086-.232-2.086Zm-10.546.29.174,7.88-.174,7.533-.232-7.649Z" transform="translate(-54.799)" fill="#fff"/>
      <path id="Path_1578" data-name="Path 1578" d="M167.438,17.267a1.622,1.622,0,0,1-.406.753l-.232.232a5.8,5.8,0,0,1-1.1.521h16.8a4.056,4.056,0,0,1-1.1-.7,1.449,1.449,0,0,1-.348-.869V13.617a1.8,1.8,0,0,1,.406-.927,2.665,2.665,0,0,1,.985-.7h-6.722a2.665,2.665,0,0,1,.985.7,1.854,1.854,0,0,1,.406.753v3.535a1.449,1.449,0,0,1-.232.753,1.565,1.565,0,0,1-.869.348h-3.3a1.565,1.565,0,0,1-.869-.348,1.449,1.449,0,0,1-.232-.753V1.449a1.623,1.623,0,0,1,.348-.7A4.519,4.519,0,0,1,173.175,0H165.7a4.4,4.4,0,0,1,1.333.753,1.565,1.565,0,0,1,.406.869V17.267m11.589-4.114.232,2.086-.232,2.086-.232-2.086ZM169.408,1.391l.174,7.88-.174,7.533-.232-7.649Z" transform="translate(-69.686 0)" fill="#fff"/>
      <path id="Path_1579" data-name="Path 1579" d="M200.791,18.021a4.462,4.462,0,0,1-1.333.753h7.475a4.462,4.462,0,0,1-1.333-.753,1.622,1.622,0,0,1-.348-.7V1.449a1.623,1.623,0,0,1,.348-.7A4.52,4.52,0,0,1,206.875,0H199.4a4.462,4.462,0,0,1,1.333.753,1.565,1.565,0,0,1,.406.869V17.152a1.565,1.565,0,0,1-.406.869m2.376-16.63.174,7.88-.174,7.533-.232-7.649Z" transform="translate(-83.859)" fill="#fff"/>
      <path id="Path_1580" data-name="Path 1580" d="M218.449,1.564V5.157a1.8,1.8,0,0,1-.406.927,2.665,2.665,0,0,1-.985.7h6.722a2.665,2.665,0,0,1-.985-.7,1.854,1.854,0,0,1-.406-.753V1.738a1.449,1.449,0,0,1,.232-.753,1.564,1.564,0,0,1,.869-.348h.058a1.507,1.507,0,0,1,.985.29,1.217,1.217,0,0,1,.29.7V17.152a1.565,1.565,0,0,1-.406.869,4.462,4.462,0,0,1-1.333.753h7.475a4.462,4.462,0,0,1-1.333-.753,1.564,1.564,0,0,1-.348-.7V1.449a.811.811,0,0,1,.174-.579,1.159,1.159,0,0,1,.753-.232h.29a1.564,1.564,0,0,1,.869.348,1.449,1.449,0,0,1,.29.753V5.273a1.854,1.854,0,0,1-.406.753,2.666,2.666,0,0,1-.985.7h6.722a2.665,2.665,0,0,1-.985-.7,1.8,1.8,0,0,1-.406-.927V1.564A1.448,1.448,0,0,1,235.542.7,4.056,4.056,0,0,1,236.7,0H217a4.114,4.114,0,0,1,1.1.7,1.449,1.449,0,0,1,.348.869m14.776-.232.232,2.086L233.224,5.5l-.174-2.028Zm-6.374,0,.174,7.88-.174,7.533L226.619,9.1Zm-6.432,0,.232,2.086L220.419,5.5l-.232-2.028Z" transform="translate(-91.261 0)" fill="#fff"/>
      <path id="Path_1581" data-name="Path 1581" d="M256.991,18.021a4.461,4.461,0,0,1-1.333.753h17.789a4.114,4.114,0,0,1-1.1-.7,1.449,1.449,0,0,1-.348-.869V13.617a1.8,1.8,0,0,1,.406-.927,2.665,2.665,0,0,1,.985-.7h-6.779a2.665,2.665,0,0,1,.985.7,1.854,1.854,0,0,1,.406.753v3.535a1.448,1.448,0,0,1-.232.753,1.564,1.564,0,0,1-.869.348h-4.288a1.564,1.564,0,0,1-.869-.348,1.448,1.448,0,0,1-.29-.753V1.738a1.449,1.449,0,0,1,.29-.753,1.564,1.564,0,0,1,.869-.348h4.23a1.564,1.564,0,0,1,.869.348,1.449,1.449,0,0,1,.232.753V5.273a1.854,1.854,0,0,1-.406.753,2.665,2.665,0,0,1-.985.7h6.722a2.665,2.665,0,0,1-.985-.7,1.8,1.8,0,0,1-.406-.927V1.564A1.449,1.449,0,0,1,272.23.7a4.056,4.056,0,0,1,1.217-.7H255.6a4.52,4.52,0,0,1,1.391.753,1.564,1.564,0,0,1,.406.869V17.152a1.564,1.564,0,0,1-.406.869m12.922-4.867.232,2.086-.232,2.086-.232-2.086Zm0-12.052.232,2.086-.232,2.086-.232-2.086Zm-10.546.29.174,7.88-.174,7.533-.232-7.649Z" transform="translate(-107.494 0)" fill="#fff"/>
      <rect id="Rectangle_171" data-name="Rectangle 171" width="9.677" height="0.608" transform="translate(154.827 9.097)" fill="#fff"/>
      <path id="Path_1582" data-name="Path 1582" d="M79.1,100.132l1.1.521v7.127l-1.1.521v.232h4.172V108.3l-1.1-.521v-7.127l1.1-.521V99.9H79.1Z" transform="translate(-33.266 -42.014)" fill="#fff"/>
      <path id="Path_1583" data-name="Path 1583" d="M94.936,107.78H91.576l4.462-7.475V99.9H89.374v2.665h.232l.927-1.912h3.129L89.2,108.07v.464h6.953v-2.839h-.174Z" transform="translate(-37.514 -42.014)" fill="#fff"/>
      <path id="Path_1584" data-name="Path 1584" d="M108.589,99.8H107.43l-3.419,8-.811.464v.232h2.839v-.232l-1.1-.464.869-2.144h3.071l.869,2.144-1.159.464v.232H112.7v-.232l-.869-.464Zm-2.434,5.1,1.275-3.013,1.217,3.013Z" transform="translate(-43.401 -41.972)" fill="#fff"/>
      <path id="Path_1585" data-name="Path 1585" d="M127.616,108.186a3.187,3.187,0,0,0,1.333-.869,1.912,1.912,0,0,0,.464-1.275,1.738,1.738,0,0,0-.7-1.449,4.056,4.056,0,0,0-1.97-.753,2.723,2.723,0,0,0,1.449-.753,1.8,1.8,0,0,0,.521-1.217,1.449,1.449,0,0,0-.406-1.1,2.665,2.665,0,0,0-1.159-.637,5.969,5.969,0,0,0-1.68-.232H121.3v.232l1.1.521v7.127l-1.1.521v.232h4.462a5.215,5.215,0,0,0,1.912-.348m-3.3-7.533h.464q1.912,0,1.912,1.622a1.391,1.391,0,0,1-.464,1.1,2.028,2.028,0,0,1-1.333.406h-.521Zm0,7.185V104.42h.927a2.608,2.608,0,0,1,1.564.406,1.449,1.449,0,0,1,.579,1.275,1.564,1.564,0,0,1-.521,1.217,2.2,2.2,0,0,1-1.507.464Z" transform="translate(-51.014 -42.014)" fill="#fff"/>
      <path id="Path_1586" data-name="Path 1586" d="M137.1,108.3v.232h7.475v-2.665h-.232L143.3,107.78h-3.129V104.42h1.97l.753,1.1h.232v-2.955h-.232l-.753,1.159h-1.97v-3.071h2.839L144,102.16h.174V99.9H137.1v.232l1.1.521v7.127Z" transform="translate(-57.658 -42.014)" fill="#fff"/>
      <path id="Path_1587" data-name="Path 1587" d="M155.471,100.653l1.217-.521V99.9H152.4v.232l1.1.521v7.127l-1.1.521v.232h7.185v-3.187h-.174l-1.1,2.434h-2.839Z" transform="translate(-64.093 -42.014)" fill="#fff"/>
      <path id="Path_1588" data-name="Path 1588" d="M171.7,108.492h4.114v-.232l-.869-.464-3.361-8H170.43l-3.419,8-.811.464v.232h2.839v-.232l-1.1-.464.869-2.144h3.071l.869,2.144-1.159.464Zm-2.55-3.535,1.275-3.013,1.217,3.013Z" transform="translate(-69.897 -41.972)" fill="#fff"/>
      <path id="Path_1589" data-name="Path 1589" d="M193.782,107.5a1.854,1.854,0,0,1-1.159.348l-.811-.174-.753-.464-.927-1.622H189.9l.116,2.2,1.275.464a5.91,5.91,0,0,0,1.507.174,4.114,4.114,0,0,0,1.564-.29,3.071,3.071,0,0,0,1.217-.927,2.2,2.2,0,0,0,.464-1.449,2.086,2.086,0,0,0-.579-1.507,5.968,5.968,0,0,0-1.738-1.1,5.447,5.447,0,0,1-1.333-.753,1.1,1.1,0,0,1-.406-.869,1.192,1.192,0,0,1,1.217-1.275l.7.116.637.406.927,1.449h.232l-.116-2.086-1.159-.464-1.275-.174a3.245,3.245,0,0,0-1.159.232,3.477,3.477,0,0,0-.985.579,3.013,3.013,0,0,0-.7.869,1.986,1.986,0,0,0,.232,2.376,4,4,0,0,0,1.391.985l1.275.637a1.97,1.97,0,0,1,.7.521,1.217,1.217,0,0,1,.174.753,1.159,1.159,0,0,1-.464.985" transform="translate(-79.864 -41.845)" fill="#fff"/>
      <path id="Path_1590" data-name="Path 1590" d="M203.2,108.534h6.953v-2.839h-.232l-1.043,2.086h-3.361l4.462-7.475V99.9h-6.606v2.665h.174l.985-1.912h3.129L203.2,108.07Z" transform="translate(-85.457 -42.014)" fill="#fff"/>
      <path id="Path_1591" data-name="Path 1591" d="M225.66,100.537l.869-.406V99.9h-2.955v.232l.985.521h0l-2.028,3.071-2.26-3.071V100.6l.985-.464V99.9H217.2v.232l.927.521,2.839,3.824v3.3l-1.217.521v.232H224.1V108.3l-1.159-.521v-3.3Z" transform="translate(-91.345 -42.014)" fill="#fff"/>
      <path id="Path_1592" data-name="Path 1592" d="M246.463,99.9h-3.129l-2.55,6.084L238.177,99.9h-3.245v.232l1.159.521-.29,7.127-1.1.521v.232h3.071V108.3l-1.1-.521.174-6.142,3.013,6.953h.7l2.955-7.011.174,6.2-1.043.521v.232h3.94V108.3l-.985-.521-.232-7.243,1.1-.406Z" transform="translate(-98.705 -42.014)" fill="#fff"/>
      <path id="Path_1593" data-name="Path 1593" d="M262,108.492h4.114v-.232l-.869-.464-3.361-8H260.73l-3.419,8-.811.464v.232h2.839v-.232l-1.1-.464.869-2.144h3.071l.869,2.144-1.159.464Zm-2.55-3.535,1.275-3.013,1.217,3.013Z" transform="translate(-107.873 -41.972)" fill="#fff"/>
      <path id="Path_1594" data-name="Path 1594" d="M284.934,95.864a1.159,1.159,0,0,0,.116-.464H283.6l-1.1,1.97h.29l1.68-1.1a1.043,1.043,0,0,0,.406-.406" transform="translate(-118.807 -40.121)" fill="#fff"/>
      <path id="Path_1595" data-name="Path 1595" d="M282.049,108.592h.811v-7.938l1.1-.521V99.9h-3.477v.232l1.449.521v4.983L276.892,99.9H274.4v.232l1.1.521v7.127l-1.1.521v.232h3.535V108.3l-1.507-.521v-5.5Z" transform="translate(-115.401 -42.014)" fill="#fff"/>
      <path id="Path_1596" data-name="Path 1596" d="M296.74,103.293a5.506,5.506,0,0,1-1.333-.753,1.1,1.1,0,0,1-.406-.869,1.188,1.188,0,0,1,1.217-1.217l.7.116.637.406.927,1.449h.232l-.116-2.086-1.159-.464-1.275-.174a3.187,3.187,0,0,0-1.159.232,3.477,3.477,0,0,0-.985.579,3.013,3.013,0,0,0-.7.869,2.086,2.086,0,0,0,.232,2.376,4,4,0,0,0,1.449.985l1.275.637a1.912,1.912,0,0,1,.7.522,1.217,1.217,0,0,1,.174.753,1.159,1.159,0,0,1-.464.985,1.854,1.854,0,0,1-1.159.348l-.811-.174-.753-.464-.927-1.622H292.8l.116,2.2,1.275.464a5.91,5.91,0,0,0,1.507.174,4.114,4.114,0,0,0,1.565-.29,3.071,3.071,0,0,0,1.217-.927,2.2,2.2,0,0,0,.464-1.449,2.086,2.086,0,0,0-.579-1.507,5.968,5.968,0,0,0-1.738-1.1" transform="translate(-123.139 -41.93)" fill="#fff"/>
      <path id="Path_1597" data-name="Path 1597" d="M309.872,100.132V99.9H305.7v.232l1.1.521v7.127l-1.1.521v.232h4.172V108.3l-1.1-.521v-7.127Z" transform="translate(-128.564 -42.014)" fill="#fff"/>
      <path id="Path_1598" data-name="Path 1598" d="M322.489,99.8H321.33l-3.419,8-.753.406-.869-.348-3.593-4.52,3.013-2.9.869-.348v-.232h-3.071v.232l.985.464-3.593,3.593,3.419,4.346h5.621v-.232l-1.1-.464.869-2.144h3.071l.869,2.144-1.159.464v.232H326.6v-.232l-.869-.464Zm-2.434,5.1,1.275-3.013,1.217,3.013Z" transform="translate(-130.751 -41.972)" fill="#fff"/>
      <path id="Path_1599" data-name="Path 1599" d="M352.634,11.967a6.663,6.663,0,0,0,.927-2.723,4.462,4.462,0,0,0-.579-2.839,3.361,3.361,0,0,0-2.434-1.622,2.318,2.318,0,0,0-1.507.29A1.68,1.68,0,0,0,348.23,6.4a.232.232,0,0,0,.232.232h.29a1.159,1.159,0,0,1,.579-.869,1.738,1.738,0,0,1,1.1-.174,2.723,2.723,0,0,1,1.912,1.391,3.882,3.882,0,0,1,.406,2.376,5.794,5.794,0,0,1-.869,2.376,6.026,6.026,0,0,1-1.8,1.8l-.753.464.174-.579a6.084,6.084,0,0,0-1.738-5.563,5.157,5.157,0,0,0-2.723-1.507,5.215,5.215,0,0,0-3.129.579l-.348.232-.348.232-.637.579a4,4,0,0,0-.232,4.867l.29.348.116.116.174.174.7.521a3.3,3.3,0,0,0,1.68.406,3.245,3.245,0,0,0,2.723-1.564,2.607,2.607,0,0,0,.348-1.564,2.55,2.55,0,0,0-.637-1.449,2.086,2.086,0,0,0-2.9-.232h-.058a.267.267,0,0,0,.348.406,1.507,1.507,0,0,1,2.144.174,1.97,1.97,0,0,1,.174,2.26l-.406.464-.521.348a2.376,2.376,0,0,1-1.159.232,2.434,2.434,0,0,1-1.1-.406l-.464-.348-.232-.29-.174-.232a3.187,3.187,0,0,1-.348-2.318,3.013,3.013,0,0,1,.522-1.1l.406-.464.521-.348a3.882,3.882,0,0,1,2.376-.579,3.824,3.824,0,0,1,2.26.985,4.983,4.983,0,0,1,1.449,4.751A4.81,4.81,0,0,1,348,14.516l-.232.116a11.821,11.821,0,0,1-5.1.579,27.872,27.872,0,0,1-5.157-.985l-2.55-.811-1.622-.521-.29-.116a5.156,5.156,0,0,0,.174-1.912,3.824,3.824,0,0,0-1.507-2.607,3.94,3.94,0,0,0-1.391-.637,3.071,3.071,0,0,0-1.565,0,.239.239,0,1,0,.116.464,2.492,2.492,0,0,1,1.275.058,3.361,3.361,0,0,1,1.159.637,3.129,3.129,0,0,1,1.159,2.2A4.636,4.636,0,0,1,332.3,12.6l-1.159-.348c-2.955-.927-6.026-1.912-9.213-2.665a20.57,20.57,0,0,0-5.563-.521,10.314,10.314,0,0,0-2.781.522,5.5,5.5,0,0,0-2.434,1.622l-.406.521h-.406a8.924,8.924,0,0,0-2.839.232,7.127,7.127,0,0,0-2.607,1.275,6.78,6.78,0,0,0-1.854,2.2,5.389,5.389,0,0,0-.637,2.781,3.94,3.94,0,0,0,.348,1.449,2.955,2.955,0,0,0,.927,1.159h.174l.174-.116a.232.232,0,0,0-.058-.348,2.9,2.9,0,0,1-.927-2.2,4.635,4.635,0,0,1,.637-2.376,6.026,6.026,0,0,1,4-2.9,8,8,0,0,1,2.55-.116,4.287,4.287,0,0,0-.174,1.159,5.215,5.215,0,0,0,.753,2.9l.522.637.579.464a4.056,4.056,0,0,0,1.449.637,2.9,2.9,0,0,0,1.68-.174,2.434,2.434,0,0,0,1.275-1.275,2.55,2.55,0,0,0,.058-1.8,3.941,3.941,0,0,0-.811-1.391,6.2,6.2,0,0,0-2.492-1.68l-1.333-.406h.058a4.52,4.52,0,0,1,2.028-1.275,8.576,8.576,0,0,1,2.492-.406,19.469,19.469,0,0,1,5.215.7c1.449.348,2.9.869,4.288,1.275l5.794,1.912-.406.753-.7.927-1.507-.348a27.7,27.7,0,0,0-5.736-.753,12.4,12.4,0,0,0-2.9.348l-1.391.522a4.114,4.114,0,0,0-1.275.869,3.186,3.186,0,0,0-.464.7,2.434,2.434,0,0,0-.232.869,2.839,2.839,0,0,0,.058.869,2.549,2.549,0,0,0,.406.869,3.245,3.245,0,0,0,1.449,1.1l.811.232.811.116h.637a12.748,12.748,0,0,0,5.215-1.275,16.978,16.978,0,0,0,2.55-1.449l1.159-.927.406-.348.985.29,1.333.406.521.174.811.29a18.658,18.658,0,0,0,5.794.869,13.965,13.965,0,0,0,5.737-1.275,7.648,7.648,0,0,0,2.434-1.8l.579-.811a12,12,0,0,0,1.854-1.1,6.838,6.838,0,0,0,1.97-2.086M328.3,17.472a14.023,14.023,0,0,1-2.434,1.159,14.893,14.893,0,0,1-2.607.7,10.778,10.778,0,0,1-2.665.174l-.637-.116-.579-.116a2.549,2.549,0,0,1-.985-.521,1.391,1.391,0,0,1-.464-.927,1.333,1.333,0,0,1,.406-.985,4.114,4.114,0,0,1,2.26-1.1,10.082,10.082,0,0,1,2.028-.174h.7a26.713,26.713,0,0,1,5.447.985l.579.174-1.043.7m3.65-2.318.464-.927h.058c1.449.464,3.013.985,4.578,1.391l2.723.579a21.382,21.382,0,0,0,2.781.29,14.2,14.2,0,0,0,3.94-.406l-1.333.753a12.806,12.806,0,0,1-5.273.927,19.064,19.064,0,0,1-5.331-.927l-.753-.232-.579-.174-1.391-.406-.348-.116.464-.7m-19.353-1.8,1.1.579.464.348.406.406a2.724,2.724,0,0,1,.522.927,1.217,1.217,0,0,1,0,.869,1.1,1.1,0,0,1-.579.579,1.8,1.8,0,0,1-.985.116,3.36,3.36,0,0,1-1.043-.348l-.521-.29-.406-.406a3.476,3.476,0,0,1-.7-2.26,3.3,3.3,0,0,1,.232-1.043l1.507.464" transform="translate(-127.173 -2)" fill="#fff"/>
      <path id="Path_1600" data-name="Path 1600" d="M42.586,18.258l.811-.29.521-.174,1.333-.406.985-.29.406.348,1.159.927a16.861,16.861,0,0,0,2.55,1.449A12.748,12.748,0,0,0,55.565,21.1H56.2l.811-.116.811-.232a3.245,3.245,0,0,0,1.449-1.1,2.55,2.55,0,0,0,.406-.869,2.9,2.9,0,0,0,.058-.869,2.434,2.434,0,0,0-.232-.869,3.013,3.013,0,0,0-.464-.7,4.056,4.056,0,0,0-1.333-.927L56.319,14.9a12.458,12.458,0,0,0-2.9-.348h-.116a27.349,27.349,0,0,0-5.621.753l-1.507.348-.7-.927-.406-.753,5.794-1.912c1.391-.464,2.839-.927,4.288-1.275a19.7,19.7,0,0,1,5.215-.7,8.576,8.576,0,0,1,2.492.406,4.52,4.52,0,0,1,2.028,1.333h.058l-1.333.406a6.2,6.2,0,0,0-2.492,1.68,3.94,3.94,0,0,0-.811,1.391,2.55,2.55,0,0,0,.058,1.8,2.434,2.434,0,0,0,1.275,1.275,2.9,2.9,0,0,0,1.68.174,4,4,0,0,0,1.449-.637l.579-.464.521-.637a5.215,5.215,0,0,0,.753-2.839,4.288,4.288,0,0,0-.174-1.159,8,8,0,0,1,2.55.116,6.026,6.026,0,0,1,4,2.9,4.636,4.636,0,0,1,.637,2.376,2.9,2.9,0,0,1-.927,2.2.232.232,0,0,0-.058.174v.058h.058l.174.116h.174a2.955,2.955,0,0,0,.927-1.159,3.94,3.94,0,0,0,.348-1.449,5.389,5.389,0,0,0-.637-2.781,6.779,6.779,0,0,0-1.854-2.2,7.127,7.127,0,0,0-2.607-1.275,8.923,8.923,0,0,0-2.839-.232H66l-.406-.521a5.5,5.5,0,0,0-2.434-1.622,10.314,10.314,0,0,0-2.781-.522,20.628,20.628,0,0,0-5.563.579c-3.129.753-6.2,1.738-9.155,2.665L44.5,12.58a4.635,4.635,0,0,1-.174-1.622,3.129,3.129,0,0,1,1.159-2.2,3.361,3.361,0,0,1,1.159-.637,2.492,2.492,0,0,1,1.275-.058.239.239,0,1,0,.116-.464,3.071,3.071,0,0,0-1.507,0,3.94,3.94,0,0,0-1.391.637,3.824,3.824,0,0,0-1.507,2.607,5.157,5.157,0,0,0,.174,1.912h-.29l-1.68.521-2.608.985a27.871,27.871,0,0,1-5.157.985,11.821,11.821,0,0,1-5.1-.579l-.232-.116a4.809,4.809,0,0,1-.579-1.391,4.983,4.983,0,0,1,1.449-4.751A3.882,3.882,0,0,1,34.3,8l.521.348.406.464a2.955,2.955,0,0,1,.521,1.1,3.187,3.187,0,0,1-.348,2.318l-.174.29-.174.232-.464.406a2.434,2.434,0,0,1-1.1.406,2.376,2.376,0,0,1-1.159-.232l-.521-.348-.406-.464a1.97,1.97,0,0,1,.174-2.26,1.546,1.546,0,0,1,2.144-.174.267.267,0,1,0,.348-.406h0a2.086,2.086,0,0,0-2.9.174,2.456,2.456,0,0,0-.406,3.071,3.245,3.245,0,0,0,2.723,1.564,3.3,3.3,0,0,0,1.68-.406l.753-.521.116-.116.116-.116.29-.348a4,4,0,0,0-.232-4.867l-.637-.579-.348-.29-.348-.232a5.215,5.215,0,0,0-3.071-.579,5.157,5.157,0,0,0-2.781,1.275,6.084,6.084,0,0,0-1.738,5.563l.174.579-.753-.464a5.968,5.968,0,0,1-1.8-1.8,5.794,5.794,0,0,1-.869-2.376,3.882,3.882,0,0,1,.406-2.376,2.723,2.723,0,0,1,1.912-1.391,1.738,1.738,0,0,1,1.1.174,1.159,1.159,0,0,1,.579.869l.116.174h.348a1.68,1.68,0,0,0-.811-1.333,2.318,2.318,0,0,0-1.507-.348,3.361,3.361,0,0,0-2.434,1.622,4.52,4.52,0,0,0-.579,2.839,6.664,6.664,0,0,0,.927,2.723,6.837,6.837,0,0,0,1.97,2.086,12.11,12.11,0,0,0,1.854,1.1l.579.811a7.649,7.649,0,0,0,2.434,1.8,13.965,13.965,0,0,0,5.736,1.275,18.832,18.832,0,0,0,5.794-.869M44.846,16l-1.391.406-.579.174-.753.232a19.006,19.006,0,0,1-5.331.927,12.806,12.806,0,0,1-5.273-.927l-1.333-.753a14.139,14.139,0,0,0,3.94.406,21.439,21.439,0,0,0,2.781-.29l2.723-.579c1.564-.406,3.071-.927,4.52-1.391h.058l.521.927.464.7-.348.116m8.518-.348a11.067,11.067,0,0,1,2.723.174,4.114,4.114,0,0,1,2.26,1.1,1.333,1.333,0,0,1,.406.985,1.449,1.449,0,0,1-.464.927,2.607,2.607,0,0,1-.985.521l-.579.116-.637.116a10.72,10.72,0,0,1-2.665-.174,14.95,14.95,0,0,1-2.607-.7,13.965,13.965,0,0,1-2.434-1.159l-1.043-.7.579-.174a26.655,26.655,0,0,1,5.447-.985m11.647.579-.348.406-.521.29a3.3,3.3,0,0,1-1.043.348,1.854,1.854,0,0,1-.985-.116,1.1,1.1,0,0,1-.579-.579,1.275,1.275,0,0,1,0-.869,2.723,2.723,0,0,1,.521-.927l.406-.406.464-.348,1.1-.579,1.507-.464a3.361,3.361,0,0,1,.232,1.043,3.477,3.477,0,0,1-.7,2.26" transform="translate(-9.731 -2.092)" fill="#fff"/>
      <path id="Path_1601" data-name="Path 1601" d="M181.724,136.981a4.752,4.752,0,0,1,2.434.811,3.361,3.361,0,0,1,1.333,2.144v.116h.232a.232.232,0,0,0,.174-.232,4,4,0,0,0-.406-1.449,4.114,4.114,0,0,0-.927-1.217,5.8,5.8,0,0,0-2.723-1.275,8.459,8.459,0,0,0-3.013-.058l-.753.116-.7.174-1.043.29h-.29l-2.723.811-.232.116-1.043.406-.464.174-.869.29a11.067,11.067,0,0,1-5.331.348h-.174l-.116.174a.232.232,0,0,0,.174.29,9.038,9.038,0,0,0,2.839.464,12.806,12.806,0,0,0,2.9-.29l4-1.043,3.593-.927.521-.116a9.5,9.5,0,0,1,2.608-.232" transform="translate(-69.428 -57.075)" fill="#fff"/>
      <path id="Path_1602" data-name="Path 1602" d="M233.67,138.7h0a11.125,11.125,0,0,1-5.331-.348l-.869-.29h-.058l-.348-.116-1.1-.406-.232-.116-2.723-.811-.348-.116-1.043-.29-.7-.174-.753-.116a8.46,8.46,0,0,0-3.013.058,5.852,5.852,0,0,0-2.723,1.275,4.114,4.114,0,0,0-.927,1.217,4,4,0,0,0-.406,1.449.232.232,0,0,0,.174.232h.058a.232.232,0,0,0,.232-.174,3.3,3.3,0,0,1,1.333-2.144,4.751,4.751,0,0,1,2.434-.811,9.676,9.676,0,0,1,2.607.232l.521.116,3.535.927,4.056,1.043a12.4,12.4,0,0,0,2.9.29,9.1,9.1,0,0,0,2.839-.464.232.232,0,0,0,.174-.29l-.116-.174h-.174" transform="translate(-89.621 -57.117)" fill="#fff"/>
    </g>
  </g>
</svg>
